<?xml version="1.0" encoding="UTF-8" standalone="no"?>
<!DOCTYPE svg PUBLIC "-//W3C//DTD SVG 1.1//EN" "http://www.w3.org/Graphics/SVG/1.1/DTD/svg11.dtd">
<svg width="100%" height="100%" viewBox="0 0 768 512" version="1.1" xmlns="http://www.w3.org/2000/svg" xmlns:xlink="http://www.w3.org/1999/xlink" xml:space="preserve" xmlns:serif="http://www.serif.com/" style="fill-rule:evenodd;clip-rule:evenodd;stroke-linejoin:round;stroke-miterlimit:2;">
    <rect id="img0" x="0" y="0" width="768" height="512" style="fill:none;"/>
    <g id="img01" serif:id="img0">
        <rect x="0" y="0" width="768" height="512" style="fill:#7a7a8d;"/>
        <path d="M351.33,341.545l-74.29,-0c-2.817,-0 -5.519,-1.023 -7.511,-2.845c-1.992,-1.821 -3.112,-4.29 -3.112,-6.866l0,-140.104l235.166,0c-0,0 -0,106.451 -0,140.104c-0,2.576 -1.12,5.045 -3.112,6.866c-1.992,1.822 -4.694,2.845 -7.511,2.845l-74.29,-0l43.802,30.907c5.002,3.53 6.198,10.456 2.668,15.459c-3.53,5.002 -10.456,6.198 -15.459,2.668l-52.588,-37.108l-0,28.044c-0,6.123 -4.971,11.093 -11.093,11.093c-6.122,0 -11.093,-4.97 -11.093,-11.093l0,-28.044l-52.588,37.108c-5.003,3.53 -11.929,2.334 -15.459,-2.668c-3.53,-5.003 -2.334,-11.929 2.668,-15.459l43.802,-30.907Zm10.443,-73.719c2.312,-1.975 2.992,-5.267 1.65,-7.997c-0.769,-1.439 -1.585,-2.852 -2.483,-4.213c-1.682,-2.51 -4.852,-3.561 -7.7,-2.553c-3.399,1.158 -7.441,2.589 -7.441,2.589c-4.271,-3.61 -9.482,-5.93 -15.023,-6.689c0,0 -1.64,-3.961 -3.015,-7.278c-1.163,-2.81 -4.084,-4.474 -7.095,-4.041c-1.606,0.287 -3.203,0.626 -4.775,1.06c-2.907,0.823 -4.886,3.513 -4.807,6.534c0.051,3.591 0.163,7.876 0.163,7.876c-4.753,2.947 -8.57,7.186 -11.004,12.221c0,0 -4.274,0.337 -7.853,0.618c-3.033,0.239 -5.517,2.503 -6.036,5.5c-0.224,1.616 -0.395,3.239 -0.468,4.868c-0.115,3.02 1.832,5.733 4.729,6.591c3.431,1.062 7.541,2.28 7.541,2.28c1.334,5.431 4.186,10.37 8.223,14.241c-0,-0 -1.001,4.169 -1.839,7.66c-0.711,2.958 0.675,6.021 3.365,7.44c1.468,0.713 2.959,1.376 4.485,1.95c2.837,1.042 6.019,0.029 7.73,-2.461c2.07,-2.935 4.498,-6.468 4.498,-6.468c5.578,0.409 11.157,-0.776 16.085,-3.419c0,-0 3.656,2.24 6.718,4.116c2.593,1.589 5.934,1.218 8.115,-0.901c1.131,-1.176 2.223,-2.389 3.24,-3.664c1.868,-2.375 1.888,-5.715 0.048,-8.112c-2.151,-2.875 -4.761,-6.277 -4.761,-6.277c2.113,-5.178 2.71,-10.85 1.719,-16.354c0,-0 3.26,-2.784 5.991,-5.117Zm109.463,-25.382c2.059,-1.989 2.615,-5.072 1.381,-7.655c-1.185,-2.378 -2.515,-4.682 -4.002,-6.882c-1.614,-2.352 -4.551,-3.408 -7.293,-2.622c-4.084,1.143 -9.52,2.7 -9.52,2.7c-4.965,-4.711 -10.974,-8.18 -17.537,-10.124c0,-0 -1.369,-5.486 -2.396,-9.602c-0.694,-2.777 -3.086,-4.801 -5.94,-5.023c-2.652,-0.163 -5.311,-0.163 -7.961,0.025c-2.843,0.222 -5.226,2.237 -5.917,5.004c-1.052,4.11 -2.421,9.596 -2.421,9.596c-6.563,1.944 -12.572,5.413 -17.537,10.124c0,0 -5.436,-1.557 -9.513,-2.725c-2.752,-0.788 -5.7,0.272 -7.321,2.632c-1.466,2.215 -2.796,4.519 -3.958,6.907c-1.23,2.574 -0.676,5.645 1.375,7.627c3.033,2.965 7.1,6.895 7.1,6.895c-1.598,6.655 -1.598,13.594 -0,20.249c-0,-0 -4.067,3.929 -7.117,6.876c-2.059,1.989 -2.615,5.072 -1.381,7.656c1.185,2.377 2.515,4.681 4.002,6.882c1.614,2.351 4.551,3.407 7.293,2.622c4.084,-1.144 9.52,-2.701 9.52,-2.701c4.965,4.711 10.974,8.18 17.537,10.124c-0,0 1.369,5.487 2.397,9.602c0.693,2.778 3.085,4.801 5.939,5.024c2.652,0.162 5.311,0.162 7.961,-0.026c2.844,-0.222 5.226,-2.237 5.917,-5.004c1.052,-4.109 2.421,-9.596 2.421,-9.596c6.563,-1.944 12.572,-5.413 17.537,-10.124c-0,-0 5.436,1.557 9.513,2.725c2.752,0.788 5.7,-0.272 7.321,-2.632c1.466,-2.215 2.796,-4.519 3.958,-6.907c1.23,-2.574 0.676,-5.645 -1.375,-7.627c-3.033,-2.965 -7.1,-6.894 -7.1,-6.894c1.598,-6.655 1.598,-13.594 0,-20.249c0,-0 4.067,-3.93 7.117,-6.877Zm-135.243,30.397c2.937,5.086 1.192,11.601 -3.895,14.537c-5.087,2.937 -11.601,1.192 -14.538,-3.895c-2.937,-5.087 -1.191,-11.601 3.896,-14.538c5.086,-2.937 11.6,-1.191 14.537,3.896Zm98.637,-20.718c4.041,7 1.639,15.963 -5.36,20.005c-7,4.041 -15.964,1.639 -20.005,-5.361c-4.041,-6.999 -1.639,-15.963 5.36,-20.004c7,-4.042 15.964,-1.64 20.005,5.36Zm-61.723,-98.47l0,-33.168c0,-6.123 4.971,-11.093 11.093,-11.093c6.122,-0 11.093,4.97 11.093,11.093l-0,33.168l106.49,0c6.122,0 11.092,4.971 11.092,11.093c0,6.122 -4.97,11.092 -11.092,11.092l-235.166,0c-6.122,0 -11.092,-4.97 -11.092,-11.092c-0,-6.122 4.97,-11.093 11.092,-11.093l106.49,0Z" style="fill:#fff;"/>
    </g>
</svg>
