<svg clip-rule="evenodd" fill-rule="evenodd" stroke-linejoin="round" stroke-miterlimit="2" viewBox="0 0 768 512" xmlns="http://www.w3.org/2000/svg"><path d="m0 0h768v512h-768z" fill="none"/><path d="m0 0h768v512h-768z" fill="#7a7a8d"/><path d="m351.33 341.545h-74.29c-2.817 0-5.519-1.023-7.511-2.845-1.992-1.821-3.112-4.29-3.112-6.866v-140.104h235.166v140.104c0 2.576-1.12 5.045-3.112 6.866-1.992 1.822-4.694 2.845-7.511 2.845h-74.29l43.802 30.907c5.002 3.53 6.198 10.456 2.668 15.459-3.53 5.002-10.456 6.198-15.459 2.668l-52.588-37.108v28.044c0 6.123-4.971 11.093-11.093 11.093s-11.093-4.97-11.093-11.093v-28.044l-52.588 37.108c-5.003 3.53-11.929 2.334-15.459-2.668-3.53-5.003-2.334-11.929 2.668-15.459zm10.443-73.719c2.312-1.975 2.992-5.267 1.65-7.997-.769-1.439-1.585-2.852-2.483-4.213-1.682-2.51-4.852-3.561-7.7-2.553-3.399 1.158-7.441 2.589-7.441 2.589-4.271-3.61-9.482-5.93-15.023-6.689 0 0-1.64-3.961-3.015-7.278-1.163-2.81-4.084-4.474-7.095-4.041-1.606.287-3.203.626-4.775 1.06-2.907.823-4.886 3.513-4.807 6.534.051 3.591.163 7.876.163 7.876-4.753 2.947-8.57 7.186-11.004 12.221 0 0-4.274.337-7.853.618-3.033.239-5.517 2.503-6.036 5.5-.224 1.616-.395 3.239-.468 4.868-.115 3.02 1.832 5.733 4.729 6.591 3.431 1.062 7.541 2.28 7.541 2.28 1.334 5.431 4.186 10.37 8.223 14.241 0 0-1.001 4.169-1.839 7.66-.711 2.958.675 6.021 3.365 7.44 1.468.713 2.959 1.376 4.485 1.95 2.837 1.042 6.019.029 7.73-2.461 2.07-2.935 4.498-6.468 4.498-6.468 5.578.409 11.157-.776 16.085-3.419 0 0 3.656 2.24 6.718 4.116 2.593 1.589 5.934 1.218 8.115-.901 1.131-1.176 2.223-2.389 3.24-3.664 1.868-2.375 1.888-5.715.048-8.112-2.151-2.875-4.761-6.277-4.761-6.277 2.113-5.178 2.71-10.85 1.719-16.354 0 0 3.26-2.784 5.991-5.117zm109.463-25.382c2.059-1.989 2.615-5.072 1.381-7.655-1.185-2.378-2.515-4.682-4.002-6.882-1.614-2.352-4.551-3.408-7.293-2.622-4.084 1.143-9.52 2.7-9.52 2.7-4.965-4.711-10.974-8.18-17.537-10.124 0 0-1.369-5.486-2.396-9.602-.694-2.777-3.086-4.801-5.94-5.023-2.652-.163-5.311-.163-7.961.025-2.843.222-5.226 2.237-5.917 5.004-1.052 4.11-2.421 9.596-2.421 9.596-6.563 1.944-12.572 5.413-17.537 10.124 0 0-5.436-1.557-9.513-2.725-2.752-.788-5.7.272-7.321 2.632-1.466 2.215-2.796 4.519-3.958 6.907-1.23 2.574-.676 5.645 1.375 7.627 3.033 2.965 7.1 6.895 7.1 6.895-1.598 6.655-1.598 13.594 0 20.249 0 0-4.067 3.929-7.117 6.876-2.059 1.989-2.615 5.072-1.381 7.656 1.185 2.377 2.515 4.681 4.002 6.882 1.614 2.351 4.551 3.407 7.293 2.622 4.084-1.144 9.52-2.701 9.52-2.701 4.965 4.711 10.974 8.18 17.537 10.124 0 0 1.369 5.487 2.397 9.602.693 2.778 3.085 4.801 5.939 5.024 2.652.162 5.311.162 7.961-.026 2.844-.222 5.226-2.237 5.917-5.004 1.052-4.109 2.421-9.596 2.421-9.596 6.563-1.944 12.572-5.413 17.537-10.124 0 0 5.436 1.557 9.513 2.725 2.752.788 5.7-.272 7.321-2.632 1.466-2.215 2.796-4.519 3.958-6.907 1.23-2.574.676-5.645-1.375-7.627-3.033-2.965-7.1-6.894-7.1-6.894 1.598-6.655 1.598-13.594 0-20.249 0 0 4.067-3.93 7.117-6.877zm-135.243 30.397c2.937 5.086 1.192 11.601-3.895 14.537-5.087 2.937-11.601 1.192-14.538-3.895s-1.191-11.601 3.896-14.538c5.086-2.937 11.6-1.191 14.537 3.896zm98.637-20.718c4.041 7 1.639 15.963-5.36 20.005-7 4.041-15.964 1.639-20.005-5.361-4.041-6.999-1.639-15.963 5.36-20.004 7-4.042 15.964-1.64 20.005 5.36zm-61.723-98.47v-33.168c0-6.123 4.971-11.093 11.093-11.093s11.093 4.97 11.093 11.093v33.168h106.49c6.122 0 11.092 4.971 11.092 11.093s-4.97 11.092-11.092 11.092h-235.166c-6.122 0-11.092-4.97-11.092-11.092s4.97-11.093 11.092-11.093z" fill="#fff"/></svg>