<svg clip-rule="evenodd" fill-rule="evenodd" stroke-linejoin="round" stroke-miterlimit="2" viewBox="0 0 768 512" xmlns="http://www.w3.org/2000/svg"><path d="m0 0h768v512h-768z" fill="none"/><path d="m0 0h768v512h-768z"/><path d="m692.89 180.991c4.514-25.068-12.147-49.049-37.215-53.564-105.109-18.929-364.248-65.599-469.357-84.528-25.068-4.515-49.049 12.147-53.563 37.215-11.781 65.41-33.405 185.484-45.185 250.895-4.515 25.068 12.147 49.049 37.215 53.564 105.109 18.929 364.247 65.599 469.356 84.528 25.068 4.515 49.049-12.147 53.564-37.215 11.78-65.41 33.405-185.484 45.185-250.895z" fill="#fc003d"/><path d="m686.082 218.79-560.135-100.877-40.685 225.91 560.135 100.878z" fill="#fff"/><g fill-rule="nonzero"><path d="m130.838 255.217 9.911-55.032 18.79 3.384c6.447 1.161 11.548 3.257 15.304 6.287s6.273 6.784 7.55 11.262 1.415 9.494.414 15.05c-1 5.556-2.88 10.209-5.639 13.96s-6.427 6.391-11.004 7.921c-4.577 1.529-10.089 1.713-16.536.552zm11.621-6.835 8.255 1.486c4.612.831 8.389.74 11.331-.272s5.242-2.817 6.9-5.413c1.658-2.597 2.846-5.886 3.563-9.87.708-3.931.741-7.415.097-10.453-.643-3.038-2.164-5.557-4.564-7.559-2.399-2.001-5.905-3.417-10.517-4.248l-8.255-1.486z"/><path d="m205.277 269.597c-3.931-.707-7.265-2.174-10.003-4.398-2.738-2.225-4.698-5.013-5.88-8.364-1.182-3.352-1.415-7.019-.697-11.002.726-4.036 2.225-7.473 4.494-10.311 2.27-2.838 5.07-4.863 8.4-6.076s7.039-1.452 11.127-.716c3.826.689 7.055 2.137 9.689 4.343 2.633 2.205 4.513 4.911 5.64 8.118 1.127 3.206 1.369 6.591.728 10.155-.104.576-.226 1.177-.365 1.801-.14.624-.297 1.272-.472 1.944l-29.639-5.338c-.338 3.078.294 5.654 1.895 7.728 1.602 2.074 3.765 3.357 6.491 3.847 2.044.369 3.843.219 5.397-.448s2.804-1.673 3.75-3.018l10.22 1.841c-1.177 2.331-2.8 4.352-4.866 6.063-2.067 1.711-4.449 2.919-7.146 3.624-2.698.705-5.619.774-8.763.207zm5.968-32.69c-2.463-.444-4.763-.141-6.9.908s-3.722 2.941-4.756 5.677l19.418 3.497c.306-2.596-.27-4.81-1.726-6.641-1.455-1.832-3.467-2.979-6.036-3.441z"/><path d="m249.46 277.555c-3.459-.623-6.398-1.734-8.815-3.333-2.418-1.599-4.234-3.536-5.447-5.811-1.214-2.274-1.742-4.75-1.585-7.428l10.142 1.827c.041 1.576.659 3.027 1.854 4.352 1.196 1.324 2.894 2.185 5.095 2.581 2.202.397 3.894.241 5.076-.466 1.183-.707 1.878-1.637 2.085-2.79.302-1.677-.226-2.949-1.585-3.816s-3.297-1.825-5.814-2.873c-1.611-.669-3.234-1.421-4.869-2.257s-3.1-1.789-4.395-2.861-2.273-2.331-2.933-3.775c-.659-1.445-.819-3.11-.479-4.997.622-3.459 2.522-6.12 5.699-7.983 3.176-1.863 7.254-2.347 12.233-1.45 4.612.831 8.101 2.568 10.465 5.213 2.365 2.644 3.469 5.9 3.314 9.768l-9.513-1.713c-.057-2.986-1.973-4.819-5.747-5.499-1.886-.34-3.407-.235-4.561.315s-1.83 1.375-2.029 2.476c-.207 1.153.388 2.207 1.785 3.162s3.302 1.947 5.714 2.977c2.612 1.12 4.989 2.265 7.132 3.435 2.143 1.171 3.762 2.626 4.855 4.365 1.094 1.739 1.391 3.998.891 6.775-.382 2.421-1.403 4.483-3.062 6.186-1.66 1.703-3.821 2.883-6.482 3.54-2.662.657-5.67.684-9.024.08z"/><path d="m288.325 237.071c-1.834-.33-3.242-1.152-4.223-2.465s-1.321-2.808-1.019-4.485c.302-1.678 1.14-2.947 2.513-3.809 1.372-.862 2.976-1.128 4.81-.798 1.835.33 3.245 1.139 4.231 2.426.985 1.287 1.327 2.769 1.025 4.446s-1.142 2.96-2.519 3.848c-1.378.888-2.983 1.167-4.818.837zm-13.144 44.142 7.022-38.995 10.063 1.813-7.022 38.994z"/><path d="m313.485 306.942c-3.302-.595-6.374-1.716-9.216-3.364-2.841-1.648-5.103-3.814-6.784-6.498s-2.401-5.898-2.16-9.642l9.985 1.798c.075 2.287.985 4.222 2.728 5.808 1.744 1.586 4.005 2.629 6.782 3.129 2.988.538 5.737.073 8.247-1.396s4.114-4.143 4.813-8.021l.878-4.875c-1.493 1.679-3.478 3.013-5.956 4.001-2.478.987-5.394 1.179-8.748.575-3.721-.67-6.889-2.16-9.503-4.471s-4.515-5.128-5.702-8.454c-1.186-3.325-1.435-6.9-.746-10.727.689-3.826 2.17-7.09 4.442-9.792s5.047-4.664 8.325-5.887c3.277-1.222 6.75-1.503 10.419-.843 2.988.538 5.523 1.631 7.608 3.278 2.084 1.647 3.642 3.51 4.675 5.59l2.013-5.319 9.041 1.628-6.584 36.558c-.812 4.507-2.437 8.124-4.876 10.85s-5.386 4.59-8.84 5.592c-3.454 1.001-7.068 1.162-10.841.482zm4.185-26.843c2.201.396 4.243.25 6.126-.439 1.882-.689 3.464-1.811 4.745-3.366 1.282-1.555 2.111-3.381 2.488-5.477.595-3.302.035-6.203-1.679-8.704-1.714-2.5-4.248-4.052-7.603-4.656-3.354-.604-6.271-.034-8.749 1.711-2.479 1.745-4.011 4.243-4.596 7.492-.387 2.149-.265 4.173.367 6.073.632 1.899 1.71 3.5 3.234 4.803s3.413 2.157 5.667 2.563z"/><path d="m347.902 294.31 7.023-38.995 8.884 1.6-.403 6.746c1.62-2.09 3.693-3.61 6.219-4.562 2.525-.952 5.334-1.15 8.426-.593 4.822.868 8.296 3.063 10.421 6.585 2.126 3.521 2.66 8.217 1.603 14.087l-3.965 22.013-10.063-1.813 3.795-21.069c.604-3.355.385-6.045-.657-8.073-1.041-2.027-3.004-3.301-5.886-3.82-2.831-.509-5.329.069-7.496 1.735s-3.571 4.281-4.213 7.845l-3.625 20.126z"/><path d="m432.168 310.459c-3.669-.66-6.784-2.141-9.346-4.443-2.562-2.301-4.403-5.148-5.523-8.543-1.12-3.394-1.326-7.057-.619-10.988.708-3.931 2.177-7.278 4.406-10.042 2.23-2.764 4.944-4.764 8.143-6.001s6.632-1.525 10.301-.864c2.935.529 5.404 1.542 7.407 3.039 2.004 1.497 3.507 3.364 4.511 5.601l1.513-5.247 9.513 1.713-7.023 38.995-9.434-1.699.376-5.696c-1.569 1.503-3.507 2.724-5.813 3.661-2.306.938-5.11 1.109-8.412.514zm3.708-8.423c3.25.586 6.106-.023 8.568-1.825s3.999-4.407 4.613-7.814c.613-3.406.081-6.384-1.598-8.932-1.678-2.548-4.142-4.114-7.392-4.699-3.197-.576-6.037.022-8.521 1.793-2.483 1.771-4.032 4.36-4.645 7.767-.614 3.407-.071 6.4 1.629 8.978 1.701 2.579 4.149 4.157 7.346 4.732z"/><path d="m482.496 318.549c-4.088-.736-7.185-2.322-9.289-4.757-2.105-2.435-2.7-6.195-1.784-11.279l3.058-16.981-6.682-1.204 1.515-8.412 6.682 1.203 3.063-10.243 8.883 1.6-1.883 10.456 10.535 1.897-1.515 8.412-10.535-1.897-3.072 17.06c-.34 1.887-.167 3.257.518 4.111s2.023 1.46 4.015 1.819l4.874.878-1.543 8.569z"/><path d="m538.223 329.559c-4.036-.726-7.534-2.182-10.496-4.366-2.961-2.183-5.106-5.072-6.434-8.666s-1.543-7.881-.647-12.86l6.117-33.963 10.063 1.812-6.131 34.042c-.774 4.298-.314 7.681 1.378 10.15 1.693 2.47 4.374 4.035 8.043 4.696 3.616.651 6.661.117 9.135-1.602s4.098-4.727 4.872-9.025l6.131-34.041 10.063 1.812-6.116 33.963c-.897 4.979-2.634 8.914-5.211 11.805s-5.673 4.836-9.289 5.835-7.442 1.135-11.478.408z"/><path d="m595.457 339.867c-5.556-1.001-10.11-3.052-13.664-6.154s-6.021-6.983-7.4-11.641c-1.38-4.659-1.565-9.792-.555-15.4s2.977-10.368 5.9-14.278c2.922-3.911 6.593-6.713 11.01-8.407 4.418-1.693 9.404-2.04 14.96-1.039 6.604 1.189 11.72 3.801 15.35 7.837 3.629 4.036 5.434 9.109 5.416 15.22l-11.085-1.996c-.144-3.11-1.176-5.718-3.096-7.822-1.921-2.105-4.716-3.487-8.385-4.148-5.084-.916-9.379.097-12.884 3.037-3.506 2.94-5.801 7.423-6.887 13.451-1.085 6.027-.496 11.017 1.768 14.969 2.265 3.952 5.939 6.386 11.023 7.301 3.669.661 6.761.393 9.276-.804 2.516-1.198 4.369-3.15 5.56-5.858l11.085 1.996c-2.068 5.472-5.499 9.427-10.294 11.864s-10.494 3.061-17.098 1.872z"/><path d="m628.646 344.87 9.911-55.032 10.063 1.812-9.911 55.032z"/><path d="m319.233 121.03 7.755-43.064 7.875 1.419-3.224 17.902 19.317 3.479 3.224-17.902 7.875 1.418-7.756 43.063-7.874-1.418 3.379-18.763-19.317-3.479-3.38 18.763z" fill="#fff"/><path d="m362.666 128.852 7.755-43.064 28.115 5.064-1.141 6.336-20.24-3.645-2.128 11.812 18.395 3.313-1.108 6.152-18.395-3.313-2.238 12.427 20.24 3.645-1.141 6.336z" fill="#fff"/><path d="m398.224 135.256 7.756-43.064 7.874 1.418-6.648 36.912 19.072 3.435-1.108 6.152z" fill="#fff"/><path d="m432.121 141.361 7.756-43.064 7.874 1.418-6.647 36.912 19.071 3.435-1.108 6.151z" fill="#fff"/><path d="m482.188 151.14c-4.306-.776-7.899-2.397-10.779-4.863-2.88-2.467-4.931-5.536-6.154-9.207s-1.44-7.701-.649-12.089c.79-4.389 2.399-8.09 4.826-11.104s5.42-5.174 8.979-6.481c3.56-1.306 7.492-1.572 11.799-.796 4.265.768 7.848 2.387 10.748 4.857s4.952 5.539 6.154 9.206c1.203 3.668 1.409 7.696.619 12.084-.79 4.389-2.389 8.092-4.795 11.109-2.407 3.018-5.4 5.178-8.98 6.481s-7.502 1.571-11.768.803zm1.274-7.075c4.102.739 7.616-.026 10.544-2.293 2.928-2.268 4.816-5.759 5.666-10.476.849-4.716.298-8.648-1.655-11.794-1.953-3.147-4.98-5.089-9.081-5.828-4.102-.738-7.626.024-10.575 2.288-2.948 2.264-4.847 5.754-5.696 10.47-.85 4.717-.288 8.65 1.686 11.8 1.973 3.15 5.01 5.094 9.111 5.833z" fill="#fff"/><path d="m342.023 149.159c-1.656-.299-3.037-.922-4.144-1.87s-1.896-2.128-2.366-3.54c-.471-1.411-.554-2.961-.25-4.648s.922-3.11 1.856-4.269c.933-1.159 2.083-1.989 3.452-2.492 1.368-.502 2.881-.604 4.536-.306 1.64.295 3.018.918 4.133 1.867 1.115.95 1.904 2.13 2.366 3.54s.542 2.959.238 4.646-.919 3.111-1.844 4.271-2.076 1.991-3.452 2.492c-1.377.501-2.885.604-4.525.309zm.49-2.721c1.577.284 2.928-.009 4.054-.881 1.125-.872 1.852-2.215 2.178-4.028.327-1.813.115-3.325-.636-4.535-.751-1.209-1.915-1.956-3.492-2.24s-2.932.009-4.065.879c-1.134.871-1.864 2.213-2.19 4.026-.327 1.813-.111 3.326.648 4.537.758 1.211 1.926 1.958 3.503 2.242z" fill="#fff"/><path d="m359.361 152.281c-1.214-.219-2.267-.657-3.158-1.314s-1.536-1.526-1.936-2.607c-.399-1.081-.464-2.371-.194-3.869l1.84-10.218 3.027.545-1.844 10.242c-.233 1.293-.095 2.311.414 3.054.51.743 1.316 1.214 2.42 1.412 1.088.196 2.004.036 2.749-.481.744-.518 1.233-1.423 1.465-2.716l1.845-10.241 3.027.545-1.84 10.218c-.27 1.498-.792 2.682-1.567 3.551-.776.87-1.707 1.455-2.795 1.756s-2.239.342-3.453.123z" fill="#fff"/><path d="m369.133 153.748 2.982-16.557 6.079 1.095c1.324.238 2.376.659 3.154 1.264.779.604 1.312 1.327 1.6 2.168.288.842.348 1.727.181 2.658-.182 1.009-.612 1.884-1.291 2.624-.679.741-1.612 1.2-2.8 1.377l2.182 7.548-3.477-.627-1.899-7.082-2.508-.451-1.175 6.528zm4.604-8.206 2.862.515c1.009.182 1.794.071 2.355-.333.561-.403.914-1.007 1.059-1.812.142-.788.023-1.461-.357-2.018-.38-.556-1.09-.928-2.131-1.116l-2.838-.511z" fill="#fff"/><path d="m389.498 157.415 2.982-16.557 3.028.546 5.681 13.062 2.1-11.661 3.028.545-2.982 16.557-3.027-.545-5.686-13.038-2.096 11.637z" fill="#fff"/><path d="m405.488 160.295 9.037-15.466 3.406.613 3.073 17.647-3.217-.579-.634-4.07-6.458-1.163-2.038 3.589zm6.461-5.234 4.802.864-1.173-7.317z" fill="#fff"/><path d="m423.133 163.473 2.981-16.557 3.596.647 3.383 11.452 7.095-9.565 3.595.648-2.982 16.557-3.027-.545 2.057-11.425-6.244 8.229-2.389-.431-2.98-9.889-2.058 11.424z" fill="#fff"/><path d="m444.018 167.234 2.982-16.557 10.809 1.947-.438 2.436-7.782-1.401-.818 4.541 7.072 1.274-.426 2.365-7.072-1.274-.861 4.778 7.782 1.402-.439 2.436z" fill="#fff"/><path d="m463.319 170.71 2.982-16.557 3.027.545-2.982 16.557z" fill="#fff"/><path d="m475.165 173.137c-1.214-.219-2.249-.621-3.104-1.206-.855-.586-1.48-1.317-1.876-2.194-.395-.877-.5-1.877-.314-2.999l3.193.575c-.108.778.055 1.479.488 2.102.433.624 1.115 1.019 2.045 1.187.804.144 1.478.066 2.02-.235.543-.301.873-.775.989-1.421.122-.678.008-1.244-.341-1.698-.35-.454-.85-.861-1.502-1.223-.651-.361-1.347-.747-2.087-1.157-1.198-.672-2.069-1.415-2.614-2.229-.545-.815-.714-1.797-.507-2.949.16-.98.544-1.778 1.151-2.393.608-.615 1.364-1.04 2.269-1.276.906-.236 1.902-.256 2.99-.06 1.104.199 2.042.571 2.815 1.117s1.335 1.218 1.689 2.014c.353.796.457 1.686.313 2.669l-3.241-.583c.089-.587-.042-1.144-.395-1.671-.353-.528-.915-.861-1.688-1-.659-.135-1.244-.074-1.755.184-.51.259-.824.711-.94 1.357-.1.552-.005 1.021.284 1.407.288.386.712.743 1.272 1.071.559.329 1.203.689 1.93 1.081.769.431 1.458.897 2.068 1.398.61.5 1.064 1.099 1.362 1.796.297.696.358 1.533.182 2.511-.156.867-.522 1.632-1.097 2.293-.575.662-1.336 1.139-2.284 1.433-.949.293-2.053.326-3.315.099z" fill="#fff"/></g><path d="m122.202 303.175 80.121-21.383c8.399-.039 16.469 3.26 22.436 9.171s9.341 13.951 9.381 22.35l.426 91.031z" fill="#fc003d"/><path d="m200.893 281.799.546 116.579-104.724-118.15z" fill="#01b7ff"/><path d="m96.715 280.228-22.343 104.69 160.194 19.426z"/></svg>