<?xml version="1.0" encoding="UTF-8" standalone="no"?>
<!DOCTYPE svg PUBLIC "-//W3C//DTD SVG 1.1//EN" "http://www.w3.org/Graphics/SVG/1.1/DTD/svg11.dtd">
<svg width="100%" height="100%" viewBox="0 0 768 512" version="1.1" xmlns="http://www.w3.org/2000/svg" xmlns:xlink="http://www.w3.org/1999/xlink" xml:space="preserve" xmlns:serif="http://www.serif.com/" style="fill-rule:evenodd;clip-rule:evenodd;stroke-linejoin:round;stroke-miterlimit:2;">
    <rect id="img6" x="0" y="0" width="768" height="512" style="fill:none;"/>
    <g id="img61" serif:id="img6">
        <rect x="0" y="0" width="768" height="512"/>
        <path d="M692.89,180.991c4.514,-25.068 -12.147,-49.049 -37.215,-53.564c-105.109,-18.929 -364.248,-65.599 -469.357,-84.528c-25.068,-4.515 -49.049,12.147 -53.563,37.215c-11.781,65.41 -33.405,185.484 -45.185,250.895c-4.515,25.068 12.147,49.049 37.215,53.564c105.109,18.929 364.247,65.599 469.356,84.528c25.068,4.515 49.049,-12.147 53.564,-37.215c11.78,-65.41 33.405,-185.484 45.185,-250.895Z" style="fill:#fc003d;"/>
        <path d="M686.082,218.79l-560.135,-100.877l-40.685,225.91l560.135,100.878l40.685,-225.911Z" style="fill:#fff;"/>
        <path d="M130.838,255.217l9.911,-55.032l18.79,3.384c6.447,1.161 11.548,3.257 15.304,6.287c3.756,3.03 6.273,6.784 7.55,11.262c1.277,4.478 1.415,9.494 0.414,15.05c-1,5.556 -2.88,10.209 -5.639,13.96c-2.759,3.751 -6.427,6.391 -11.004,7.921c-4.577,1.529 -10.089,1.713 -16.536,0.552l-18.79,-3.384Zm11.621,-6.835l8.255,1.486c4.612,0.831 8.389,0.74 11.331,-0.272c2.942,-1.012 5.242,-2.817 6.9,-5.413c1.658,-2.597 2.846,-5.886 3.563,-9.87c0.708,-3.931 0.741,-7.415 0.097,-10.453c-0.643,-3.038 -2.164,-5.557 -4.564,-7.559c-2.399,-2.001 -5.905,-3.417 -10.517,-4.248l-8.255,-1.486l-6.81,37.815Z" style="fill-rule:nonzero;"/>
        <path d="M205.277,269.597c-3.931,-0.707 -7.265,-2.174 -10.003,-4.398c-2.738,-2.225 -4.698,-5.013 -5.88,-8.364c-1.182,-3.352 -1.415,-7.019 -0.697,-11.002c0.726,-4.036 2.225,-7.473 4.494,-10.311c2.27,-2.838 5.07,-4.863 8.4,-6.076c3.33,-1.213 7.039,-1.452 11.127,-0.716c3.826,0.689 7.055,2.137 9.689,4.343c2.633,2.205 4.513,4.911 5.64,8.118c1.127,3.206 1.369,6.591 0.728,10.155c-0.104,0.576 -0.226,1.177 -0.365,1.801c-0.14,0.624 -0.297,1.272 -0.472,1.944l-29.639,-5.338c-0.338,3.078 0.294,5.654 1.895,7.728c1.602,2.074 3.765,3.357 6.491,3.847c2.044,0.369 3.843,0.219 5.397,-0.448c1.554,-0.667 2.804,-1.673 3.75,-3.018l10.22,1.841c-1.177,2.331 -2.8,4.352 -4.866,6.063c-2.067,1.711 -4.449,2.919 -7.146,3.624c-2.698,0.705 -5.619,0.774 -8.763,0.207Zm5.968,-32.69c-2.463,-0.444 -4.763,-0.141 -6.9,0.908c-2.137,1.049 -3.722,2.941 -4.756,5.677l19.418,3.497c0.306,-2.596 -0.27,-4.81 -1.726,-6.641c-1.455,-1.832 -3.467,-2.979 -6.036,-3.441Z" style="fill-rule:nonzero;"/>
        <path d="M249.46,277.555c-3.459,-0.623 -6.398,-1.734 -8.815,-3.333c-2.418,-1.599 -4.234,-3.536 -5.447,-5.811c-1.214,-2.274 -1.742,-4.75 -1.585,-7.428l10.142,1.827c0.041,1.576 0.659,3.027 1.854,4.352c1.196,1.324 2.894,2.185 5.095,2.581c2.202,0.397 3.894,0.241 5.076,-0.466c1.183,-0.707 1.878,-1.637 2.085,-2.79c0.302,-1.677 -0.226,-2.949 -1.585,-3.816c-1.359,-0.867 -3.297,-1.825 -5.814,-2.873c-1.611,-0.669 -3.234,-1.421 -4.869,-2.257c-1.635,-0.836 -3.1,-1.789 -4.395,-2.861c-1.295,-1.072 -2.273,-2.331 -2.933,-3.775c-0.659,-1.445 -0.819,-3.11 -0.479,-4.997c0.622,-3.459 2.522,-6.12 5.699,-7.983c3.176,-1.863 7.254,-2.347 12.233,-1.45c4.612,0.831 8.101,2.568 10.465,5.213c2.365,2.644 3.469,5.9 3.314,9.768l-9.513,-1.713c-0.057,-2.986 -1.973,-4.819 -5.747,-5.499c-1.886,-0.34 -3.407,-0.235 -4.561,0.315c-1.154,0.55 -1.83,1.375 -2.029,2.476c-0.207,1.153 0.388,2.207 1.785,3.162c1.397,0.955 3.302,1.947 5.714,2.977c2.612,1.12 4.989,2.265 7.132,3.435c2.143,1.171 3.762,2.626 4.855,4.365c1.094,1.739 1.391,3.998 0.891,6.775c-0.382,2.421 -1.403,4.483 -3.062,6.186c-1.66,1.703 -3.821,2.883 -6.482,3.54c-2.662,0.657 -5.67,0.684 -9.024,0.08Z" style="fill-rule:nonzero;"/>
        <path d="M288.325,237.071c-1.834,-0.33 -3.242,-1.152 -4.223,-2.465c-0.981,-1.313 -1.321,-2.808 -1.019,-4.485c0.302,-1.678 1.14,-2.947 2.513,-3.809c1.372,-0.862 2.976,-1.128 4.81,-0.798c1.835,0.33 3.245,1.139 4.231,2.426c0.985,1.287 1.327,2.769 1.025,4.446c-0.302,1.677 -1.142,2.96 -2.519,3.848c-1.378,0.888 -2.983,1.167 -4.818,0.837Zm-13.144,44.142l7.022,-38.995l10.063,1.813l-7.022,38.994l-10.063,-1.812Z" style="fill-rule:nonzero;"/>
        <path d="M313.485,306.942c-3.302,-0.595 -6.374,-1.716 -9.216,-3.364c-2.841,-1.648 -5.103,-3.814 -6.784,-6.498c-1.681,-2.684 -2.401,-5.898 -2.16,-9.642l9.985,1.798c0.075,2.287 0.985,4.222 2.728,5.808c1.744,1.586 4.005,2.629 6.782,3.129c2.988,0.538 5.737,0.073 8.247,-1.396c2.51,-1.469 4.114,-4.143 4.813,-8.021l0.878,-4.875c-1.493,1.679 -3.478,3.013 -5.956,4.001c-2.478,0.987 -5.394,1.179 -8.748,0.575c-3.721,-0.67 -6.889,-2.16 -9.503,-4.471c-2.614,-2.311 -4.515,-5.128 -5.702,-8.454c-1.186,-3.325 -1.435,-6.9 -0.746,-10.727c0.689,-3.826 2.17,-7.09 4.442,-9.792c2.272,-2.702 5.047,-4.664 8.325,-5.887c3.277,-1.222 6.75,-1.503 10.419,-0.843c2.988,0.538 5.523,1.631 7.608,3.278c2.084,1.647 3.642,3.51 4.675,5.59l2.013,-5.319l9.041,1.628l-6.584,36.558c-0.812,4.507 -2.437,8.124 -4.876,10.85c-2.439,2.726 -5.386,4.59 -8.84,5.592c-3.454,1.001 -7.068,1.162 -10.841,0.482Zm4.185,-26.843c2.201,0.396 4.243,0.25 6.126,-0.439c1.882,-0.689 3.464,-1.811 4.745,-3.366c1.282,-1.555 2.111,-3.381 2.488,-5.477c0.595,-3.302 0.035,-6.203 -1.679,-8.704c-1.714,-2.5 -4.248,-4.052 -7.603,-4.656c-3.354,-0.604 -6.271,-0.034 -8.749,1.711c-2.479,1.745 -4.011,4.243 -4.596,7.492c-0.387,2.149 -0.265,4.173 0.367,6.073c0.632,1.899 1.71,3.5 3.234,4.803c1.524,1.303 3.413,2.157 5.667,2.563Z" style="fill-rule:nonzero;"/>
        <path d="M347.902,294.31l7.023,-38.995l8.884,1.6l-0.403,6.746c1.62,-2.09 3.693,-3.61 6.219,-4.562c2.525,-0.952 5.334,-1.15 8.426,-0.593c4.822,0.868 8.296,3.063 10.421,6.585c2.126,3.521 2.66,8.217 1.603,14.087l-3.965,22.013l-10.063,-1.813l3.795,-21.069c0.604,-3.355 0.385,-6.045 -0.657,-8.073c-1.041,-2.027 -3.004,-3.301 -5.886,-3.82c-2.831,-0.509 -5.329,0.069 -7.496,1.735c-2.167,1.666 -3.571,4.281 -4.213,7.845l-3.625,20.126l-10.063,-1.812Z" style="fill-rule:nonzero;"/>
        <path d="M432.168,310.459c-3.669,-0.66 -6.784,-2.141 -9.346,-4.443c-2.562,-2.301 -4.403,-5.148 -5.523,-8.543c-1.12,-3.394 -1.326,-7.057 -0.619,-10.988c0.708,-3.931 2.177,-7.278 4.406,-10.042c2.23,-2.764 4.944,-4.764 8.143,-6.001c3.199,-1.237 6.632,-1.525 10.301,-0.864c2.935,0.529 5.404,1.542 7.407,3.039c2.004,1.497 3.507,3.364 4.511,5.601l1.513,-5.247l9.513,1.713l-7.023,38.995l-9.434,-1.699l0.376,-5.696c-1.569,1.503 -3.507,2.724 -5.813,3.661c-2.306,0.938 -5.11,1.109 -8.412,0.514Zm3.708,-8.423c3.25,0.586 6.106,-0.023 8.568,-1.825c2.462,-1.802 3.999,-4.407 4.613,-7.814c0.613,-3.406 0.081,-6.384 -1.598,-8.932c-1.678,-2.548 -4.142,-4.114 -7.392,-4.699c-3.197,-0.576 -6.037,0.022 -8.521,1.793c-2.483,1.771 -4.032,4.36 -4.645,7.767c-0.614,3.407 -0.071,6.4 1.629,8.978c1.701,2.579 4.149,4.157 7.346,4.732Z" style="fill-rule:nonzero;"/>
        <path d="M482.496,318.549c-4.088,-0.736 -7.185,-2.322 -9.289,-4.757c-2.105,-2.435 -2.7,-6.195 -1.784,-11.279l3.058,-16.981l-6.682,-1.204l1.515,-8.412l6.682,1.203l3.063,-10.243l8.883,1.6l-1.883,10.456l10.535,1.897l-1.515,8.412l-10.535,-1.897l-3.072,17.06c-0.34,1.887 -0.167,3.257 0.518,4.111c0.685,0.854 2.023,1.46 4.015,1.819l4.874,0.878l-1.543,8.569l-6.84,-1.232Z" style="fill-rule:nonzero;"/>
        <path d="M538.223,329.559c-4.036,-0.726 -7.534,-2.182 -10.496,-4.366c-2.961,-2.183 -5.106,-5.072 -6.434,-8.666c-1.328,-3.594 -1.543,-7.881 -0.647,-12.86l6.117,-33.963l10.063,1.812l-6.131,34.042c-0.774,4.298 -0.314,7.681 1.378,10.15c1.693,2.47 4.374,4.035 8.043,4.696c3.616,0.651 6.661,0.117 9.135,-1.602c2.474,-1.719 4.098,-4.727 4.872,-9.025l6.131,-34.041l10.063,1.812l-6.116,33.963c-0.897,4.979 -2.634,8.914 -5.211,11.805c-2.577,2.891 -5.673,4.836 -9.289,5.835c-3.616,0.999 -7.442,1.135 -11.478,0.408Z" style="fill-rule:nonzero;"/>
        <path d="M595.457,339.867c-5.556,-1.001 -10.11,-3.052 -13.664,-6.154c-3.554,-3.102 -6.021,-6.983 -7.4,-11.641c-1.38,-4.659 -1.565,-9.792 -0.555,-15.4c1.01,-5.608 2.977,-10.368 5.9,-14.278c2.922,-3.911 6.593,-6.713 11.01,-8.407c4.418,-1.693 9.404,-2.04 14.96,-1.039c6.604,1.189 11.72,3.801 15.35,7.837c3.629,4.036 5.434,9.109 5.416,15.22l-11.085,-1.996c-0.144,-3.11 -1.176,-5.718 -3.096,-7.822c-1.921,-2.105 -4.716,-3.487 -8.385,-4.148c-5.084,-0.916 -9.379,0.097 -12.884,3.037c-3.506,2.94 -5.801,7.423 -6.887,13.451c-1.085,6.027 -0.496,11.017 1.768,14.969c2.265,3.952 5.939,6.386 11.023,7.301c3.669,0.661 6.761,0.393 9.276,-0.804c2.516,-1.198 4.369,-3.15 5.56,-5.858l11.085,1.996c-2.068,5.472 -5.499,9.427 -10.294,11.864c-4.795,2.437 -10.494,3.061 -17.098,1.872Z" style="fill-rule:nonzero;"/>
        <path d="M628.646,344.87l9.911,-55.032l10.063,1.812l-9.911,55.032l-10.063,-1.812Z" style="fill-rule:nonzero;"/>
        <path d="M319.233,121.03l7.755,-43.064l7.875,1.419l-3.224,17.902l19.317,3.479l3.224,-17.902l7.875,1.418l-7.756,43.063l-7.874,-1.418l3.379,-18.763l-19.317,-3.479l-3.38,18.763l-7.874,-1.418Z" style="fill:#fff;fill-rule:nonzero;"/>
        <path d="M362.666,128.852l7.755,-43.064l28.115,5.064l-1.141,6.336l-20.24,-3.645l-2.128,11.812l18.395,3.313l-1.108,6.152l-18.395,-3.313l-2.238,12.427l20.24,3.645l-1.141,6.336l-28.114,-5.063Z" style="fill:#fff;fill-rule:nonzero;"/>
        <path d="M398.224,135.256l7.756,-43.064l7.874,1.418l-6.648,36.912l19.072,3.435l-1.108,6.152l-26.946,-4.853Z" style="fill:#fff;fill-rule:nonzero;"/>
        <path d="M432.121,141.361l7.756,-43.064l7.874,1.418l-6.647,36.912l19.071,3.435l-1.108,6.151l-26.946,-4.852Z" style="fill:#fff;fill-rule:nonzero;"/>
        <path d="M482.188,151.14c-4.306,-0.776 -7.899,-2.397 -10.779,-4.863c-2.88,-2.467 -4.931,-5.536 -6.154,-9.207c-1.223,-3.671 -1.44,-7.701 -0.649,-12.089c0.79,-4.389 2.399,-8.09 4.826,-11.104c2.427,-3.014 5.42,-5.174 8.979,-6.481c3.56,-1.306 7.492,-1.572 11.799,-0.796c4.265,0.768 7.848,2.387 10.748,4.857c2.9,2.47 4.952,5.539 6.154,9.206c1.203,3.668 1.409,7.696 0.619,12.084c-0.79,4.389 -2.389,8.092 -4.795,11.109c-2.407,3.018 -5.4,5.178 -8.98,6.481c-3.58,1.303 -7.502,1.571 -11.768,0.803Zm1.274,-7.075c4.102,0.739 7.616,-0.026 10.544,-2.293c2.928,-2.268 4.816,-5.759 5.666,-10.476c0.849,-4.716 0.298,-8.648 -1.655,-11.794c-1.953,-3.147 -4.98,-5.089 -9.081,-5.828c-4.102,-0.738 -7.626,0.024 -10.575,2.288c-2.948,2.264 -4.847,5.754 -5.696,10.47c-0.85,4.717 -0.288,8.65 1.686,11.8c1.973,3.15 5.01,5.094 9.111,5.833Z" style="fill:#fff;fill-rule:nonzero;"/>
        <path d="M342.023,149.159c-1.656,-0.299 -3.037,-0.922 -4.144,-1.87c-1.107,-0.948 -1.896,-2.128 -2.366,-3.54c-0.471,-1.411 -0.554,-2.961 -0.25,-4.648c0.304,-1.687 0.922,-3.11 1.856,-4.269c0.933,-1.159 2.083,-1.989 3.452,-2.492c1.368,-0.502 2.881,-0.604 4.536,-0.306c1.64,0.295 3.018,0.918 4.133,1.867c1.115,0.95 1.904,2.13 2.366,3.54c0.462,1.41 0.542,2.959 0.238,4.646c-0.304,1.687 -0.919,3.111 -1.844,4.271c-0.925,1.16 -2.076,1.991 -3.452,2.492c-1.377,0.501 -2.885,0.604 -4.525,0.309Zm0.49,-2.721c1.577,0.284 2.928,-0.009 4.054,-0.881c1.125,-0.872 1.852,-2.215 2.178,-4.028c0.327,-1.813 0.115,-3.325 -0.636,-4.535c-0.751,-1.209 -1.915,-1.956 -3.492,-2.24c-1.577,-0.284 -2.932,0.009 -4.065,0.879c-1.134,0.871 -1.864,2.213 -2.19,4.026c-0.327,1.813 -0.111,3.326 0.648,4.537c0.758,1.211 1.926,1.958 3.503,2.242Z" style="fill:#fff;fill-rule:nonzero;"/>
        <path d="M359.361,152.281c-1.214,-0.219 -2.267,-0.657 -3.158,-1.314c-0.891,-0.657 -1.536,-1.526 -1.936,-2.607c-0.399,-1.081 -0.464,-2.371 -0.194,-3.869l1.84,-10.218l3.027,0.545l-1.844,10.242c-0.233,1.293 -0.095,2.311 0.414,3.054c0.51,0.743 1.316,1.214 2.42,1.412c1.088,0.196 2.004,0.036 2.749,-0.481c0.744,-0.518 1.233,-1.423 1.465,-2.716l1.845,-10.241l3.027,0.545l-1.84,10.218c-0.27,1.498 -0.792,2.682 -1.567,3.551c-0.776,0.87 -1.707,1.455 -2.795,1.756c-1.088,0.301 -2.239,0.342 -3.453,0.123Z" style="fill:#fff;fill-rule:nonzero;"/>
        <path d="M369.133,153.748l2.982,-16.557l6.079,1.095c1.324,0.238 2.376,0.659 3.154,1.264c0.779,0.604 1.312,1.327 1.6,2.168c0.288,0.842 0.348,1.727 0.181,2.658c-0.182,1.009 -0.612,1.884 -1.291,2.624c-0.679,0.741 -1.612,1.2 -2.8,1.377l2.182,7.548l-3.477,-0.627l-1.899,-7.082l-2.508,-0.451l-1.175,6.528l-3.028,-0.545Zm4.604,-8.206l2.862,0.515c1.009,0.182 1.794,0.071 2.355,-0.333c0.561,-0.403 0.914,-1.007 1.059,-1.812c0.142,-0.788 0.023,-1.461 -0.357,-2.018c-0.38,-0.556 -1.09,-0.928 -2.131,-1.116l-2.838,-0.511l-0.95,5.275Z" style="fill:#fff;fill-rule:nonzero;"/>
        <path d="M389.498,157.415l2.982,-16.557l3.028,0.546l5.681,13.062l2.1,-11.661l3.028,0.545l-2.982,16.557l-3.027,-0.545l-5.686,-13.038l-2.096,11.637l-3.028,-0.546Z" style="fill:#fff;fill-rule:nonzero;"/>
        <path d="M405.488,160.295l9.037,-15.466l3.406,0.613l3.073,17.647l-3.217,-0.579l-0.634,-4.07l-6.458,-1.163l-2.038,3.589l-3.169,-0.571Zm6.461,-5.234l4.802,0.864l-1.173,-7.317l-3.629,6.453Z" style="fill:#fff;fill-rule:nonzero;"/>
        <path d="M423.133,163.473l2.981,-16.557l3.596,0.647l3.383,11.452l7.095,-9.565l3.595,0.648l-2.982,16.557l-3.027,-0.545l2.057,-11.425l-6.244,8.229l-2.389,-0.431l-2.98,-9.889l-2.058,11.424l-3.027,-0.545Z" style="fill:#fff;fill-rule:nonzero;"/>
        <path d="M444.018,167.234l2.982,-16.557l10.809,1.947l-0.438,2.436l-7.782,-1.401l-0.818,4.541l7.072,1.274l-0.426,2.365l-7.072,-1.274l-0.861,4.778l7.782,1.402l-0.439,2.436l-10.809,-1.947Z" style="fill:#fff;fill-rule:nonzero;"/>
        <path d="M463.319,170.71l2.982,-16.557l3.027,0.545l-2.982,16.557l-3.027,-0.545Z" style="fill:#fff;fill-rule:nonzero;"/>
        <path d="M475.165,173.137c-1.214,-0.219 -2.249,-0.621 -3.104,-1.206c-0.855,-0.586 -1.48,-1.317 -1.876,-2.194c-0.395,-0.877 -0.5,-1.877 -0.314,-2.999l3.193,0.575c-0.108,0.778 0.055,1.479 0.488,2.102c0.433,0.624 1.115,1.019 2.045,1.187c0.804,0.144 1.478,0.066 2.02,-0.235c0.543,-0.301 0.873,-0.775 0.989,-1.421c0.122,-0.678 0.008,-1.244 -0.341,-1.698c-0.35,-0.454 -0.85,-0.861 -1.502,-1.223c-0.651,-0.361 -1.347,-0.747 -2.087,-1.157c-1.198,-0.672 -2.069,-1.415 -2.614,-2.229c-0.545,-0.815 -0.714,-1.797 -0.507,-2.949c0.16,-0.98 0.544,-1.778 1.151,-2.393c0.608,-0.615 1.364,-1.04 2.269,-1.276c0.906,-0.236 1.902,-0.256 2.99,-0.06c1.104,0.199 2.042,0.571 2.815,1.117c0.773,0.546 1.335,1.218 1.689,2.014c0.353,0.796 0.457,1.686 0.313,2.669l-3.241,-0.583c0.089,-0.587 -0.042,-1.144 -0.395,-1.671c-0.353,-0.528 -0.915,-0.861 -1.688,-1c-0.659,-0.135 -1.244,-0.074 -1.755,0.184c-0.51,0.259 -0.824,0.711 -0.94,1.357c-0.1,0.552 -0.005,1.021 0.284,1.407c0.288,0.386 0.712,0.743 1.272,1.071c0.559,0.329 1.203,0.689 1.93,1.081c0.769,0.431 1.458,0.897 2.068,1.398c0.61,0.5 1.064,1.099 1.362,1.796c0.297,0.696 0.358,1.533 0.182,2.511c-0.156,0.867 -0.522,1.632 -1.097,2.293c-0.575,0.662 -1.336,1.139 -2.284,1.433c-0.949,0.293 -2.053,0.326 -3.315,0.099Z" style="fill:#fff;fill-rule:nonzero;"/>
        <path d="M122.202,303.175l80.121,-21.383c8.399,-0.039 16.469,3.26 22.436,9.171c5.967,5.911 9.341,13.951 9.381,22.35l0.426,91.031l-112.364,-101.169Z" style="fill:#fc003d;"/>
        <path d="M200.893,281.799l0.546,116.579l-104.724,-118.15l104.178,1.571Z" style="fill:#01b7ff;"/>
        <path d="M96.715,280.228l-22.343,104.69l160.194,19.426l-137.851,-124.116Z"/>
    </g>
</svg>
