<svg clip-rule="evenodd" fill-rule="evenodd" stroke-linejoin="round" stroke-miterlimit="2" viewBox="0 0 100 30" xmlns="http://www.w3.org/2000/svg"><path d="m80.641 28.908c0-1.505-.663-2.947-1.841-4.011-1.179-1.064-2.777-1.661-4.444-1.661h-60.968c-1.667 0-3.265.597-4.444 1.661s-1.841 2.506-1.841 4.011v42.184c0 1.505.662 2.947 1.841 4.011s2.777 1.661 4.444 1.661h60.968c1.667 0 3.265-.597 4.444-1.661 1.178-1.064 1.841-2.506 1.841-4.011z" transform="matrix(.376067 0 0 .416689 33.5012 -2.9867)"/><path d="m60.433 16.721h-3.398s-4.152-3.023-6.076-4.425c-.571-.415-1.347-.415-1.918 0-1.926 1.402-6.081 4.425-6.081 4.425h-3.395s5.504-4.006 8.517-6.2c1.142-.832 2.694-.832 3.836 0 3.013 2.194 8.515 6.2 8.515 6.2z" transform="matrix(.72776 0 0 .731529 13.612 -6.23994)"/><path d="m80.641 28.908c0-3.133-2.533-5.672-5.657-5.672h-62.224c-3.124 0-5.657 2.539-5.657 5.672v42.184c0 3.133 2.533 5.672 5.657 5.672h62.224c3.124 0 5.657-2.539 5.657-5.672z" fill="#fff" transform="matrix(.417804 0 0 .416689 31.6702 -4.44976)"/><path d="m13.222 32.537s-6.443 6.437-9.534 9.525c-.271.271-.352.678-.205 1.032.146.353.491.584.874.584h8.865z" transform="matrix(.990923 0 0 .990923 2.85074 -17.2815)"/><circle cx="15.952715532" cy="16.999936862" fill="#fff" r="9.000039006" stroke-width=".807106"/><path d="m14 30.496c0-.132-.052-.258-.145-.351s-.219-.145-.351-.145h-.646c-1.026 0-1.858.832-1.858 1.859v1.282c0 1.027.832 1.859 1.858 1.859h.646c.132 0 .258-.052.351-.145s.145-.219.145-.351z" transform="matrix(.807106 0 0 .807106 2.57453 -7.89541)"/><path d="m15 31.564c0-1.644.642-3.223 1.789-4.401.135-.139.211-.324.211-.518v-2.23c0-.229.186-.415.415-.415h.002c.42 0 .822.167 1.119.464s.464.699.464 1.119v3.417h3.029c.257 0 .504.102.687.285.182.182.284.429.284.686v.001c0 1.677-.234 3.346-.694 4.959-.021.07-.04.139-.059.205-.146.512-.614.864-1.145.864h-3.624c-1.369 0-2.478-1.109-2.478-2.478z" transform="matrix(.807106 0 0 .807106 2.57453 -7.89541)"/><path d="m13.222 32.537s-6.443 6.437-9.534 9.525c-.271.271-.352.678-.205 1.032.146.353.491.584.874.584h8.865z" transform="matrix(-.990923 0 0 .990923 97.1493 -17.2815)"/><circle cx="13.222" cy="32.527" fill="#fff" r="11.151" transform="matrix(-.807106 0 0 .807106 94.7188 -9.2528)"/><path d="m.137-.218-.004-.165h.046c.034 0 .065-.003.093-.009s.05-.018.067-.035.025-.043.025-.076c0-.032-.01-.057-.029-.076-.019-.018-.045-.027-.077-.027-.033 0-.059.009-.078.027-.019.019-.028.044-.028.075h-.121c-.001-.04.008-.076.026-.107s.044-.056.078-.074c.035-.018.076-.027.124-.027.045 0 .084.008.118.025.035.017.062.04.081.072.02.03.03.068.03.113 0 .046-.01.084-.031.114-.02.03-.048.052-.082.067-.036.015-.076.022-.122.023l-.003.08z" transform="matrix(15.0042 0 0 15.0042 80.8264 22.4813)"/><path d="m.194.007c-.023 0-.043-.007-.058-.022s-.022-.032-.022-.053.007-.039.022-.054.035-.022.058-.022.042.007.057.022.022.033.022.054-.007.038-.022.053-.034.022-.057.022z" transform="matrix(15.0042 0 0 15.0042 80.8264 22.4813)"/><path d="m43.528 15c0-3.572 2.9-6.472 6.472-6.472s6.472 2.9 6.472 6.472z" fill="#fc293d" transform="matrix(1.46069 0 0 1.46069 -23.0345 -.645482)"/><path d="m43.528 15c0-3.572 2.9-6.472 6.472-6.472s6.472 2.9 6.472 6.472z" fill="#ffdb45" transform="matrix(1.09552 0 0 1.09552 -4.77597 4.83208)"/><path d="m43.528 15c0-3.572 2.9-6.472 6.472-6.472s6.472 2.9 6.472 6.472z" fill="#00d659" transform="matrix(.730345 0 0 .730345 13.4827 10.3096)"/><path d="m43.528 15c0-3.572 2.9-6.472 6.472-6.472s6.472 2.9 6.472 6.472z" fill="#6055ff" transform="matrix(.365173 0 0 .365173 31.7413 15.7872)"/></svg>