<?xml version="1.0" encoding="UTF-8" standalone="no"?>
<!DOCTYPE svg PUBLIC "-//W3C//DTD SVG 1.1//EN" "http://www.w3.org/Graphics/SVG/1.1/DTD/svg11.dtd">
<svg width="100%" height="100%" viewBox="0 0 100 50" version="1.1" xmlns="http://www.w3.org/2000/svg" xmlns:xlink="http://www.w3.org/1999/xlink" xml:space="preserve" xmlns:serif="http://www.serif.com/" style="fill-rule:evenodd;clip-rule:evenodd;stroke-linejoin:round;stroke-miterlimit:2;">
    <g transform="matrix(0.163665,0.094492,-0.094492,0.163665,-45.9183,-66.2838)">
        <g transform="matrix(0.646436,0.646436,-0.646436,0.646436,-754.742,-1173.28)">
            <path d="M2059.8,155.078C2058.51,151.862 2057.8,148.351 2057.8,144.674C2057.8,142.863 2056.33,141.392 2054.51,141.392C2052.7,141.392 2051.23,142.863 2051.23,144.674C2051.23,149.217 2052.12,153.557 2053.72,157.53C2054.39,159.21 2056.31,160.025 2057.99,159.348C2059.67,158.671 2060.48,156.758 2059.8,155.078Z" style="fill:white;"/>
        </g>
        <g transform="matrix(0.646436,0.646436,-0.646436,0.646436,-754.742,-1173.28)">
            <path d="M2082.69,172.408C2075.8,171.671 2069.66,168.418 2065.2,163.588C2063.97,162.258 2061.89,162.175 2060.56,163.404C2059.23,164.633 2059.15,166.711 2060.38,168.041C2065.89,174.008 2073.48,178.023 2081.99,178.934C2083.8,179.126 2085.41,177.821 2085.61,176.02C2085.8,174.219 2084.49,172.6 2082.69,172.408Z" style="fill:white;"/>
        </g>
        <g transform="matrix(1,0,0,1,-1825.46,128.131)">
            <path d="M2329.59,109.156C2336.23,110.026 2342.64,113.01 2347.74,118.107C2359.22,129.594 2359.98,147.774 2350,160.139C2348.96,161.428 2347.07,161.63 2345.78,160.591C2344.49,159.551 2344.29,157.661 2345.33,156.372C2353.41,146.363 2352.79,131.647 2343.5,122.35C2339.57,118.425 2334.68,116.049 2329.59,115.22L2329.59,109.156Z" style="fill:white;"/>
        </g>
        <g transform="matrix(1.27288,0,0,1.27288,111.698,-287.208)">
            <path d="M307.971,412.093C308.786,412.093 309.514,412.601 309.796,413.365C311.465,417.888 317.106,433.172 318.858,437.918C319.159,438.734 318.821,439.648 318.062,440.072C318.062,440.072 318.062,440.072 318.061,440.072C314.454,442.087 312.22,445.895 312.22,450.026C309.703,452.768 300.884,452.768 297.897,450.026C297.897,445.895 295.662,442.087 292.055,440.072C292.055,440.072 292.055,440.072 292.055,440.072C291.295,439.648 290.957,438.734 291.259,437.918C293.01,433.172 298.651,417.888 300.32,413.365C300.602,412.601 301.331,412.093 302.145,412.093C302.146,412.093 302.148,412.093 302.149,412.093C302.523,412.093 302.881,412.242 303.145,412.506C303.41,412.771 303.558,413.129 303.558,413.503C303.558,418.14 303.558,432.626 303.558,432.626C302.093,433.22 301.058,434.658 301.058,436.335C301.058,438.543 302.85,440.335 305.058,440.335C307.266,440.335 309.058,438.543 309.058,436.335C309.058,434.658 308.023,433.22 306.558,432.626L306.558,413.503C306.558,413.129 306.707,412.771 306.971,412.506C307.235,412.242 307.594,412.093 307.967,412.093C307.969,412.093 307.97,412.093 307.971,412.093Z" style="fill:white;"/>
        </g>
        <g transform="matrix(1,0,0,1,-1692.85,123.839)">
            <path d="M2205.68,166.712C2197.78,171.315 2187.92,171.315 2180.02,166.712C2178.59,165.879 2176.75,166.364 2175.92,167.794C2175.09,169.225 2175.57,171.063 2177,171.897C2186.76,177.583 2198.94,177.583 2208.7,171.897C2210.13,171.063 2210.61,169.225 2209.78,167.794C2208.95,166.364 2207.11,165.879 2205.68,166.712Z" style="fill:white;"/>
        </g>
    </g>
    <g transform="matrix(1.00533,0,0,1.00533,-271.78,-309.944)">
        <g transform="matrix(9.88995,0,0,9.88995,292.212,336.576)">
            <path d="M0.025,-0L0.148,-0.7L0.387,-0.7C0.492,-0.7 0.57,-0.674 0.619,-0.623C0.668,-0.572 0.693,-0.502 0.693,-0.415C0.693,-0.334 0.675,-0.262 0.64,-0.199C0.604,-0.136 0.554,-0.088 0.49,-0.053C0.426,-0.017 0.351,-0 0.264,-0L0.025,-0ZM0.172,-0.11L0.277,-0.11C0.338,-0.11 0.389,-0.122 0.432,-0.146C0.474,-0.17 0.506,-0.204 0.528,-0.248C0.55,-0.292 0.561,-0.344 0.561,-0.404C0.561,-0.467 0.545,-0.514 0.513,-0.545C0.481,-0.576 0.431,-0.591 0.362,-0.591L0.257,-0.591L0.172,-0.11Z" style="fill:white;fill-rule:nonzero;"/>
        </g>
        <g transform="matrix(9.88995,0,0,9.88995,299.294,336.576)">
            <path d="M0.26,0.012C0.194,0.012 0.141,-0.007 0.103,-0.045C0.064,-0.083 0.044,-0.134 0.044,-0.199C0.044,-0.241 0.051,-0.281 0.066,-0.318C0.081,-0.355 0.102,-0.388 0.129,-0.417C0.156,-0.445 0.189,-0.467 0.227,-0.484C0.264,-0.5 0.306,-0.508 0.351,-0.508C0.395,-0.508 0.433,-0.5 0.464,-0.483C0.495,-0.466 0.52,-0.442 0.537,-0.413C0.554,-0.383 0.562,-0.349 0.562,-0.311C0.562,-0.295 0.561,-0.279 0.558,-0.262C0.555,-0.245 0.551,-0.23 0.547,-0.217L0.17,-0.217L0.17,-0.2C0.17,-0.167 0.18,-0.14 0.2,-0.122C0.22,-0.102 0.246,-0.093 0.278,-0.093C0.303,-0.093 0.326,-0.099 0.346,-0.111C0.365,-0.122 0.381,-0.137 0.394,-0.156L0.524,-0.156C0.509,-0.124 0.488,-0.095 0.462,-0.07C0.435,-0.045 0.405,-0.025 0.371,-0.01C0.336,0.005 0.299,0.012 0.26,0.012ZM0.334,-0.404C0.303,-0.404 0.274,-0.395 0.247,-0.378C0.22,-0.36 0.2,-0.333 0.187,-0.297L0.434,-0.297C0.435,-0.302 0.435,-0.306 0.435,-0.308C0.436,-0.337 0.427,-0.361 0.408,-0.378C0.389,-0.395 0.365,-0.404 0.334,-0.404Z" style="fill:white;fill-rule:nonzero;"/>
        </g>
        <g transform="matrix(9.88995,0,0,9.88995,305.188,336.576)">
            <path d="M0.23,0.012C0.185,0.012 0.146,0.004 0.115,-0.011C0.083,-0.026 0.059,-0.047 0.043,-0.074C0.027,-0.101 0.02,-0.131 0.023,-0.165L0.151,-0.165C0.15,-0.142 0.158,-0.123 0.174,-0.108C0.19,-0.093 0.214,-0.086 0.246,-0.086C0.274,-0.086 0.296,-0.092 0.312,-0.104C0.327,-0.116 0.335,-0.131 0.335,-0.15C0.335,-0.167 0.327,-0.179 0.31,-0.187C0.293,-0.194 0.272,-0.201 0.246,-0.207C0.219,-0.214 0.192,-0.222 0.166,-0.233C0.14,-0.244 0.119,-0.258 0.102,-0.275C0.085,-0.292 0.076,-0.315 0.076,-0.342C0.076,-0.374 0.086,-0.403 0.105,-0.428C0.124,-0.452 0.15,-0.472 0.183,-0.487C0.216,-0.501 0.255,-0.508 0.298,-0.508C0.357,-0.508 0.403,-0.494 0.437,-0.466C0.471,-0.438 0.487,-0.4 0.486,-0.352L0.363,-0.352C0.362,-0.369 0.355,-0.383 0.341,-0.394C0.326,-0.405 0.307,-0.41 0.284,-0.41C0.26,-0.41 0.241,-0.405 0.226,-0.395C0.211,-0.384 0.203,-0.371 0.203,-0.356C0.203,-0.341 0.212,-0.33 0.23,-0.323C0.247,-0.315 0.27,-0.308 0.299,-0.301C0.33,-0.294 0.359,-0.285 0.384,-0.274C0.409,-0.263 0.428,-0.25 0.444,-0.233C0.459,-0.216 0.466,-0.193 0.466,-0.166C0.466,-0.13 0.456,-0.099 0.435,-0.072C0.414,-0.045 0.386,-0.025 0.351,-0.01C0.315,0.005 0.275,0.012 0.23,0.012Z" style="fill:white;fill-rule:nonzero;"/>
        </g>
        <g transform="matrix(9.88995,0,0,9.88995,310.489,336.576)">
            <path d="M0.205,-0.57C0.182,-0.57 0.163,-0.577 0.148,-0.592C0.132,-0.606 0.125,-0.624 0.125,-0.645C0.125,-0.666 0.132,-0.684 0.148,-0.699C0.163,-0.713 0.182,-0.72 0.205,-0.72C0.228,-0.72 0.247,-0.713 0.263,-0.699C0.278,-0.684 0.285,-0.666 0.285,-0.645C0.285,-0.624 0.278,-0.606 0.263,-0.592C0.247,-0.577 0.228,-0.57 0.205,-0.57ZM0.027,-0L0.114,-0.496L0.242,-0.496L0.155,-0L0.027,-0Z" style="fill:white;fill-rule:nonzero;"/>
        </g>
        <g transform="matrix(9.88995,0,0,9.88995,313.159,336.576)">
            <path d="M0.247,0.232C0.206,0.232 0.167,0.225 0.131,0.211C0.094,0.197 0.065,0.175 0.044,0.146C0.022,0.117 0.012,0.079 0.014,0.032L0.141,0.032C0.142,0.06 0.154,0.082 0.177,0.098C0.199,0.113 0.228,0.121 0.263,0.121C0.288,0.121 0.312,0.116 0.335,0.106C0.358,0.095 0.379,0.079 0.396,0.058C0.413,0.036 0.424,0.009 0.429,-0.024L0.44,-0.086C0.421,-0.062 0.395,-0.041 0.364,-0.024C0.332,-0.006 0.295,0.003 0.253,0.003C0.212,0.003 0.175,-0.007 0.144,-0.026C0.113,-0.045 0.088,-0.07 0.071,-0.103C0.054,-0.135 0.045,-0.171 0.045,-0.211C0.045,-0.252 0.052,-0.29 0.067,-0.326C0.082,-0.362 0.102,-0.394 0.129,-0.421C0.155,-0.448 0.186,-0.47 0.221,-0.485C0.256,-0.5 0.294,-0.508 0.335,-0.508C0.373,-0.508 0.407,-0.5 0.436,-0.485C0.465,-0.469 0.487,-0.449 0.5,-0.426L0.528,-0.496L0.64,-0.496L0.557,-0.026C0.547,0.031 0.527,0.079 0.497,0.118C0.466,0.156 0.429,0.185 0.386,0.204C0.343,0.223 0.296,0.232 0.247,0.232ZM0.298,-0.108C0.329,-0.108 0.358,-0.116 0.384,-0.132C0.41,-0.147 0.431,-0.168 0.446,-0.194C0.461,-0.22 0.469,-0.249 0.469,-0.281C0.469,-0.314 0.458,-0.342 0.435,-0.364C0.412,-0.385 0.381,-0.396 0.344,-0.396C0.312,-0.396 0.283,-0.388 0.258,-0.373C0.233,-0.358 0.213,-0.337 0.199,-0.312C0.184,-0.286 0.177,-0.258 0.177,-0.227C0.177,-0.193 0.188,-0.165 0.21,-0.142C0.231,-0.119 0.261,-0.108 0.298,-0.108Z" style="fill:white;fill-rule:nonzero;"/>
        </g>
        <g transform="matrix(9.88995,0,0,9.88995,319.707,336.576)">
            <path d="M0.022,-0L0.109,-0.496L0.222,-0.496L0.219,-0.414C0.24,-0.443 0.266,-0.466 0.297,-0.483C0.328,-0.5 0.363,-0.508 0.402,-0.508C0.453,-0.508 0.493,-0.494 0.522,-0.466C0.55,-0.437 0.564,-0.396 0.564,-0.343C0.564,-0.324 0.562,-0.303 0.558,-0.28L0.508,-0L0.38,-0L0.428,-0.268C0.429,-0.276 0.43,-0.284 0.431,-0.291C0.432,-0.298 0.432,-0.304 0.432,-0.31C0.432,-0.37 0.402,-0.4 0.343,-0.4C0.308,-0.4 0.276,-0.388 0.249,-0.363C0.222,-0.337 0.204,-0.303 0.196,-0.26L0.15,-0L0.022,-0Z" style="fill:white;fill-rule:nonzero;"/>
        </g>
        <g transform="matrix(9.88995,0,0,9.88995,325.73,336.576)">
            <path d="M0.053,-0.236L0.071,-0.343L0.49,-0.343L0.471,-0.236L0.053,-0.236Z" style="fill:white;fill-rule:nonzero;"/>
        </g>
        <g transform="matrix(9.88995,0,0,9.88995,330.942,336.576)">
            <path d="M0.243,0.012C0.202,0.012 0.166,0.002 0.137,-0.017C0.108,-0.036 0.085,-0.063 0.069,-0.096C0.053,-0.129 0.045,-0.167 0.045,-0.208C0.045,-0.265 0.057,-0.316 0.083,-0.361C0.108,-0.406 0.141,-0.442 0.184,-0.469C0.226,-0.495 0.273,-0.508 0.325,-0.508C0.366,-0.508 0.4,-0.501 0.425,-0.486C0.45,-0.47 0.469,-0.451 0.482,-0.428L0.508,-0.496L0.622,-0.496L0.534,-0L0.421,-0L0.418,-0.071C0.399,-0.049 0.376,-0.03 0.348,-0.013C0.319,0.004 0.284,0.012 0.243,0.012ZM0.292,-0.1C0.323,-0.1 0.351,-0.108 0.376,-0.125C0.4,-0.141 0.419,-0.163 0.434,-0.19C0.448,-0.217 0.455,-0.247 0.455,-0.28C0.455,-0.315 0.445,-0.343 0.424,-0.364C0.403,-0.385 0.375,-0.396 0.339,-0.396C0.308,-0.396 0.28,-0.388 0.256,-0.373C0.231,-0.358 0.212,-0.337 0.198,-0.311C0.184,-0.285 0.177,-0.256 0.177,-0.223C0.177,-0.188 0.187,-0.159 0.208,-0.136C0.228,-0.112 0.256,-0.1 0.292,-0.1Z" style="fill:white;fill-rule:nonzero;"/>
        </g>
        <g transform="matrix(9.88995,0,0,9.88995,337.311,336.576)">
            <path d="M0.053,-0.236L0.071,-0.343L0.49,-0.343L0.471,-0.236L0.053,-0.236Z" style="fill:white;fill-rule:nonzero;"/>
        </g>
        <g transform="matrix(9.88995,0,0,9.88995,342.523,336.576)">
            <path d="M0.234,-0C0.189,-0 0.153,-0.009 0.126,-0.028C0.098,-0.047 0.085,-0.079 0.085,-0.125C0.085,-0.14 0.087,-0.156 0.09,-0.174L0.128,-0.389L0.048,-0.389L0.067,-0.496L0.147,-0.496L0.185,-0.629L0.299,-0.629L0.275,-0.496L0.41,-0.496L0.39,-0.389L0.257,-0.389L0.218,-0.173C0.217,-0.166 0.216,-0.16 0.216,-0.153C0.216,-0.137 0.221,-0.126 0.23,-0.119C0.239,-0.112 0.253,-0.109 0.274,-0.109L0.342,-0.109L0.322,-0L0.234,-0Z" style="fill:white;fill-rule:nonzero;"/>
        </g>
        <g transform="matrix(9.88995,0,0,9.88995,346.597,336.576)">
            <path d="M0.022,-0L0.148,-0.72L0.276,-0.72L0.224,-0.42C0.245,-0.447 0.271,-0.468 0.302,-0.484C0.333,-0.5 0.367,-0.508 0.404,-0.508C0.465,-0.508 0.509,-0.489 0.537,-0.45C0.564,-0.411 0.571,-0.355 0.558,-0.28L0.508,-0L0.38,-0L0.428,-0.268C0.435,-0.311 0.432,-0.343 0.419,-0.366C0.406,-0.389 0.38,-0.4 0.343,-0.4C0.308,-0.4 0.276,-0.387 0.249,-0.362C0.222,-0.337 0.204,-0.301 0.195,-0.256L0.195,-0.257L0.15,-0L0.022,-0Z" style="fill:white;fill-rule:nonzero;"/>
        </g>
        <g transform="matrix(9.88995,0,0,9.88995,352.62,336.576)">
            <path d="M0.263,0.012C0.22,0.012 0.182,0.002 0.149,-0.017C0.116,-0.036 0.091,-0.063 0.073,-0.096C0.054,-0.128 0.045,-0.166 0.045,-0.209C0.045,-0.251 0.053,-0.29 0.068,-0.327C0.083,-0.363 0.103,-0.395 0.131,-0.422C0.158,-0.449 0.189,-0.47 0.225,-0.486C0.261,-0.501 0.3,-0.508 0.341,-0.508C0.385,-0.508 0.424,-0.499 0.457,-0.48C0.49,-0.461 0.515,-0.436 0.534,-0.403C0.553,-0.37 0.562,-0.332 0.562,-0.289C0.562,-0.246 0.554,-0.207 0.539,-0.171C0.524,-0.134 0.503,-0.102 0.476,-0.075C0.448,-0.048 0.417,-0.026 0.381,-0.011C0.344,0.004 0.305,0.012 0.263,0.012ZM0.28,-0.099C0.309,-0.099 0.334,-0.107 0.357,-0.123C0.38,-0.139 0.398,-0.161 0.411,-0.189C0.424,-0.216 0.431,-0.247 0.431,-0.282C0.431,-0.319 0.421,-0.347 0.401,-0.367C0.38,-0.387 0.356,-0.397 0.327,-0.397C0.299,-0.397 0.274,-0.389 0.251,-0.373C0.228,-0.357 0.209,-0.335 0.196,-0.308C0.183,-0.28 0.176,-0.249 0.176,-0.214C0.176,-0.177 0.186,-0.149 0.207,-0.129C0.227,-0.109 0.251,-0.099 0.28,-0.099Z" style="fill:white;fill-rule:nonzero;"/>
        </g>
        <g transform="matrix(9.88995,0,0,9.88995,358.623,336.576)">
            <path d="M0.022,-0L0.109,-0.496L0.222,-0.496L0.219,-0.414C0.24,-0.443 0.266,-0.466 0.297,-0.483C0.328,-0.5 0.363,-0.508 0.402,-0.508C0.453,-0.508 0.493,-0.494 0.522,-0.466C0.55,-0.437 0.564,-0.396 0.564,-0.343C0.564,-0.324 0.562,-0.303 0.558,-0.28L0.508,-0L0.38,-0L0.428,-0.268C0.429,-0.276 0.43,-0.284 0.431,-0.291C0.432,-0.298 0.432,-0.304 0.432,-0.31C0.432,-0.37 0.402,-0.4 0.343,-0.4C0.308,-0.4 0.276,-0.388 0.249,-0.363C0.222,-0.337 0.204,-0.303 0.196,-0.26L0.15,-0L0.022,-0Z" style="fill:white;fill-rule:nonzero;"/>
        </g>
    </g>
    <g transform="matrix(1,0,0,1,14.1691,0)">
        <g transform="matrix(5,0,0,5,29.4497,17.4342)">
            <path d="M0.051,-0L0.051,-0.093C0.094,-0.128 0.135,-0.163 0.176,-0.198C0.216,-0.233 0.252,-0.267 0.284,-0.301C0.315,-0.335 0.341,-0.368 0.36,-0.401C0.379,-0.433 0.388,-0.464 0.388,-0.495C0.388,-0.524 0.38,-0.549 0.365,-0.571C0.349,-0.593 0.323,-0.604 0.287,-0.604C0.25,-0.604 0.223,-0.592 0.204,-0.568C0.185,-0.544 0.176,-0.515 0.176,-0.481L0.052,-0.481C0.053,-0.532 0.065,-0.575 0.086,-0.61C0.107,-0.644 0.136,-0.67 0.171,-0.687C0.206,-0.704 0.246,-0.712 0.29,-0.712C0.361,-0.712 0.417,-0.692 0.457,-0.654C0.496,-0.614 0.516,-0.564 0.516,-0.502C0.516,-0.463 0.507,-0.426 0.49,-0.389C0.472,-0.352 0.449,-0.317 0.42,-0.283C0.391,-0.249 0.36,-0.217 0.327,-0.188C0.294,-0.158 0.261,-0.13 0.23,-0.105L0.533,-0.105L0.533,-0L0.051,-0Z" style="fill:white;fill-rule:nonzero;"/>
        </g>
        <g transform="matrix(5,0,0,5,32.2797,17.4342)">
            <path d="M0.355,0.012C0.29,0.012 0.235,-0.003 0.189,-0.034C0.143,-0.064 0.108,-0.106 0.083,-0.161C0.057,-0.215 0.045,-0.278 0.045,-0.35C0.045,-0.421 0.057,-0.484 0.083,-0.539C0.108,-0.594 0.143,-0.636 0.189,-0.667C0.235,-0.697 0.29,-0.712 0.355,-0.712C0.42,-0.712 0.475,-0.697 0.521,-0.667C0.567,-0.636 0.603,-0.594 0.628,-0.539C0.653,-0.484 0.665,-0.421 0.665,-0.35C0.665,-0.278 0.653,-0.215 0.628,-0.161C0.603,-0.106 0.567,-0.064 0.521,-0.034C0.475,-0.003 0.42,0.012 0.355,0.012ZM0.355,-0.103C0.408,-0.103 0.451,-0.125 0.484,-0.169C0.517,-0.213 0.534,-0.273 0.534,-0.35C0.534,-0.427 0.517,-0.487 0.484,-0.531C0.451,-0.575 0.408,-0.597 0.355,-0.597C0.302,-0.597 0.259,-0.575 0.226,-0.531C0.193,-0.487 0.176,-0.427 0.176,-0.35C0.176,-0.273 0.193,-0.213 0.226,-0.169C0.259,-0.125 0.302,-0.103 0.355,-0.103Z" style="fill:white;fill-rule:nonzero;"/>
        </g>
        <g transform="matrix(5,0,0,5,35.8047,17.4342)">
            <path d="M0.051,-0L0.051,-0.093C0.094,-0.128 0.135,-0.163 0.176,-0.198C0.216,-0.233 0.252,-0.267 0.284,-0.301C0.315,-0.335 0.341,-0.368 0.36,-0.401C0.379,-0.433 0.388,-0.464 0.388,-0.495C0.388,-0.524 0.38,-0.549 0.365,-0.571C0.349,-0.593 0.323,-0.604 0.287,-0.604C0.25,-0.604 0.223,-0.592 0.204,-0.568C0.185,-0.544 0.176,-0.515 0.176,-0.481L0.052,-0.481C0.053,-0.532 0.065,-0.575 0.086,-0.61C0.107,-0.644 0.136,-0.67 0.171,-0.687C0.206,-0.704 0.246,-0.712 0.29,-0.712C0.361,-0.712 0.417,-0.692 0.457,-0.654C0.496,-0.614 0.516,-0.564 0.516,-0.502C0.516,-0.463 0.507,-0.426 0.49,-0.389C0.472,-0.352 0.449,-0.317 0.42,-0.283C0.391,-0.249 0.36,-0.217 0.327,-0.188C0.294,-0.158 0.261,-0.13 0.23,-0.105L0.533,-0.105L0.533,-0L0.051,-0Z" style="fill:white;fill-rule:nonzero;"/>
        </g>
        <g transform="matrix(5,0,0,5,38.6347,17.4342)">
            <path d="M0.355,0.012C0.29,0.012 0.235,-0.003 0.189,-0.034C0.143,-0.064 0.108,-0.106 0.083,-0.161C0.057,-0.215 0.045,-0.278 0.045,-0.35C0.045,-0.421 0.057,-0.484 0.083,-0.539C0.108,-0.594 0.143,-0.636 0.189,-0.667C0.235,-0.697 0.29,-0.712 0.355,-0.712C0.42,-0.712 0.475,-0.697 0.521,-0.667C0.567,-0.636 0.603,-0.594 0.628,-0.539C0.653,-0.484 0.665,-0.421 0.665,-0.35C0.665,-0.278 0.653,-0.215 0.628,-0.161C0.603,-0.106 0.567,-0.064 0.521,-0.034C0.475,-0.003 0.42,0.012 0.355,0.012ZM0.355,-0.103C0.408,-0.103 0.451,-0.125 0.484,-0.169C0.517,-0.213 0.534,-0.273 0.534,-0.35C0.534,-0.427 0.517,-0.487 0.484,-0.531C0.451,-0.575 0.408,-0.597 0.355,-0.597C0.302,-0.597 0.259,-0.575 0.226,-0.531C0.193,-0.487 0.176,-0.427 0.176,-0.35C0.176,-0.273 0.193,-0.213 0.226,-0.169C0.259,-0.125 0.302,-0.103 0.355,-0.103Z" style="fill:white;fill-rule:nonzero;"/>
        </g>
    </g>
    <g transform="matrix(1,0,0,1,14.1691,22.7246)">
        <g transform="matrix(5,0,0,5,3.01967,17.4342)">
            <path d="M0.068,-0L0.068,-0.7L0.22,-0.7L0.443,-0.256L0.663,-0.7L0.815,-0.7L0.815,-0L0.687,-0L0.687,-0.483L0.492,-0.1L0.391,-0.1L0.196,-0.483L0.196,-0L0.068,-0Z" style="fill:white;fill-rule:nonzero;"/>
        </g>
        <g transform="matrix(5,0,0,5,7.43467,17.4342)">
            <path d="M0.134,-0.573C0.111,-0.573 0.092,-0.58 0.077,-0.594C0.062,-0.608 0.054,-0.626 0.054,-0.647C0.054,-0.668 0.062,-0.686 0.077,-0.7C0.092,-0.713 0.111,-0.72 0.134,-0.72C0.157,-0.72 0.177,-0.713 0.192,-0.7C0.206,-0.686 0.214,-0.668 0.214,-0.647C0.214,-0.626 0.206,-0.608 0.192,-0.594C0.177,-0.58 0.157,-0.573 0.134,-0.573ZM0.07,-0L0.07,-0.496L0.198,-0.496L0.198,-0L0.07,-0Z" style="fill:white;fill-rule:nonzero;"/>
        </g>
        <g transform="matrix(5,0,0,5,8.76967,17.4342)">
            <path d="M0.065,-0L0.065,-0.496L0.178,-0.496L0.188,-0.412C0.203,-0.441 0.226,-0.465 0.255,-0.482C0.284,-0.499 0.318,-0.508 0.357,-0.508C0.418,-0.508 0.466,-0.489 0.5,-0.45C0.534,-0.411 0.551,-0.355 0.551,-0.28L0.551,-0L0.423,-0L0.423,-0.268C0.423,-0.311 0.414,-0.343 0.397,-0.366C0.38,-0.389 0.353,-0.4 0.316,-0.4C0.28,-0.4 0.251,-0.387 0.228,-0.362C0.205,-0.337 0.193,-0.301 0.193,-0.256L0.193,-0L0.065,-0Z" style="fill:white;fill-rule:nonzero;"/>
        </g>
        <g transform="matrix(5,0,0,5,11.8097,17.4342)">
            <path d="M0.293,0.012C0.246,0.012 0.205,0.001 0.168,-0.022C0.131,-0.045 0.102,-0.076 0.081,-0.115C0.06,-0.154 0.049,-0.199 0.049,-0.249C0.049,-0.299 0.06,-0.343 0.081,-0.383C0.102,-0.422 0.131,-0.452 0.168,-0.475C0.205,-0.497 0.246,-0.508 0.293,-0.508C0.33,-0.508 0.363,-0.501 0.391,-0.487C0.419,-0.473 0.442,-0.453 0.459,-0.428L0.459,-0.72L0.587,-0.72L0.587,-0L0.473,-0L0.459,-0.071C0.443,-0.049 0.422,-0.03 0.396,-0.013C0.369,0.004 0.335,0.012 0.293,0.012ZM0.32,-0.1C0.361,-0.1 0.395,-0.114 0.422,-0.142C0.448,-0.169 0.461,-0.205 0.461,-0.248C0.461,-0.291 0.448,-0.327 0.422,-0.355C0.395,-0.382 0.361,-0.396 0.32,-0.396C0.279,-0.396 0.246,-0.382 0.219,-0.355C0.192,-0.328 0.179,-0.292 0.179,-0.249C0.179,-0.206 0.192,-0.17 0.219,-0.142C0.246,-0.114 0.279,-0.1 0.32,-0.1Z" style="fill:white;fill-rule:nonzero;"/>
        </g>
        <g transform="matrix(5,0,0,5,15.0697,17.4342)">
            <path d="M0.088,-0L0.088,-0.389L0.02,-0.389L0.02,-0.496L0.088,-0.496L0.088,-0.554C0.088,-0.614 0.103,-0.657 0.134,-0.682C0.164,-0.707 0.205,-0.72 0.257,-0.72L0.312,-0.72L0.312,-0.611L0.277,-0.611C0.255,-0.611 0.239,-0.607 0.23,-0.598C0.221,-0.589 0.216,-0.575 0.216,-0.554L0.216,-0.496L0.323,-0.496L0.323,-0.389L0.216,-0.389L0.216,-0L0.088,-0Z" style="fill:white;fill-rule:nonzero;"/>
        </g>
        <g transform="matrix(5,0,0,5,16.8647,17.4342)">
            <path d="M0.543,-0.496L0.543,-0L0.43,-0L0.42,-0.084C0.405,-0.055 0.383,-0.031 0.354,-0.014C0.325,0.003 0.29,0.012 0.251,0.012C0.19,0.012 0.142,-0.007 0.108,-0.046C0.074,-0.085 0.057,-0.141 0.057,-0.216L0.057,-0.496L0.185,-0.496L0.185,-0.228C0.185,-0.185 0.194,-0.153 0.211,-0.13C0.228,-0.107 0.255,-0.096 0.292,-0.096C0.328,-0.096 0.358,-0.109 0.381,-0.134C0.404,-0.159 0.415,-0.195 0.415,-0.24L0.415,-0.496L0.543,-0.496Z" style="fill:white;fill-rule:nonzero;"/>
        </g>
        <g transform="matrix(5,0,0,5,19.9047,17.4342)">
            <rect x="0.065" y="-0.72" width="0.128" height="0.72" style="fill:white;fill-rule:nonzero;"/>
        </g>
        <g transform="matrix(5,0,0,5,21.1997,17.4342)">
            <path d="M0.065,-0L0.065,-0.496L0.178,-0.496L0.188,-0.412C0.203,-0.441 0.226,-0.465 0.255,-0.482C0.284,-0.499 0.318,-0.508 0.357,-0.508C0.418,-0.508 0.466,-0.489 0.5,-0.45C0.534,-0.411 0.551,-0.355 0.551,-0.28L0.551,-0L0.423,-0L0.423,-0.268C0.423,-0.311 0.414,-0.343 0.397,-0.366C0.38,-0.389 0.353,-0.4 0.316,-0.4C0.28,-0.4 0.251,-0.387 0.228,-0.362C0.205,-0.337 0.193,-0.301 0.193,-0.256L0.193,-0L0.065,-0Z" style="fill:white;fill-rule:nonzero;"/>
        </g>
        <g transform="matrix(5,0,0,5,24.2397,17.4342)">
            <path d="M0.306,0.012C0.256,0.012 0.212,0.001 0.173,-0.02C0.134,-0.041 0.104,-0.071 0.082,-0.11C0.06,-0.149 0.049,-0.193 0.049,-0.244C0.049,-0.295 0.06,-0.341 0.082,-0.381C0.103,-0.421 0.133,-0.452 0.172,-0.475C0.21,-0.497 0.255,-0.508 0.307,-0.508C0.356,-0.508 0.399,-0.497 0.436,-0.476C0.473,-0.455 0.502,-0.426 0.524,-0.389C0.545,-0.352 0.555,-0.31 0.555,-0.265C0.555,-0.258 0.555,-0.25 0.555,-0.242C0.554,-0.234 0.554,-0.226 0.553,-0.217L0.176,-0.217C0.179,-0.178 0.192,-0.148 0.217,-0.126C0.241,-0.104 0.27,-0.093 0.305,-0.093C0.331,-0.093 0.353,-0.099 0.371,-0.111C0.388,-0.122 0.401,-0.137 0.41,-0.156L0.54,-0.156C0.531,-0.125 0.515,-0.096 0.494,-0.071C0.472,-0.045 0.445,-0.025 0.414,-0.01C0.382,0.005 0.346,0.012 0.306,0.012ZM0.307,-0.404C0.276,-0.404 0.248,-0.395 0.224,-0.378C0.2,-0.36 0.185,-0.333 0.178,-0.297L0.425,-0.297C0.423,-0.33 0.411,-0.356 0.389,-0.375C0.367,-0.394 0.34,-0.404 0.307,-0.404Z" style="fill:white;fill-rule:nonzero;"/>
        </g>
        <g transform="matrix(5,0,0,5,27.2297,17.4342)">
            <path d="M0.27,0.012C0.226,0.012 0.187,0.005 0.154,-0.01C0.121,-0.024 0.094,-0.044 0.074,-0.069C0.054,-0.094 0.042,-0.124 0.038,-0.157L0.167,-0.157C0.171,-0.138 0.182,-0.121 0.2,-0.108C0.217,-0.094 0.24,-0.087 0.268,-0.087C0.296,-0.087 0.317,-0.093 0.33,-0.104C0.343,-0.115 0.349,-0.128 0.349,-0.143C0.349,-0.164 0.34,-0.179 0.321,-0.187C0.302,-0.194 0.276,-0.202 0.243,-0.209C0.222,-0.214 0.2,-0.219 0.178,-0.226C0.156,-0.233 0.136,-0.241 0.118,-0.252C0.099,-0.262 0.084,-0.275 0.073,-0.292C0.062,-0.308 0.056,-0.328 0.056,-0.352C0.056,-0.396 0.074,-0.433 0.109,-0.463C0.143,-0.493 0.193,-0.508 0.256,-0.508C0.315,-0.508 0.362,-0.494 0.397,-0.467C0.432,-0.44 0.452,-0.402 0.459,-0.354L0.338,-0.354C0.331,-0.391 0.303,-0.409 0.255,-0.409C0.231,-0.409 0.213,-0.404 0.2,-0.395C0.187,-0.386 0.18,-0.374 0.18,-0.36C0.18,-0.345 0.19,-0.334 0.209,-0.325C0.228,-0.316 0.254,-0.308 0.286,-0.301C0.321,-0.293 0.353,-0.284 0.382,-0.275C0.411,-0.265 0.434,-0.251 0.451,-0.232C0.468,-0.213 0.477,-0.185 0.477,-0.15C0.478,-0.119 0.47,-0.092 0.453,-0.067C0.436,-0.042 0.412,-0.023 0.381,-0.009C0.35,0.005 0.313,0.012 0.27,0.012Z" style="fill:white;fill-rule:nonzero;"/>
        </g>
        <g transform="matrix(5,0,0,5,29.8547,17.4342)">
            <path d="M0.27,0.012C0.226,0.012 0.187,0.005 0.154,-0.01C0.121,-0.024 0.094,-0.044 0.074,-0.069C0.054,-0.094 0.042,-0.124 0.038,-0.157L0.167,-0.157C0.171,-0.138 0.182,-0.121 0.2,-0.108C0.217,-0.094 0.24,-0.087 0.268,-0.087C0.296,-0.087 0.317,-0.093 0.33,-0.104C0.343,-0.115 0.349,-0.128 0.349,-0.143C0.349,-0.164 0.34,-0.179 0.321,-0.187C0.302,-0.194 0.276,-0.202 0.243,-0.209C0.222,-0.214 0.2,-0.219 0.178,-0.226C0.156,-0.233 0.136,-0.241 0.118,-0.252C0.099,-0.262 0.084,-0.275 0.073,-0.292C0.062,-0.308 0.056,-0.328 0.056,-0.352C0.056,-0.396 0.074,-0.433 0.109,-0.463C0.143,-0.493 0.193,-0.508 0.256,-0.508C0.315,-0.508 0.362,-0.494 0.397,-0.467C0.432,-0.44 0.452,-0.402 0.459,-0.354L0.338,-0.354C0.331,-0.391 0.303,-0.409 0.255,-0.409C0.231,-0.409 0.213,-0.404 0.2,-0.395C0.187,-0.386 0.18,-0.374 0.18,-0.36C0.18,-0.345 0.19,-0.334 0.209,-0.325C0.228,-0.316 0.254,-0.308 0.286,-0.301C0.321,-0.293 0.353,-0.284 0.382,-0.275C0.411,-0.265 0.434,-0.251 0.451,-0.232C0.468,-0.213 0.477,-0.185 0.477,-0.15C0.478,-0.119 0.47,-0.092 0.453,-0.067C0.436,-0.042 0.412,-0.023 0.381,-0.009C0.35,0.005 0.313,0.012 0.27,0.012Z" style="fill:white;fill-rule:nonzero;"/>
        </g>
        <g transform="matrix(5,0,0,5,33.6697,17.4342)">
            <path d="M0.292,0.011C0.241,0.011 0.196,0.002 0.158,-0.016C0.12,-0.033 0.091,-0.058 0.07,-0.09C0.049,-0.122 0.038,-0.159 0.038,-0.202C0.038,-0.247 0.051,-0.288 0.076,-0.325C0.101,-0.362 0.139,-0.391 0.189,-0.413C0.169,-0.436 0.155,-0.458 0.146,-0.479C0.137,-0.5 0.133,-0.522 0.133,-0.545C0.133,-0.577 0.141,-0.606 0.157,-0.631C0.173,-0.656 0.196,-0.675 0.226,-0.69C0.255,-0.705 0.291,-0.712 0.332,-0.712C0.374,-0.712 0.41,-0.704 0.439,-0.689C0.468,-0.674 0.491,-0.653 0.506,-0.627C0.521,-0.601 0.527,-0.572 0.526,-0.54L0.404,-0.54C0.404,-0.565 0.397,-0.583 0.383,-0.596C0.368,-0.608 0.351,-0.614 0.331,-0.614C0.308,-0.614 0.29,-0.608 0.277,-0.595C0.263,-0.582 0.256,-0.566 0.256,-0.546C0.256,-0.529 0.261,-0.512 0.272,-0.495C0.283,-0.478 0.298,-0.458 0.319,-0.435L0.515,-0.241C0.529,-0.264 0.544,-0.29 0.559,-0.32L0.581,-0.364L0.712,-0.364L0.677,-0.296C0.65,-0.242 0.624,-0.196 0.597,-0.159L0.758,-0L0.605,-0L0.527,-0.078C0.493,-0.047 0.457,-0.024 0.419,-0.01C0.38,0.004 0.338,0.011 0.292,0.011ZM0.162,-0.21C0.162,-0.177 0.174,-0.15 0.199,-0.128C0.223,-0.105 0.255,-0.094 0.296,-0.094C0.354,-0.094 0.404,-0.115 0.447,-0.156L0.262,-0.339C0.228,-0.324 0.203,-0.306 0.187,-0.284C0.17,-0.262 0.162,-0.237 0.162,-0.21Z" style="fill:white;fill-rule:nonzero;"/>
        </g>
        <g transform="matrix(5,0,0,5,38.7197,17.4342)">
            <path d="M0.068,-0L0.068,-0.7L0.327,-0.7C0.383,-0.7 0.429,-0.691 0.466,-0.672C0.503,-0.653 0.53,-0.628 0.548,-0.595C0.566,-0.562 0.575,-0.526 0.575,-0.485C0.575,-0.446 0.566,-0.411 0.549,-0.379C0.532,-0.346 0.505,-0.32 0.468,-0.301C0.431,-0.281 0.384,-0.271 0.327,-0.271L0.196,-0.271L0.196,-0L0.068,-0ZM0.196,-0.375L0.319,-0.375C0.364,-0.375 0.396,-0.385 0.416,-0.405C0.435,-0.424 0.445,-0.451 0.445,-0.485C0.445,-0.52 0.435,-0.547 0.416,-0.567C0.396,-0.586 0.364,-0.596 0.319,-0.596L0.196,-0.596L0.196,-0.375Z" style="fill:white;fill-rule:nonzero;"/>
        </g>
        <g transform="matrix(5,0,0,5,41.7547,17.4342)">
            <path d="M0.065,-0L0.065,-0.496L0.179,-0.496L0.191,-0.403C0.209,-0.435 0.234,-0.46 0.265,-0.48C0.296,-0.499 0.332,-0.508 0.374,-0.508L0.374,-0.373L0.338,-0.373C0.31,-0.373 0.285,-0.369 0.263,-0.36C0.241,-0.351 0.224,-0.336 0.212,-0.315C0.199,-0.294 0.193,-0.264 0.193,-0.226L0.193,-0L0.065,-0Z" style="fill:white;fill-rule:nonzero;"/>
        </g>
        <g transform="matrix(5,0,0,5,43.6897,17.4342)">
            <path d="M0.303,0.012C0.255,0.012 0.212,0.001 0.174,-0.021C0.135,-0.043 0.105,-0.074 0.083,-0.113C0.06,-0.152 0.049,-0.197 0.049,-0.248C0.049,-0.299 0.06,-0.345 0.083,-0.384C0.106,-0.423 0.136,-0.453 0.175,-0.475C0.213,-0.497 0.256,-0.508 0.304,-0.508C0.351,-0.508 0.394,-0.497 0.433,-0.475C0.471,-0.453 0.501,-0.423 0.524,-0.384C0.546,-0.345 0.557,-0.299 0.557,-0.248C0.557,-0.197 0.546,-0.152 0.524,-0.113C0.501,-0.074 0.471,-0.043 0.432,-0.021C0.393,0.001 0.35,0.012 0.303,0.012ZM0.303,-0.099C0.336,-0.099 0.365,-0.112 0.39,-0.137C0.415,-0.162 0.427,-0.199 0.427,-0.248C0.427,-0.297 0.415,-0.335 0.39,-0.36C0.365,-0.385 0.337,-0.397 0.304,-0.397C0.27,-0.397 0.241,-0.385 0.217,-0.36C0.192,-0.335 0.18,-0.297 0.18,-0.248C0.18,-0.199 0.192,-0.162 0.217,-0.137C0.241,-0.112 0.27,-0.099 0.303,-0.099Z" style="fill:white;fill-rule:nonzero;"/>
        </g>
        <g transform="matrix(5,0,0,5,46.7197,17.4342)">
            <path d="M0.293,0.012C0.246,0.012 0.205,0.001 0.168,-0.022C0.131,-0.045 0.102,-0.076 0.081,-0.115C0.06,-0.154 0.049,-0.199 0.049,-0.249C0.049,-0.299 0.06,-0.343 0.081,-0.383C0.102,-0.422 0.131,-0.452 0.168,-0.475C0.205,-0.497 0.246,-0.508 0.293,-0.508C0.33,-0.508 0.363,-0.501 0.391,-0.487C0.419,-0.473 0.442,-0.453 0.459,-0.428L0.459,-0.72L0.587,-0.72L0.587,-0L0.473,-0L0.459,-0.071C0.443,-0.049 0.422,-0.03 0.396,-0.013C0.369,0.004 0.335,0.012 0.293,0.012ZM0.32,-0.1C0.361,-0.1 0.395,-0.114 0.422,-0.142C0.448,-0.169 0.461,-0.205 0.461,-0.248C0.461,-0.291 0.448,-0.327 0.422,-0.355C0.395,-0.382 0.361,-0.396 0.32,-0.396C0.279,-0.396 0.246,-0.382 0.219,-0.355C0.192,-0.328 0.179,-0.292 0.179,-0.249C0.179,-0.206 0.192,-0.17 0.219,-0.142C0.246,-0.114 0.279,-0.1 0.32,-0.1Z" style="fill:white;fill-rule:nonzero;"/>
        </g>
        <g transform="matrix(5,0,0,5,49.9797,17.4342)">
            <path d="M0.543,-0.496L0.543,-0L0.43,-0L0.42,-0.084C0.405,-0.055 0.383,-0.031 0.354,-0.014C0.325,0.003 0.29,0.012 0.251,0.012C0.19,0.012 0.142,-0.007 0.108,-0.046C0.074,-0.085 0.057,-0.141 0.057,-0.216L0.057,-0.496L0.185,-0.496L0.185,-0.228C0.185,-0.185 0.194,-0.153 0.211,-0.13C0.228,-0.107 0.255,-0.096 0.292,-0.096C0.328,-0.096 0.358,-0.109 0.381,-0.134C0.404,-0.159 0.415,-0.195 0.415,-0.24L0.415,-0.496L0.543,-0.496Z" style="fill:white;fill-rule:nonzero;"/>
        </g>
        <g transform="matrix(5,0,0,5,53.0197,17.4342)">
            <path d="M0.308,0.012C0.257,0.012 0.213,0.001 0.174,-0.021C0.135,-0.043 0.105,-0.074 0.083,-0.113C0.06,-0.152 0.049,-0.197 0.049,-0.248C0.049,-0.299 0.06,-0.344 0.083,-0.383C0.105,-0.422 0.135,-0.453 0.174,-0.475C0.213,-0.497 0.257,-0.508 0.308,-0.508C0.371,-0.508 0.425,-0.492 0.468,-0.459C0.511,-0.426 0.539,-0.38 0.551,-0.322L0.416,-0.322C0.409,-0.346 0.396,-0.365 0.377,-0.379C0.357,-0.392 0.334,-0.399 0.307,-0.399C0.272,-0.399 0.242,-0.386 0.217,-0.359C0.192,-0.332 0.18,-0.295 0.18,-0.248C0.18,-0.201 0.192,-0.164 0.217,-0.137C0.242,-0.11 0.272,-0.097 0.307,-0.097C0.334,-0.097 0.357,-0.104 0.377,-0.117C0.396,-0.13 0.409,-0.149 0.416,-0.174L0.551,-0.174C0.539,-0.118 0.511,-0.073 0.468,-0.039C0.425,-0.005 0.371,0.012 0.308,0.012Z" style="fill:white;fill-rule:nonzero;"/>
        </g>
        <g transform="matrix(5,0,0,5,55.9847,17.4342)">
            <path d="M0.286,-0C0.234,-0 0.192,-0.013 0.161,-0.038C0.13,-0.063 0.114,-0.108 0.114,-0.173L0.114,-0.389L0.029,-0.389L0.029,-0.496L0.114,-0.496L0.129,-0.629L0.242,-0.629L0.242,-0.496L0.376,-0.496L0.376,-0.389L0.242,-0.389L0.242,-0.172C0.242,-0.148 0.247,-0.132 0.258,-0.123C0.268,-0.114 0.286,-0.109 0.311,-0.109L0.373,-0.109L0.373,-0L0.286,-0Z" style="fill:white;fill-rule:nonzero;"/>
        </g>
        <g transform="matrix(5,0,0,5,58.0897,17.4342)">
            <path d="M0.134,-0.573C0.111,-0.573 0.092,-0.58 0.077,-0.594C0.062,-0.608 0.054,-0.626 0.054,-0.647C0.054,-0.668 0.062,-0.686 0.077,-0.7C0.092,-0.713 0.111,-0.72 0.134,-0.72C0.157,-0.72 0.177,-0.713 0.192,-0.7C0.206,-0.686 0.214,-0.668 0.214,-0.647C0.214,-0.626 0.206,-0.608 0.192,-0.594C0.177,-0.58 0.157,-0.573 0.134,-0.573ZM0.07,-0L0.07,-0.496L0.198,-0.496L0.198,-0L0.07,-0Z" style="fill:white;fill-rule:nonzero;"/>
        </g>
        <g transform="matrix(5,0,0,5,59.4247,17.4342)">
            <path d="M0.199,-0L0.017,-0.496L0.151,-0.496L0.277,-0.121L0.403,-0.496L0.537,-0.496L0.354,-0L0.199,-0Z" style="fill:white;fill-rule:nonzero;"/>
        </g>
        <g transform="matrix(5,0,0,5,62.1897,17.4342)">
            <path d="M0.134,-0.573C0.111,-0.573 0.092,-0.58 0.077,-0.594C0.062,-0.608 0.054,-0.626 0.054,-0.647C0.054,-0.668 0.062,-0.686 0.077,-0.7C0.092,-0.713 0.111,-0.72 0.134,-0.72C0.157,-0.72 0.177,-0.713 0.192,-0.7C0.206,-0.686 0.214,-0.668 0.214,-0.647C0.214,-0.626 0.206,-0.608 0.192,-0.594C0.177,-0.58 0.157,-0.573 0.134,-0.573ZM0.07,-0L0.07,-0.496L0.198,-0.496L0.198,-0L0.07,-0Z" style="fill:white;fill-rule:nonzero;"/>
        </g>
        <g transform="matrix(5,0,0,5,63.5247,17.4342)">
            <path d="M0.286,-0C0.234,-0 0.192,-0.013 0.161,-0.038C0.13,-0.063 0.114,-0.108 0.114,-0.173L0.114,-0.389L0.029,-0.389L0.029,-0.496L0.114,-0.496L0.129,-0.629L0.242,-0.629L0.242,-0.496L0.376,-0.496L0.376,-0.389L0.242,-0.389L0.242,-0.172C0.242,-0.148 0.247,-0.132 0.258,-0.123C0.268,-0.114 0.286,-0.109 0.311,-0.109L0.373,-0.109L0.373,-0L0.286,-0Z" style="fill:white;fill-rule:nonzero;"/>
        </g>
        <g transform="matrix(5,0,0,5,65.6297,17.4342)">
            <path d="M0.127,0.22L0.242,-0.033L0.212,-0.033L0.019,-0.496L0.158,-0.496L0.297,-0.147L0.442,-0.496L0.578,-0.496L0.263,0.22L0.127,0.22Z" style="fill:white;fill-rule:nonzero;"/>
        </g>
    </g>
</svg>
