<svg clip-rule="evenodd" fill-rule="evenodd" stroke-linejoin="round" stroke-miterlimit="2" viewBox="0 0 100 50" xmlns="http://www.w3.org/2000/svg"><g fill="#fff"><path d="m2059.8 155.078c-1.29-3.216-2-6.727-2-10.404 0-1.811-1.47-3.282-3.29-3.282-1.81 0-3.28 1.471-3.28 3.282 0 4.543.89 8.883 2.49 12.856.67 1.68 2.59 2.495 4.27 1.818s2.49-2.59 1.81-4.27z" transform="matrix(.04471591743 .16688197845 -.16688197845 .04471591743 -58.57757567 -329.625752264)"/><path d="m2082.69 172.408c-6.89-.737-13.03-3.99-17.49-8.82-1.23-1.33-3.31-1.413-4.64-.184s-1.41 3.307-.18 4.637c5.51 5.967 13.1 9.982 21.61 10.893 1.81.192 3.42-1.113 3.62-2.914.19-1.801-1.12-3.42-2.92-3.612z" transform="matrix(.04471591743 .16688197845 -.16688197845 .04471591743 -58.57757567 -329.625752264)"/><path d="m2329.59 109.156c6.64.87 13.05 3.854 18.15 8.951 11.48 11.487 12.24 29.667 2.26 42.032-1.04 1.289-2.93 1.491-4.22.452-1.29-1.04-1.49-2.93-.45-4.219 8.08-10.009 7.46-24.725-1.83-34.022-3.93-3.925-8.82-6.301-13.91-7.13z" transform="matrix(.163665 .094492 -.094492 .163665 -356.789565352 -217.804606205)"/><path d="m307.971 412.093c.815 0 1.543.508 1.825 1.272 1.669 4.523 7.31 19.807 9.062 24.553.301.816-.037 1.73-.796 2.154 0 0 0 0-.001 0-3.607 2.015-5.841 5.823-5.841 9.954-2.517 2.742-11.336 2.742-14.323 0 0-4.131-2.235-7.939-5.842-9.954-.76-.424-1.098-1.338-.796-2.154 1.751-4.746 7.392-20.03 9.061-24.553.282-.764 1.011-1.272 1.825-1.272h.004c.374 0 .732.149.996.413.265.265.413.623.413.997v19.123c-1.465.594-2.5 2.032-2.5 3.709 0 2.208 1.792 4 4 4s4-1.792 4-4c0-1.677-1.035-3.115-2.5-3.709v-19.123c0-.374.149-.732.413-.997.264-.264.623-.413.996-.413z" transform="matrix(.2083259052 .12027697696 -.12027697696 .2083259052 -.498388494 -102.735129904)"/><path d="m2205.68 166.712c-7.9 4.603-17.76 4.603-25.66 0-1.43-.833-3.27-.348-4.1 1.082-.83 1.431-.35 3.269 1.08 4.103 9.76 5.686 21.94 5.686 31.7 0 1.43-.834 1.91-2.672 1.08-4.103-.83-1.43-2.67-1.915-4.1-1.082z" transform="matrix(.163665 .094492 -.094492 .163665 -334.680390038 -205.976472265)"/><g fill-rule="nonzero"><path d="m.025 0 .123-.7h.239c.105 0 .183.026.232.077s.074.121.074.208c0 .081-.018.153-.053.216-.036.063-.086.111-.15.146-.064.036-.139.053-.226.053zm.147-.11h.105c.061 0 .112-.012.155-.036.042-.024.074-.058.096-.102s.033-.096.033-.156c0-.063-.016-.11-.048-.141s-.082-.046-.151-.046h-.105z" transform="matrix(9.9426634335 0 0 9.9426634335 21.98948996 28.42595008)"/><path d="m.26.012c-.066 0-.119-.019-.157-.057-.039-.038-.059-.089-.059-.154 0-.042.007-.082.022-.119s.036-.07.063-.099c.027-.028.06-.05.098-.067.037-.016.079-.024.124-.024.044 0 .082.008.113.025s.056.041.073.07c.017.03.025.064.025.102 0 .016-.001.032-.004.049s-.007.032-.011.045h-.377v.017c0 .033.01.06.03.078.02.02.046.029.078.029.025 0 .048-.006.068-.018.019-.011.035-.026.048-.045h.13c-.015.032-.036.061-.062.086-.027.025-.057.045-.091.06-.035.015-.072.022-.111.022zm.074-.416c-.031 0-.06.009-.087.026-.027.018-.047.045-.06.081h.247c.001-.005.001-.009.001-.011.001-.029-.008-.053-.027-.07s-.043-.026-.074-.026z" transform="matrix(9.9426634335 0 0 9.9426634335 29.10923702 28.42595008)"/><path d="m.23.012c-.045 0-.084-.008-.115-.023-.032-.015-.056-.036-.072-.063s-.023-.057-.02-.091h.128c-.001.023.007.042.023.057s.04.022.072.022c.028 0 .05-.006.066-.018.015-.012.023-.027.023-.046 0-.017-.008-.029-.025-.037-.017-.007-.038-.014-.064-.02-.027-.007-.054-.015-.08-.026s-.047-.025-.064-.042-.026-.04-.026-.067c0-.032.01-.061.029-.086.019-.024.045-.044.078-.059.033-.014.072-.021.115-.021.059 0 .105.014.139.042s.05.066.049.114h-.123c-.001-.017-.008-.031-.022-.042-.015-.011-.034-.016-.057-.016-.024 0-.043.005-.058.015-.015.011-.023.024-.023.039s.009.026.027.033c.017.008.04.015.069.022.031.007.06.016.085.027s.044.024.06.041c.015.017.022.04.022.067 0 .036-.01.067-.031.094s-.049.047-.084.062c-.036.015-.076.022-.121.022z" transform="matrix(9.9426634335 0 0 9.9426634335 35.03465204 28.42595008)"/><path d="m.205-.57c-.023 0-.042-.007-.057-.022-.016-.014-.023-.032-.023-.053s.007-.039.023-.054c.015-.014.034-.021.057-.021s.042.007.058.021c.015.015.022.033.022.054s-.007.039-.022.053c-.016.015-.035.022-.058.022zm-.178.57.087-.496h.128l-.087.496z" transform="matrix(9.9426634335 0 0 9.9426634335 40.36390637 28.42595008)"/><path d="m.247.232c-.041 0-.08-.007-.116-.021-.037-.014-.066-.036-.087-.065-.022-.029-.032-.067-.03-.114h.127c.001.028.013.05.036.066.022.015.051.023.086.023.025 0 .049-.005.072-.015.023-.011.044-.027.061-.048.017-.022.028-.049.033-.082l.011-.062c-.019.024-.045.045-.076.062-.032.018-.069.027-.111.027-.041 0-.078-.01-.109-.029s-.056-.044-.073-.077c-.017-.032-.026-.068-.026-.108 0-.041.007-.079.022-.115s.035-.068.062-.095c.026-.027.057-.049.092-.064s.073-.023.114-.023c.038 0 .072.008.101.023.029.016.051.036.064.059l.028-.07h.112l-.083.47c-.01.057-.03.105-.06.144-.031.038-.068.067-.111.086s-.09.028-.139.028zm.051-.34c.031 0 .06-.008.086-.024.026-.015.047-.036.062-.062s.023-.055.023-.087c0-.033-.011-.061-.034-.083-.023-.021-.054-.032-.091-.032-.032 0-.061.008-.086.023s-.045.036-.059.061c-.015.026-.022.054-.022.085 0 .034.011.062.033.085.021.023.051.034.088.034z" transform="matrix(9.9426634335 0 0 9.9426634335 43.04813747 28.42595008)"/><path d="m.022 0 .087-.496h.113l-.003.082c.021-.029.047-.052.078-.069s.066-.025.105-.025c.051 0 .091.014.12.042.028.029.042.07.042.123 0 .019-.002.04-.006.063l-.05.28h-.128l.048-.268c.001-.008.002-.016.003-.023s.001-.013.001-.019c0-.06-.03-.09-.089-.09-.035 0-.067.012-.094.037-.027.026-.045.06-.053.103l-.046.26z" transform="matrix(9.9426634335 0 0 9.9426634335 49.63103831 28.42595008)"/><path d="m.053-.236.018-.107h.419l-.019.107z" transform="matrix(9.9426634335 0 0 9.9426634335 55.6861409 28.42595008)"/><path d="m.243.012c-.041 0-.077-.01-.106-.029s-.052-.046-.068-.079-.024-.071-.024-.112c0-.057.012-.108.038-.153.025-.045.058-.081.101-.108.042-.026.089-.039.141-.039.041 0 .075.007.1.022.025.016.044.035.057.058l.026-.068h.114l-.088.496h-.113l-.003-.071c-.019.022-.042.041-.07.058-.029.017-.064.025-.105.025zm.049-.112c.031 0 .059-.008.084-.025.024-.016.043-.038.058-.065.014-.027.021-.057.021-.09 0-.035-.01-.063-.031-.084s-.049-.032-.085-.032c-.031 0-.059.008-.083.023-.025.015-.044.036-.058.062s-.021.055-.021.088c0 .035.01.064.031.087.02.024.048.036.084.036z" transform="matrix(9.9426634335 0 0 9.9426634335 60.92592086 28.42595008)"/><path d="m.053-.236.018-.107h.419l-.019.107z" transform="matrix(9.9426634335 0 0 9.9426634335 67.32886763 28.42595008)"/><path d="m.234 0c-.045 0-.081-.009-.108-.028-.028-.019-.041-.051-.041-.097 0-.015.002-.031.005-.049l.038-.215h-.08l.019-.107h.08l.038-.133h.114l-.024.133h.135l-.02.107h-.133l-.039.216c-.001.007-.002.013-.002.02 0 .016.005.027.014.034s.023.01.044.01h.068l-.02.109z" transform="matrix(9.9426634335 0 0 9.9426634335 72.56864759 28.42595008)"/><path d="m.022 0 .126-.72h.128l-.052.3c.021-.027.047-.048.078-.064s.065-.024.102-.024c.061 0 .105.019.133.058.027.039.034.095.021.17l-.05.28h-.128l.048-.268c.007-.043.004-.075-.009-.098s-.039-.034-.076-.034c-.035 0-.067.013-.094.038s-.045.061-.054.106v-.001l-.045.257z" transform="matrix(9.9426634335 0 0 9.9426634335 76.66436201 28.42595008)"/><path d="m.263.012c-.043 0-.081-.01-.114-.029s-.058-.046-.076-.079c-.019-.032-.028-.07-.028-.113 0-.042.008-.081.023-.118.015-.036.035-.068.063-.095.027-.027.058-.048.094-.064.036-.015.075-.022.116-.022.044 0 .083.009.116.028s.058.044.077.077.028.071.028.114-.008.082-.023.118c-.015.037-.036.069-.063.096-.028.027-.059.049-.095.064-.037.015-.076.023-.118.023zm.017-.111c.029 0 .054-.008.077-.024s.041-.038.054-.066c.013-.027.02-.058.02-.093 0-.037-.01-.065-.03-.085-.021-.02-.045-.03-.074-.03-.028 0-.053.008-.076.024s-.042.038-.055.065c-.013.028-.02.059-.02.094 0 .037.01.065.031.085.02.02.044.03.073.03z" transform="matrix(9.9426634335 0 0 9.9426634335 82.7194646 28.42595008)"/><path d="m.022 0 .087-.496h.113l-.003.082c.021-.029.047-.052.078-.069s.066-.025.105-.025c.051 0 .091.014.12.042.028.029.042.07.042.123 0 .019-.002.04-.006.063l-.05.28h-.128l.048-.268c.001-.008.002-.016.003-.023s.001-.013.001-.019c0-.06-.03-.09-.089-.09-.035 0-.067.012-.094.037-.027.026-.045.06-.053.103l-.046.26z" transform="matrix(9.9426634335 0 0 9.9426634335 88.75446059 28.42595008)"/><path d="m.051 0v-.093c.043-.035.084-.07.125-.105.04-.035.076-.069.108-.103.031-.034.057-.067.076-.1.019-.032.028-.063.028-.094 0-.029-.008-.054-.023-.076-.016-.022-.042-.033-.078-.033-.037 0-.064.012-.083.036s-.028.053-.028.087h-.124c.001-.051.013-.094.034-.129.021-.034.05-.06.085-.077s.075-.025.119-.025c.071 0 .127.02.167.058.039.04.059.09.059.152 0 .039-.009.076-.026.113-.018.037-.041.072-.07.106s-.06.066-.093.095c-.033.03-.066.058-.097.083h.303v.105z" transform="matrix(5 0 0 5 43.6188 17.4342)"/><path d="m.355.012c-.065 0-.12-.015-.166-.046-.046-.03-.081-.072-.106-.127-.026-.054-.038-.117-.038-.189 0-.071.012-.134.038-.189.025-.055.06-.097.106-.128.046-.03.101-.045.166-.045s.12.015.166.045c.046.031.082.073.107.128s.037.118.037.189c0 .072-.012.135-.037.189-.025.055-.061.097-.107.127-.046.031-.101.046-.166.046zm0-.115c.053 0 .096-.022.129-.066s.05-.104.05-.181-.017-.137-.05-.181-.076-.066-.129-.066-.096.022-.129.066-.05.104-.05.181.017.137.05.181.076.066.129.066z" transform="matrix(5 0 0 5 46.4488 17.4342)"/><path d="m.051 0v-.093c.043-.035.084-.07.125-.105.04-.035.076-.069.108-.103.031-.034.057-.067.076-.1.019-.032.028-.063.028-.094 0-.029-.008-.054-.023-.076-.016-.022-.042-.033-.078-.033-.037 0-.064.012-.083.036s-.028.053-.028.087h-.124c.001-.051.013-.094.034-.129.021-.034.05-.06.085-.077s.075-.025.119-.025c.071 0 .127.02.167.058.039.04.059.09.059.152 0 .039-.009.076-.026.113-.018.037-.041.072-.07.106s-.06.066-.093.095c-.033.03-.066.058-.097.083h.303v.105z" transform="matrix(5 0 0 5 49.9738 17.4342)"/><path d="m.355.012c-.065 0-.12-.015-.166-.046-.046-.03-.081-.072-.106-.127-.026-.054-.038-.117-.038-.189 0-.071.012-.134.038-.189.025-.055.06-.097.106-.128.046-.03.101-.045.166-.045s.12.015.166.045c.046.031.082.073.107.128s.037.118.037.189c0 .072-.012.135-.037.189-.025.055-.061.097-.107.127-.046.031-.101.046-.166.046zm0-.115c.053 0 .096-.022.129-.066s.05-.104.05-.181-.017-.137-.05-.181-.076-.066-.129-.066-.096.022-.129.066-.05.104-.05.181.017.137.05.181.076.066.129.066z" transform="matrix(5 0 0 5 52.8038 17.4342)"/><path d="m.068 0v-.7h.152l.223.444.22-.444h.152v.7h-.128v-.483l-.195.383h-.101l-.195-.383v.483z" transform="matrix(5 0 0 5 17.18877 40.1588)"/><path d="m.134-.573c-.023 0-.042-.007-.057-.021s-.023-.032-.023-.053.008-.039.023-.053c.015-.013.034-.02.057-.02s.043.007.058.02c.014.014.022.032.022.053s-.008.039-.022.053c-.015.014-.035.021-.058.021zm-.064.573v-.496h.128v.496z" transform="matrix(5 0 0 5 21.60377 40.1588)"/><path d="m.065 0v-.496h.113l.01.084c.015-.029.038-.053.067-.07s.063-.026.102-.026c.061 0 .109.019.143.058s.051.095.051.17v.28h-.128v-.268c0-.043-.009-.075-.026-.098s-.044-.034-.081-.034c-.036 0-.065.013-.088.038s-.035.061-.035.106v.256z" transform="matrix(5 0 0 5 22.93877 40.1588)"/><path d="m.293.012c-.047 0-.088-.011-.125-.034s-.066-.054-.087-.093-.032-.084-.032-.134.011-.094.032-.134c.021-.039.05-.069.087-.092.037-.022.078-.033.125-.033.037 0 .07.007.098.021s.051.034.068.059v-.292h.128v.72h-.114l-.014-.071c-.016.022-.037.041-.063.058-.027.017-.061.025-.103.025zm.027-.112c.041 0 .075-.014.102-.042.026-.027.039-.063.039-.106s-.013-.079-.039-.107c-.027-.027-.061-.041-.102-.041s-.074.014-.101.041-.04.063-.04.106.013.079.04.107.06.042.101.042z" transform="matrix(5 0 0 5 25.9788 40.1588)"/><path d="m.088 0v-.389h-.068v-.107h.068v-.058c0-.06.015-.103.046-.128.03-.025.071-.038.123-.038h.055v.109h-.035c-.022 0-.038.004-.047.013s-.014.023-.014.044v.058h.107v.107h-.107v.389z" transform="matrix(5 0 0 5 29.2388 40.1588)"/><path d="m.543-.496v.496h-.113l-.01-.084c-.015.029-.037.053-.066.07s-.064.026-.103.026c-.061 0-.109-.019-.143-.058s-.051-.095-.051-.17v-.28h.128v.268c0 .043.009.075.026.098s.044.034.081.034c.036 0 .066-.013.089-.038s.034-.061.034-.106v-.256z" transform="matrix(5 0 0 5 31.0338 40.1588)"/><path d="m34.3988 36.5588h.64v3.6h-.64z" stroke-width="5"/><path d="m.065 0v-.496h.113l.01.084c.015-.029.038-.053.067-.07s.063-.026.102-.026c.061 0 .109.019.143.058s.051.095.051.17v.28h-.128v-.268c0-.043-.009-.075-.026-.098s-.044-.034-.081-.034c-.036 0-.065.013-.088.038s-.035.061-.035.106v.256z" transform="matrix(5 0 0 5 35.3688 40.1588)"/><path d="m.306.012c-.05 0-.094-.011-.133-.032s-.069-.051-.091-.09-.033-.083-.033-.134.011-.097.033-.137c.021-.04.051-.071.09-.094.038-.022.083-.033.135-.033.049 0 .092.011.129.032s.066.05.088.087c.021.037.031.079.031.124v.023c-.001.008-.001.016-.002.025h-.377c.003.039.016.069.041.091.024.022.053.033.088.033.026 0 .048-.006.066-.018.017-.011.03-.026.039-.045h.13c-.009.031-.025.06-.046.085-.022.026-.049.046-.08.061-.032.015-.068.022-.108.022zm.001-.416c-.031 0-.059.009-.083.026-.024.018-.039.045-.046.081h.247c-.002-.033-.014-.059-.036-.078s-.049-.029-.082-.029z" transform="matrix(5 0 0 5 38.4088 40.1588)"/><path d="m.27.012c-.044 0-.083-.007-.116-.022-.033-.014-.06-.034-.08-.059s-.032-.055-.036-.088h.129c.004.019.015.036.033.049.017.014.04.021.068.021s.049-.006.062-.017.019-.024.019-.039c0-.021-.009-.036-.028-.044-.019-.007-.045-.015-.078-.022-.021-.005-.043-.01-.065-.017s-.042-.015-.06-.026c-.019-.01-.034-.023-.045-.04-.011-.016-.017-.036-.017-.06 0-.044.018-.081.053-.111.034-.03.084-.045.147-.045.059 0 .106.014.141.041s.055.065.062.113h-.121c-.007-.037-.035-.055-.083-.055-.024 0-.042.005-.055.014s-.02.021-.02.035c0 .015.01.026.029.035s.045.017.077.024c.035.008.067.017.096.026.029.01.052.024.069.043s.026.047.026.082c.001.031-.007.058-.024.083s-.041.044-.072.058-.068.021-.111.021z" transform="matrix(5 0 0 5 41.3988 40.1588)"/><path d="m.27.012c-.044 0-.083-.007-.116-.022-.033-.014-.06-.034-.08-.059s-.032-.055-.036-.088h.129c.004.019.015.036.033.049.017.014.04.021.068.021s.049-.006.062-.017.019-.024.019-.039c0-.021-.009-.036-.028-.044-.019-.007-.045-.015-.078-.022-.021-.005-.043-.01-.065-.017s-.042-.015-.06-.026c-.019-.01-.034-.023-.045-.04-.011-.016-.017-.036-.017-.06 0-.044.018-.081.053-.111.034-.03.084-.045.147-.045.059 0 .106.014.141.041s.055.065.062.113h-.121c-.007-.037-.035-.055-.083-.055-.024 0-.042.005-.055.014s-.02.021-.02.035c0 .015.01.026.029.035s.045.017.077.024c.035.008.067.017.096.026.029.01.052.024.069.043s.026.047.026.082c.001.031-.007.058-.024.083s-.041.044-.072.058-.068.021-.111.021z" transform="matrix(5 0 0 5 44.0238 40.1588)"/><path d="m.292.011c-.051 0-.096-.009-.134-.027-.038-.017-.067-.042-.088-.074s-.032-.069-.032-.112c0-.045.013-.086.038-.123s.063-.066.113-.088c-.02-.023-.034-.045-.043-.066s-.013-.043-.013-.066c0-.032.008-.061.024-.086s.039-.044.069-.059c.029-.015.065-.022.106-.022.042 0 .078.008.107.023s.052.036.067.062.021.055.02.087h-.122c0-.025-.007-.043-.021-.056-.015-.012-.032-.018-.052-.018-.023 0-.041.006-.054.019-.014.013-.021.029-.021.049 0 .017.005.034.016.051s.026.037.047.06l.196.194c.014-.023.029-.049.044-.079l.022-.044h.131l-.035.068c-.027.054-.053.1-.08.137l.161.159h-.153l-.078-.078c-.034.031-.07.054-.108.068-.039.014-.081.021-.127.021zm-.13-.221c0 .033.012.06.037.082.024.023.056.034.097.034.058 0 .108-.021.151-.062l-.185-.183c-.034.015-.059.033-.075.055-.017.022-.025.047-.025.074z" transform="matrix(5 0 0 5 47.8388 40.1588)"/><path d="m.068 0v-.7h.259c.056 0 .102.009.139.028s.064.044.082.077.027.069.027.11c0 .039-.009.074-.026.106-.017.033-.044.059-.081.078-.037.02-.084.03-.141.03h-.131v.271zm.128-.375h.123c.045 0 .077-.01.097-.03.019-.019.029-.046.029-.08 0-.035-.01-.062-.029-.082-.02-.019-.052-.029-.097-.029h-.123z" transform="matrix(5 0 0 5 52.8888 40.1588)"/><path d="m.065 0v-.496h.114l.012.093c.018-.032.043-.057.074-.077.031-.019.067-.028.109-.028v.135h-.036c-.028 0-.053.004-.075.013s-.039.024-.051.045c-.013.021-.019.051-.019.089v.226z" transform="matrix(5 0 0 5 55.9238 40.1588)"/><path d="m.303.012c-.048 0-.091-.011-.129-.033-.039-.022-.069-.053-.091-.092-.023-.039-.034-.084-.034-.135s.011-.097.034-.136.053-.069.092-.091c.038-.022.081-.033.129-.033.047 0 .09.011.129.033.038.022.068.052.091.091.022.039.033.085.033.136s-.011.096-.033.135c-.023.039-.053.07-.092.092-.039.022-.082.033-.129.033zm0-.111c.033 0 .062-.013.087-.038s.037-.062.037-.111-.012-.087-.037-.112-.053-.037-.086-.037c-.034 0-.063.012-.087.037-.025.025-.037.063-.037.112s.012.086.037.111c.024.025.053.038.086.038z" transform="matrix(5 0 0 5 57.8588 40.1588)"/><path d="m.293.012c-.047 0-.088-.011-.125-.034s-.066-.054-.087-.093-.032-.084-.032-.134.011-.094.032-.134c.021-.039.05-.069.087-.092.037-.022.078-.033.125-.033.037 0 .07.007.098.021s.051.034.068.059v-.292h.128v.72h-.114l-.014-.071c-.016.022-.037.041-.063.058-.027.017-.061.025-.103.025zm.027-.112c.041 0 .075-.014.102-.042.026-.027.039-.063.039-.106s-.013-.079-.039-.107c-.027-.027-.061-.041-.102-.041s-.074.014-.101.041-.04.063-.04.106.013.079.04.107.06.042.101.042z" transform="matrix(5 0 0 5 60.8888 40.1588)"/><path d="m.543-.496v.496h-.113l-.01-.084c-.015.029-.037.053-.066.07s-.064.026-.103.026c-.061 0-.109-.019-.143-.058s-.051-.095-.051-.17v-.28h.128v.268c0 .043.009.075.026.098s.044.034.081.034c.036 0 .066-.013.089-.038s.034-.061.034-.106v-.256z" transform="matrix(5 0 0 5 64.1488 40.1588)"/><path d="m.308.012c-.051 0-.095-.011-.134-.033s-.069-.053-.091-.092c-.023-.039-.034-.084-.034-.135s.011-.096.034-.135c.022-.039.052-.07.091-.092s.083-.033.134-.033c.063 0 .117.016.16.049s.071.079.083.137h-.135c-.007-.024-.02-.043-.039-.057-.02-.013-.043-.02-.07-.02-.035 0-.065.013-.09.04s-.037.064-.037.111.012.084.037.111.055.04.09.04c.027 0 .05-.007.07-.02.019-.013.032-.032.039-.057h.135c-.012.056-.04.101-.083.135-.043.034-.097.051-.16.051z" transform="matrix(5 0 0 5 67.1888 40.1588)"/><path d="m.286 0c-.052 0-.094-.013-.125-.038s-.047-.07-.047-.135v-.216h-.085v-.107h.085l.015-.133h.113v.133h.134v.107h-.134v.217c0 .024.005.04.016.049.01.009.028.014.053.014h.062v.109z" transform="matrix(5 0 0 5 70.1538 40.1588)"/><path d="m.134-.573c-.023 0-.042-.007-.057-.021s-.023-.032-.023-.053.008-.039.023-.053c.015-.013.034-.02.057-.02s.043.007.058.02c.014.014.022.032.022.053s-.008.039-.022.053c-.015.014-.035.021-.058.021zm-.064.573v-.496h.128v.496z" transform="matrix(5 0 0 5 72.2588 40.1588)"/><path d="m.199 0-.182-.496h.134l.126.375.126-.375h.134l-.183.496z" transform="matrix(5 0 0 5 73.5938 40.1588)"/><path d="m.134-.573c-.023 0-.042-.007-.057-.021s-.023-.032-.023-.053.008-.039.023-.053c.015-.013.034-.02.057-.02s.043.007.058.02c.014.014.022.032.022.053s-.008.039-.022.053c-.015.014-.035.021-.058.021zm-.064.573v-.496h.128v.496z" transform="matrix(5 0 0 5 76.3588 40.1588)"/><path d="m.286 0c-.052 0-.094-.013-.125-.038s-.047-.07-.047-.135v-.216h-.085v-.107h.085l.015-.133h.113v.133h.134v.107h-.134v.217c0 .024.005.04.016.049.01.009.028.014.053.014h.062v.109z" transform="matrix(5 0 0 5 77.6938 40.1588)"/><path d="m.127.22.115-.253h-.03l-.193-.463h.139l.139.349.145-.349h.136l-.315.716z" transform="matrix(5 0 0 5 79.7988 40.1588)"/></g></g></svg>