<?xml version="1.0" encoding="UTF-8" standalone="no"?>
<!DOCTYPE svg PUBLIC "-//W3C//DTD SVG 1.1//EN" "http://www.w3.org/Graphics/SVG/1.1/DTD/svg11.dtd">
<svg width="100%" height="100%" viewBox="0 0 100 100" version="1.1" xmlns="http://www.w3.org/2000/svg" xmlns:xlink="http://www.w3.org/1999/xlink" xml:space="preserve" xmlns:serif="http://www.serif.com/" style="fill-rule:evenodd;clip-rule:evenodd;stroke-linejoin:round;stroke-miterlimit:2;">
    <g transform="matrix(1.78571,0,0,1.78571,-843.06,-765.964)">
        <path d="M512.502,431.826C514.161,432.647 515.728,433.628 517.182,434.749L477.32,484.94L472.113,484.94L472.113,454.644L512.502,431.826ZM506.531,455.717L505.569,457.192C495.592,474.172 494.638,481.047 496.294,484.939L496.288,484.939L496.294,484.94L483.322,484.94L506.531,455.717ZM520.661,437.926C525.285,442.92 528.113,449.602 528.113,456.94C528.113,467.085 522.706,475.977 514.619,480.889C505.8,479.824 505.309,458.846 514.205,446.055L520.661,437.926ZM485.938,456.939C488.771,456.939 491.071,459.239 491.071,462.072C491.071,464.905 488.771,467.206 485.938,467.206C483.105,467.206 480.804,464.905 480.804,462.072C480.804,459.239 483.105,456.939 485.938,456.939ZM472.113,449.246L472.113,428.94L500.113,428.94C502.376,428.94 504.576,429.209 506.682,429.716L472.113,449.246Z" style="fill:white;"/>
    </g>
</svg>
