<svg clip-rule="evenodd" fill-rule="evenodd" stroke-linejoin="round" stroke-miterlimit="2" viewBox="0 0 100 16" xmlns="http://www.w3.org/2000/svg"><g fill-rule="nonzero"><path d="m.068 0v-.7h.239c.082 0 .149.014.203.043.053.03.092.07.118.122.025.053.038.114.038.185s-.013.132-.038.184c-.026.053-.065.093-.118.122-.054.029-.121.044-.203.044zm.128-.11h.105c.059 0 .105-.01.139-.029s.058-.046.073-.082c.015-.035.022-.078.022-.129 0-.05-.007-.093-.022-.129s-.039-.064-.073-.083-.08-.029-.139-.029h-.105z" transform="matrix(15.46308 0 0 15.46308 -1.051544374 12.41252152)"/><path d="m.306.012c-.05 0-.094-.011-.133-.032s-.069-.051-.091-.09-.033-.083-.033-.134.011-.097.033-.137c.021-.04.051-.071.09-.094.038-.022.083-.033.135-.033.049 0 .092.011.129.032s.066.05.088.087c.021.037.031.079.031.124v.023c-.001.008-.001.016-.002.025h-.377c.003.039.016.069.041.091.024.022.053.033.088.033.026 0 .048-.006.066-.018.017-.011.03-.026.039-.045h.13c-.009.031-.025.06-.046.085-.022.026-.049.046-.08.061-.032.015-.068.022-.108.022zm.001-.416c-.031 0-.059.009-.083.026-.024.018-.039.045-.046.081h.247c-.002-.033-.014-.059-.036-.078s-.049-.029-.082-.029z" transform="matrix(15.46308 0 0 15.46308 9.942705506 12.41252152)"/><path d="m.27.012c-.044 0-.083-.007-.116-.022-.033-.014-.06-.034-.08-.059s-.032-.055-.036-.088h.129c.004.019.015.036.033.049.017.014.04.021.068.021s.049-.006.062-.017.019-.024.019-.039c0-.021-.009-.036-.028-.044-.019-.007-.045-.015-.078-.022-.021-.005-.043-.01-.065-.017s-.042-.015-.06-.026c-.019-.01-.034-.023-.045-.04-.011-.016-.017-.036-.017-.06 0-.044.018-.081.053-.111.034-.03.084-.045.147-.045.059 0 .106.014.141.041s.055.065.062.113h-.121c-.007-.037-.035-.055-.083-.055-.024 0-.042.005-.055.014s-.02.021-.02.035c0 .015.01.026.029.035s.045.017.077.024c.035.008.067.017.096.026.029.01.052.024.069.043s.026.047.026.082c.001.031-.007.058-.024.083s-.041.044-.072.058-.068.021-.111.021z" transform="matrix(15.46308 0 0 15.46308 19.189627346 12.41252152)"/><path d="m.134-.573c-.023 0-.042-.007-.057-.021s-.023-.032-.023-.053.008-.039.023-.053c.015-.013.034-.02.057-.02s.043.007.058.02c.014.014.022.032.022.053s-.008.039-.022.053c-.015.014-.035.021-.058.021zm-.064.573v-.496h.128v.496z" transform="matrix(15.46308 0 0 15.46308 27.307744346 12.41252152)"/><path d="m.332.232c-.042 0-.082-.007-.121-.021s-.071-.036-.098-.065-.043-.067-.048-.114h.127c.006.028.022.05.047.066.025.015.055.023.09.023.038 0 .071-.012.099-.035.027-.024.041-.061.041-.11v-.062c-.015.024-.036.045-.064.062-.029.018-.064.027-.107.027-.047 0-.09-.011-.127-.034s-.067-.053-.089-.092c-.022-.038-.033-.081-.033-.13s.011-.092.033-.131c.022-.038.052-.068.09-.091.037-.022.079-.033.126-.033.038 0 .072.008.101.023.029.016.053.036.07.059l.013-.07h.115v.465c0 .057-.012.106-.036.145s-.056.068-.096.088c-.041.02-.085.03-.133.03zm-.008-.34c.028 0 .053-.006.075-.019.021-.013.038-.03.051-.052.012-.022.018-.046.018-.073 0-.042-.013-.077-.04-.104s-.061-.04-.104-.04-.077.013-.104.04-.04.062-.04.103c0 .027.006.052.018.074s.029.039.051.052c.021.013.046.019.075.019z" transform="matrix(15.46308 0 0 15.46308 31.436386706 12.41252152)"/><path d="m.065 0v-.496h.113l.01.084c.015-.029.038-.053.067-.07s.063-.026.102-.026c.061 0 .109.019.143.058s.051.095.051.17v.28h-.128v-.268c0-.043-.009-.075-.026-.098s-.044-.034-.081-.034c-.036 0-.065.013-.088.038s-.035.061-.035.106v.256z" transform="matrix(15.46308 0 0 15.46308 41.688408746 12.41252152)"/><path d="m.293.012c-.047 0-.088-.011-.125-.034s-.066-.054-.087-.093-.032-.084-.032-.134.011-.094.032-.134c.021-.039.05-.069.087-.092.037-.022.078-.033.125-.033.037 0 .07.007.098.021s.051.034.068.059l.007-.068h.121v.496h-.12l-.008-.071c-.016.022-.037.041-.063.058-.027.017-.061.025-.103.025zm.027-.112c.041 0 .075-.014.102-.042.026-.027.039-.063.039-.106s-.013-.079-.039-.107c-.027-.027-.061-.041-.102-.041s-.074.014-.101.041-.04.063-.04.106.013.079.04.107.06.042.101.042z" transform="matrix(15.46308 0 0 15.46308 54.770174426 12.41252152)"/><path d="m.286 0c-.052 0-.094-.013-.125-.038s-.047-.07-.047-.135v-.216h-.085v-.107h.085l.015-.133h.113v.133h.134v.107h-.134v.217c0 .024.005.04.016.049.01.009.028.014.053.014h.062v.109z" transform="matrix(15.46308 0 0 15.46308 64.852102586 12.41252152)"/><path d="m.338.012c-.051 0-.098-.01-.139-.031-.041-.02-.074-.051-.098-.092-.025-.041-.037-.094-.037-.157v-.432h.128v.433c0 .055.013.095.04.122.026.027.062.04.109.04.046 0 .082-.013.109-.04s.04-.067.04-.122v-.433h.128v.432c0 .063-.013.116-.038.157s-.059.072-.101.092c-.043.021-.09.031-.141.031z" transform="matrix(15.46308 0 0 15.46308 75.042272306 12.41252152)"/><path d="m.385.012c-.071 0-.131-.015-.182-.046-.051-.03-.09-.072-.117-.127-.027-.054-.041-.117-.041-.188s.014-.134.041-.189.066-.097.117-.128.111-.046.182-.046c.084 0 .153.021.207.062.053.042.087.101.1.176h-.141c-.009-.038-.027-.068-.055-.09-.029-.021-.066-.032-.113-.032-.065 0-.115.022-.152.066s-.055.104-.055.181.018.137.055.18c.037.044.087.066.152.066.047 0 .084-.01.113-.031.028-.02.046-.048.055-.084h.141c-.013.072-.047.128-.1.169-.054.041-.123.061-.207.061z" transform="matrix(15.46308 0 0 15.46308 85.572629786 12.41252152)"/><path d="m98.020409186 1.58836552h1.97927424v10.824156h-1.97927424z" stroke-width="15.46308"/></g></svg>