<?xml version="1.0" encoding="UTF-8" standalone="no"?>
<!DOCTYPE svg PUBLIC "-//W3C//DTD SVG 1.1//EN" "http://www.w3.org/Graphics/SVG/1.1/DTD/svg11.dtd">
<svg width="100%" height="100%" viewBox="0 0 100 16" version="1.1" xmlns="http://www.w3.org/2000/svg" xmlns:xlink="http://www.w3.org/1999/xlink" xml:space="preserve" xmlns:serif="http://www.serif.com/" style="fill-rule:evenodd;clip-rule:evenodd;stroke-linejoin:round;stroke-miterlimit:2;">
    <g transform="matrix(1.43436,0,0,1.43436,-276.266,-442.347)">
        <g>
            <g transform="matrix(10.5102,0,0,10.5102,193.296,317.512)">
                <path d="M0.067,-0.686L0.351,-0.686C0.456,-0.686 0.537,-0.658 0.594,-0.601C0.651,-0.544 0.679,-0.458 0.679,-0.343C0.679,-0.228 0.651,-0.143 0.594,-0.086C0.537,-0.029 0.456,-0 0.351,-0L0.067,-0L0.067,-0.686ZM0.351,-0.123C0.41,-0.123 0.454,-0.141 0.485,-0.177C0.515,-0.212 0.53,-0.263 0.53,-0.328L0.53,-0.358C0.53,-0.423 0.515,-0.474 0.485,-0.51C0.454,-0.545 0.41,-0.563 0.351,-0.563L0.212,-0.563L0.212,-0.123L0.351,-0.123Z" style="fill-rule:nonzero;"/>
            </g>
            <g transform="matrix(10.5102,0,0,10.5102,200.885,317.512)">
                <path d="M0.288,0.012C0.203,0.012 0.14,-0.01 0.099,-0.055C0.057,-0.1 0.036,-0.169 0.036,-0.263C0.036,-0.357 0.057,-0.426 0.099,-0.471C0.14,-0.516 0.203,-0.538 0.288,-0.538C0.366,-0.538 0.424,-0.516 0.463,-0.471C0.502,-0.426 0.521,-0.356 0.521,-0.263L0.521,-0.231L0.175,-0.231C0.176,-0.184 0.186,-0.15 0.203,-0.128C0.22,-0.105 0.249,-0.094 0.29,-0.094C0.319,-0.094 0.342,-0.102 0.36,-0.118C0.377,-0.134 0.386,-0.157 0.386,-0.186L0.521,-0.186C0.521,-0.12 0.5,-0.071 0.457,-0.038C0.414,-0.005 0.358,0.012 0.288,0.012ZM0.379,-0.322C0.379,-0.395 0.349,-0.431 0.288,-0.431C0.253,-0.431 0.227,-0.422 0.21,-0.404C0.192,-0.386 0.181,-0.359 0.177,-0.322L0.379,-0.322Z" style="fill-rule:nonzero;"/>
            </g>
            <g transform="matrix(10.5102,0,0,10.5102,206.728,317.512)">
                <path d="M0.281,0.012C0.208,0.012 0.15,-0.003 0.109,-0.034C0.067,-0.064 0.046,-0.104 0.046,-0.155L0.047,-0.167L0.18,-0.167L0.18,-0.16C0.181,-0.137 0.191,-0.12 0.212,-0.11C0.232,-0.099 0.257,-0.094 0.286,-0.094C0.313,-0.094 0.337,-0.098 0.356,-0.105C0.375,-0.112 0.385,-0.124 0.385,-0.141C0.385,-0.16 0.375,-0.174 0.356,-0.183C0.336,-0.192 0.305,-0.202 0.263,-0.211C0.22,-0.221 0.184,-0.231 0.157,-0.242C0.13,-0.252 0.106,-0.268 0.086,-0.29C0.066,-0.312 0.056,-0.341 0.056,-0.378C0.056,-0.429 0.078,-0.469 0.121,-0.497C0.164,-0.524 0.219,-0.538 0.287,-0.538C0.35,-0.538 0.403,-0.525 0.444,-0.5C0.485,-0.474 0.506,-0.439 0.506,-0.395L0.505,-0.372L0.372,-0.372L0.372,-0.378C0.372,-0.395 0.364,-0.409 0.348,-0.418C0.331,-0.427 0.309,-0.432 0.282,-0.432C0.255,-0.432 0.233,-0.428 0.217,-0.421C0.201,-0.414 0.193,-0.403 0.193,-0.39C0.193,-0.373 0.202,-0.361 0.221,-0.353C0.239,-0.345 0.268,-0.337 0.309,-0.329C0.354,-0.319 0.39,-0.309 0.418,-0.299C0.446,-0.289 0.47,-0.273 0.491,-0.25C0.512,-0.227 0.522,-0.197 0.522,-0.158C0.522,-0.045 0.442,0.012 0.281,0.012Z" style="fill-rule:nonzero;"/>
            </g>
            <g transform="matrix(10.5102,0,0,10.5102,212.572,317.512)">
                <path d="M0.07,-0.723L0.207,-0.723L0.207,-0.593L0.07,-0.593L0.07,-0.723ZM0.07,-0.526L0.207,-0.526L0.207,-0L0.07,-0L0.07,-0.526Z" style="fill-rule:nonzero;"/>
            </g>
            <g transform="matrix(10.5102,0,0,10.5102,215.494,317.512)">
                <path d="M0.155,0.182C0.118,0.182 0.087,0.171 0.062,0.148C0.037,0.125 0.024,0.096 0.024,0.061C0.024,0.014 0.051,-0.021 0.105,-0.046C0.071,-0.063 0.054,-0.09 0.054,-0.125C0.054,-0.147 0.063,-0.166 0.08,-0.183C0.097,-0.199 0.12,-0.21 0.147,-0.217C0.096,-0.248 0.07,-0.296 0.07,-0.359C0.07,-0.414 0.09,-0.458 0.131,-0.49C0.171,-0.522 0.228,-0.538 0.303,-0.538C0.344,-0.538 0.379,-0.533 0.409,-0.523C0.429,-0.536 0.444,-0.551 0.453,-0.569C0.462,-0.586 0.466,-0.601 0.466,-0.614L0.6,-0.614C0.6,-0.577 0.59,-0.548 0.571,-0.526C0.551,-0.503 0.523,-0.488 0.487,-0.48C0.52,-0.449 0.537,-0.408 0.537,-0.359C0.537,-0.304 0.518,-0.26 0.479,-0.228C0.44,-0.196 0.384,-0.18 0.311,-0.18L0.231,-0.18C0.219,-0.18 0.21,-0.177 0.203,-0.172C0.196,-0.167 0.192,-0.159 0.192,-0.15C0.192,-0.142 0.195,-0.135 0.201,-0.13C0.207,-0.124 0.215,-0.121 0.225,-0.121L0.464,-0.121C0.503,-0.121 0.535,-0.108 0.561,-0.082C0.587,-0.056 0.6,-0.022 0.6,0.02C0.6,0.052 0.591,0.08 0.574,0.105C0.557,0.13 0.533,0.149 0.503,0.162C0.473,0.175 0.44,0.182 0.404,0.182L0.155,0.182ZM0.303,-0.273C0.335,-0.273 0.359,-0.281 0.376,-0.296C0.393,-0.311 0.401,-0.332 0.401,-0.359C0.401,-0.386 0.393,-0.408 0.376,-0.423C0.359,-0.438 0.335,-0.445 0.303,-0.445C0.271,-0.445 0.247,-0.438 0.231,-0.423C0.214,-0.408 0.206,-0.386 0.206,-0.359C0.206,-0.332 0.214,-0.311 0.231,-0.296C0.247,-0.281 0.271,-0.273 0.303,-0.273ZM0.402,0.087C0.419,0.087 0.434,0.083 0.445,0.074C0.456,0.065 0.462,0.054 0.462,0.04C0.462,0.025 0.457,0.014 0.447,0.006C0.436,-0.002 0.423,-0.006 0.408,-0.006L0.215,-0.006C0.2,-0.006 0.188,-0.002 0.178,0.007C0.167,0.016 0.162,0.027 0.162,0.04C0.162,0.054 0.167,0.065 0.177,0.074C0.187,0.083 0.2,0.087 0.215,0.087L0.402,0.087Z" style="fill-rule:nonzero;"/>
            </g>
            <g transform="matrix(10.5102,0,0,10.5102,221.915,317.512)">
                <path d="M0.071,-0.526L0.188,-0.526L0.198,-0.457L0.205,-0.457C0.248,-0.511 0.302,-0.538 0.369,-0.538C0.423,-0.538 0.466,-0.523 0.497,-0.494C0.528,-0.465 0.543,-0.418 0.543,-0.353L0.543,-0L0.406,-0L0.406,-0.324C0.406,-0.357 0.398,-0.38 0.383,-0.395C0.368,-0.41 0.345,-0.417 0.315,-0.417C0.284,-0.417 0.259,-0.406 0.239,-0.385C0.218,-0.363 0.208,-0.336 0.208,-0.304L0.208,-0L0.071,-0L0.071,-0.526Z" style="fill-rule:nonzero;"/>
            </g>
            <g transform="matrix(10.5102,0,0,10.5102,231.259,317.512)">
                <path d="M0.192,0.012C0.151,0.012 0.114,0.001 0.08,-0.02C0.046,-0.041 0.029,-0.08 0.029,-0.136C0.029,-0.203 0.057,-0.251 0.112,-0.28C0.167,-0.308 0.246,-0.322 0.347,-0.322L0.347,-0.359C0.347,-0.382 0.342,-0.4 0.332,-0.413C0.321,-0.426 0.302,-0.432 0.273,-0.432C0.242,-0.432 0.221,-0.427 0.208,-0.418C0.195,-0.409 0.188,-0.398 0.188,-0.385L0.188,-0.37L0.056,-0.37C0.055,-0.374 0.055,-0.381 0.055,-0.392C0.055,-0.436 0.075,-0.471 0.114,-0.498C0.153,-0.525 0.204,-0.538 0.269,-0.538C0.341,-0.538 0.395,-0.523 0.431,-0.494C0.466,-0.465 0.484,-0.422 0.484,-0.367L0.484,-0.135C0.484,-0.123 0.487,-0.114 0.494,-0.109C0.501,-0.103 0.509,-0.1 0.519,-0.1L0.547,-0.1L0.547,-0.004C0.526,0.007 0.499,0.012 0.468,0.012C0.441,0.012 0.418,0.006 0.4,-0.006C0.381,-0.018 0.369,-0.035 0.362,-0.057L0.356,-0.057C0.337,-0.034 0.315,-0.017 0.29,-0.006C0.265,0.006 0.232,0.012 0.192,0.012ZM0.235,-0.096C0.274,-0.096 0.302,-0.107 0.32,-0.129C0.338,-0.15 0.347,-0.179 0.347,-0.215L0.347,-0.231C0.228,-0.231 0.168,-0.204 0.168,-0.151C0.168,-0.134 0.173,-0.121 0.185,-0.111C0.196,-0.101 0.212,-0.096 0.235,-0.096Z" style="fill-rule:nonzero;"/>
            </g>
            <g transform="matrix(10.5102,0,0,10.5102,237.103,317.512)">
                <path d="M0.212,0.012C0.163,0.012 0.127,-0.001 0.106,-0.028C0.085,-0.055 0.074,-0.088 0.074,-0.129L0.074,-0.414L0.011,-0.414L0.011,-0.526L0.077,-0.526L0.1,-0.674L0.211,-0.674L0.211,-0.526L0.302,-0.526L0.302,-0.414L0.211,-0.414L0.211,-0.143C0.211,-0.114 0.225,-0.1 0.254,-0.1L0.302,-0.1L0.302,-0.004C0.291,0 0.277,0.004 0.26,0.007C0.243,0.01 0.227,0.012 0.212,0.012Z" style="fill-rule:nonzero;"/>
            </g>
            <g transform="matrix(10.5102,0,0,10.5102,243.524,317.512)">
                <path d="M0.36,0.012C0.267,0.012 0.195,-0.011 0.144,-0.056C0.093,-0.101 0.067,-0.168 0.067,-0.255L0.067,-0.686L0.212,-0.686L0.212,-0.262C0.212,-0.213 0.225,-0.175 0.251,-0.15C0.276,-0.124 0.313,-0.111 0.36,-0.111C0.407,-0.111 0.444,-0.124 0.471,-0.15C0.497,-0.175 0.51,-0.213 0.51,-0.262L0.51,-0.686L0.655,-0.686L0.655,-0.255C0.655,-0.168 0.629,-0.101 0.578,-0.056C0.526,-0.011 0.453,0.012 0.36,0.012Z" style="fill-rule:nonzero;"/>
            </g>
            <g transform="matrix(10.5102,0,0,10.5102,251.113,317.512)">
                <path d="M0.374,0.012C0.153,0.012 0.042,-0.106 0.042,-0.343C0.042,-0.462 0.071,-0.551 0.129,-0.61C0.187,-0.669 0.269,-0.698 0.374,-0.698C0.432,-0.698 0.484,-0.688 0.531,-0.669C0.577,-0.649 0.614,-0.619 0.641,-0.579C0.668,-0.538 0.681,-0.489 0.681,-0.431L0.532,-0.431C0.532,-0.476 0.518,-0.511 0.489,-0.537C0.46,-0.562 0.423,-0.575 0.377,-0.575C0.314,-0.575 0.268,-0.556 0.237,-0.519C0.206,-0.482 0.191,-0.428 0.191,-0.358L0.191,-0.328C0.191,-0.183 0.253,-0.111 0.377,-0.111C0.426,-0.111 0.464,-0.124 0.494,-0.149C0.523,-0.174 0.537,-0.209 0.537,-0.254L0.681,-0.254C0.681,-0.195 0.668,-0.146 0.641,-0.107C0.614,-0.067 0.578,-0.037 0.532,-0.018C0.486,0.002 0.433,0.012 0.374,0.012Z" style="fill-rule:nonzero;"/>
            </g>
            <g transform="matrix(10.5102,0,0,10.5102,258.701,317.512)">
                <rect x="0.067" y="-0.686" width="0.145" height="0.686" style="fill-rule:nonzero;"/>
            </g>
        </g>
    </g>
</svg>
