<?xml version="1.0" encoding="UTF-8" standalone="no"?>
<!DOCTYPE svg PUBLIC "-//W3C//DTD SVG 1.1//EN" "http://www.w3.org/Graphics/SVG/1.1/DTD/svg11.dtd">
<svg width="100%" height="100%" viewBox="0 0 1536 512" version="1.1" xmlns="http://www.w3.org/2000/svg" xmlns:xlink="http://www.w3.org/1999/xlink" xml:space="preserve" xmlns:serif="http://www.serif.com/" style="fill-rule:evenodd;clip-rule:evenodd;stroke-linecap:round;stroke-linejoin:round;stroke-miterlimit:1.5;">
    <g transform="matrix(1.536,0,0,0.853333,-1.13687e-13,-1.42109e-14)">
        <rect x="0" y="0" width="1000" height="600" style="fill:url(#_Radial1);"/>
    </g>
    <g transform="matrix(4.76875,9.52987e-16,9.18506e-16,4.76875,-650.772,-983.437)">
        <circle cx="344.099" cy="259.908" r="118.522" style="fill:none;stroke:rgb(1,183,255);stroke-width:0.21px;"/>
    </g>
    <g transform="matrix(4.76875,9.52987e-16,9.18506e-16,4.76875,-1095.07,-983.437)">
        <circle cx="344.099" cy="259.908" r="118.522" style="fill:none;stroke:rgb(1,183,255);stroke-width:0.21px;"/>
    </g>
    <g transform="matrix(1.21051e-15,4.76875,-4.76875,-6.60986e-16,2007.44,-1162.77)">
        <circle cx="344.099" cy="259.908" r="118.522" style="fill:none;stroke:rgb(1,183,255);stroke-width:0.21px;"/>
    </g>
    <g transform="matrix(1.21051e-15,4.76875,-4.76875,-6.60986e-16,2007.44,-1607.07)">
        <circle cx="344.099" cy="259.908" r="118.522" style="fill:none;stroke:rgb(1,183,255);stroke-width:0.21px;"/>
    </g>
    <g transform="matrix(-3.37201,3.37201,-3.37201,-3.37201,2647.64,129.191)">
        <circle cx="344.099" cy="259.908" r="118.522" style="fill:none;stroke:rgb(1,183,255);stroke-width:0.21px;"/>
    </g>
    <g transform="matrix(-3.37201,3.37201,-3.37201,-3.37201,2961.8,-184.976)">
        <circle cx="344.099" cy="259.908" r="118.522" style="fill:none;stroke:rgb(1,183,255);stroke-width:0.21px;"/>
    </g>
    <g transform="matrix(-3.37201,-3.37201,3.37201,-3.37201,894.809,2135.64)">
        <circle cx="344.099" cy="259.908" r="118.522" style="fill:none;stroke:rgb(1,183,255);stroke-width:0.21px;"/>
    </g>
    <g transform="matrix(-3.37201,-3.37201,3.37201,-3.37201,1208.98,2449.8)">
        <circle cx="344.099" cy="259.908" r="118.522" style="fill:none;stroke:rgb(1,183,255);stroke-width:0.21px;"/>
    </g>
    <defs>
        <radialGradient id="_Radial1" cx="0" cy="0" r="1" gradientUnits="userSpaceOnUse" gradientTransform="matrix(5.63088e-14,-1655.27,919.593,1.01356e-13,500,1503.07)"><stop offset="0" style="stop-color:rgb(1,183,255);stop-opacity:1"/><stop offset="0.56" style="stop-color:rgb(1,183,255);stop-opacity:1"/><stop offset="0.88" style="stop-color:rgb(1,30,251);stop-opacity:1"/><stop offset="1" style="stop-color:rgb(1,30,251);stop-opacity:1"/></radialGradient>
    </defs>
</svg>
