<?xml version="1.0" encoding="UTF-8" standalone="no"?>
<!DOCTYPE svg PUBLIC "-//W3C//DTD SVG 1.1//EN" "http://www.w3.org/Graphics/SVG/1.1/DTD/svg11.dtd">
<svg width="100%" height="100%" viewBox="0 0 100 20" version="1.1" xmlns="http://www.w3.org/2000/svg" xmlns:xlink="http://www.w3.org/1999/xlink" xml:space="preserve" xmlns:serif="http://www.serif.com/" style="fill-rule:evenodd;clip-rule:evenodd;stroke-linejoin:round;stroke-miterlimit:2;">
    <g transform="matrix(0.163665,0.094492,-0.094492,0.163665,-45.9183,-81.2838)">
        <g transform="matrix(0.646436,0.646436,-0.646436,0.646436,-754.742,-1173.28)">
            <path d="M2059.8,155.078C2058.51,151.862 2057.8,148.351 2057.8,144.674C2057.8,142.863 2056.33,141.392 2054.51,141.392C2052.7,141.392 2051.23,142.863 2051.23,144.674C2051.23,149.217 2052.12,153.557 2053.72,157.53C2054.39,159.21 2056.31,160.025 2057.99,159.348C2059.67,158.671 2060.48,156.758 2059.8,155.078Z"/>
        </g>
        <g transform="matrix(0.646436,0.646436,-0.646436,0.646436,-754.742,-1173.28)">
            <path d="M2082.69,172.408C2075.8,171.671 2069.66,168.418 2065.2,163.588C2063.97,162.258 2061.89,162.175 2060.56,163.404C2059.23,164.633 2059.15,166.711 2060.38,168.041C2065.89,174.008 2073.48,178.023 2081.99,178.934C2083.8,179.126 2085.41,177.821 2085.61,176.02C2085.8,174.219 2084.49,172.6 2082.69,172.408Z"/>
        </g>
        <g transform="matrix(1,0,0,1,-1825.46,128.131)">
            <path d="M2329.59,109.156C2336.23,110.026 2342.64,113.01 2347.74,118.107C2359.22,129.594 2359.98,147.774 2350,160.139C2348.96,161.428 2347.07,161.63 2345.78,160.591C2344.49,159.551 2344.29,157.661 2345.33,156.372C2353.41,146.363 2352.79,131.647 2343.5,122.35C2339.57,118.425 2334.68,116.049 2329.59,115.22L2329.59,109.156Z"/>
        </g>
        <g transform="matrix(1.27288,0,0,1.27288,111.698,-287.208)">
            <path d="M307.971,412.093C308.786,412.093 309.514,412.601 309.796,413.365C311.465,417.888 317.106,433.172 318.858,437.918C319.159,438.734 318.821,439.648 318.062,440.072C318.062,440.072 318.062,440.072 318.061,440.072C314.454,442.087 312.22,445.895 312.22,450.026C309.703,452.768 300.884,452.768 297.897,450.026C297.897,445.895 295.662,442.087 292.055,440.072C292.055,440.072 292.055,440.072 292.055,440.072C291.295,439.648 290.957,438.734 291.259,437.918C293.01,433.172 298.651,417.888 300.32,413.365C300.602,412.601 301.331,412.093 302.145,412.093C302.146,412.093 302.148,412.093 302.149,412.093C302.523,412.093 302.881,412.242 303.145,412.506C303.41,412.771 303.558,413.129 303.558,413.503C303.558,418.14 303.558,432.626 303.558,432.626C302.093,433.22 301.058,434.658 301.058,436.335C301.058,438.543 302.85,440.335 305.058,440.335C307.266,440.335 309.058,438.543 309.058,436.335C309.058,434.658 308.023,433.22 306.558,432.626L306.558,413.503C306.558,413.129 306.707,412.771 306.971,412.506C307.235,412.242 307.594,412.093 307.967,412.093C307.969,412.093 307.97,412.093 307.971,412.093Z"/>
        </g>
        <g transform="matrix(1,0,0,1,-1692.85,123.839)">
            <path d="M2205.68,166.712C2197.78,171.315 2187.92,171.315 2180.02,166.712C2178.59,165.879 2176.75,166.364 2175.92,167.794C2175.09,169.225 2175.57,171.063 2177,171.897C2186.76,177.583 2198.94,177.583 2208.7,171.897C2210.13,171.063 2210.61,169.225 2209.78,167.794C2208.95,166.364 2207.11,165.879 2205.68,166.712Z"/>
        </g>
    </g>
    <g transform="matrix(1.00533,0,0,1.00533,-271.78,-324.944)">
        <g transform="matrix(9.88995,0,0,9.88995,292.212,336.576)">
            <path d="M0.025,-0L0.148,-0.7L0.387,-0.7C0.492,-0.7 0.57,-0.674 0.619,-0.623C0.668,-0.572 0.693,-0.502 0.693,-0.415C0.693,-0.334 0.675,-0.262 0.64,-0.199C0.604,-0.136 0.554,-0.088 0.49,-0.053C0.426,-0.017 0.351,-0 0.264,-0L0.025,-0ZM0.172,-0.11L0.277,-0.11C0.338,-0.11 0.389,-0.122 0.432,-0.146C0.474,-0.17 0.506,-0.204 0.528,-0.248C0.55,-0.292 0.561,-0.344 0.561,-0.404C0.561,-0.467 0.545,-0.514 0.513,-0.545C0.481,-0.576 0.431,-0.591 0.362,-0.591L0.257,-0.591L0.172,-0.11Z" style="fill-rule:nonzero;"/>
        </g>
        <g transform="matrix(9.88995,0,0,9.88995,299.294,336.576)">
            <path d="M0.26,0.012C0.194,0.012 0.141,-0.007 0.103,-0.045C0.064,-0.083 0.044,-0.134 0.044,-0.199C0.044,-0.241 0.051,-0.281 0.066,-0.318C0.081,-0.355 0.102,-0.388 0.129,-0.417C0.156,-0.445 0.189,-0.467 0.227,-0.484C0.264,-0.5 0.306,-0.508 0.351,-0.508C0.395,-0.508 0.433,-0.5 0.464,-0.483C0.495,-0.466 0.52,-0.442 0.537,-0.413C0.554,-0.383 0.562,-0.349 0.562,-0.311C0.562,-0.295 0.561,-0.279 0.558,-0.262C0.555,-0.245 0.551,-0.23 0.547,-0.217L0.17,-0.217L0.17,-0.2C0.17,-0.167 0.18,-0.14 0.2,-0.122C0.22,-0.102 0.246,-0.093 0.278,-0.093C0.303,-0.093 0.326,-0.099 0.346,-0.111C0.365,-0.122 0.381,-0.137 0.394,-0.156L0.524,-0.156C0.509,-0.124 0.488,-0.095 0.462,-0.07C0.435,-0.045 0.405,-0.025 0.371,-0.01C0.336,0.005 0.299,0.012 0.26,0.012ZM0.334,-0.404C0.303,-0.404 0.274,-0.395 0.247,-0.378C0.22,-0.36 0.2,-0.333 0.187,-0.297L0.434,-0.297C0.435,-0.302 0.435,-0.306 0.435,-0.308C0.436,-0.337 0.427,-0.361 0.408,-0.378C0.389,-0.395 0.365,-0.404 0.334,-0.404Z" style="fill-rule:nonzero;"/>
        </g>
        <g transform="matrix(9.88995,0,0,9.88995,305.188,336.576)">
            <path d="M0.23,0.012C0.185,0.012 0.146,0.004 0.115,-0.011C0.083,-0.026 0.059,-0.047 0.043,-0.074C0.027,-0.101 0.02,-0.131 0.023,-0.165L0.151,-0.165C0.15,-0.142 0.158,-0.123 0.174,-0.108C0.19,-0.093 0.214,-0.086 0.246,-0.086C0.274,-0.086 0.296,-0.092 0.312,-0.104C0.327,-0.116 0.335,-0.131 0.335,-0.15C0.335,-0.167 0.327,-0.179 0.31,-0.187C0.293,-0.194 0.272,-0.201 0.246,-0.207C0.219,-0.214 0.192,-0.222 0.166,-0.233C0.14,-0.244 0.119,-0.258 0.102,-0.275C0.085,-0.292 0.076,-0.315 0.076,-0.342C0.076,-0.374 0.086,-0.403 0.105,-0.428C0.124,-0.452 0.15,-0.472 0.183,-0.487C0.216,-0.501 0.255,-0.508 0.298,-0.508C0.357,-0.508 0.403,-0.494 0.437,-0.466C0.471,-0.438 0.487,-0.4 0.486,-0.352L0.363,-0.352C0.362,-0.369 0.355,-0.383 0.341,-0.394C0.326,-0.405 0.307,-0.41 0.284,-0.41C0.26,-0.41 0.241,-0.405 0.226,-0.395C0.211,-0.384 0.203,-0.371 0.203,-0.356C0.203,-0.341 0.212,-0.33 0.23,-0.323C0.247,-0.315 0.27,-0.308 0.299,-0.301C0.33,-0.294 0.359,-0.285 0.384,-0.274C0.409,-0.263 0.428,-0.25 0.444,-0.233C0.459,-0.216 0.466,-0.193 0.466,-0.166C0.466,-0.13 0.456,-0.099 0.435,-0.072C0.414,-0.045 0.386,-0.025 0.351,-0.01C0.315,0.005 0.275,0.012 0.23,0.012Z" style="fill-rule:nonzero;"/>
        </g>
        <g transform="matrix(9.88995,0,0,9.88995,310.489,336.576)">
            <path d="M0.205,-0.57C0.182,-0.57 0.163,-0.577 0.148,-0.592C0.132,-0.606 0.125,-0.624 0.125,-0.645C0.125,-0.666 0.132,-0.684 0.148,-0.699C0.163,-0.713 0.182,-0.72 0.205,-0.72C0.228,-0.72 0.247,-0.713 0.263,-0.699C0.278,-0.684 0.285,-0.666 0.285,-0.645C0.285,-0.624 0.278,-0.606 0.263,-0.592C0.247,-0.577 0.228,-0.57 0.205,-0.57ZM0.027,-0L0.114,-0.496L0.242,-0.496L0.155,-0L0.027,-0Z" style="fill-rule:nonzero;"/>
        </g>
        <g transform="matrix(9.88995,0,0,9.88995,313.159,336.576)">
            <path d="M0.247,0.232C0.206,0.232 0.167,0.225 0.131,0.211C0.094,0.197 0.065,0.175 0.044,0.146C0.022,0.117 0.012,0.079 0.014,0.032L0.141,0.032C0.142,0.06 0.154,0.082 0.177,0.098C0.199,0.113 0.228,0.121 0.263,0.121C0.288,0.121 0.312,0.116 0.335,0.106C0.358,0.095 0.379,0.079 0.396,0.058C0.413,0.036 0.424,0.009 0.429,-0.024L0.44,-0.086C0.421,-0.062 0.395,-0.041 0.364,-0.024C0.332,-0.006 0.295,0.003 0.253,0.003C0.212,0.003 0.175,-0.007 0.144,-0.026C0.113,-0.045 0.088,-0.07 0.071,-0.103C0.054,-0.135 0.045,-0.171 0.045,-0.211C0.045,-0.252 0.052,-0.29 0.067,-0.326C0.082,-0.362 0.102,-0.394 0.129,-0.421C0.155,-0.448 0.186,-0.47 0.221,-0.485C0.256,-0.5 0.294,-0.508 0.335,-0.508C0.373,-0.508 0.407,-0.5 0.436,-0.485C0.465,-0.469 0.487,-0.449 0.5,-0.426L0.528,-0.496L0.64,-0.496L0.557,-0.026C0.547,0.031 0.527,0.079 0.497,0.118C0.466,0.156 0.429,0.185 0.386,0.204C0.343,0.223 0.296,0.232 0.247,0.232ZM0.298,-0.108C0.329,-0.108 0.358,-0.116 0.384,-0.132C0.41,-0.147 0.431,-0.168 0.446,-0.194C0.461,-0.22 0.469,-0.249 0.469,-0.281C0.469,-0.314 0.458,-0.342 0.435,-0.364C0.412,-0.385 0.381,-0.396 0.344,-0.396C0.312,-0.396 0.283,-0.388 0.258,-0.373C0.233,-0.358 0.213,-0.337 0.199,-0.312C0.184,-0.286 0.177,-0.258 0.177,-0.227C0.177,-0.193 0.188,-0.165 0.21,-0.142C0.231,-0.119 0.261,-0.108 0.298,-0.108Z" style="fill-rule:nonzero;"/>
        </g>
        <g transform="matrix(9.88995,0,0,9.88995,319.707,336.576)">
            <path d="M0.022,-0L0.109,-0.496L0.222,-0.496L0.219,-0.414C0.24,-0.443 0.266,-0.466 0.297,-0.483C0.328,-0.5 0.363,-0.508 0.402,-0.508C0.453,-0.508 0.493,-0.494 0.522,-0.466C0.55,-0.437 0.564,-0.396 0.564,-0.343C0.564,-0.324 0.562,-0.303 0.558,-0.28L0.508,-0L0.38,-0L0.428,-0.268C0.429,-0.276 0.43,-0.284 0.431,-0.291C0.432,-0.298 0.432,-0.304 0.432,-0.31C0.432,-0.37 0.402,-0.4 0.343,-0.4C0.308,-0.4 0.276,-0.388 0.249,-0.363C0.222,-0.337 0.204,-0.303 0.196,-0.26L0.15,-0L0.022,-0Z" style="fill-rule:nonzero;"/>
        </g>
        <g transform="matrix(9.88995,0,0,9.88995,325.73,336.576)">
            <path d="M0.053,-0.236L0.071,-0.343L0.49,-0.343L0.471,-0.236L0.053,-0.236Z" style="fill-rule:nonzero;"/>
        </g>
        <g transform="matrix(9.88995,0,0,9.88995,330.942,336.576)">
            <path d="M0.243,0.012C0.202,0.012 0.166,0.002 0.137,-0.017C0.108,-0.036 0.085,-0.063 0.069,-0.096C0.053,-0.129 0.045,-0.167 0.045,-0.208C0.045,-0.265 0.057,-0.316 0.083,-0.361C0.108,-0.406 0.141,-0.442 0.184,-0.469C0.226,-0.495 0.273,-0.508 0.325,-0.508C0.366,-0.508 0.4,-0.501 0.425,-0.486C0.45,-0.47 0.469,-0.451 0.482,-0.428L0.508,-0.496L0.622,-0.496L0.534,-0L0.421,-0L0.418,-0.071C0.399,-0.049 0.376,-0.03 0.348,-0.013C0.319,0.004 0.284,0.012 0.243,0.012ZM0.292,-0.1C0.323,-0.1 0.351,-0.108 0.376,-0.125C0.4,-0.141 0.419,-0.163 0.434,-0.19C0.448,-0.217 0.455,-0.247 0.455,-0.28C0.455,-0.315 0.445,-0.343 0.424,-0.364C0.403,-0.385 0.375,-0.396 0.339,-0.396C0.308,-0.396 0.28,-0.388 0.256,-0.373C0.231,-0.358 0.212,-0.337 0.198,-0.311C0.184,-0.285 0.177,-0.256 0.177,-0.223C0.177,-0.188 0.187,-0.159 0.208,-0.136C0.228,-0.112 0.256,-0.1 0.292,-0.1Z" style="fill-rule:nonzero;"/>
        </g>
        <g transform="matrix(9.88995,0,0,9.88995,337.311,336.576)">
            <path d="M0.053,-0.236L0.071,-0.343L0.49,-0.343L0.471,-0.236L0.053,-0.236Z" style="fill-rule:nonzero;"/>
        </g>
        <g transform="matrix(9.88995,0,0,9.88995,342.523,336.576)">
            <path d="M0.234,-0C0.189,-0 0.153,-0.009 0.126,-0.028C0.098,-0.047 0.085,-0.079 0.085,-0.125C0.085,-0.14 0.087,-0.156 0.09,-0.174L0.128,-0.389L0.048,-0.389L0.067,-0.496L0.147,-0.496L0.185,-0.629L0.299,-0.629L0.275,-0.496L0.41,-0.496L0.39,-0.389L0.257,-0.389L0.218,-0.173C0.217,-0.166 0.216,-0.16 0.216,-0.153C0.216,-0.137 0.221,-0.126 0.23,-0.119C0.239,-0.112 0.253,-0.109 0.274,-0.109L0.342,-0.109L0.322,-0L0.234,-0Z" style="fill-rule:nonzero;"/>
        </g>
        <g transform="matrix(9.88995,0,0,9.88995,346.597,336.576)">
            <path d="M0.022,-0L0.148,-0.72L0.276,-0.72L0.224,-0.42C0.245,-0.447 0.271,-0.468 0.302,-0.484C0.333,-0.5 0.367,-0.508 0.404,-0.508C0.465,-0.508 0.509,-0.489 0.537,-0.45C0.564,-0.411 0.571,-0.355 0.558,-0.28L0.508,-0L0.38,-0L0.428,-0.268C0.435,-0.311 0.432,-0.343 0.419,-0.366C0.406,-0.389 0.38,-0.4 0.343,-0.4C0.308,-0.4 0.276,-0.387 0.249,-0.362C0.222,-0.337 0.204,-0.301 0.195,-0.256L0.195,-0.257L0.15,-0L0.022,-0Z" style="fill-rule:nonzero;"/>
        </g>
        <g transform="matrix(9.88995,0,0,9.88995,352.62,336.576)">
            <path d="M0.263,0.012C0.22,0.012 0.182,0.002 0.149,-0.017C0.116,-0.036 0.091,-0.063 0.073,-0.096C0.054,-0.128 0.045,-0.166 0.045,-0.209C0.045,-0.251 0.053,-0.29 0.068,-0.327C0.083,-0.363 0.103,-0.395 0.131,-0.422C0.158,-0.449 0.189,-0.47 0.225,-0.486C0.261,-0.501 0.3,-0.508 0.341,-0.508C0.385,-0.508 0.424,-0.499 0.457,-0.48C0.49,-0.461 0.515,-0.436 0.534,-0.403C0.553,-0.37 0.562,-0.332 0.562,-0.289C0.562,-0.246 0.554,-0.207 0.539,-0.171C0.524,-0.134 0.503,-0.102 0.476,-0.075C0.448,-0.048 0.417,-0.026 0.381,-0.011C0.344,0.004 0.305,0.012 0.263,0.012ZM0.28,-0.099C0.309,-0.099 0.334,-0.107 0.357,-0.123C0.38,-0.139 0.398,-0.161 0.411,-0.189C0.424,-0.216 0.431,-0.247 0.431,-0.282C0.431,-0.319 0.421,-0.347 0.401,-0.367C0.38,-0.387 0.356,-0.397 0.327,-0.397C0.299,-0.397 0.274,-0.389 0.251,-0.373C0.228,-0.357 0.209,-0.335 0.196,-0.308C0.183,-0.28 0.176,-0.249 0.176,-0.214C0.176,-0.177 0.186,-0.149 0.207,-0.129C0.227,-0.109 0.251,-0.099 0.28,-0.099Z" style="fill-rule:nonzero;"/>
        </g>
        <g transform="matrix(9.88995,0,0,9.88995,358.623,336.576)">
            <path d="M0.022,-0L0.109,-0.496L0.222,-0.496L0.219,-0.414C0.24,-0.443 0.266,-0.466 0.297,-0.483C0.328,-0.5 0.363,-0.508 0.402,-0.508C0.453,-0.508 0.493,-0.494 0.522,-0.466C0.55,-0.437 0.564,-0.396 0.564,-0.343C0.564,-0.324 0.562,-0.303 0.558,-0.28L0.508,-0L0.38,-0L0.428,-0.268C0.429,-0.276 0.43,-0.284 0.431,-0.291C0.432,-0.298 0.432,-0.304 0.432,-0.31C0.432,-0.37 0.402,-0.4 0.343,-0.4C0.308,-0.4 0.276,-0.388 0.249,-0.363C0.222,-0.337 0.204,-0.303 0.196,-0.26L0.15,-0L0.022,-0Z" style="fill-rule:nonzero;"/>
        </g>
    </g>
</svg>
