<?xml version="1.0" encoding="UTF-8" standalone="no"?>
<!DOCTYPE svg PUBLIC "-//W3C//DTD SVG 1.1//EN" "http://www.w3.org/Graphics/SVG/1.1/DTD/svg11.dtd">
<svg width="100%" height="100%" viewBox="0 0 461 182" version="1.1" xmlns="http://www.w3.org/2000/svg" xmlns:xlink="http://www.w3.org/1999/xlink" xml:space="preserve" xmlns:serif="http://www.serif.com/" style="fill-rule:evenodd;clip-rule:evenodd;stroke-linejoin:round;stroke-miterlimit:2;">
    <g transform="matrix(1,0,0,1,0,48)">
        <g id="sketch-logo-light">
            <g id="Full-Logo">
                <path id="Wordmark" d="M122.365,53.564L122.299,52.684L115,52.684L115.04,53.674C115.489,64.698 122.872,72 136.003,72C148.527,72 157.042,65.45 157.042,55.536C157.042,50.175 155.195,46.382 151.674,43.791C148.966,41.798 145.728,40.675 140.358,39.503C139.999,39.424 139.626,39.344 139.177,39.249C138.911,39.193 137.957,38.992 138.007,39.002C128.256,36.944 125.163,35.157 125.163,29.833C125.163,24.327 129.635,20.821 137.136,20.821C144.435,20.821 149.047,25.308 149.262,32.371L149.29,33.293L156.536,33.293L156.513,32.32C156.261,21.311 148.923,13.901 137.061,13.901C125.435,13.901 117.759,20.943 117.759,30.061C117.759,35.406 119.605,39.129 123.131,41.616C125.817,43.511 128.929,44.516 134.419,45.631C134.676,45.684 134.944,45.738 135.263,45.801C135.461,45.841 135.684,45.885 136.103,45.969C141.297,47.003 143.589,47.642 145.68,48.865C148.275,50.385 149.563,52.555 149.563,55.916C149.563,61.753 144.689,65.08 136.154,65.08C127.984,65.08 122.914,60.955 122.365,53.564ZM172.34,50.492L172.34,12L165.088,12L165.088,70.935L172.34,70.935L172.34,59.816L179.974,52.331L193.607,70.557L193.891,70.935L202.912,70.935L201.762,69.41L185.112,47.334L200.467,31.951L202.088,30.327L192.231,30.327L191.954,30.608L172.34,50.492ZM209.186,53.141L240.991,53.141L241.046,52.249C241.056,52.093 241.071,51.834 241.085,51.521C241.096,51.274 241.106,51.033 241.113,50.806C241.12,50.559 241.124,50.335 241.124,50.137C241.124,38.206 233.273,29.414 221.671,29.414C210.091,29.414 201.841,38.772 201.841,50.593C201.841,62.757 209.717,71.848 221.747,71.848C230.843,71.848 237.87,66.415 240.402,58.174L240.78,56.943L233.242,56.943L233.019,57.576C231.429,62.086 227.125,65.08 221.822,65.08C214.89,65.08 210.057,60.287 209.186,53.141ZM209.406,46.829C210.63,40.43 215.306,36.183 221.671,36.183C228.232,36.183 232.76,40.29 233.75,46.829L209.406,46.829ZM257.026,36.791L265.865,36.791L265.865,30.327L257.026,30.327L257.026,19.3L249.774,19.3L249.774,30.327L242.446,30.327L242.446,36.791L249.774,36.791L249.774,59.567C249.774,67.038 253.624,71.087 260.69,71.087C261.923,71.087 262.987,71.013 263.879,70.888C264.431,70.811 264.812,70.731 265.022,70.673L265.714,70.479L265.714,63.71L264.569,63.961C264.523,63.971 264.43,63.99 264.298,64.015C264.074,64.057 263.824,64.1 263.556,64.139C262.869,64.241 262.188,64.306 261.561,64.318C261.496,64.319 261.433,64.319 261.37,64.319C258.274,64.319 257.026,62.856 257.026,59.186L257.026,36.791ZM287.471,71.848C297.509,71.848 304.597,65.454 306.377,56.405L306.6,55.27L299.285,55.27L299.098,55.976C297.574,61.751 293.435,65.08 287.471,65.08C280.027,65.08 274.892,59.169 274.892,50.669C274.892,42.103 280.019,36.183 287.471,36.183C293.435,36.183 297.574,39.512 299.098,45.286L299.285,45.992L306.6,45.992L306.377,44.857C304.597,35.809 297.509,29.414 287.471,29.414C275.81,29.414 267.565,38.839 267.565,50.669C267.565,62.435 275.821,71.848 287.471,71.848ZM319.955,33.88L319.955,12L312.703,12L312.703,70.935L319.955,70.935L319.955,47.095C319.955,40.121 324.172,36.03 330.569,36.03C336.679,36.03 339.748,39.591 339.748,46.335L339.748,70.935L347,70.935L347,45.27C347,35.744 341.14,29.414 331.476,29.414C326.503,29.414 322.507,31.248 319.955,33.88Z" style="fill:white;fill-rule:nonzero;"/>
                <g id="Logo">
                    <g id="Icon">
                        <path id="Mask" d="M20.903,2.831L47.903,0L74.903,2.831L95.806,30.666L47.903,86L0,30.666L20.903,2.831Z" style="fill:rgb(253,179,0);"/>
                        <g transform="matrix(1,0,0,1,0,30.6663)">
                            <g id="Base">
                                <g>
                                    <path id="Path-54-Copy" d="M19.403,0L47.903,55.334L0,0L19.403,0Z" style="fill:rgb(234,108,0);"/>
                                    <g id="Path-54-Copy-3" transform="matrix(-1,0,0,1,143.71,0)">
                                        <path d="M67.306,0L95.806,55.334L47.903,0L67.306,0Z" style="fill:rgb(234,108,0);"/>
                                    </g>
                                    <path id="Path-65" d="M19.403,0L76.403,0L47.903,55.334L19.403,0Z" style="fill:rgb(253,173,0);"/>
                                </g>
                            </g>
                        </g>
                        <g id="Crown">
                            <path id="Path-52" d="M47.903,0L20.903,2.831L19.403,30.666L47.903,0Z" style="fill:rgb(253,210,49);"/>
                            <g id="Path-52-Copy-2" transform="matrix(-1,0,0,1,124.306,0)">
                                <path d="M76.403,0L49.403,2.831L47.903,30.666L76.403,0Z" style="fill:rgb(253,210,49);"/>
                            </g>
                            <g id="Path-52-Copy-3" transform="matrix(-1,0,0,1,170.71,0)">
                                <path d="M74.903,30.666L95.806,2.831L94.306,30.666L74.903,30.666Z" style="fill:rgb(253,173,0);"/>
                            </g>
                            <path id="Path-52-Copy-9" d="M0,30.666L20.903,2.831L19.403,30.666L0,30.666Z" style="fill:rgb(253,173,0);"/>
                            <path id="Path-66" d="M47.903,0L19.403,30.666L76.403,30.666L47.903,0Z" style="fill:rgb(254,238,183);"/>
                        </g>
                    </g>
                </g>
            </g>
        </g>
    </g>
</svg>
