<?xml version="1.0" encoding="UTF-8" standalone="no"?>
<!DOCTYPE svg PUBLIC "-//W3C//DTD SVG 1.1//EN" "http://www.w3.org/Graphics/SVG/1.1/DTD/svg11.dtd">
<svg width="100%" height="100%" viewBox="0 0 100 30" version="1.1" xmlns="http://www.w3.org/2000/svg" xmlns:xlink="http://www.w3.org/1999/xlink" xml:space="preserve" xmlns:serif="http://www.serif.com/" style="fill-rule:evenodd;clip-rule:evenodd;stroke-linejoin:round;stroke-miterlimit:2;">
    <g transform="matrix(0.376067,0,0,0.416689,33.5012,-2.9867)">
        <path d="M80.641,28.908C80.641,27.403 79.978,25.961 78.8,24.897C77.621,23.833 76.023,23.236 74.356,23.236L13.388,23.236C11.721,23.236 10.123,23.833 8.944,24.897C7.765,25.961 7.103,27.403 7.103,28.908L7.103,71.092C7.103,72.597 7.765,74.039 8.944,75.103C10.123,76.167 11.721,76.764 13.388,76.764L74.356,76.764C76.023,76.764 77.621,76.167 78.8,75.103C79.978,74.039 80.641,72.597 80.641,71.092L80.641,28.908Z"/>
    </g>
    <g transform="matrix(0.72776,0,0,0.731529,13.612,-6.23994)">
        <path d="M60.433,16.721L57.035,16.721C57.035,16.721 52.883,13.698 50.959,12.296C50.388,11.881 49.612,11.881 49.041,12.296C47.115,13.698 42.96,16.721 42.96,16.721L39.565,16.721C39.565,16.721 45.069,12.715 48.082,10.521C49.224,9.689 50.776,9.689 51.918,10.521C54.931,12.715 60.433,16.721 60.433,16.721Z"/>
    </g>
    <g transform="matrix(0.417804,0,0,0.416689,31.6702,-4.44976)">
        <path d="M80.641,28.908C80.641,25.775 78.108,23.236 74.984,23.236L12.76,23.236C9.636,23.236 7.103,25.775 7.103,28.908L7.103,71.092C7.103,74.225 9.636,76.764 12.76,76.764L74.984,76.764C78.108,76.764 80.641,74.225 80.641,71.092L80.641,28.908Z" style="fill:white;"/>
    </g>
    <g transform="matrix(0.990923,0,0,0.990923,2.85074,-17.2815)">
        <path d="M13.222,32.537C13.222,32.537 6.779,38.974 3.688,42.062C3.417,42.333 3.336,42.74 3.483,43.094C3.629,43.447 3.974,43.678 4.357,43.678L13.222,43.678L13.222,32.537Z"/>
    </g>
    <g transform="matrix(0.807106,0,0,0.807106,5.28116,-9.2528)">
        <circle cx="13.222" cy="32.527" r="11.151" style="fill:white;"/>
    </g>
    <g transform="matrix(0.807106,0,0,0.807106,2.57453,-7.89541)">
        <path d="M14,30.496C14,30.364 13.948,30.238 13.855,30.145C13.762,30.052 13.636,30 13.504,30L12.858,30C11.832,30 11,30.832 11,31.859L11,33.141C11,34.168 11.832,35 12.858,35L13.504,35C13.636,35 13.762,34.948 13.855,34.855C13.948,34.762 14,34.636 14,34.504L14,30.496Z"/>
    </g>
    <g transform="matrix(0.807106,0,0,0.807106,2.57453,-7.89541)">
        <path d="M15,31.564C15,29.92 15.642,28.341 16.789,27.163C16.924,27.024 17,26.839 17,26.645L17,24.415C17,24.186 17.186,24 17.415,24L17.417,24C17.837,24 18.239,24.167 18.536,24.464C18.833,24.761 19,25.163 19,25.583L19,29L22.029,29C22.286,29 22.533,29.102 22.716,29.285C22.898,29.467 23,29.714 23,29.971L23,29.972C23,31.649 22.766,33.318 22.306,34.931C22.285,35.001 22.266,35.07 22.247,35.136C22.101,35.648 21.633,36 21.102,36L17.478,36C16.109,36 15,34.891 15,33.522L15,31.564Z"/>
    </g>
    <g transform="matrix(-0.990923,0,0,0.990923,97.1493,-17.2815)">
        <path d="M13.222,32.537C13.222,32.537 6.779,38.974 3.688,42.062C3.417,42.333 3.336,42.74 3.483,43.094C3.629,43.447 3.974,43.678 4.357,43.678L13.222,43.678L13.222,32.537Z"/>
    </g>
    <g transform="matrix(-0.807106,0,0,0.807106,94.7188,-9.2528)">
        <circle cx="13.222" cy="32.527" r="11.151" style="fill:white;"/>
    </g>
    <g transform="matrix(15.0042,0,0,15.0042,80.8264,22.4813)">
        <path d="M0.137,-0.218L0.133,-0.383L0.179,-0.383C0.213,-0.383 0.244,-0.386 0.272,-0.392C0.3,-0.398 0.322,-0.41 0.339,-0.427C0.356,-0.444 0.364,-0.47 0.364,-0.503C0.364,-0.535 0.354,-0.56 0.335,-0.579C0.316,-0.597 0.29,-0.606 0.258,-0.606C0.225,-0.606 0.199,-0.597 0.18,-0.579C0.161,-0.56 0.152,-0.535 0.152,-0.504L0.031,-0.504C0.03,-0.544 0.039,-0.58 0.057,-0.611C0.075,-0.642 0.101,-0.667 0.135,-0.685C0.17,-0.703 0.211,-0.712 0.259,-0.712C0.304,-0.712 0.343,-0.704 0.377,-0.687C0.412,-0.67 0.439,-0.647 0.458,-0.615C0.478,-0.585 0.488,-0.547 0.488,-0.502C0.488,-0.456 0.478,-0.418 0.457,-0.388C0.437,-0.358 0.409,-0.336 0.375,-0.321C0.339,-0.306 0.299,-0.299 0.253,-0.298L0.25,-0.218L0.137,-0.218Z"/>
    </g>
    <g transform="matrix(15.0042,0,0,15.0042,80.8264,22.4813)">
        <path d="M0.194,0.007C0.171,0.007 0.151,0 0.136,-0.015C0.121,-0.03 0.114,-0.047 0.114,-0.068C0.114,-0.089 0.121,-0.107 0.136,-0.122C0.151,-0.137 0.171,-0.144 0.194,-0.144C0.217,-0.144 0.236,-0.137 0.251,-0.122C0.266,-0.107 0.273,-0.089 0.273,-0.068C0.273,-0.047 0.266,-0.03 0.251,-0.015C0.236,0 0.217,0.007 0.194,0.007Z"/>
    </g>
    <g transform="matrix(1.46069,0,0,1.46069,-23.0345,-0.645482)">
        <path d="M43.528,15C43.528,11.428 46.428,8.528 50,8.528C53.572,8.528 56.472,11.428 56.472,15L43.528,15Z" style="fill:rgb(252,41,61);"/>
    </g>
    <g transform="matrix(1.09552,0,0,1.09552,-4.77597,4.83208)">
        <path d="M43.528,15C43.528,11.428 46.428,8.528 50,8.528C53.572,8.528 56.472,11.428 56.472,15L43.528,15Z" style="fill:rgb(255,219,69);"/>
    </g>
    <g transform="matrix(0.730345,0,0,0.730345,13.4827,10.3096)">
        <path d="M43.528,15C43.528,11.428 46.428,8.528 50,8.528C53.572,8.528 56.472,11.428 56.472,15L43.528,15Z" style="fill:rgb(0,214,89);"/>
    </g>
    <g transform="matrix(0.365173,0,0,0.365173,31.7413,15.7872)">
        <path d="M43.528,15C43.528,11.428 46.428,8.528 50,8.528C53.572,8.528 56.472,11.428 56.472,15L43.528,15Z" style="fill:rgb(96,85,255);"/>
    </g>
</svg>
