<?xml version="1.0" encoding="UTF-8" standalone="no"?>
<!DOCTYPE svg PUBLIC "-//W3C//DTD SVG 1.1//EN" "http://www.w3.org/Graphics/SVG/1.1/DTD/svg11.dtd">
<svg width="100%" height="100%" viewBox="0 0 100 30" version="1.1" xmlns="http://www.w3.org/2000/svg" xmlns:xlink="http://www.w3.org/1999/xlink" xml:space="preserve" xmlns:serif="http://www.serif.com/" style="fill-rule:evenodd;clip-rule:evenodd;stroke-linejoin:round;stroke-miterlimit:2;">
    <g transform="matrix(0.318242,0,0,0.352618,36.0381,-2.04243)">
        <path d="M80.641,28.908C80.641,27.403 79.978,25.961 78.8,24.897C77.621,23.833 76.023,23.236 74.356,23.236C60.464,23.236 27.28,23.236 13.388,23.236C11.721,23.236 10.123,23.833 8.944,24.897C7.765,25.961 7.103,27.403 7.103,28.908C7.103,39.193 7.103,60.807 7.103,71.092C7.103,72.597 7.765,74.039 8.944,75.103C10.123,76.167 11.721,76.764 13.388,76.764C27.28,76.764 60.464,76.764 74.356,76.764C76.023,76.764 77.621,76.167 78.8,75.103C79.978,74.039 80.641,72.597 80.641,71.092C80.641,60.807 80.641,39.193 80.641,28.908Z"/>
    </g>
    <g transform="matrix(0.615858,0,0,0.619048,19.2071,-4.79545)">
        <path d="M60.433,16.721L57.035,16.721C57.035,16.721 52.883,13.698 50.959,12.296C50.388,11.881 49.612,11.881 49.041,12.296C47.115,13.698 42.96,16.721 42.96,16.721L39.565,16.721C39.565,16.721 45.069,12.715 48.082,10.521C49.224,9.689 50.776,9.689 51.918,10.521C54.931,12.715 60.433,16.721 60.433,16.721Z"/>
    </g>
    <g transform="matrix(0.353562,0,0,0.352618,34.4886,-3.28053)">
        <path d="M80.641,28.908C80.641,25.775 78.108,23.236 74.984,23.236C61.286,23.236 26.458,23.236 12.76,23.236C9.636,23.236 7.103,25.775 7.103,28.908C7.103,39.193 7.103,60.807 7.103,71.092C7.103,74.225 9.636,76.764 12.76,76.764C26.458,76.764 61.286,76.764 74.984,76.764C78.108,76.764 80.641,74.225 80.641,71.092C80.641,60.807 80.641,39.193 80.641,28.908Z" style="fill:rgb(252,89,61);"/>
    </g>
    <g transform="matrix(0.990923,0,0,0.990923,2.85074,-19.2815)">
        <path d="M13.222,32.537C13.222,32.537 6.779,38.974 3.688,42.062C3.417,42.333 3.336,42.74 3.483,43.094C3.629,43.447 3.974,43.678 4.357,43.678C7.62,43.678 13.222,43.678 13.222,43.678L13.222,32.537Z" style="fill:rgb(0,0,125);"/>
    </g>
    <g transform="matrix(0.807106,0,0,0.807106,5.28116,-11.2528)">
        <circle cx="13.222" cy="32.527" r="11.151" style="fill:rgb(1,183,255);"/>
    </g>
    <g transform="matrix(0.807106,0,0,0.807106,2.57453,-9.89541)">
        <path d="M14,30.496C14,30.364 13.948,30.238 13.855,30.145C13.762,30.052 13.636,30 13.504,30C13.319,30 13.095,30 12.858,30C11.832,30 11,30.832 11,31.859C11,32.278 11,32.722 11,33.141C11,34.168 11.832,35 12.858,35C13.095,35 13.319,35 13.504,35C13.636,35 13.762,34.948 13.855,34.855C13.948,34.762 14,34.636 14,34.504C14,33.547 14,31.453 14,30.496Z" style="fill:rgb(0,0,125);"/>
    </g>
    <g transform="matrix(0.807106,0,0,0.807106,2.57453,-9.89541)">
        <path d="M15,31.564C15,29.92 15.642,28.341 16.789,27.163C16.789,27.163 16.789,27.163 16.789,27.163C16.924,27.024 17,26.839 17,26.645C17,26.115 17,25.016 17,24.415C17,24.186 17.186,24 17.415,24C17.416,24 17.416,24 17.417,24C17.837,24 18.239,24.167 18.536,24.464C18.833,24.761 19,25.163 19,25.583C19,27.048 19,29 19,29L22.029,29C22.286,29 22.533,29.102 22.716,29.285C22.898,29.467 23,29.714 23,29.971C23,29.972 23,29.972 23,29.972C23,31.649 22.766,33.318 22.306,34.931C22.285,35.001 22.266,35.07 22.247,35.136C22.101,35.648 21.633,36 21.102,36C20.19,36 18.737,36 17.478,36C16.109,36 15,34.891 15,33.522L15,31.564Z" style="fill:white;"/>
    </g>
    <g transform="matrix(-0.990923,0,0,0.990923,97.1493,-19.2815)">
        <path d="M13.222,32.537C13.222,32.537 6.779,38.974 3.688,42.062C3.417,42.333 3.336,42.74 3.483,43.094C3.629,43.447 3.974,43.678 4.357,43.678C7.62,43.678 13.222,43.678 13.222,43.678L13.222,32.537Z" style="fill:rgb(252,89,61);"/>
    </g>
    <g transform="matrix(-0.807106,0,0,0.807106,94.7188,-11.2528)">
        <circle cx="13.222" cy="32.527" r="11.151" style="fill:rgb(255,204,69);"/>
    </g>
    <g transform="matrix(15.0042,0,0,15.0042,80.8264,20.4813)">
        <path d="M0.137,-0.218L0.133,-0.383L0.179,-0.383C0.213,-0.383 0.244,-0.386 0.272,-0.392C0.3,-0.398 0.322,-0.41 0.339,-0.427C0.356,-0.444 0.364,-0.47 0.364,-0.503C0.364,-0.535 0.354,-0.56 0.335,-0.579C0.316,-0.597 0.29,-0.606 0.258,-0.606C0.225,-0.606 0.199,-0.597 0.18,-0.579C0.161,-0.56 0.152,-0.535 0.152,-0.504L0.031,-0.504C0.03,-0.544 0.039,-0.58 0.057,-0.611C0.075,-0.642 0.101,-0.667 0.135,-0.685C0.17,-0.703 0.211,-0.712 0.259,-0.712C0.304,-0.712 0.343,-0.704 0.377,-0.687C0.412,-0.67 0.439,-0.647 0.458,-0.615C0.478,-0.585 0.488,-0.547 0.488,-0.502C0.488,-0.456 0.478,-0.418 0.457,-0.388C0.437,-0.358 0.409,-0.336 0.375,-0.321C0.339,-0.306 0.299,-0.299 0.253,-0.298L0.25,-0.218L0.137,-0.218Z" style="fill:white;"/>
    </g>
    <g transform="matrix(15.0042,0,0,15.0042,80.8264,20.4813)">
        <path d="M0.194,0.007C0.171,0.007 0.151,0 0.136,-0.015C0.121,-0.03 0.114,-0.047 0.114,-0.068C0.114,-0.089 0.121,-0.107 0.136,-0.122C0.151,-0.137 0.171,-0.144 0.194,-0.144C0.217,-0.144 0.236,-0.137 0.251,-0.122C0.266,-0.107 0.273,-0.089 0.273,-0.068C0.273,-0.047 0.266,-0.03 0.251,-0.015C0.236,0 0.217,0.007 0.194,0.007Z" style="fill:rgb(252,89,61);"/>
    </g>
    <g transform="matrix(0.487804,0,0,0.49033,25.6098,-11.2664)">
        <path d="M48.591,42.42C48.789,41.812 49.358,41.4 50,41.4C50.642,41.4 51.211,41.812 51.409,42.42C52.355,45.333 53.43,48.642 53.43,48.642C53.43,48.642 56.926,48.642 59.994,48.642C60.634,48.642 61.202,49.052 61.401,49.658C61.6,50.264 61.384,50.928 60.867,51.304C58.383,53.109 55.55,55.167 55.55,55.167C55.55,55.167 56.629,58.487 57.577,61.404C57.774,62.011 57.556,62.676 57.036,63.05C56.516,63.424 55.813,63.423 55.295,63.046C52.817,61.246 50,59.199 50,59.199C50,59.199 47.183,61.246 44.705,63.046C44.187,63.423 43.484,63.424 42.964,63.05C42.444,62.676 42.226,62.011 42.423,61.404C43.371,58.487 44.45,55.167 44.45,55.167C44.45,55.167 41.617,53.109 39.133,51.304C38.616,50.928 38.4,50.264 38.599,49.658C38.798,49.052 39.366,48.642 40.006,48.642C43.074,48.642 46.57,48.642 46.57,48.642C46.57,48.642 47.645,45.333 48.591,42.42Z" style="fill:white;"/>
    </g>
</svg>
