<svg clip-rule="evenodd" fill-rule="evenodd" stroke-linejoin="round" stroke-miterlimit="2" viewBox="0 0 100 30" xmlns="http://www.w3.org/2000/svg"><g fill-rule="nonzero"><path d="m33.01872496229 1.16858606791h2.20141346465v10.41496301209h-2.20141346465z" stroke-width="15.1821618252"/><path d="m.071-.526h.117l.01.069h.007c.043-.054.097-.081.164-.081.054 0 .097.015.128.044s.046.076.046.141v.353h-.137v-.324c0-.033-.008-.056-.023-.071s-.038-.022-.068-.022c-.031 0-.056.011-.076.032-.021.022-.031.049-.031.081v.304h-.137z" transform="matrix(15.1821618252 0 0 15.1821618252 36.2220974 11.58354908)"/><path d="m.247.012c-.067 0-.118-.023-.155-.069-.037-.045-.055-.114-.055-.207 0-.091.018-.159.056-.205.036-.046.086-.069.147-.069.035 0 .067.006.094.019s.048.031.063.054h.006v-.258h.137v.723h-.117l-.009-.069h-.007c-.017.027-.039.047-.067.06-.028.014-.059.021-.093.021zm.044-.119c.075 0 .112-.049.112-.147v-.016c0-.099-.037-.149-.112-.149-.041 0-.07.012-.087.036-.017.025-.026.062-.026.111v.018c0 .049.009.086.026.11.017.025.046.037.087.037z" transform="matrix(15.1821618252 0 0 15.1821618252 45.49755212 11.58354908)"/><path d="m.242.012c-.054 0-.096-.015-.127-.044s-.047-.076-.047-.141v-.353h.137v.324c0 .033.008.056.023.071s.038.022.068.022c.031 0 .056-.011.077-.033.02-.021.03-.048.03-.08v-.304h.137v.526h-.117l-.01-.069h-.007c-.043.054-.097.081-.164.081z" transform="matrix(15.1821618252 0 0 15.1821618252 54.77454048 11.58354908)"/><path d="m.281.012c-.073 0-.131-.015-.172-.046-.042-.03-.063-.07-.063-.121l.001-.012h.133v.007c.001.023.011.04.032.05.02.011.045.016.074.016.027 0 .051-.004.07-.011s.029-.019.029-.036c0-.019-.01-.033-.029-.042-.02-.009-.051-.019-.093-.028-.043-.01-.079-.02-.106-.031-.027-.01-.051-.026-.071-.048s-.03-.051-.03-.088c0-.051.022-.091.065-.119.043-.027.098-.041.166-.041.063 0 .116.013.157.038.041.026.062.061.062.105l-.001.023h-.133v-.006c0-.017-.008-.031-.024-.04-.017-.009-.039-.014-.066-.014s-.049.004-.065.011-.024.018-.024.031c0 .017.009.029.028.037.018.008.047.016.088.024.045.01.081.02.109.03s.052.026.073.049.031.053.031.092c0 .113-.08.17-.241.17z" transform="matrix(15.1821618252 0 0 15.1821618252 64.0499952 11.58354908)"/><path d="m.212.012c-.049 0-.085-.013-.106-.04s-.032-.06-.032-.101v-.285h-.063v-.112h.066l.023-.148h.111v.148h.091v.112h-.091v.271c0 .029.014.043.043.043h.048v.096c-.011.004-.025.008-.042.011s-.033.005-.048.005z" transform="matrix(15.1821618252 0 0 15.1821618252 72.49114976 11.58354908)"/><path d="m.071-.526h.117l.011.085h.007c.011-.03.026-.054.044-.071s.042-.026.071-.026c.019 0 .037.003.052.009v.128h-.038c-.045 0-.077.012-.097.036-.02.025-.03.062-.03.111v.254h-.137z" transform="matrix(15.1821618252 0 0 15.1821618252 77.54756084 11.58354908)"/><path d="m.151.182c-.037 0-.068-.004-.094-.013v-.096h.065c.023 0 .042-.006.057-.017s.027-.03.036-.056l-.206-.526h.143l.099.247c.01.026.022.072.037.137h.005c.016-.061.028-.107.037-.136l.078-.248h.139l-.177.499c-.016.044-.033.081-.05.111-.017.029-.04.053-.067.071-.028.018-.062.027-.102.027z" transform="matrix(15.1821618252 0 0 15.1821618252 83.45360848 11.58354908)"/><path d="m.33.012c-.053 0-.101-.008-.144-.025-.044-.016-.079-.04-.105-.072s-.039-.071-.039-.116l.001-.022h.147l-.001.016c0 .029.013.053.039.07s.062.026.109.026c.049 0 .085-.007.107-.02.022-.012.033-.03.033-.052 0-.019-.007-.036-.021-.049-.015-.013-.033-.023-.054-.031-.022-.007-.052-.016-.09-.027-.054-.015-.098-.03-.131-.044s-.062-.035-.086-.063c-.024-.027-.036-.064-.036-.109 0-.063.025-.11.076-.143s.118-.049.202-.049c.079 0 .144.017.195.05.05.034.075.085.075.152v.012h-.144v-.009c0-.025-.011-.045-.034-.06-.024-.015-.055-.022-.094-.022-.042 0-.074.006-.096.017-.023.011-.034.027-.034.047 0 .015.007.028.02.039.013.012.03.02.05.027s.048.016.085.026c.055.015.1.029.135.043.035.015.065.036.09.064s.038.065.038.11c0 .073-.026.127-.078.162-.053.035-.124.052-.215.052z" transform="matrix(15.1821618252 0 0 15.1821618252 32.00152012 26.76505144)"/><path d="m.071-.526h.117l.009.069h.007c.017-.027.039-.047.067-.061.028-.013.059-.02.093-.02.067 0 .118.023.155.068.037.046.055.115.055.208 0 .091-.018.159-.055.205-.037.046-.087.069-.148.069-.035 0-.066-.006-.093-.019s-.049-.031-.064-.054h-.006v.234h-.137zm.249.419c.041 0 .07-.012.087-.037.017-.024.026-.061.026-.11v-.018c0-.049-.009-.086-.026-.111-.017-.024-.046-.036-.087-.036-.075 0-.112.049-.112.147v.016c0 .099.037.149.112.149z" transform="matrix(15.1821618252 0 0 15.1821618252 42.1266114 26.76505144)"/><path d="m.288.012c-.085 0-.148-.022-.189-.067-.042-.045-.063-.114-.063-.208s.021-.163.063-.208c.041-.045.104-.067.189-.067.078 0 .136.022.175.067s.058.115.058.208v.032h-.346c.001.047.011.081.028.103.017.023.046.034.087.034.029 0 .052-.008.07-.024.017-.016.026-.039.026-.068h.135c0 .066-.021.115-.064.148-.043.033-.099.05-.169.05zm.091-.334c0-.073-.03-.109-.091-.109-.035 0-.061.009-.078.027-.018.018-.029.045-.033.082z" transform="matrix(15.1821618252 0 0 15.1821618252 51.40359976 26.76505144)"/><path d="m.192.012c-.041 0-.078-.011-.112-.032s-.051-.06-.051-.116c0-.067.028-.115.083-.144.055-.028.134-.042.235-.042v-.037c0-.023-.005-.041-.015-.054-.011-.013-.03-.019-.059-.019-.031 0-.052.005-.065.014s-.02.02-.02.033v.015h-.132c-.001-.004-.001-.011-.001-.022 0-.044.02-.079.059-.106s.09-.04.155-.04c.072 0 .126.015.162.044.035.029.053.072.053.127v.232c0 .012.003.021.01.026.007.006.015.009.025.009h.028v.096c-.021.011-.048.016-.079.016-.027 0-.05-.006-.068-.018-.019-.012-.031-.029-.038-.051h-.006c-.019.023-.041.04-.066.051-.025.012-.058.018-.098.018zm.043-.108c.039 0 .067-.011.085-.033.018-.021.027-.05.027-.086v-.016c-.119 0-.179.027-.179.08 0 .017.005.03.017.04.011.01.027.015.05.015z" transform="matrix(15.1821618252 0 0 15.1821618252 59.84475432 26.76505144)"/><path d="m.071-.723h.137v.406l.174-.209h.158l-.174.202.184.324h-.157l-.115-.223-.07.068v.155h-.137z" transform="matrix(15.1821618252 0 0 15.1821618252 68.28590888 26.76505144)"/><path d="m.288.012c-.085 0-.148-.022-.189-.067-.042-.045-.063-.114-.063-.208s.021-.163.063-.208c.041-.045.104-.067.189-.067.078 0 .136.022.175.067s.058.115.058.208v.032h-.346c.001.047.011.081.028.103.017.023.046.034.087.034.029 0 .052-.008.07-.024.017-.016.026-.039.026-.068h.135c0 .066-.021.115-.064.148-.043.033-.099.05-.169.05zm.091-.334c0-.073-.03-.109-.091-.109-.035 0-.061.009-.078.027-.018.018-.029.045-.033.082z" transform="matrix(15.1821618252 0 0 15.1821618252 76.72706344 26.76505144)"/><path d="m.071-.526h.117l.011.085h.007c.011-.03.026-.054.044-.071s.042-.026.071-.026c.019 0 .037.003.052.009v.128h-.038c-.045 0-.077.012-.097.036-.02.025-.03.062-.03.111v.254h-.137z" transform="matrix(15.1821618252 0 0 15.1821618252 85.168218 26.76505144)"/><path d="m.281.012c-.073 0-.131-.015-.172-.046-.042-.03-.063-.07-.063-.121l.001-.012h.133v.007c.001.023.011.04.032.05.02.011.045.016.074.016.027 0 .051-.004.07-.011s.029-.019.029-.036c0-.019-.01-.033-.029-.042-.02-.009-.051-.019-.093-.028-.043-.01-.079-.02-.106-.031-.027-.01-.051-.026-.071-.048s-.03-.051-.03-.088c0-.051.022-.091.065-.119.043-.027.098-.041.166-.041.063 0 .116.013.157.038.041.026.062.061.062.105l-.001.023h-.133v-.006c0-.017-.008-.031-.024-.04-.017-.009-.039-.014-.066-.014s-.049.004-.065.011-.024.018-.024.031c0 .017.009.029.028.037.018.008.047.016.088.024.045.01.081.02.109.03s.052.026.073.049.031.053.031.092c0 .113-.08.17-.241.17z" transform="matrix(15.1821618252 0 0 15.1821618252 91.07426564 26.76505144)"/></g><path d="m151.226 367.317c0-.415.215-.799.568-1.016.352-.217.792-.235 1.162-.048 3.795 1.865 8.064 2.91 12.575 2.91 4.51 0 8.779-1.045 12.577-2.906.368-.186.806-.167 1.157.049s.565.598.565 1.011c.004 2.532.005 6.826.005 8.815v1.069c0 1.578-2.525 2.969-6.357 3.786v4.277c0 1.552-3.561 2.813-7.947 2.813s-7.947-1.261-7.947-2.813v-4.277c-3.833-.817-6.358-2.208-6.358-3.786zm39.147-6.49c-1.002-.82-2.465-.731-3.359.205 0 0 0 0-.001.001-.893.935-.916 2.401-.051 3.364 1.219 1.357 2.938 3.271 4.293 4.779.552.615 1.336.971 2.162.984s1.62-.32 2.191-.917c.571-.598.867-1.406.816-2.231-.05-.825-.442-1.591-1.081-2.115-1.569-1.284-3.559-2.915-4.97-4.07zm-46.4 3.712c.938-1.045.918-2.634-.045-3.655 0 0-.001 0-.001-.001-.963-1.021-2.548-1.133-3.645-.257-1.351 1.078-3.171 2.53-4.665 3.722-.698.557-1.131 1.38-1.194 2.271-.063.89.25 1.767.862 2.416.001 0 .001 0 .001.001.613.649 1.469 1.012 2.362 1.001.892-.01 1.74-.394 2.336-1.059 1.278-1.422 2.833-3.154 3.989-4.439zm14.029-3.02c-.916-.345-1.4-1.35-1.097-2.281 1.098-3.406 3.565-10.999 3.565-10.999.383-1.178-.037-2.469-1.039-3.197 0 0-2.612-1.898-4.226-3.071-.175-.127-.248-.352-.181-.558.067-.205.258-.345.475-.345h5.223c1.239 0 2.337-.797 2.72-1.976 0 0 .998-3.07 1.614-4.967.067-.206.258-.345.475-.345.216 0 .408.139.475.345.616 1.897 1.614 4.967 1.614 4.967.383 1.179 1.48 1.976 2.719 1.976h5.224c.216 0 .408.14.475.345.066.206-.007.431-.182.558-1.613 1.173-4.226 3.071-4.226 3.071-1.002.728-1.421 2.019-1.038 3.197 0 0 2.467 7.593 3.572 10.996.305.936-.181 1.945-1.102 2.292-2.352.845-4.888 1.31-7.531 1.31-2.644 0-5.179-.465-7.529-1.318zm37.834-9.87c-1.315-.483-2.781.121-3.373 1.39-.593 1.27-.113 2.782 1.103 3.478 1.498.859 3.519 2.016 5.178 2.966.776.444 1.702.543 2.554.273s1.552-.885 1.93-1.695c0 0 0 0 0-.001.378-.81.399-1.741.059-2.568-.341-.826-1.012-1.472-1.851-1.781-1.795-.661-3.979-1.465-5.6-2.062zm-58.543 4.508c1.225-.68 1.723-2.186 1.147-3.463v-.001c-.576-1.276-2.033-1.899-3.354-1.432-1.628.575-3.823 1.351-5.627 1.989-.843.298-1.522.935-1.873 1.757-.352.822-.342 1.754.025 2.569v.001c.368.814 1.06 1.438 1.908 1.719.849.282 1.776.194 2.558-.24 1.671-.929 3.706-2.06 5.216-2.899zm16.016 1.668c-.204.627-.706 1.113-1.34 1.295-.635.183-1.318.038-1.825-.386-5.167-4.383-8.455-10.92-8.455-18.219 0-13.159 10.683-23.842 23.842-23.842 13.158 0 23.841 10.683 23.841 23.842 0 7.299-3.287 13.836-8.462 18.211-.503.422-1.183.566-1.814.384-.632-.181-1.131-.664-1.334-1.289-1.211-3.694-3.257-9.991-3.257-9.991l6.834-4.965c1.082-.786 1.535-2.179 1.121-3.451-.413-1.272-1.598-2.133-2.935-2.133h-8.448l-2.61-8.034c-.414-1.272-1.599-2.133-2.936-2.133-1.338 0-2.523.861-2.936 2.133l-2.611 8.034h-8.447c-1.338 0-2.523.861-2.936 2.133s.039 2.665 1.121 3.451l6.835 4.965s-2.046 6.297-3.248 9.995zm44.5-16.7c-1.402-.026-2.591 1.028-2.733 2.424v.001c-.142 1.395.809 2.666 2.187 2.923 1.699.318 3.988.745 5.867 1.097.878.164 1.785-.047 2.5-.583.716-.535 1.174-1.345 1.264-2.234.091-.889-.195-1.775-.787-2.443-.593-.668-1.438-1.058-2.331-1.074-1.911-.036-4.239-.079-5.967-.111zm-64.085 4.942c1.382-.24 2.349-1.499 2.225-2.896-.124-1.399-1.299-2.468-2.703-2.46-1.729.01-4.057.024-5.968.036-.893.005-1.743.384-2.343 1.044-.601.66-.898 1.542-.819 2.431v.001c.079.89.527 1.706 1.236 2.25.708.544 1.612.767 2.492.614 1.884-.326 4.177-.725 5.88-1.02zm62.509-15.537c-1.331.434-2.109 1.815-1.789 3.178.321 1.364 1.632 2.255 3.017 2.05 1.709-.253 4.012-.593 5.904-.873.885-.131 1.674-.626 2.176-1.366.502-.739.672-1.655.468-2.526 0 0-.001-.001-.001-.001-.204-.87-.764-1.615-1.543-2.054s-1.706-.531-2.556-.254c-1.819.592-4.033 1.312-5.676 1.846zm-62.57 4.819c1.383.223 2.706-.651 3.043-2.01 0 0 0 0 0-.001.338-1.358-.422-2.749-1.747-3.199-1.635-.556-3.84-1.305-5.652-1.92-.846-.288-1.774-.208-2.559.221-.785.428-1.354 1.166-1.57 2.034v.001c-.216.868-.058 1.786.435 2.532s1.276 1.252 2.158 1.394c1.888.304 4.187.674 5.892.948zm57.61-14.308c-1.118.847-1.399 2.41-.647 3.594v.001c.751 1.183 2.285 1.594 3.527.943 1.531-.801 3.594-1.881 5.288-2.767.791-.415 1.373-1.141 1.604-2.004s.09-1.784-.389-2.538c0 0 0 0-.001-.001-.478-.754-1.251-1.273-2.13-1.432-.879-.158-1.784.059-2.496.598-1.523 1.155-3.379 2.562-4.756 3.606zm-54.171 4.173c1.234.667 2.773.276 3.539-.898.001-.001.001-.001.001-.001.767-1.175.505-2.741-.602-3.602-1.363-1.062-3.201-2.492-4.71-3.666-.704-.549-1.607-.777-2.488-.63s-1.66.657-2.148 1.405c0 0 0 0-.001.001-.488.748-.641 1.666-.421 2.532.22.865.793 1.6 1.579 2.024 1.682.908 3.731 2.015 5.251 2.835zm46.377-11.532c-.782 1.165-.539 2.736.557 3.611h.001c1.097.876 2.682.765 3.645-.256 1.187-1.257 2.785-2.95 4.097-4.34.613-.649.926-1.525.863-2.416-.063-.89-.495-1.714-1.193-2.271 0 0-.001-.001-.001-.001-.698-.557-1.597-.797-2.479-.661-.883.137-1.668.636-2.165 1.378-1.065 1.587-2.362 3.52-3.325 4.956zm-39.797 3.073c.95 1.033 2.534 1.164 3.642.303 0 0 0-.001.001-.001 1.107-.861 1.369-2.428.603-3.603-.945-1.447-2.217-3.397-3.261-4.998-.488-.748-1.267-1.257-2.148-1.405-.881-.147-1.783.081-2.488.629 0 0-.001 0-.001.001-.705.548-1.148 1.366-1.222 2.256-.074.889.228 1.769.833 2.426 1.294 1.407 2.871 3.12 4.041 4.392zm30.036-7.469c-.354 1.354.388 2.754 1.708 3.221 1.32.467 2.778-.155 3.354-1.431.711-1.575 1.669-3.697 2.456-5.44.367-.815.377-1.747.026-2.569s-1.03-1.46-1.873-1.758c-.001 0-.001-.001-.002-.001-.843-.298-1.772-.229-2.562.189-.79.419-1.368 1.15-1.595 2.014-.484 1.851-1.074 4.104-1.512 5.775zm-21.059 1.623c.559 1.283 2.009 1.924 3.334 1.474.001 0 .001 0 .002-.001 1.325-.449 2.085-1.84 1.748-3.198-.416-1.677-.976-3.937-1.437-5.794-.215-.867-.784-1.605-1.569-2.034-.784-.429-1.713-.51-2.559-.222-.001 0-.001 0-.002 0-.846.288-1.534.916-1.896 1.734-.361.818-.363 1.75-.006 2.569.764 1.754 1.695 3.888 2.385 5.472zm10.405-2.357c.095 1.255 1.166 2.21 2.424 2.163h.087c1.472.065 2.735-1.04 2.866-2.508.146-1.637.335-3.767.496-5.57.085-.96-.226-1.914-.861-2.64s-1.539-1.16-2.502-1.203h-.086c-.826.031-1.604.398-2.155 1.015s-.826 1.432-.763 2.257c.155 2.042.354 4.653.494 6.486z" transform="matrix(.294766 0 0 .294766 -35.5816 -87.4019)"/></svg>