<?xml version="1.0" encoding="UTF-8" standalone="no"?>
<!DOCTYPE svg PUBLIC "-//W3C//DTD SVG 1.1//EN" "http://www.w3.org/Graphics/SVG/1.1/DTD/svg11.dtd">
<svg width="100%" height="100%" viewBox="0 0 100 30" version="1.1" xmlns="http://www.w3.org/2000/svg" xmlns:xlink="http://www.w3.org/1999/xlink" xml:space="preserve" xmlns:serif="http://www.serif.com/" style="fill-rule:evenodd;clip-rule:evenodd;stroke-linejoin:round;stroke-miterlimit:2;">
    <g transform="matrix(1.53364,0,0,1.53364,-179.308,-224.209)">
        <g transform="matrix(9.89943,0,0,9.89943,137.783,153.747)">
            <rect x="0.067" y="-0.686" width="0.145" height="0.686" style="fill-rule:nonzero;"/>
        </g>
        <g transform="matrix(9.89943,0,0,9.89943,140.535,153.747)">
            <path d="M0.071,-0.526L0.188,-0.526L0.198,-0.457L0.205,-0.457C0.248,-0.511 0.302,-0.538 0.369,-0.538C0.423,-0.538 0.466,-0.523 0.497,-0.494C0.528,-0.465 0.543,-0.418 0.543,-0.353L0.543,-0L0.406,-0L0.406,-0.324C0.406,-0.357 0.398,-0.38 0.383,-0.395C0.368,-0.41 0.345,-0.417 0.315,-0.417C0.284,-0.417 0.259,-0.406 0.239,-0.385C0.218,-0.363 0.208,-0.336 0.208,-0.304L0.208,-0L0.071,-0L0.071,-0.526Z" style="fill-rule:nonzero;"/>
        </g>
        <g transform="matrix(9.89943,0,0,9.89943,146.583,153.747)">
            <path d="M0.247,0.012C0.18,0.012 0.129,-0.011 0.092,-0.057C0.055,-0.102 0.037,-0.171 0.037,-0.264C0.037,-0.355 0.055,-0.423 0.093,-0.469C0.129,-0.515 0.179,-0.538 0.24,-0.538C0.275,-0.538 0.307,-0.532 0.334,-0.519C0.361,-0.506 0.382,-0.488 0.397,-0.465L0.403,-0.465L0.403,-0.723L0.54,-0.723L0.54,-0L0.423,-0L0.414,-0.069L0.407,-0.069C0.39,-0.042 0.368,-0.022 0.34,-0.009C0.312,0.005 0.281,0.012 0.247,0.012ZM0.291,-0.107C0.366,-0.107 0.403,-0.156 0.403,-0.254L0.403,-0.27C0.403,-0.369 0.366,-0.419 0.291,-0.419C0.25,-0.419 0.221,-0.407 0.204,-0.383C0.187,-0.358 0.178,-0.321 0.178,-0.272L0.178,-0.254C0.178,-0.205 0.187,-0.168 0.204,-0.144C0.221,-0.119 0.25,-0.107 0.291,-0.107Z" style="fill-rule:nonzero;"/>
        </g>
        <g transform="matrix(9.89943,0,0,9.89943,152.632,153.747)">
            <path d="M0.242,0.012C0.188,0.012 0.146,-0.003 0.115,-0.032C0.084,-0.061 0.068,-0.108 0.068,-0.173L0.068,-0.526L0.205,-0.526L0.205,-0.202C0.205,-0.169 0.213,-0.146 0.228,-0.131C0.243,-0.116 0.266,-0.109 0.296,-0.109C0.327,-0.109 0.352,-0.12 0.373,-0.142C0.393,-0.163 0.403,-0.19 0.403,-0.222L0.403,-0.526L0.54,-0.526L0.54,-0L0.423,-0L0.413,-0.069L0.406,-0.069C0.363,-0.015 0.309,0.012 0.242,0.012Z" style="fill-rule:nonzero;"/>
        </g>
        <g transform="matrix(9.89943,0,0,9.89943,158.68,153.747)">
            <path d="M0.281,0.012C0.208,0.012 0.15,-0.003 0.109,-0.034C0.067,-0.064 0.046,-0.104 0.046,-0.155L0.047,-0.167L0.18,-0.167L0.18,-0.16C0.181,-0.137 0.191,-0.12 0.212,-0.11C0.232,-0.099 0.257,-0.094 0.286,-0.094C0.313,-0.094 0.337,-0.098 0.356,-0.105C0.375,-0.112 0.385,-0.124 0.385,-0.141C0.385,-0.16 0.375,-0.174 0.356,-0.183C0.336,-0.192 0.305,-0.202 0.263,-0.211C0.22,-0.221 0.184,-0.231 0.157,-0.242C0.13,-0.252 0.106,-0.268 0.086,-0.29C0.066,-0.312 0.056,-0.341 0.056,-0.378C0.056,-0.429 0.078,-0.469 0.121,-0.497C0.164,-0.524 0.219,-0.538 0.287,-0.538C0.35,-0.538 0.403,-0.525 0.444,-0.5C0.485,-0.474 0.506,-0.439 0.506,-0.395L0.505,-0.372L0.372,-0.372L0.372,-0.378C0.372,-0.395 0.364,-0.409 0.348,-0.418C0.331,-0.427 0.309,-0.432 0.282,-0.432C0.255,-0.432 0.233,-0.428 0.217,-0.421C0.201,-0.414 0.193,-0.403 0.193,-0.39C0.193,-0.373 0.202,-0.361 0.221,-0.353C0.239,-0.345 0.268,-0.337 0.309,-0.329C0.354,-0.319 0.39,-0.309 0.418,-0.299C0.446,-0.289 0.47,-0.273 0.491,-0.25C0.512,-0.227 0.522,-0.197 0.522,-0.158C0.522,-0.045 0.442,0.012 0.281,0.012Z" style="fill-rule:nonzero;"/>
        </g>
        <g transform="matrix(9.89943,0,0,9.89943,164.184,153.747)">
            <path d="M0.212,0.012C0.163,0.012 0.127,-0.001 0.106,-0.028C0.085,-0.055 0.074,-0.088 0.074,-0.129L0.074,-0.414L0.011,-0.414L0.011,-0.526L0.077,-0.526L0.1,-0.674L0.211,-0.674L0.211,-0.526L0.302,-0.526L0.302,-0.414L0.211,-0.414L0.211,-0.143C0.211,-0.114 0.225,-0.1 0.254,-0.1L0.302,-0.1L0.302,-0.004C0.291,0 0.277,0.004 0.26,0.007C0.243,0.01 0.227,0.012 0.212,0.012Z" style="fill-rule:nonzero;"/>
        </g>
        <g transform="matrix(9.89943,0,0,9.89943,167.481,153.747)">
            <path d="M0.071,-0.526L0.188,-0.526L0.199,-0.441L0.206,-0.441C0.217,-0.471 0.232,-0.495 0.25,-0.512C0.268,-0.529 0.292,-0.538 0.321,-0.538C0.34,-0.538 0.358,-0.535 0.373,-0.529L0.373,-0.401L0.335,-0.401C0.29,-0.401 0.258,-0.389 0.238,-0.365C0.218,-0.34 0.208,-0.303 0.208,-0.254L0.208,-0L0.071,-0L0.071,-0.526Z" style="fill-rule:nonzero;"/>
        </g>
        <g transform="matrix(9.89943,0,0,9.89943,171.332,153.747)">
            <path d="M0.151,0.182C0.114,0.182 0.083,0.178 0.057,0.169L0.057,0.073L0.122,0.073C0.145,0.073 0.164,0.067 0.179,0.056C0.194,0.045 0.206,0.026 0.215,-0L0.009,-0.526L0.152,-0.526L0.251,-0.279C0.261,-0.253 0.273,-0.207 0.288,-0.142L0.293,-0.142C0.309,-0.203 0.321,-0.249 0.33,-0.278L0.408,-0.526L0.547,-0.526L0.37,-0.027C0.354,0.017 0.337,0.054 0.32,0.084C0.303,0.113 0.28,0.137 0.253,0.155C0.225,0.173 0.191,0.182 0.151,0.182Z" style="fill-rule:nonzero;"/>
        </g>
        <g transform="matrix(9.89943,0,0,9.89943,137.783,163.646)">
            <path d="M0.33,0.012C0.277,0.012 0.229,0.004 0.186,-0.013C0.142,-0.029 0.107,-0.053 0.081,-0.085C0.055,-0.117 0.042,-0.156 0.042,-0.201L0.043,-0.223L0.19,-0.223L0.189,-0.207C0.189,-0.178 0.202,-0.154 0.228,-0.137C0.254,-0.12 0.29,-0.111 0.337,-0.111C0.386,-0.111 0.422,-0.118 0.444,-0.131C0.466,-0.143 0.477,-0.161 0.477,-0.183C0.477,-0.202 0.47,-0.219 0.456,-0.232C0.441,-0.245 0.423,-0.255 0.402,-0.263C0.38,-0.27 0.35,-0.279 0.312,-0.29C0.258,-0.305 0.214,-0.32 0.181,-0.334C0.148,-0.348 0.119,-0.369 0.095,-0.397C0.071,-0.424 0.059,-0.461 0.059,-0.506C0.059,-0.569 0.084,-0.616 0.135,-0.649C0.186,-0.682 0.253,-0.698 0.337,-0.698C0.416,-0.698 0.481,-0.681 0.532,-0.648C0.582,-0.614 0.607,-0.563 0.607,-0.496L0.607,-0.484L0.463,-0.484L0.463,-0.493C0.463,-0.518 0.452,-0.538 0.429,-0.553C0.405,-0.568 0.374,-0.575 0.335,-0.575C0.293,-0.575 0.261,-0.569 0.239,-0.558C0.216,-0.547 0.205,-0.531 0.205,-0.511C0.205,-0.496 0.212,-0.483 0.225,-0.472C0.238,-0.46 0.255,-0.452 0.275,-0.445C0.295,-0.438 0.323,-0.429 0.36,-0.419C0.415,-0.404 0.46,-0.39 0.495,-0.376C0.53,-0.361 0.56,-0.34 0.585,-0.312C0.61,-0.284 0.623,-0.247 0.623,-0.202C0.623,-0.129 0.597,-0.075 0.545,-0.04C0.492,-0.005 0.421,0.012 0.33,0.012Z" style="fill-rule:nonzero;"/>
        </g>
        <g transform="matrix(9.89943,0,0,9.89943,144.385,163.646)">
            <path d="M0.071,-0.526L0.188,-0.526L0.197,-0.457L0.204,-0.457C0.221,-0.484 0.243,-0.504 0.271,-0.518C0.299,-0.531 0.33,-0.538 0.364,-0.538C0.431,-0.538 0.482,-0.515 0.519,-0.47C0.556,-0.424 0.574,-0.355 0.574,-0.262C0.574,-0.171 0.556,-0.103 0.519,-0.057C0.482,-0.011 0.432,0.012 0.371,0.012C0.336,0.012 0.305,0.006 0.278,-0.007C0.251,-0.02 0.229,-0.038 0.214,-0.061L0.208,-0.061L0.208,0.173L0.071,0.173L0.071,-0.526ZM0.32,-0.107C0.361,-0.107 0.39,-0.119 0.407,-0.144C0.424,-0.168 0.433,-0.205 0.433,-0.254L0.433,-0.272C0.433,-0.321 0.424,-0.358 0.407,-0.383C0.39,-0.407 0.361,-0.419 0.32,-0.419C0.245,-0.419 0.208,-0.37 0.208,-0.272L0.208,-0.256C0.208,-0.157 0.245,-0.107 0.32,-0.107Z" style="fill-rule:nonzero;"/>
        </g>
        <g transform="matrix(9.89943,0,0,9.89943,150.434,163.646)">
            <path d="M0.288,0.012C0.203,0.012 0.14,-0.01 0.099,-0.055C0.057,-0.1 0.036,-0.169 0.036,-0.263C0.036,-0.357 0.057,-0.426 0.099,-0.471C0.14,-0.516 0.203,-0.538 0.288,-0.538C0.366,-0.538 0.424,-0.516 0.463,-0.471C0.502,-0.426 0.521,-0.356 0.521,-0.263L0.521,-0.231L0.175,-0.231C0.176,-0.184 0.186,-0.15 0.203,-0.128C0.22,-0.105 0.249,-0.094 0.29,-0.094C0.319,-0.094 0.342,-0.102 0.36,-0.118C0.377,-0.134 0.386,-0.157 0.386,-0.186L0.521,-0.186C0.521,-0.12 0.5,-0.071 0.457,-0.038C0.414,-0.005 0.358,0.012 0.288,0.012ZM0.379,-0.322C0.379,-0.395 0.349,-0.431 0.288,-0.431C0.253,-0.431 0.227,-0.422 0.21,-0.404C0.192,-0.386 0.181,-0.359 0.177,-0.322L0.379,-0.322Z" style="fill-rule:nonzero;"/>
        </g>
        <g transform="matrix(9.89943,0,0,9.89943,155.938,163.646)">
            <path d="M0.192,0.012C0.151,0.012 0.114,0.001 0.08,-0.02C0.046,-0.041 0.029,-0.08 0.029,-0.136C0.029,-0.203 0.057,-0.251 0.112,-0.28C0.167,-0.308 0.246,-0.322 0.347,-0.322L0.347,-0.359C0.347,-0.382 0.342,-0.4 0.332,-0.413C0.321,-0.426 0.302,-0.432 0.273,-0.432C0.242,-0.432 0.221,-0.427 0.208,-0.418C0.195,-0.409 0.188,-0.398 0.188,-0.385L0.188,-0.37L0.056,-0.37C0.055,-0.374 0.055,-0.381 0.055,-0.392C0.055,-0.436 0.075,-0.471 0.114,-0.498C0.153,-0.525 0.204,-0.538 0.269,-0.538C0.341,-0.538 0.395,-0.523 0.431,-0.494C0.466,-0.465 0.484,-0.422 0.484,-0.367L0.484,-0.135C0.484,-0.123 0.487,-0.114 0.494,-0.109C0.501,-0.103 0.509,-0.1 0.519,-0.1L0.547,-0.1L0.547,-0.004C0.526,0.007 0.499,0.012 0.468,0.012C0.441,0.012 0.418,0.006 0.4,-0.006C0.381,-0.018 0.369,-0.035 0.362,-0.057L0.356,-0.057C0.337,-0.034 0.315,-0.017 0.29,-0.006C0.265,0.006 0.232,0.012 0.192,0.012ZM0.235,-0.096C0.274,-0.096 0.302,-0.107 0.32,-0.129C0.338,-0.15 0.347,-0.179 0.347,-0.215L0.347,-0.231C0.228,-0.231 0.168,-0.204 0.168,-0.151C0.168,-0.134 0.173,-0.121 0.185,-0.111C0.196,-0.101 0.212,-0.096 0.235,-0.096Z" style="fill-rule:nonzero;"/>
        </g>
        <g transform="matrix(9.89943,0,0,9.89943,161.442,163.646)">
            <path d="M0.071,-0.723L0.208,-0.723L0.208,-0.317L0.382,-0.526L0.54,-0.526L0.366,-0.324L0.55,-0L0.393,-0L0.278,-0.223L0.208,-0.155L0.208,-0L0.071,-0L0.071,-0.723Z" style="fill-rule:nonzero;"/>
        </g>
        <g transform="matrix(9.89943,0,0,9.89943,166.946,163.646)">
            <path d="M0.288,0.012C0.203,0.012 0.14,-0.01 0.099,-0.055C0.057,-0.1 0.036,-0.169 0.036,-0.263C0.036,-0.357 0.057,-0.426 0.099,-0.471C0.14,-0.516 0.203,-0.538 0.288,-0.538C0.366,-0.538 0.424,-0.516 0.463,-0.471C0.502,-0.426 0.521,-0.356 0.521,-0.263L0.521,-0.231L0.175,-0.231C0.176,-0.184 0.186,-0.15 0.203,-0.128C0.22,-0.105 0.249,-0.094 0.29,-0.094C0.319,-0.094 0.342,-0.102 0.36,-0.118C0.377,-0.134 0.386,-0.157 0.386,-0.186L0.521,-0.186C0.521,-0.12 0.5,-0.071 0.457,-0.038C0.414,-0.005 0.358,0.012 0.288,0.012ZM0.379,-0.322C0.379,-0.395 0.349,-0.431 0.288,-0.431C0.253,-0.431 0.227,-0.422 0.21,-0.404C0.192,-0.386 0.181,-0.359 0.177,-0.322L0.379,-0.322Z" style="fill-rule:nonzero;"/>
        </g>
        <g transform="matrix(9.89943,0,0,9.89943,172.45,163.646)">
            <path d="M0.071,-0.526L0.188,-0.526L0.199,-0.441L0.206,-0.441C0.217,-0.471 0.232,-0.495 0.25,-0.512C0.268,-0.529 0.292,-0.538 0.321,-0.538C0.34,-0.538 0.358,-0.535 0.373,-0.529L0.373,-0.401L0.335,-0.401C0.29,-0.401 0.258,-0.389 0.238,-0.365C0.218,-0.34 0.208,-0.303 0.208,-0.254L0.208,-0L0.071,-0L0.071,-0.526Z" style="fill-rule:nonzero;"/>
        </g>
        <g transform="matrix(9.89943,0,0,9.89943,176.301,163.646)">
            <path d="M0.281,0.012C0.208,0.012 0.15,-0.003 0.109,-0.034C0.067,-0.064 0.046,-0.104 0.046,-0.155L0.047,-0.167L0.18,-0.167L0.18,-0.16C0.181,-0.137 0.191,-0.12 0.212,-0.11C0.232,-0.099 0.257,-0.094 0.286,-0.094C0.313,-0.094 0.337,-0.098 0.356,-0.105C0.375,-0.112 0.385,-0.124 0.385,-0.141C0.385,-0.16 0.375,-0.174 0.356,-0.183C0.336,-0.192 0.305,-0.202 0.263,-0.211C0.22,-0.221 0.184,-0.231 0.157,-0.242C0.13,-0.252 0.106,-0.268 0.086,-0.29C0.066,-0.312 0.056,-0.341 0.056,-0.378C0.056,-0.429 0.078,-0.469 0.121,-0.497C0.164,-0.524 0.219,-0.538 0.287,-0.538C0.35,-0.538 0.403,-0.525 0.444,-0.5C0.485,-0.474 0.506,-0.439 0.506,-0.395L0.505,-0.372L0.372,-0.372L0.372,-0.378C0.372,-0.395 0.364,-0.409 0.348,-0.418C0.331,-0.427 0.309,-0.432 0.282,-0.432C0.255,-0.432 0.233,-0.428 0.217,-0.421C0.201,-0.414 0.193,-0.403 0.193,-0.39C0.193,-0.373 0.202,-0.361 0.221,-0.353C0.239,-0.345 0.268,-0.337 0.309,-0.329C0.354,-0.319 0.39,-0.309 0.418,-0.299C0.446,-0.289 0.47,-0.273 0.491,-0.25C0.512,-0.227 0.522,-0.197 0.522,-0.158C0.522,-0.045 0.442,0.012 0.281,0.012Z" style="fill-rule:nonzero;"/>
        </g>
    </g>
    <g transform="matrix(0.294766,0,0,0.294766,-35.5816,-87.4019)">
        <path d="M151.226,367.317C151.226,366.902 151.441,366.518 151.794,366.301C152.146,366.084 152.586,366.066 152.956,366.253C156.751,368.118 161.02,369.163 165.531,369.163C170.041,369.163 174.31,368.118 178.108,366.257C178.476,366.071 178.914,366.09 179.265,366.306C179.616,366.522 179.83,366.904 179.83,367.317C179.834,369.849 179.835,374.143 179.835,376.132L179.835,377.201C179.835,378.779 177.31,380.17 173.478,380.987L173.478,385.264C173.478,386.816 169.917,388.077 165.531,388.077C161.145,388.077 157.584,386.816 157.584,385.264L157.584,380.987C153.751,380.17 151.226,378.779 151.226,377.201L151.226,367.317ZM190.373,360.827C189.371,360.007 187.908,360.096 187.014,361.032C187.014,361.032 187.014,361.032 187.013,361.033C186.12,361.968 186.097,363.434 186.962,364.397C188.181,365.754 189.9,367.668 191.255,369.176C191.807,369.791 192.591,370.147 193.417,370.16C194.243,370.173 195.037,369.84 195.608,369.243C195.608,369.243 195.608,369.243 195.608,369.243C196.179,368.645 196.475,367.837 196.424,367.012C196.374,366.187 195.982,365.421 195.343,364.897C193.774,363.613 191.784,361.982 190.373,360.827ZM143.973,364.539C144.911,363.494 144.891,361.905 143.928,360.884C143.928,360.884 143.927,360.884 143.927,360.883C142.964,359.862 141.379,359.75 140.282,360.626C138.931,361.704 137.111,363.156 135.617,364.348C134.919,364.905 134.486,365.728 134.423,366.619C134.36,367.509 134.673,368.386 135.285,369.035C135.286,369.035 135.286,369.035 135.286,369.036C135.899,369.685 136.755,370.048 137.648,370.037C138.54,370.027 139.388,369.643 139.984,368.978C141.262,367.556 142.817,365.824 143.973,364.539ZM158.002,361.519C157.086,361.174 156.602,360.169 156.905,359.238C158.003,355.832 160.47,348.239 160.47,348.239C160.853,347.061 160.433,345.77 159.431,345.042C159.431,345.042 156.819,343.144 155.205,341.971C155.03,341.844 154.957,341.619 155.024,341.413C155.091,341.208 155.282,341.068 155.499,341.068C157.493,341.068 160.722,341.068 160.722,341.068C161.961,341.068 163.059,340.271 163.442,339.092C163.442,339.092 164.44,336.022 165.056,334.125C165.123,333.919 165.314,333.78 165.531,333.78C165.747,333.78 165.939,333.919 166.006,334.125C166.622,336.022 167.62,339.092 167.62,339.092C168.003,340.271 169.1,341.068 170.339,341.068C170.339,341.068 173.568,341.068 175.563,341.068C175.779,341.068 175.971,341.208 176.038,341.413C176.104,341.619 176.031,341.844 175.856,341.971C174.243,343.144 171.63,345.042 171.63,345.042C170.628,345.77 170.209,347.061 170.592,348.239C170.592,348.239 173.059,355.832 174.164,359.235C174.469,360.171 173.983,361.18 173.062,361.527C170.71,362.372 168.174,362.837 165.531,362.837C162.887,362.837 160.352,362.372 158.002,361.519ZM195.836,351.649C194.521,351.166 193.055,351.77 192.463,353.039C192.463,353.039 192.463,353.039 192.463,353.039C191.87,354.309 192.35,355.821 193.566,356.517C195.064,357.376 197.085,358.533 198.744,359.483C199.52,359.927 200.446,360.026 201.298,359.756C202.15,359.486 202.85,358.871 203.228,358.061C203.228,358.061 203.228,358.061 203.228,358.06C203.606,357.25 203.627,356.319 203.287,355.492C202.946,354.666 202.275,354.02 201.436,353.711C199.641,353.05 197.457,352.246 195.836,351.649ZM137.293,356.157C138.518,355.477 139.016,353.971 138.44,352.694C138.44,352.694 138.44,352.693 138.44,352.693C137.864,351.417 136.407,350.794 135.086,351.261C133.458,351.836 131.263,352.612 129.459,353.25C128.616,353.548 127.937,354.185 127.586,355.007C127.234,355.829 127.244,356.761 127.611,357.576C127.611,357.576 127.611,357.576 127.611,357.577C127.979,358.391 128.671,359.015 129.519,359.296C130.368,359.578 131.295,359.49 132.077,359.056C133.748,358.127 135.783,356.996 137.293,356.157ZM153.309,357.825C153.105,358.452 152.603,358.938 151.969,359.12C151.334,359.303 150.651,359.158 150.144,358.734C144.977,354.351 141.689,347.814 141.689,340.515C141.689,327.356 152.372,316.673 165.531,316.673C178.689,316.673 189.372,327.356 189.372,340.515C189.372,347.814 186.085,354.351 180.91,358.726C180.407,359.148 179.727,359.292 179.096,359.11C178.464,358.929 177.965,358.446 177.762,357.821C176.551,354.127 174.505,347.83 174.505,347.83L181.339,342.865C182.421,342.079 182.874,340.686 182.46,339.414C182.047,338.142 180.862,337.281 179.525,337.281L171.077,337.281L168.467,329.247C168.053,327.975 166.868,327.114 165.531,327.114C164.193,327.114 163.008,327.975 162.595,329.247L159.984,337.281L151.537,337.281C150.199,337.281 149.014,338.142 148.601,339.414C148.188,340.686 148.64,342.079 149.722,342.865L156.557,347.83C156.557,347.83 154.511,354.127 153.309,357.825ZM197.809,341.125C196.407,341.099 195.218,342.153 195.076,343.549C195.076,343.55 195.076,343.55 195.076,343.55C194.934,344.945 195.885,346.216 197.263,346.473C198.962,346.791 201.251,347.218 203.13,347.57C204.008,347.734 204.915,347.523 205.63,346.987C206.346,346.452 206.804,345.642 206.894,344.753C206.894,344.753 206.894,344.753 206.894,344.753C206.985,343.864 206.699,342.978 206.107,342.31C205.514,341.642 204.669,341.252 203.776,341.236C201.865,341.2 199.537,341.157 197.809,341.125ZM133.724,346.067C135.106,345.827 136.073,344.568 135.949,343.171C135.949,343.171 135.949,343.171 135.949,343.171C135.825,341.772 134.65,340.703 133.246,340.711C131.517,340.721 129.189,340.735 127.278,340.747C126.385,340.752 125.535,341.131 124.935,341.791C124.334,342.451 124.037,343.333 124.116,344.222C124.116,344.223 124.116,344.223 124.116,344.223C124.195,345.113 124.643,345.929 125.352,346.473C126.06,347.017 126.964,347.24 127.844,347.087C129.728,346.761 132.021,346.362 133.724,346.067ZM196.233,330.53C194.902,330.964 194.124,332.345 194.444,333.708C194.444,333.708 194.444,333.708 194.444,333.708C194.765,335.072 196.076,335.963 197.461,335.758C199.17,335.505 201.473,335.165 203.365,334.885C204.25,334.754 205.039,334.259 205.541,333.519C206.043,332.78 206.213,331.864 206.009,330.993C206.009,330.993 206.008,330.992 206.008,330.992C205.804,330.122 205.244,329.377 204.465,328.938C203.686,328.499 202.759,328.407 201.909,328.684C200.09,329.276 197.876,329.996 196.233,330.53ZM133.663,335.349C135.046,335.572 136.369,334.698 136.706,333.339C136.706,333.339 136.706,333.339 136.706,333.338C137.044,331.98 136.284,330.589 134.959,330.139C133.324,329.583 131.119,328.834 129.307,328.219C128.461,327.931 127.533,328.011 126.748,328.44C125.963,328.868 125.394,329.606 125.178,330.474C125.178,330.474 125.178,330.475 125.178,330.475C124.962,331.343 125.12,332.261 125.613,333.007C126.106,333.753 126.889,334.259 127.771,334.401C129.659,334.705 131.958,335.075 133.663,335.349ZM191.273,321.041C190.155,321.888 189.874,323.451 190.626,324.635C190.626,324.635 190.626,324.635 190.626,324.636C191.377,325.819 192.911,326.23 194.153,325.579C195.684,324.778 197.747,323.698 199.441,322.812C200.232,322.397 200.814,321.671 201.045,320.808C201.276,319.945 201.135,319.024 200.656,318.27C200.656,318.27 200.656,318.27 200.655,318.269C200.177,317.515 199.404,316.996 198.525,316.837C197.646,316.679 196.741,316.896 196.029,317.435C194.506,318.59 192.65,319.997 191.273,321.041ZM137.102,325.214C138.336,325.881 139.875,325.49 140.641,324.316C140.642,324.315 140.642,324.315 140.642,324.315C141.409,323.14 141.147,321.574 140.04,320.713C138.677,319.651 136.839,318.221 135.33,317.047C134.626,316.498 133.723,316.27 132.842,316.417C131.961,316.564 131.182,317.074 130.694,317.822C130.694,317.822 130.694,317.822 130.693,317.823C130.205,318.571 130.052,319.489 130.272,320.355C130.492,321.22 131.065,321.955 131.851,322.379C133.533,323.287 135.582,324.394 137.102,325.214ZM183.479,313.682C182.697,314.847 182.94,316.418 184.036,317.293C184.037,317.293 184.037,317.293 184.037,317.293C185.134,318.169 186.719,318.058 187.682,317.037C188.869,315.78 190.467,314.087 191.779,312.697C192.392,312.048 192.705,311.172 192.642,310.281C192.579,309.391 192.147,308.567 191.449,308.01C191.449,308.01 191.448,308.009 191.448,308.009C190.75,307.452 189.851,307.212 188.969,307.348C188.086,307.485 187.301,307.984 186.804,308.726C185.739,310.313 184.442,312.246 183.479,313.682ZM143.682,316.755C144.632,317.788 146.216,317.919 147.324,317.058C147.324,317.058 147.324,317.057 147.325,317.057C148.432,316.196 148.694,314.629 147.928,313.454C146.983,312.007 145.711,310.057 144.667,308.456C144.179,307.708 143.4,307.199 142.519,307.051C141.638,306.904 140.736,307.132 140.031,307.68C140.031,307.68 140.03,307.68 140.03,307.681C139.325,308.229 138.882,309.047 138.808,309.937C138.734,310.826 139.036,311.706 139.641,312.363C140.935,313.77 142.512,315.483 143.682,316.755ZM173.718,309.286C173.364,310.64 174.106,312.04 175.426,312.507C175.426,312.507 175.426,312.507 175.426,312.507C176.746,312.974 178.204,312.352 178.78,311.076C179.491,309.501 180.449,307.379 181.236,305.636C181.603,304.821 181.613,303.889 181.262,303.067C180.911,302.245 180.232,301.607 179.389,301.309C179.388,301.309 179.388,301.308 179.387,301.308C178.544,301.01 177.615,301.079 176.825,301.497C176.035,301.916 175.457,302.647 175.23,303.511C174.746,305.362 174.156,307.615 173.718,309.286ZM152.659,310.909C153.218,312.192 154.668,312.833 155.993,312.383C155.994,312.383 155.994,312.383 155.995,312.382C157.32,311.933 158.08,310.542 157.743,309.184C157.327,307.507 156.767,305.247 156.306,303.39C156.091,302.523 155.522,301.785 154.737,301.356C153.953,300.927 153.024,300.846 152.178,301.134C152.177,301.134 152.177,301.134 152.176,301.134C151.33,301.422 150.642,302.05 150.28,302.868C149.919,303.686 149.917,304.618 150.274,305.437C151.038,307.191 151.969,309.325 152.659,310.909ZM163.064,308.552C163.159,309.807 164.23,310.762 165.488,310.715L165.575,310.715C167.047,310.78 168.31,309.675 168.441,308.207C168.587,306.57 168.776,304.44 168.937,302.637C169.022,301.677 168.711,300.723 168.076,299.997C167.441,299.271 166.537,298.837 165.574,298.794L165.488,298.794C164.662,298.825 163.884,299.192 163.333,299.809C162.782,300.426 162.507,301.241 162.57,302.066C162.725,304.108 162.924,306.719 163.064,308.552Z"/>
    </g>
</svg>
