<?xml version="1.0" encoding="UTF-8" standalone="no"?>
<!DOCTYPE svg PUBLIC "-//W3C//DTD SVG 1.1//EN" "http://www.w3.org/Graphics/SVG/1.1/DTD/svg11.dtd">
<svg width="100%" height="100%" viewBox="0 0 100 100" version="1.1" xmlns="http://www.w3.org/2000/svg" xmlns:xlink="http://www.w3.org/1999/xlink" xml:space="preserve" xmlns:serif="http://www.serif.com/" style="fill-rule:evenodd;clip-rule:evenodd;stroke-linejoin:round;stroke-miterlimit:2;">
    <g transform="matrix(1,0,0,1,-0.165578,4.63312)">
        <circle cx="50" cy="50" r="27.415" style="fill:white;"/>
    </g>
    <g transform="matrix(1,0,0,1,2.30286,2.22312)">
        <path d="M63.043,17.668C63.043,14.953 60.842,12.753 58.127,12.753C52.326,12.753 42.737,12.753 36.936,12.753C34.221,12.753 32.02,14.953 32.02,17.668C32.02,17.669 32.02,17.669 32.02,17.669C32.02,20.384 34.221,22.585 36.936,22.585C42.737,22.585 52.326,22.585 58.127,22.585C60.842,22.585 63.043,20.384 63.043,17.669C63.043,17.669 63.043,17.669 63.043,17.668Z" style="fill:white;"/>
    </g>
    <g transform="matrix(-0.332379,0.332379,0.449411,0.449411,32.5548,8.97142)">
        <path d="M63.043,17.668C63.043,14.953 60.068,12.752 56.397,12.753C51.163,12.753 43.9,12.753 38.666,12.753C34.996,12.752 32.02,14.953 32.02,17.668C32.02,17.668 32.02,17.669 32.02,17.67C32.02,20.384 34.996,22.585 38.666,22.585C43.9,22.585 51.163,22.585 56.397,22.585C60.068,22.585 63.043,20.384 63.043,17.67C63.043,17.669 63.043,17.668 63.043,17.668Z" style="fill:white;"/>
    </g>
    <g transform="matrix(0.332379,0.332379,-0.449411,0.449411,67.4452,8.97142)">
        <path d="M63.043,17.668C63.043,14.953 60.068,12.752 56.397,12.753C51.163,12.753 43.9,12.753 38.666,12.753C34.996,12.752 32.02,14.953 32.02,17.668C32.02,17.668 32.02,17.669 32.02,17.67C32.02,20.384 34.996,22.585 38.666,22.585C43.9,22.585 51.163,22.585 56.397,22.585C60.068,22.585 63.043,20.384 63.043,17.67C63.043,17.669 63.043,17.668 63.043,17.668Z" style="fill:white;"/>
    </g>
    <g transform="matrix(0.866025,0.5,-0.5,0.866025,33.1619,-18.4689)">
        <path d="M51.506,35.144C51.6,34.678 52.01,34.343 52.486,34.343C52.961,34.343 53.371,34.678 53.466,35.144C54.56,40.53 56.334,49.262 57.529,55.142C57.836,56.655 57.448,58.227 56.47,59.423C55.493,60.619 54.03,61.313 52.486,61.312C52.486,61.312 52.486,61.312 52.485,61.312C50.941,61.313 49.478,60.619 48.501,59.423C47.524,58.227 47.135,56.655 47.442,55.142C48.637,49.262 50.411,40.53 51.506,35.144Z"/>
    </g>
</svg>
