<svg clip-rule="evenodd" fill-rule="evenodd" stroke-linejoin="round" stroke-miterlimit="2" viewBox="0 0 100 60" xmlns="http://www.w3.org/2000/svg"><g fill-rule="nonzero"><path d="m.026 0 .258-.7h.116l.256.7h-.112l-.06-.171h-.286l-.06.171zm.202-.255h.226l-.113-.319z" transform="matrix(22.76203207 0 0 22.76203207 10.9618641 38.0572159)"/><path d="m.346.012c-.039 0-.073-.008-.102-.023-.03-.015-.054-.037-.071-.065l-.011.076h-.095v-.72h.106v.301c.016-.023.038-.044.066-.062s.064-.027.108-.027c.048 0 .09.011.127.034s.066.054.087.093.031.084.031.134-.01.094-.031.133-.05.07-.087.092c-.037.023-.079.034-.128.034zm-.018-.092c.045 0 .083-.015.112-.047.029-.031.044-.071.044-.121 0-.033-.007-.062-.02-.087s-.032-.045-.055-.06c-.023-.014-.05-.021-.081-.021-.045 0-.082.016-.111.047s-.044.072-.044.121c0 .05.015.09.044.121.029.032.066.047.111.047z" transform="matrix(22.76203207 0 0 22.76203207 26.50817236 38.0572159)"/><path d="m.302.012c-.049 0-.092-.011-.13-.033-.039-.022-.069-.053-.09-.092-.022-.039-.033-.084-.033-.135s.011-.097.033-.136c.021-.039.051-.069.09-.091.038-.022.081-.033.13-.033.061 0 .113.016.155.048.041.032.068.075.08.13h-.111c-.007-.027-.021-.049-.044-.064s-.049-.023-.08-.023c-.026 0-.05.006-.072.019s-.04.032-.053.057-.02.056-.02.093.007.067.02.092.031.045.053.058.046.02.072.02c.031 0 .057-.008.08-.023s.037-.037.044-.065h.111c-.011.053-.038.096-.08.129-.042.033-.094.049-.155.049z" transform="matrix(22.76203207 0 0 22.76203207 41.07544952 38.0572159)"/><path d="m.143 0v-.58l-.113.026v-.078l.155-.068h.068v.7z" transform="matrix(22.76203207 0 0 22.76203207 54.3920365 38.0572159)"/><path d="m.057 0v-.076c.045-.036.089-.072.13-.109s.078-.073.111-.109c.032-.035.057-.07.076-.105.019-.034.028-.067.028-.099 0-.021-.004-.042-.011-.061s-.019-.034-.036-.046c-.017-.011-.039-.017-.067-.017-.042 0-.073.013-.094.04s-.032.059-.031.096h-.103c.001-.049.011-.091.032-.124.02-.033.047-.059.082-.076.034-.017.073-.026.116-.026.066 0 .119.019.159.055.039.038.059.089.059.155 0 .039-.009.078-.028.117-.02.039-.044.076-.074.111-.031.036-.063.07-.098.101s-.068.06-.099.085h.32v.088z" transform="matrix(22.76203207 0 0 22.76203207 61.7656401 38.0572159)"/><path d="m.295.012c-.045 0-.086-.008-.123-.025-.037-.016-.067-.041-.089-.074s-.034-.075-.035-.125h.105c.001.037.014.069.039.094.024.026.058.039.103.039.043 0 .075-.012.098-.036.023-.023.034-.053.034-.088 0-.043-.015-.074-.045-.095-.031-.021-.068-.031-.112-.031h-.052v-.088h.053c.039 0 .071-.009.096-.028.024-.019.036-.045.036-.079 0-.029-.009-.052-.028-.07s-.046-.027-.081-.027c-.036 0-.064.01-.085.031s-.032.048-.034.079h-.105c.001-.041.012-.076.031-.106s.045-.053.078-.07.072-.025.115-.025c.047 0 .086.008.118.024.031.017.055.039.072.066.016.028.024.058.024.091 0 .037-.01.07-.031.098s-.048.047-.083.056c.04.009.073.028.099.058.026.031.039.07.039.118 0 .039-.009.074-.027.106-.018.033-.045.059-.08.078-.035.019-.079.029-.13.029z" transform="matrix(22.76203207 0 0 22.76203207 74.78587172 38.0572159)"/></g></svg>