<svg clip-rule="evenodd" fill-rule="evenodd" stroke-linejoin="round" stroke-miterlimit="2" viewBox="0 0 100 60" xmlns="http://www.w3.org/2000/svg"><path d="m512.502 431.826c1.659.821 3.226 1.802 4.68 2.923l-39.862 50.191h-5.207v-30.296zm-5.971 23.891-.962 1.475c-9.977 16.98-10.931 23.855-9.275 27.747h-.006l.006.001h-12.972zm14.13-17.791c4.624 4.994 7.452 11.676 7.452 19.014 0 10.145-5.407 19.037-13.494 23.949-8.819-1.065-9.31-22.043-.414-34.834zm-34.723 19.013c2.833 0 5.133 2.3 5.133 5.133s-2.3 5.134-5.133 5.134-5.134-2.301-5.134-5.134 2.301-5.133 5.134-5.133zm-13.825-7.693v-20.306h28c2.263 0 4.463.269 6.569.776z" fill="#fff" transform="matrix(.428571 0 0 .428571 -164.334 -165.831)"/></svg>