<svg clip-rule="evenodd" fill-rule="evenodd" stroke-linejoin="round" stroke-miterlimit="2" viewBox="0 0 100 60" xmlns="http://www.w3.org/2000/svg"><circle cx="44.059707766" cy="32.200047889" r="2.199815653" stroke-width=".444497"/><path d="m97.016 495.52-.002-27.855h32.497c4.408 0 8.61.877 12.443 2.467.066.028.133.056.199.084 4.236 1.807 8.063 4.523 11.21 7.874 5.365 5.796 8.645 13.551 8.645 22.072 0 11.781-6.269 22.098-15.653 27.796h.001c-4.912 2.984-10.676 4.701-16.843 4.701h-4.434l-.007-.001h.007c-1.923-4.517-.816-12.497 10.764-32.203l1.117-1.712-26.936 33.916h-13.008zm48.413-17.27c-1.286-.926-3.245-2.028-3.245-2.028-13.25 7.487-26.501 14.973-39.752 22.459v28.562h4.977l38.578-48.575c-.151-.116-.303-.23-.456-.343l-.049-.036zm4.518 4.141-4.08 5.137c-8.207 11.802-9.531 29.603-4.589 37.032 9.063-4.379 15.315-13.658 15.315-24.398 0-6.8-2.507-13.015-6.646-17.771zm-14.406-8.636c-1.939-.441-3.957-.674-6.029-.674-13.541 0-27.081 0-27.081 0v19.379z" transform="matrix(.369266 0 0 .369266 2.17587 -154.693)"/></svg>