<svg clip-rule="evenodd" fill-rule="evenodd" stroke-linejoin="round" stroke-miterlimit="2" viewBox="0 0 100 60" xmlns="http://www.w3.org/2000/svg"><path d="m360 155c0-9.177-3.532-17.53-9.311-23.772-17.846-12.997-32.591 45.796-25.688 55.34 6.641 0 11.381-.396 18.14-1.63 10.107-6.138 16.859-17.249 16.859-29.938z" fill="#01b7ff" transform="matrix(.3428565 0 0 .3428565 -61.428565 -23.1429)"/><path d="m320.345 150.001s21.558-24.172 18.062-27.341c-4.129-1.714-8.658-2.66-13.407-2.66h-35l.001 30.001z" fill="#ffcc45" transform="matrix(.3428565 0 0 .3428565 -61.428565 -23.1429)"/><path d="m322.286 482.574 34.571-19.531c3.28 1.361 6.208 3.399 8.608 5.942l.169.18-33.341 41.98h-10.007z" fill="#fc593d" transform="matrix(.4800015 0 0 .4800015 -116.69725 -203.35035)"/><path d="m336.534 510.312 16.704-25.6 7.664-9.672c-9.004 11.223-8.867 31.51-.658 32.489-3.779 2.295-8.214 3.616-12.958 3.616h-3.411z" transform="matrix(.4800015 0 0 .4800015 -116.69725 -203.35035)"/><path d="m352.993 173.199c22.929-13.762 31.968-15.118 37.007-12.973v-16.717s-17.421 13.977-37.007 29.69z" fill="#fff" transform="matrix(0 .3428565 .3428565 0 -6.5713 -91.71456)"/><circle cx="44.059647227" cy="32.2000031205" r="2.1998131785" stroke-width=".4444965"/></svg>