<?xml version="1.0" encoding="UTF-8" standalone="no"?>
<!DOCTYPE svg PUBLIC "-//W3C//DTD SVG 1.1//EN" "http://www.w3.org/Graphics/SVG/1.1/DTD/svg11.dtd">
<svg width="100%" height="100%" viewBox="0 0 100 60" version="1.1" xmlns="http://www.w3.org/2000/svg" xmlns:xlink="http://www.w3.org/1999/xlink" xml:space="preserve" xmlns:serif="http://www.serif.com/" style="fill-rule:evenodd;clip-rule:evenodd;stroke-linejoin:round;stroke-miterlimit:2;">
    <g transform="matrix(1.76402,0,0,1.76402,-627.975,-388.474)">
        <g transform="matrix(12.9035,0,0,12.9035,362.205,241.795)">
            <path d="M0.023,0L0.279,-0.7L0.423,-0.7L0.679,0L0.543,0L0.487,-0.162L0.214,-0.162L0.157,0L0.023,0ZM0.249,-0.262L0.452,-0.262L0.35,-0.553L0.249,-0.262Z" style="fill-rule:nonzero;"/>
        </g>
        <g transform="matrix(12.9035,0,0,12.9035,371.25,241.795)">
            <path d="M0.359,0.012C0.322,0.012 0.289,0.005 0.261,-0.009C0.233,-0.023 0.21,-0.043 0.193,-0.068L0.179,0L0.065,0L0.065,-0.72L0.193,-0.72L0.193,-0.425C0.209,-0.447 0.23,-0.466 0.257,-0.483C0.283,-0.5 0.317,-0.508 0.359,-0.508C0.406,-0.508 0.447,-0.497 0.484,-0.474C0.521,-0.451 0.55,-0.42 0.571,-0.381C0.592,-0.342 0.603,-0.297 0.603,-0.247C0.603,-0.197 0.592,-0.153 0.571,-0.114C0.55,-0.075 0.521,-0.044 0.484,-0.022C0.447,0.001 0.406,0.012 0.359,0.012ZM0.332,-0.1C0.373,-0.1 0.406,-0.114 0.433,-0.141C0.46,-0.168 0.473,-0.204 0.473,-0.247C0.473,-0.29 0.46,-0.326 0.433,-0.354C0.406,-0.382 0.373,-0.396 0.332,-0.396C0.291,-0.396 0.257,-0.382 0.231,-0.355C0.204,-0.327 0.191,-0.291 0.191,-0.248C0.191,-0.205 0.204,-0.169 0.231,-0.142C0.257,-0.114 0.291,-0.1 0.332,-0.1Z" style="fill-rule:nonzero;"/>
        </g>
        <g transform="matrix(12.9035,0,0,12.9035,379.663,241.795)">
            <path d="M0.308,0.012C0.257,0.012 0.213,0.001 0.174,-0.021C0.135,-0.043 0.105,-0.074 0.083,-0.113C0.06,-0.152 0.049,-0.197 0.049,-0.248C0.049,-0.299 0.06,-0.344 0.083,-0.383C0.105,-0.422 0.135,-0.453 0.174,-0.475C0.213,-0.497 0.257,-0.508 0.308,-0.508C0.371,-0.508 0.425,-0.492 0.468,-0.459C0.511,-0.426 0.539,-0.38 0.551,-0.322L0.416,-0.322C0.409,-0.346 0.396,-0.365 0.377,-0.379C0.357,-0.392 0.334,-0.399 0.307,-0.399C0.272,-0.399 0.242,-0.386 0.217,-0.359C0.192,-0.332 0.18,-0.295 0.18,-0.248C0.18,-0.201 0.192,-0.164 0.217,-0.137C0.242,-0.11 0.272,-0.097 0.307,-0.097C0.334,-0.097 0.357,-0.104 0.377,-0.117C0.396,-0.13 0.409,-0.149 0.416,-0.174L0.551,-0.174C0.539,-0.118 0.511,-0.073 0.468,-0.039C0.425,-0.005 0.371,0.012 0.308,0.012Z" style="fill-rule:nonzero;"/>
        </g>
        <g transform="matrix(12.9035,0,0,12.9035,387.405,241.795)">
            <path d="M0.144,0L0.144,-0.554L0.029,-0.527L0.029,-0.625L0.198,-0.7L0.277,-0.7L0.277,0L0.144,0Z" style="fill-rule:nonzero;"/>
        </g>
        <g transform="matrix(12.9035,0,0,12.9035,391.857,241.795)">
            <path d="M0.051,0L0.051,-0.093C0.094,-0.128 0.135,-0.163 0.176,-0.198C0.216,-0.233 0.252,-0.267 0.284,-0.301C0.315,-0.335 0.341,-0.368 0.36,-0.401C0.379,-0.433 0.388,-0.464 0.388,-0.495C0.388,-0.524 0.38,-0.549 0.365,-0.571C0.349,-0.593 0.323,-0.604 0.287,-0.604C0.25,-0.604 0.223,-0.592 0.204,-0.568C0.185,-0.544 0.176,-0.515 0.176,-0.481L0.052,-0.481C0.053,-0.532 0.065,-0.575 0.086,-0.61C0.107,-0.644 0.136,-0.67 0.171,-0.687C0.206,-0.704 0.246,-0.712 0.29,-0.712C0.361,-0.712 0.417,-0.692 0.457,-0.654C0.496,-0.614 0.516,-0.564 0.516,-0.502C0.516,-0.463 0.507,-0.426 0.49,-0.389C0.472,-0.352 0.449,-0.317 0.42,-0.283C0.391,-0.249 0.36,-0.217 0.327,-0.188C0.294,-0.158 0.261,-0.13 0.23,-0.105L0.533,-0.105L0.533,0L0.051,0Z" style="fill-rule:nonzero;"/>
        </g>
        <g transform="matrix(12.9035,0,0,12.9035,399.225,241.795)">
            <path d="M0.297,0.012C0.251,0.012 0.209,0.004 0.172,-0.013C0.135,-0.029 0.105,-0.054 0.082,-0.088C0.059,-0.122 0.047,-0.165 0.046,-0.216L0.172,-0.216C0.173,-0.182 0.184,-0.154 0.206,-0.131C0.227,-0.108 0.258,-0.096 0.297,-0.096C0.334,-0.096 0.363,-0.106 0.383,-0.127C0.403,-0.148 0.413,-0.174 0.413,-0.205C0.413,-0.242 0.4,-0.27 0.374,-0.289C0.347,-0.308 0.313,-0.317 0.272,-0.317L0.22,-0.317L0.22,-0.422L0.273,-0.422C0.307,-0.422 0.335,-0.43 0.358,-0.446C0.381,-0.462 0.392,-0.486 0.392,-0.517C0.392,-0.543 0.384,-0.564 0.367,-0.58C0.349,-0.595 0.326,-0.603 0.296,-0.603C0.263,-0.603 0.238,-0.593 0.22,-0.574C0.201,-0.555 0.191,-0.531 0.189,-0.503L0.064,-0.503C0.067,-0.568 0.089,-0.619 0.132,-0.656C0.174,-0.693 0.229,-0.712 0.296,-0.712C0.344,-0.712 0.385,-0.704 0.418,-0.687C0.451,-0.67 0.476,-0.647 0.493,-0.619C0.509,-0.591 0.518,-0.56 0.518,-0.526C0.518,-0.487 0.507,-0.454 0.486,-0.427C0.464,-0.4 0.437,-0.381 0.405,-0.372C0.444,-0.364 0.476,-0.345 0.501,-0.315C0.526,-0.284 0.538,-0.246 0.538,-0.2C0.538,-0.161 0.529,-0.126 0.51,-0.094C0.491,-0.062 0.464,-0.036 0.429,-0.017C0.393,0.002 0.349,0.012 0.297,0.012Z" style="fill-rule:nonzero;"/>
        </g>
    </g>
</svg>
