<svg clip-rule="evenodd" fill-rule="evenodd" stroke-linejoin="round" stroke-miterlimit="2" viewBox="0 0 100 60" xmlns="http://www.w3.org/2000/svg"><g fill-rule="nonzero"><path d="m.023 0 .256-.7h.144l.256.7h-.136l-.056-.162h-.273l-.057.162zm.226-.262h.203l-.102-.291z" transform="matrix(22.76203207 0 0 22.76203207 10.9618641 38.0572159)"/><path d="m.359.012c-.037 0-.07-.007-.098-.021s-.051-.034-.068-.059l-.014.068h-.114v-.72h.128v.295c.016-.022.037-.041.064-.058.026-.017.06-.025.102-.025.047 0 .088.011.125.034s.066.054.087.093.032.084.032.134-.011.094-.032.133-.05.07-.087.092c-.037.023-.078.034-.125.034zm-.027-.112c.041 0 .074-.014.101-.041s.04-.063.04-.106-.013-.079-.04-.107-.06-.042-.101-.042-.075.014-.101.041c-.027.028-.04.064-.04.107s.013.079.04.106c.026.028.06.042.101.042z" transform="matrix(22.76203207 0 0 22.76203207 26.917425 38.0572159)"/><path d="m.308.012c-.051 0-.095-.011-.134-.033s-.069-.053-.091-.092c-.023-.039-.034-.084-.034-.135s.011-.096.034-.135c.022-.039.052-.07.091-.092s.083-.033.134-.033c.063 0 .117.016.16.049s.071.079.083.137h-.135c-.007-.024-.02-.043-.039-.057-.02-.013-.043-.02-.07-.02-.035 0-.065.013-.09.04s-.037.064-.037.111.012.084.037.111.055.04.09.04c.027 0 .05-.007.07-.02.019-.013.032-.032.039-.057h.135c-.012.056-.04.101-.083.135-.043.034-.097.051-.16.051z" transform="matrix(22.76203207 0 0 22.76203207 41.75812526 38.0572159)"/><path d="m.144 0v-.554l-.115.027v-.098l.169-.075h.079v.7z" transform="matrix(22.76203207 0 0 22.76203207 55.4151681 38.0572159)"/><path d="m.051 0v-.093c.043-.035.084-.07.125-.105.04-.035.076-.069.108-.103.031-.034.057-.067.076-.1.019-.032.028-.063.028-.094 0-.029-.008-.054-.023-.076-.016-.022-.042-.033-.078-.033-.037 0-.064.012-.083.036s-.028.053-.028.087h-.124c.001-.051.013-.094.034-.129.021-.034.05-.06.085-.077s.075-.025.119-.025c.071 0 .127.02.167.058.039.04.059.09.059.152 0 .039-.009.076-.026.113-.018.037-.041.072-.07.106s-.06.066-.093.095c-.033.03-.066.058-.097.083h.303v.105z" transform="matrix(22.76203207 0 0 22.76203207 63.26858514 38.0572159)"/><path d="m.297.012c-.046 0-.088-.008-.125-.025-.037-.016-.067-.041-.09-.075s-.035-.077-.036-.128h.126c.001.034.012.062.034.085.021.023.052.035.091.035.037 0 .066-.01.086-.031s.03-.047.03-.078c0-.037-.013-.065-.039-.084-.027-.019-.061-.028-.102-.028h-.052v-.105h.053c.034 0 .062-.008.085-.024s.034-.04.034-.071c0-.026-.008-.047-.025-.063-.018-.015-.041-.023-.071-.023-.033 0-.058.01-.076.029-.019.019-.029.043-.031.071h-.125c.003-.065.025-.116.068-.153.042-.037.097-.056.164-.056.048 0 .089.008.122.025s.058.04.075.068c.016.028.025.059.025.093 0 .039-.011.072-.032.099-.022.027-.049.046-.081.055.039.008.071.027.096.057.025.031.037.069.037.115 0 .039-.009.074-.028.106s-.046.058-.081.077c-.036.019-.08.029-.132.029z" transform="matrix(22.76203207 0 0 22.76203207 76.2658845 38.0572159)"/></g></svg>