<svg clip-rule="evenodd" fill-rule="evenodd" stroke-linejoin="round" stroke-miterlimit="2" viewBox="0 0 417 417" xmlns="http://www.w3.org/2000/svg"><path d="m2059.8 155.078c-1.29-3.216-2-6.727-2-10.404 0-1.811-1.47-3.282-3.29-3.282-1.81 0-3.28 1.471-3.28 3.282 0 4.543.89 8.883 2.49 12.856.67 1.68 2.59 2.495 4.27 1.818s2.49-2.59 1.81-4.27z" transform="matrix(1.56460958502 5.8392130047 -5.8392130047 1.56460958502 -2210.17676814 -12196.7597574)"/><path d="m2082.69 172.408c-6.89-.737-13.03-3.99-17.49-8.82-1.23-1.33-3.31-1.413-4.64-.184s-1.41 3.307-.18 4.637c5.51 5.967 13.1 9.982 21.61 10.893 1.81.192 3.42-1.113 3.62-2.914.19-1.801-1.12-3.42-2.92-3.612z" transform="matrix(1.56460958502 5.8392130047 -5.8392130047 1.56460958502 -2210.17676814 -12196.7597574)"/><path d="m2329.59 109.156c6.64.87 13.05 3.854 18.15 8.951 11.48 11.487 12.24 29.667 2.26 42.032-1.04 1.289-2.93 1.491-4.22.452-1.29-1.04-1.49-2.93-.45-4.219 8.08-10.009 7.46-24.725-1.83-34.022-3.93-3.925-8.82-6.301-13.91-7.13z" transform="matrix(5.7266295813 3.30627347835 -3.30627347835 5.7266295813 -12644.6351157 -8284.173294)"/><path d="m308.193 412.093c.681 0 1.291.425 1.527 1.064 1.565 4.241 7.359 19.942 9.138 24.762.301.815-.036 1.728-.795 2.152-.001.001-.001.001-.002.001-3.607 2.015-5.841 5.823-5.841 9.954-2.517 2.742-11.336 2.742-14.323 0 0-4.131-2.235-7.939-5.842-9.954-.001 0-.001 0-.001-.001-.759-.424-1.097-1.337-.796-2.152 1.779-4.82 7.574-20.521 9.139-24.762.236-.639.845-1.064 1.527-1.064h.001c.902 0 1.633.732 1.633 1.634v18.899c-1.465.594-2.5 2.032-2.5 3.709 0 2.208 1.792 4 4 4s4-1.792 4-4c0-1.677-1.035-3.115-2.5-3.709v-18.899c0-.902.731-1.634 1.633-1.634z" transform="matrix(7.2892974981 4.2085033668 -4.2085033668 7.2892974981 -177.969725709 -4257.8784063)"/><path d="m2205.68 166.712c-7.9 4.603-17.76 4.603-25.66 0-1.43-.833-3.27-.348-4.1 1.082-.83 1.431-.35 3.269 1.08 4.103 9.76 5.686 21.94 5.686 31.7 0 1.43-.834 1.91-2.672 1.08-4.103-.83-1.43-2.67-1.915-4.1-1.082z" transform="matrix(5.7266295813 3.30627347835 -3.30627347835 5.7266295813 -11870.9678301 -7870.2979629)"/></svg>