<?xml version="1.0" encoding="UTF-8" standalone="no"?>
<!DOCTYPE svg PUBLIC "-//W3C//DTD SVG 1.1//EN" "http://www.w3.org/Graphics/SVG/1.1/DTD/svg11.dtd">
<svg width="100%" height="100%" viewBox="0 0 100 30" version="1.1" xmlns="http://www.w3.org/2000/svg" xmlns:xlink="http://www.w3.org/1999/xlink" xml:space="preserve" xmlns:serif="http://www.serif.com/" style="fill-rule:evenodd;clip-rule:evenodd;stroke-linecap:square;stroke-miterlimit:1.5;">
    <g transform="matrix(0.762062,0,0,0.725655,25.7586,3.57659)">
        <ellipse cx="42.747" cy="15.742" rx="8.418" ry="10.524" style="fill:white;"/>
    </g>
    <g transform="matrix(0.762062,0,0,0.725655,9.56292,3.57659)">
        <ellipse cx="42.747" cy="15.742" rx="8.418" ry="10.524" style="fill:white;"/>
    </g>
    <g transform="matrix(0.565318,0,0,0.451254,32.0395,7.89626)">
        <ellipse cx="42.747" cy="15.742" rx="8.418" ry="10.524" style="fill:rgb(89,66,70);"/>
    </g>
    <g transform="matrix(0.565318,0,0,0.451254,15.8438,7.89626)">
        <ellipse cx="42.747" cy="15.742" rx="8.418" ry="10.524" style="fill:rgb(89,66,70);"/>
    </g>
    <g transform="matrix(0.292687,0,0,0.233632,43.6936,11.3221)">
        <ellipse cx="42.747" cy="15.742" rx="8.418" ry="10.524"/>
    </g>
    <g transform="matrix(0.292687,0,0,0.233632,27.4979,11.3221)">
        <ellipse cx="42.747" cy="15.742" rx="8.418" ry="10.524"/>
    </g>
    <g transform="matrix(0.762062,0,0,0.725655,25.7586,3.57659)">
        <ellipse cx="42.747" cy="15.742" rx="8.418" ry="10.524" style="fill:none;stroke:black;stroke-width:1.88px;"/>
    </g>
    <g transform="matrix(0.762062,0,0,0.725655,9.56292,3.57659)">
        <ellipse cx="42.747" cy="15.742" rx="8.418" ry="10.524" style="fill:none;stroke:black;stroke-width:1.88px;"/>
    </g>
</svg>
