<svg clip-rule="evenodd" fill-rule="evenodd" stroke-linejoin="round" stroke-miterlimit="2" viewBox="0 0 100 100" xmlns="http://www.w3.org/2000/svg"><g fill-rule="nonzero" transform="matrix(.484115 0 0 .484115 -10.2481 -13.8638)"><path d="m142.8 120.1c-5.7 0-10.2 4.9-10.2 11s4.6 11 10.2 11c5.7 0 10.2-4.9 10.2-11s-4.6-11-10.2-11zm-36.5 0c-5.7 0-10.2 4.9-10.2 11s4.6 11 10.2 11c5.7 0 10.2-4.9 10.2-11 .1-6.1-4.5-11-10.2-11z"/><path d="m191.4 36.9h-134c-11.3 0-20.5 9.2-20.5 20.5v134c0 11.3 9.2 20.5 20.5 20.5h113.4l-5.3-18.3 12.8 11.8 12.1 11.1 21.6 18.7v-177.8c-.1-11.3-9.3-20.5-20.6-20.5zm-38.6 129.5s-3.6-4.3-6.6-8c13.1-3.7 18.1-11.8 18.1-11.8-4.1 2.7-8 4.6-11.5 5.9-5 2.1-9.8 3.4-14.5 4.3-9.6 1.8-18.4 1.3-25.9-.1-5.7-1.1-10.6-2.6-14.7-4.3-2.3-.9-4.8-2-7.3-3.4-.3-.2-.6-.3-.9-.5-.2-.1-.3-.2-.4-.2-1.8-1-2.8-1.7-2.8-1.7s4.8 7.9 17.5 11.7c-3 3.8-6.7 8.2-6.7 8.2-22.1-.7-30.5-15.1-30.5-15.1 0-31.9 14.4-57.8 14.4-57.8 14.4-10.7 28-10.4 28-10.4l1 1.2c-18 5.1-26.2 13-26.2 13s2.2-1.2 5.9-2.8c10.7-4.7 19.2-5.9 22.7-6.3.6-.1 1.1-.2 1.7-.2 6.1-.8 13-1 20.2-.2 9.5 1.1 19.7 3.9 30.1 9.5 0 0-7.9-7.5-24.9-12.6l1.4-1.6s13.7-.3 28 10.4c0 0 14.4 25.9 14.4 57.8 0-.1-8.4 14.3-30.5 15z"/></g></svg>