<?xml version="1.0" encoding="UTF-8" standalone="no"?>
<!DOCTYPE svg PUBLIC "-//W3C//DTD SVG 1.1//EN" "http://www.w3.org/Graphics/SVG/1.1/DTD/svg11.dtd">
<svg width="100%" height="100%" viewBox="0 0 60 60" version="1.1" xmlns="http://www.w3.org/2000/svg" xmlns:xlink="http://www.w3.org/1999/xlink" xml:space="preserve" xmlns:serif="http://www.serif.com/" style="fill-rule:evenodd;clip-rule:evenodd;stroke-linejoin:round;stroke-miterlimit:2;">
    <g transform="matrix(1.13555,0,0,0.985207,-23.1848,-16.0679)">
        <path d="M65.329,19.354L33.627,19.354C30.708,19.354 28.343,22.081 28.343,25.444C28.343,38.514 28.343,68.075 28.343,68.075L65.329,68.075L65.329,19.354Z" style="fill:rgb(1,183,255);"/>
    </g>
    <g transform="matrix(1,0,0,1,-20,-20)">
        <path d="M61.08,34.913C53.649,44.39 58.059,64.181 64.925,65C61.751,66.928 53.986,65 50.001,65L47.136,65L40.969,64.3L55.072,42.549L61.08,34.913Z"/>
    </g>
    <g transform="matrix(-6.43129e-16,0.599999,0.6,6.43129e-16,-68.9998,-189)">
        <path d="M352.993,173.199C375.922,159.437 384.961,158.081 390,160.226L390,143.509C390,143.509 372.579,157.486 352.993,173.199Z" style="fill:white;"/>
    </g>
    <g transform="matrix(1,0,0,1,-20,-20)">
        <path d="M61.942,23C58.118,29.137 47.207,41 47.207,41L29,43.064L29,29C29,25.686 31.686,23 35,23L61.942,23Z" style="fill:rgb(255,204,69);"/>
    </g>
    <g transform="matrix(1,0,0,1,-20,-20)">
        <path d="M34.623,23.012L34.623,42.427L29,43.064L29,29C29,25.813 31.485,23.206 34.623,23.012Z" style="fill:rgb(252,89,61);"/>
    </g>
    <g transform="matrix(1,0,0,1,-20,-20)">
        <path d="M60.863,23L70.453,23L32.686,71L29,71L29,41.006L29.001,41L60.863,23Z" style="fill:rgb(252,89,61);"/>
    </g>
    <g transform="matrix(1,0,0,1,-20,-20)">
        <path d="M34.623,37.824L34.623,68.538L32.686,71L29,71L29.001,44.492C29.479,40.817 31.333,39.683 34.623,37.824Z"/>
    </g>
    <g transform="matrix(1.13555,0,0,0.246302,-23.1848,40.233)">
        <path d="M65.329,19.354L33.627,19.354C30.708,19.354 28.343,30.261 28.343,43.715C28.343,43.715 28.343,43.715 28.343,43.715C28.343,57.168 30.708,68.075 33.627,68.075C43.847,68.075 65.329,68.075 65.329,68.075L65.329,59.955L63.568,59.955L63.568,27.474L65.329,27.474L65.329,19.354Z"/>
    </g>
    <g transform="matrix(1.07247,0,0,0.164201,-19.0634,43.822)">
        <path d="M65.329,19.354L32.071,19.354C30.012,19.354 28.343,30.255 28.343,43.702C28.343,43.706 28.343,43.711 28.343,43.715C28.343,57.168 30.013,68.075 32.073,68.075C41.461,68.075 65.329,68.075 65.329,68.075L65.329,19.354Z" style="fill:white;"/>
    </g>
    <g transform="matrix(13.5751,0,0,0.125,-907.236,40.625)">
        <path d="M70.453,67L67.985,67C67.965,67 67.948,68.791 67.948,71C67.948,71 67.948,71 67.948,71C67.948,73.209 67.965,75 67.985,75C68.295,75 70.453,75 70.453,75L70.453,67Z" style="fill:rgb(1,183,255);"/>
    </g>
    <g transform="matrix(13.5751,0,0,0.125,-907.236,43.625)">
        <path d="M70.453,67L67.985,67C67.965,67 67.948,68.791 67.948,71C67.948,71 67.948,71 67.948,71C67.948,73.209 67.965,75 67.985,75C68.295,75 70.453,75 70.453,75L70.453,67Z" style="fill:rgb(1,183,255);"/>
    </g>
    <g transform="matrix(0.707154,0,0,0.707153,7.06556,-22.6094)">
        <circle cx="21.078" cy="69.537" r="4.949"/>
    </g>
</svg>
