<?xml version="1.0" encoding="UTF-8" standalone="no"?>
<!DOCTYPE svg PUBLIC "-//W3C//DTD SVG 1.1//EN" "http://www.w3.org/Graphics/SVG/1.1/DTD/svg11.dtd">
<svg width="100%" height="100%" viewBox="0 0 100 100" version="1.1" xmlns="http://www.w3.org/2000/svg" xmlns:xlink="http://www.w3.org/1999/xlink" xml:space="preserve" xmlns:serif="http://www.serif.com/" style="fill-rule:evenodd;clip-rule:evenodd;stroke-linejoin:round;stroke-miterlimit:2;">
    <g transform="matrix(2.45227,0,0,0.440296,-1039.64,31.047)">
        <path d="M456.879,43.046C456.879,36.774 455.966,31.69 454.84,31.69L433.838,31.69C432.712,31.69 431.799,36.774 431.799,43.046C431.799,49.317 432.712,54.402 433.838,54.402L454.84,54.402C455.966,54.402 456.879,49.317 456.879,43.046L456.879,43.046Z" style="fill:rgb(255,204,69);"/>
    </g>
    <g transform="matrix(1.50158e-16,2.45227,-0.440296,2.69603e-17,68.953,-1039.64)">
        <path d="M456.879,43.046C456.879,36.774 455.966,31.69 454.84,31.69L433.838,31.69C432.712,31.69 431.799,36.774 431.799,43.046C431.799,49.317 432.712,54.402 433.838,54.402L454.84,54.402C455.966,54.402 456.879,49.317 456.879,43.046L456.879,43.046Z" style="fill:rgb(255,204,69);"/>
    </g>
</svg>
