<?xml version="1.0" encoding="UTF-8" standalone="no"?>
<!DOCTYPE svg PUBLIC "-//W3C//DTD SVG 1.1//EN" "http://www.w3.org/Graphics/SVG/1.1/DTD/svg11.dtd">
<svg width="100%" height="100%" viewBox="0 0 100 100" version="1.1" xmlns="http://www.w3.org/2000/svg" xmlns:xlink="http://www.w3.org/1999/xlink" xml:space="preserve" xmlns:serif="http://www.serif.com/" style="fill-rule:evenodd;clip-rule:evenodd;stroke-linejoin:round;stroke-miterlimit:2;">
    <g transform="matrix(0.495193,0,0,0.495193,25.2471,24.498)">
        <path d="M21.701,77.712C20.305,76.411 20.019,74.307 21.017,72.68C27.05,63.019 37.78,56.59 50,56.59C62.22,56.59 72.95,63.019 78.99,72.676C79.99,74.306 79.704,76.415 78.305,77.719C70.804,84.474 60.879,88.593 50,88.593C39.12,88.593 29.196,84.474 21.701,77.712Z" style="fill:rgb(255,204,69);"/>
    </g>
    <g transform="matrix(0.495193,0,0,0.495193,-10.1141,24.498)">
        <path d="M21.701,77.712C20.305,76.411 20.019,74.307 21.017,72.68C27.05,63.019 37.78,56.59 50,56.59C62.22,56.59 72.95,63.019 78.99,72.676C79.99,74.306 79.704,76.415 78.305,77.719C70.804,84.474 60.879,88.593 50,88.593C39.12,88.593 29.196,84.474 21.701,77.712Z" style="fill:rgb(255,204,69);"/>
    </g>
    <g transform="matrix(0.495193,0,0,0.495193,60.5907,24.498)">
        <path d="M21.701,77.712C20.305,76.411 20.019,74.307 21.017,72.68C27.05,63.019 37.78,56.59 50,56.59C62.22,56.59 72.95,63.019 78.99,72.676C79.99,74.306 79.704,76.415 78.305,77.719C70.804,84.474 60.879,88.593 50,88.593C39.12,88.593 29.196,84.474 21.701,77.712Z" style="fill:rgb(255,204,69);"/>
    </g>
    <g transform="matrix(0.400682,0,0,0.400682,29.9727,27.7394)">
        <circle cx="50" cy="33.152" r="23.438" style="fill:rgb(255,204,69);"/>
    </g>
    <g transform="matrix(0.400682,0,0,0.400682,-5.38845,27.7394)">
        <circle cx="50" cy="33.152" r="23.438" style="fill:rgb(255,204,69);"/>
    </g>
    <g transform="matrix(0.400682,0,0,0.400682,65.3163,27.7394)">
        <circle cx="50" cy="33.152" r="23.438" style="fill:rgb(255,204,69);"/>
    </g>
</svg>
