<?xml version="1.0" encoding="UTF-8" standalone="no"?>
<!DOCTYPE svg PUBLIC "-//W3C//DTD SVG 1.1//EN" "http://www.w3.org/Graphics/SVG/1.1/DTD/svg11.dtd">
<svg width="100%" height="100%" viewBox="0 0 100 100" version="1.1" xmlns="http://www.w3.org/2000/svg" xmlns:xlink="http://www.w3.org/1999/xlink" xml:space="preserve" xmlns:serif="http://www.serif.com/" style="fill-rule:evenodd;clip-rule:evenodd;stroke-linejoin:round;stroke-miterlimit:2;">
    <g transform="matrix(1.14216,0,0,1.14216,-7.10814,-7.10814)">
        <path d="M50,8.85L56.904,15.291L65.747,11.982L69.661,20.575L79.097,20.903L79.425,30.339L88.018,34.253L84.709,43.096L91.15,50L84.709,56.904L88.018,65.747L79.425,69.661L79.097,79.097L69.661,79.425L65.747,88.018L56.904,84.709L50,91.15L43.096,84.709L34.253,88.018L30.339,79.425L20.903,79.097L20.575,69.661L11.982,65.747L15.291,56.904L8.85,50L15.291,43.096L11.982,34.253L20.575,30.339L20.903,20.903L30.339,20.575L34.253,11.982L43.096,15.291L50,8.85Z" style="fill:none;stroke:rgb(255,204,69);stroke-width:2.63px;"/>
    </g>
    <path d="M50,20.029C66.542,20.029 79.971,33.458 79.971,50C79.971,66.542 66.542,79.971 50,79.971C33.458,79.971 20.029,66.542 20.029,50C20.029,33.458 33.458,20.029 50,20.029ZM50,56.778C52.208,56.778 54,58.57 54,60.778C54,62.985 52.208,64.778 50,64.778C47.792,64.778 46,62.985 46,60.778C46,58.57 47.792,56.778 50,56.778ZM50.199,32.229C50.74,32.277 50.915,32.345 51.224,32.484C52.291,32.96 52.97,33.867 53,35.223L53,49.916C52.933,52.943 47.098,54.357 47,49.916L47,35.223C47.011,34.733 47.054,34.586 47.143,34.308C47.557,33.014 48.35,32.147 50.199,32.229Z" style="fill:rgb(1,183,255);"/>
</svg>
