<?xml version="1.0" encoding="UTF-8" standalone="no"?>
<!DOCTYPE svg PUBLIC "-//W3C//DTD SVG 1.1//EN" "http://www.w3.org/Graphics/SVG/1.1/DTD/svg11.dtd">
<svg width="100%" height="100%" viewBox="0 0 100 100" version="1.1" xmlns="http://www.w3.org/2000/svg" xmlns:xlink="http://www.w3.org/1999/xlink" xml:space="preserve" xmlns:serif="http://www.serif.com/" style="fill-rule:evenodd;clip-rule:evenodd;stroke-linejoin:round;stroke-miterlimit:2;">
    <g transform="matrix(1.68155,0,0,1.36491,-706.091,-6.75344)">
        <path d="M467.481,31.69L431.799,31.69L431.799,51.471C431.799,53.09 432.864,54.402 434.178,54.402L465.102,54.402C466.416,54.402 467.481,53.09 467.481,51.471L467.481,31.69Z" style="fill:rgb(255,204,69);"/>
    </g>
    <g transform="matrix(1.96181,0,0,0.352235,-832.107,13.3378)">
        <path d="M467.481,43.046C467.481,36.774 466.568,31.69 465.442,31.69L433.838,31.69C432.712,31.69 431.799,36.774 431.799,43.046C431.799,49.317 432.712,54.402 433.838,54.402L465.442,54.402C466.568,54.402 467.481,49.317 467.481,43.046L467.481,43.046Z" style="fill:rgb(255,204,69);"/>
    </g>
    <g transform="matrix(0.725298,-0.608597,0.226412,0.269828,-296.45,331.613)">
        <path d="M467.481,37.368C467.481,34.232 466.535,31.69 465.368,31.69L436.024,31.69C433.691,31.69 431.799,36.774 431.799,43.046C431.799,49.317 433.691,54.402 436.024,54.402L465.368,54.402C466.535,54.402 467.481,51.86 467.481,48.724L467.481,37.368Z" style="fill:rgb(255,204,69);"/>
    </g>
    <g transform="matrix(-0.725298,-0.608597,-0.226412,0.269828,396.45,331.613)">
        <path d="M467.481,37.368C467.481,34.232 466.535,31.69 465.368,31.69L436.024,31.69C433.691,31.69 431.799,36.774 431.799,43.046C431.799,49.317 433.691,54.402 436.024,54.402L465.368,54.402C466.535,54.402 467.481,51.86 467.481,48.724L467.481,37.368Z" style="fill:rgb(255,204,69);"/>
    </g>
    <g transform="matrix(0.224206,0,0,0.70447,-50.8122,-5.82436)">
        <path d="M467.481,37.368C467.481,34.232 459.493,31.69 449.64,31.69C439.787,31.69 431.799,34.232 431.799,37.368L431.799,51.563C431.799,53.131 435.793,54.402 440.72,54.402L458.56,54.402C463.487,54.402 467.481,53.131 467.481,51.563L467.481,37.368Z" style="fill:rgb(255,204,69);"/>
    </g>
    <g transform="matrix(0.224206,0,0,0.70447,-50.8122,42.4174)">
        <path d="M467.481,34.529C467.481,32.961 463.487,31.69 458.56,31.69L440.72,31.69C435.793,31.69 431.799,32.961 431.799,34.529L431.799,48.724C431.799,51.86 439.787,54.402 449.64,54.402C459.493,54.402 467.481,51.86 467.481,48.724L467.481,34.529Z" style="fill:rgb(255,204,69);"/>
    </g>
</svg>
