<?xml version="1.0" encoding="UTF-8" standalone="no"?>
<!DOCTYPE svg PUBLIC "-//W3C//DTD SVG 1.1//EN" "http://www.w3.org/Graphics/SVG/1.1/DTD/svg11.dtd">
<svg width="100%" height="100%" viewBox="0 0 90 40" version="1.1" xmlns="http://www.w3.org/2000/svg" xmlns:xlink="http://www.w3.org/1999/xlink" xml:space="preserve" xmlns:serif="http://www.serif.com/" style="fill-rule:evenodd;clip-rule:evenodd;stroke-linejoin:round;stroke-miterlimit:2;">
    <g transform="matrix(1.09196,0,0,1,0,-2.84217e-14)">
        <rect x="0" y="0" width="54.947" height="40"/>
    </g>
    <g transform="matrix(0.800002,0,0,0.800002,-222.794,-354.089)">
        <path d="M322.399,494.039L342.087,477.156" style="fill:none;stroke:rgb(252,10,80);stroke-width:0.25px;"/>
    </g>
    <g transform="matrix(0.72797,0,0,1,60,-2.84217e-14)">
        <rect x="0" y="0" width="54.947" height="40" style="fill:rgb(1,183,255);"/>
    </g>
    <g>
        <g transform="matrix(0.7,0,0,0.7,50.6347,12.3661)">
            <circle cx="37.5" cy="26.5" r="0.5" style="fill:white;"/>
        </g>
        <g transform="matrix(0.7,0,0,0.7,46.6347,12.3661)">
            <circle cx="37.5" cy="26.5" r="0.5" style="fill:white;"/>
        </g>
        <g transform="matrix(0.7,0,0,0.7,52.6347,12.3661)">
            <circle cx="37.5" cy="26.5" r="0.5" style="fill:white;"/>
        </g>
        <g transform="matrix(0.7,0,0,0.7,48.6347,12.3661)">
            <circle cx="37.5" cy="26.5" r="0.5" style="fill:white;"/>
        </g>
        <g transform="matrix(0.7,0,0,0.7,54.6347,12.3661)">
            <circle cx="37.5" cy="26.5" r="0.5" style="fill:white;"/>
        </g>
        <g transform="matrix(0.7,0,0,0.7,50.6347,10.3661)">
            <circle cx="37.5" cy="26.5" r="0.5" style="fill:white;"/>
        </g>
        <g transform="matrix(0.7,0,0,0.7,50.6347,14.3661)">
            <circle cx="37.5" cy="26.5" r="0.5" style="fill:white;"/>
        </g>
        <g transform="matrix(0.7,0,0,0.7,46.6347,14.3661)">
            <circle cx="37.5" cy="26.5" r="0.5" style="fill:white;"/>
        </g>
        <g transform="matrix(0.7,0,0,0.7,52.6347,10.3661)">
            <circle cx="37.5" cy="26.5" r="0.5" style="fill:white;"/>
        </g>
        <g transform="matrix(0.7,0,0,0.7,48.6347,10.3661)">
            <circle cx="37.5" cy="26.5" r="0.5" style="fill:white;"/>
        </g>
        <g transform="matrix(0.7,0,0,0.7,52.6347,14.3661)">
            <circle cx="37.5" cy="26.5" r="0.5" style="fill:white;"/>
        </g>
        <g transform="matrix(0.7,0,0,0.7,48.6347,14.3661)">
            <circle cx="37.5" cy="26.5" r="0.5" style="fill:white;"/>
        </g>
        <g transform="matrix(0.7,0,0,0.7,54.6347,10.3661)">
            <circle cx="37.5" cy="26.5" r="0.5" style="fill:white;"/>
        </g>
    </g>
    <g transform="matrix(0.571428,0,0,0.571428,-120.195,-68.5714)">
        <path d="M320.345,150.001L348.994,120L297.84,120L297.841,150.001L320.345,150.001Z" style="fill:rgb(255,204,69);"/>
    </g>
    <g transform="matrix(0.800002,0,0,0.800002,-212.309,-368.917)">
        <path d="M322.286,482.574L360.216,461.145L372.003,461.145L332.293,511.145L322.286,511.145L322.286,482.574Z" style="fill:rgb(252,89,61);"/>
    </g>
    <g transform="matrix(0.800002,0,0,0.800002,-208.263,-371.714)">
        <path d="M322.603,491.921L340.724,478.76" style="fill:none;stroke:rgb(1,183,255);stroke-width:0.25px;"/>
    </g>
    <g transform="matrix(0.800002,0,0,0.800002,-212.309,-368.917)">
        <path d="M367.117,464.158L330.877,499.79" style="fill:none;stroke:rgb(255,204,69);stroke-width:0.25px;"/>
    </g>
    <g transform="matrix(0.800002,0,0,0.800002,-212.309,-368.917)">
        <path d="M336.534,510.312L353.238,484.712L360.922,475.098C351.918,486.321 354.908,510.165 363.117,511.144C359.338,513.439 352.03,511.145 347.286,511.145L343.875,511.145L336.534,510.312Z"/>
    </g>
    <g transform="matrix(-6.12504e-16,0.571428,0.571428,6.12504e-16,-28.7662,-182.857)">
        <path d="M352.995,173.334C375.924,159.572 384.961,158.081 390,160.226L390,143.509C390,143.509 372.581,157.621 352.995,173.334Z" style="fill:white;"/>
    </g>
    <g>
        <g transform="matrix(0.7,0,0,0.7,18.25,7.95)">
            <circle cx="37.5" cy="26.5" r="0.5" style="fill:rgb(255,204,69);"/>
        </g>
        <g transform="matrix(0.7,0,0,0.7,18.25,11.95)">
            <circle cx="37.5" cy="26.5" r="0.5" style="fill:rgb(255,204,69);"/>
        </g>
        <g transform="matrix(0.7,0,0,0.7,18.25,15.95)">
            <circle cx="37.5" cy="26.5" r="0.5" style="fill:rgb(255,204,69);"/>
        </g>
        <g transform="matrix(0.7,0,0,0.7,14.25,11.95)">
            <circle cx="37.5" cy="26.5" r="0.5" style="fill:rgb(255,204,69);"/>
        </g>
        <g transform="matrix(0.7,0,0,0.7,14.25,15.95)">
            <circle cx="37.5" cy="26.5" r="0.5" style="fill:rgb(255,204,69);"/>
        </g>
        <g transform="matrix(0.7,0,0,0.7,20.25,7.95)">
            <circle cx="37.5" cy="26.5" r="0.5" style="fill:rgb(255,204,69);"/>
        </g>
        <g transform="matrix(0.7,0,0,0.7,20.25,11.95)">
            <circle cx="37.5" cy="26.5" r="0.5" style="fill:rgb(255,204,69);"/>
        </g>
        <g transform="matrix(0.7,0,0,0.7,20.25,15.95)">
            <circle cx="37.5" cy="26.5" r="0.5" style="fill:rgb(255,204,69);"/>
        </g>
        <g transform="matrix(0.7,0,0,0.7,16.25,11.95)">
            <circle cx="37.5" cy="26.5" r="0.5" style="fill:rgb(255,204,69);"/>
        </g>
        <g transform="matrix(0.7,0,0,0.7,16.25,15.95)">
            <circle cx="37.5" cy="26.5" r="0.5" style="fill:rgb(255,204,69);"/>
        </g>
        <g transform="matrix(0.7,0,0,0.7,22.25,7.95)">
            <circle cx="37.5" cy="26.5" r="0.5" style="fill:rgb(255,204,69);"/>
        </g>
        <g transform="matrix(0.7,0,0,0.7,22.25,11.95)">
            <circle cx="37.5" cy="26.5" r="0.5" style="fill:rgb(255,204,69);"/>
        </g>
        <g transform="matrix(0.7,0,0,0.7,22.25,15.95)">
            <circle cx="37.5" cy="26.5" r="0.5" style="fill:rgb(255,204,69);"/>
        </g>
        <g transform="matrix(0.7,0,0,0.7,20.25,5.95)">
            <circle cx="37.5" cy="26.5" r="0.5" style="fill:rgb(255,204,69);"/>
        </g>
        <g transform="matrix(0.7,0,0,0.7,22.25,5.95)">
            <circle cx="37.5" cy="26.5" r="0.5" style="fill:rgb(255,204,69);"/>
        </g>
        <g transform="matrix(0.7,0,0,0.7,18.25,9.95)">
            <circle cx="37.5" cy="26.5" r="0.5" style="fill:rgb(255,204,69);"/>
        </g>
        <g transform="matrix(0.7,0,0,0.7,18.25,13.95)">
            <circle cx="37.5" cy="26.5" r="0.5" style="fill:rgb(255,204,69);"/>
        </g>
        <g transform="matrix(0.7,0,0,0.7,18.25,17.95)">
            <circle cx="37.5" cy="26.5" r="0.5" style="fill:rgb(255,204,69);"/>
        </g>
        <g transform="matrix(0.7,0,0,0.7,14.25,13.95)">
            <circle cx="37.5" cy="26.5" r="0.5" style="fill:rgb(255,204,69);"/>
        </g>
        <g transform="matrix(0.7,0,0,0.7,14.25,17.95)">
            <circle cx="37.5" cy="26.5" r="0.5" style="fill:rgb(255,204,69);"/>
        </g>
        <g transform="matrix(0.7,0,0,0.7,20.25,9.95)">
            <circle cx="37.5" cy="26.5" r="0.5" style="fill:rgb(255,204,69);"/>
        </g>
        <g transform="matrix(0.7,0,0,0.7,16.25,9.95)">
            <circle cx="37.5" cy="26.5" r="0.5" style="fill:rgb(255,204,69);"/>
        </g>
        <g transform="matrix(0.7,0,0,0.7,20.25,13.95)">
            <circle cx="37.5" cy="26.5" r="0.5" style="fill:rgb(255,204,69);"/>
        </g>
        <g transform="matrix(0.7,0,0,0.7,20.25,17.95)">
            <circle cx="37.5" cy="26.5" r="0.5" style="fill:rgb(255,204,69);"/>
        </g>
        <g transform="matrix(0.7,0,0,0.7,16.25,13.95)">
            <circle cx="37.5" cy="26.5" r="0.5" style="fill:rgb(255,204,69);"/>
        </g>
        <g transform="matrix(0.7,0,0,0.7,16.25,17.95)">
            <circle cx="37.5" cy="26.5" r="0.5" style="fill:rgb(255,204,69);"/>
        </g>
        <g transform="matrix(0.7,0,0,0.7,22.25,9.95)">
            <circle cx="37.5" cy="26.5" r="0.5" style="fill:rgb(255,204,69);"/>
        </g>
        <g transform="matrix(0.7,0,0,0.7,22.25,13.95)">
            <circle cx="37.5" cy="26.5" r="0.5" style="fill:rgb(255,204,69);"/>
        </g>
    </g>
    <g transform="matrix(0.595774,0,0,0.595774,13.0855,6.58927)">
        <path d="M49.495,14.897L56.12,12.219L56.12,8.63L49.495,10.323L49.495,14.897Z" style="fill:rgb(255,204,69);"/>
    </g>
    <g transform="matrix(1.23449,0,0,1.23449,-14.1542,-8.21734)">
        <path d="M49.495,13.145L54.441,12.103L54.441,8.871L49.495,9.203L49.495,13.145Z" style="stroke:rgb(255,204,69);stroke-width:0.41px;stroke-linecap:square;stroke-linejoin:miter;"/>
    </g>
</svg>
