<svg clip-rule="evenodd" fill-rule="evenodd" stroke-linejoin="round" stroke-miterlimit="2" viewBox="0 0 100 100" xmlns="http://www.w3.org/2000/svg"><path d="m0 0h100v100h-100z" fill="none"/><g fill-rule="nonzero"><path d="m269.655 159.55h75.598v-22.216h-75.598zm8.026 94.428h6.198c28.331 0 56.663-.076 84.992.087 3.903.022 5.563-1.159 5.277-5.007-.616-8.289-.431-16.729-1.974-24.841-4.621-24.297-17.382-42.169-42.527-48.224-8.457-2.036-17.519-2.696-26.231-2.317-23.628 1.027-42.963 10.577-54.788 31.891-11.32 20.405-14.082 42.132-7.425 64.705 6.756 22.909 21.935 37.235 45.093 42.812 13.929 3.353 28.095 3.509 42.188 1.033 10.437-1.833 20.292-5.382 28.588-12.294 10.966-9.136 15.487-21.034 15.352-35.265h-32.262c-1.212 9.667-6.903 15.802-15.972 17.674-6.881 1.421-14.283 2.148-21.194 1.232-16.476-2.183-25.469-13.653-25.315-31.486m-202.417 57.481c1.427.102 2.248.211 3.069.211 31.49.008 62.98.056 94.47-.051 4.303-.014 8.68-.434 12.892-1.302 21.703-4.471 38.022-15.495 42.924-38.398 1.714-8.005 2.112-16.644 1.224-24.787-2.404-22.051-11.489-32.444-30.577-36.4 1.935-.839 3.389-1.508 4.872-2.106 7.261-2.93 12.698-7.857 16.114-14.907 9.624-19.862 1.376-48.024-17.424-59.55-9.83-6.027-20.666-7.98-32.029-7.962-30.323.048-60.647.011-90.971.026-1.45.001-2.9.178-4.564.287zm-75.264-88.404c-.304-122.583 99.006-222.267 221.858-222.691 122.691-.424 222.52 99.167 222.794 222.264.272 122.762-99.602 222.809-222.363 222.749-122.668-.06-221.982-99.39-222.289-222.322" transform="matrix(.220396 0 0 .220218 1.000442388 .9201502696)"/><path d="m0 49.472v-49.186c1.6-.09 3.177-.254 4.753-.255 15.807-.019 31.614-.044 47.421.001 10.242.029 17.518 4.927 19.633 14.915 1.338 6.317 1.358 13.245.348 19.643-1.318 8.355-7.87 13.445-16.317 14.533-2.301.297-4.648.331-6.974.335-16.12.027-32.241.014-48.864.014" transform="matrix(.220396 0 0 .220218 26.919673176 51.402660328)"/><path d="m0 40.997v-40.9c1.86-.087 3.615-.239 5.37-.241 15.15-.019 30.3-.021 45.45-.006 8.975.008 14.44 3.97 15.476 12.791.704 5.995.198 12.306-.853 18.285-1.04 5.918-5.302 9.893-11.525 9.982-17.791.254-35.589.089-53.918.089" transform="matrix(.220396 0 0 .220218 26.920334364 36.016469104)"/><path d="m0 30.016c2.313-17.989 17.433-30.016 35.21-28.379 15.305 1.408 25.787 13.268 24.821 28.379z" transform="matrix(.220396 0 0 .220218 62.178625256 44.736661468)"/></g></svg>