<?xml version="1.0" encoding="UTF-8" standalone="no"?>
<!DOCTYPE svg PUBLIC "-//W3C//DTD SVG 1.1//EN" "http://www.w3.org/Graphics/SVG/1.1/DTD/svg11.dtd">
<svg width="100%" height="100%" viewBox="0 0 100 100" version="1.1" xmlns="http://www.w3.org/2000/svg" xmlns:xlink="http://www.w3.org/1999/xlink" xml:space="preserve" xmlns:serif="http://www.serif.com/" style="fill-rule:evenodd;clip-rule:evenodd;stroke-linejoin:round;stroke-miterlimit:2;">
    <g transform="matrix(1,0,0,1,-300,0)">
        <rect id="icon-personal" x="300" y="0" width="100" height="100" style="fill:none;"/>
        <g id="icon-personal1" serif:id="icon-personal">
            <g transform="matrix(0.951149,0,0,0.928386,14.5404,6.80311)">
                <path d="M400,13.138L305.378,13.138L305.378,86.383C305.378,91.142 309.143,95 313.788,95C331.741,95 373.636,95 391.589,95C396.234,95 400,91.142 400,86.383C400,65.358 400,13.138 400,13.138Z" style="fill:rgb(0,154,75);"/>
            </g>
            <g transform="matrix(0.718646,0,0,0.122156,107.542,3.39515)">
                <path d="M400,78.628C400,61.259 398.827,44.601 396.739,32.319C394.652,20.038 391.82,13.138 388.868,13.138C363.856,13.138 305.378,13.138 305.378,13.138L305.378,95L400,95L400,78.628Z" style="fill:rgb(0,154,75);"/>
            </g>
            <g transform="matrix(0.19023,0,0,0.122156,246.908,3.39515)">
                <path d="M400,13.138L347.432,13.138C324.206,13.138 305.378,42.459 305.378,78.628C305.378,88.251 305.378,95 305.378,95L400,95L400,13.138Z" style="fill:rgb(0,181,87);"/>
            </g>
            <g transform="matrix(0.781285,0,0,0.781285,74.9793,6.98858)">
                <circle cx="352.011" cy="46.27" r="17.379" style="fill:white;"/>
            </g>
            <g transform="matrix(1.33063,0,0,0.984111,-118.394,30.8894)">
                <path d="M352.011,28.891C361.602,28.891 369.389,36.678 369.389,46.27C369.389,55.861 334.632,55.861 334.632,46.27C334.632,36.678 342.419,28.891 352.011,28.891Z" style="fill:white;"/>
            </g>
        </g>
    </g>
</svg>
