<?xml version="1.0" encoding="UTF-8" standalone="no"?>
<!DOCTYPE svg PUBLIC "-//W3C//DTD SVG 1.1//EN" "http://www.w3.org/Graphics/SVG/1.1/DTD/svg11.dtd">
<svg width="100%" height="100%" viewBox="0 0 100 100" version="1.1" xmlns="http://www.w3.org/2000/svg" xmlns:xlink="http://www.w3.org/1999/xlink" xml:space="preserve" xmlns:serif="http://www.serif.com/" style="fill-rule:evenodd;clip-rule:evenodd;stroke-linejoin:round;stroke-miterlimit:2;">
    <g transform="matrix(1,0,0,1,-300,0)">
        <rect id="icon-personal" x="300" y="0" width="100" height="100" style="fill:none;"/>
        <g id="icon-personal1" serif:id="icon-personal">
            <g transform="matrix(0.718646,0,0,0.122156,107.542,3.39515)">
                <path d="M400,78.628C400,61.259 398.827,44.601 396.739,32.319C394.652,20.038 391.82,13.138 388.868,13.138C363.856,13.138 305.378,13.138 305.378,13.138L305.378,95L400,95L400,78.628Z" style="fill:rgb(0,154,75);"/>
            </g>
            <g transform="matrix(0.19023,0,0,0.122156,246.908,3.39515)">
                <path d="M400,13.138L347.432,13.138C324.206,13.138 305.378,42.459 305.378,78.628C305.378,88.251 305.378,95 305.378,95L400,95L400,13.138Z" style="fill:rgb(0,154,75);"/>
            </g>
            <path d="M395,19L305,19L305,87C305,91.418 308.582,95 313,95C330.076,95 369.924,95 387,95C391.418,95 395,91.418 395,87C395,67.481 395,19 395,19ZM350,59.321C362.763,59.321 373.125,66.985 373.125,76.424C373.125,85.863 326.875,85.863 326.875,76.424C326.875,66.985 337.237,59.321 350,59.321ZM350,29.561C357.494,29.561 363.578,35.645 363.578,43.139C363.578,50.632 357.494,56.716 350,56.716C342.506,56.716 336.422,50.632 336.422,43.139C336.422,35.645 342.506,29.561 350,29.561Z" style="fill:rgb(0,154,75);"/>
        </g>
    </g>
</svg>
