<?xml version="1.0" encoding="UTF-8" standalone="no"?>
<!DOCTYPE svg PUBLIC "-//W3C//DTD SVG 1.1//EN" "http://www.w3.org/Graphics/SVG/1.1/DTD/svg11.dtd">
<svg width="100%" height="100%" viewBox="0 0 100 100" version="1.1" xmlns="http://www.w3.org/2000/svg" xmlns:xlink="http://www.w3.org/1999/xlink" xml:space="preserve" xmlns:serif="http://www.serif.com/" style="fill-rule:evenodd;clip-rule:evenodd;stroke-linejoin:round;stroke-miterlimit:2;">
    <rect id="icon-linkedin" x="0" y="0" width="100" height="100" style="fill:none;"/>
    <g id="icon-linkedin1" serif:id="icon-linkedin">
        <g transform="matrix(0.702982,0,0,0.703523,24.9657,67.0961)">
            <g id="Layer-1" serif:id="Layer 1">
                <path d="M0,-48.623C6.177,-48.622 11.129,-53.524 11.137,-59.646C11.145,-65.856 6.2,-70.84 0.03,-70.842C-6.183,-70.844 -11.094,-65.914 -11.089,-59.678C-11.085,-53.52 -6.174,-48.623 0,-48.623M-9.643,-9.736C-9.643,0.041 -9.63,9.818 -9.661,19.596C-9.665,20.589 -9.455,21.034 -8.356,21.026C-2.769,20.986 2.82,20.991 8.408,21.023C9.415,21.028 9.695,20.644 9.694,19.678C9.674,0.083 9.671,-19.511 9.699,-39.105C9.701,-40.185 9.329,-40.446 8.31,-40.438C2.801,-40.396 -2.708,-40.385 -8.216,-40.445C-9.403,-40.459 -9.671,-40.071 -9.666,-38.948C-9.625,-29.211 -9.643,-19.474 -9.643,-9.736M39.871,-32.445C39.871,-34.64 39.818,-36.836 39.894,-39.027C39.932,-40.141 39.552,-40.452 38.458,-40.441C33.268,-40.391 28.076,-40.42 22.885,-40.418C21.296,-40.418 21.289,-40.414 21.289,-38.852C21.288,-19.411 21.299,0.03 21.264,19.472C21.261,20.697 21.641,21.043 22.833,21.031C28.223,20.98 33.614,21.012 39.005,21.008C40.605,21.007 40.609,20.998 40.609,19.435C40.61,9.654 40.583,-0.126 40.632,-9.906C40.643,-11.93 40.772,-13.979 41.129,-15.967C41.872,-20.102 43.777,-23.443 48.204,-24.544C49.536,-24.875 50.965,-24.938 52.347,-24.921C56.908,-24.864 59.764,-22.727 60.764,-18.297C61.318,-15.836 61.538,-13.256 61.56,-10.726C61.646,-0.667 61.612,9.394 61.573,19.454C61.569,20.657 61.94,21.044 63.148,21.032C68.539,20.979 73.931,20.982 79.32,21.03C80.484,21.04 80.9,20.748 80.896,19.495C80.847,7.839 80.984,-3.82 80.8,-15.474C80.738,-19.344 80.212,-23.272 79.348,-27.048C77.792,-33.839 73.841,-38.798 66.896,-40.746C64.509,-41.415 61.971,-41.579 59.489,-41.871C55.29,-42.364 51.329,-41.514 47.615,-39.517C44.457,-37.818 41.965,-35.397 39.871,-32.445M35.586,-88.228C53.757,-88.228 71.928,-88.175 90.099,-88.264C94.942,-88.288 98.857,-84.822 99.506,-80.563C99.577,-80.093 99.62,-79.614 99.62,-79.139C99.626,-42.567 99.627,-5.996 99.623,30.575C99.622,35.426 95.766,39.44 90.934,39.649C90.614,39.664 90.295,39.663 89.976,39.663C53.713,39.663 17.451,39.665 -18.811,39.661C-23.362,39.661 -26.804,37.22 -28,33.095C-28.251,32.229 -28.385,31.296 -28.385,30.394C-28.403,-6.059 -28.402,-42.51 -28.399,-78.961C-28.399,-84.152 -24.493,-88.151 -19.286,-88.215C-14.895,-88.269 -10.501,-88.228 -6.107,-88.228L35.586,-88.228Z" style="fill-rule:nonzero;"/>
            </g>
        </g>
    </g>
</svg>
