<svg clip-rule="evenodd" fill-rule="evenodd" stroke-linejoin="round" stroke-miterlimit="2" viewBox="0 0 100 100" xmlns="http://www.w3.org/2000/svg"><path d="m0 0h100v100h-100z" fill="none"/><path d="m500 3.5c-12.266 0-13.804.053-18.622.272-4.999.229-8.411 1.031-11.398 2.192-3.152 1.225-5.824 2.864-8.488 5.528s-4.303 5.337-5.528 8.488c-1.161 2.987-1.964 6.399-2.192 11.398-.22 4.818-.272 6.356-.272 18.622s.052 13.804.272 18.622c.228 4.999 1.031 8.411 2.192 11.398 1.225 3.151 2.864 5.824 5.528 8.488s5.336 4.303 8.488 5.528c2.987 1.161 6.399 1.964 11.398 2.192 4.818.219 6.356.272 18.622.272s13.804-.053 18.622-.272c4.999-.228 8.411-1.031 11.398-2.192 3.151-1.225 5.824-2.864 8.488-5.528s4.303-5.337 5.528-8.488c1.161-2.987 1.964-6.399 2.192-11.398.219-4.818.272-6.356.272-18.622s-.053-13.804-.272-18.622c-.228-4.999-1.031-8.411-2.192-11.398-1.225-3.151-2.864-5.824-5.528-8.488s-5.337-4.303-8.488-5.528c-2.987-1.161-6.399-1.963-11.398-2.192-4.818-.219-6.356-.272-18.622-.272zm0 11.108c11.97 0 13.388.045 18.115.261 4.137.189 6.386.868 7.881 1.449 1.891.735 3.24 1.612 4.657 3.029s2.294 2.767 3.029 4.657c.581 1.495 1.26 3.744 1.449 7.88.216 4.728.261 6.146.261 18.116s-.045 13.388-.261 18.115c-.189 4.137-.868 6.386-1.449 7.881-.735 1.891-1.612 3.24-3.029 4.657s-2.766 2.294-4.657 3.029c-1.495.581-3.744 1.26-7.88 1.449-4.727.216-6.145.261-18.116.261s-13.389-.045-18.115-.261c-4.137-.189-6.386-.868-7.881-1.449-1.891-.735-3.24-1.612-4.657-3.029s-2.294-2.766-3.029-4.657c-.581-1.495-1.26-3.744-1.449-7.881-.216-4.727-.261-6.145-.261-18.115s.045-13.388.261-18.115c.189-4.137.868-6.386 1.449-7.881.735-1.891 1.612-3.24 3.029-4.657s2.766-2.294 4.657-3.029c1.495-.581 3.744-1.26 7.881-1.449 4.727-.216 6.145-.261 18.115-.261zm0 10.784c-13.591 0-24.608 11.017-24.608 24.608s11.017 24.608 24.608 24.608 24.608-11.017 24.608-24.608-11.017-24.608-24.608-24.608zm0 38.108c-7.456 0-13.5-6.044-13.5-13.5s6.044-13.5 13.5-13.5 13.5 6.044 13.5 13.5-6.044 13.5-13.5 13.5zm30.921-37.521c0-3.811-3.089-6.9-6.9-6.9s-6.9 3.089-6.9 6.9 3.089 6.9 6.9 6.9 6.9-3.089 6.9-6.9z" fill-rule="nonzero" transform="translate(-450)"/></svg>