<svg clip-rule="evenodd" fill-rule="evenodd" stroke-linejoin="round" stroke-miterlimit="2" viewBox="0 0 100 100" xmlns="http://www.w3.org/2000/svg"><path d="m0 0h100v100h-100z" fill="none"/><path d="m200 3.5c-25.671 0-46.5 20.829-46.5 46.5s20.829 46.5 46.5 46.5c25.62 0 46.5-20.829 46.5-46.5s-20.88-46.5-46.5-46.5zm5.959 54.666c-17.632 6.515-25.473 18.062-27.604 21.768 6.069 4.419 13.563 7.026 21.645 7.026 4.694 0 9.19-.869 13.342-2.501-.784-4.244-2.895-14.349-7.383-26.293zm30.208-.956c-3.089-.837-11.05-2.566-20.174-1.486 3.683 10.469 5.646 19.26 6.482 23.546 6.969-5.349 11.972-13.128 13.692-22.06zm-35.91-12.01c-16.401 4.723-32.168 5.185-37.215 5.192.079 8.626 3.151 16.574 8.183 22.811 3.322-4.97 13.685-18.622 30.848-24.207-.581-1.272-1.183-2.541-1.816-3.796zm29.432-17.063c-2.486 2.822-8.61 8.836-19.359 13.507.657 1.39 1.299 2.812 1.884 4.202.14.326.268.652.395.972 10.206-1.097 20.144.317 24.237 1.026-.438-7.327-3.018-14.121-7.157-19.707zm-46.508-10.983c-9.221 4.743-16.222 13.251-18.912 23.474 4.765-.08 17.258-.615 31.355-4.134-5.173-8.96-10.424-16.528-12.443-19.34zm40.228 4.357c-6.375-5.225-14.535-8.373-23.409-8.373-2.206 0-4.361.176-6.447.531 2.476 3.461 7.598 10.873 12.449 19.621 10.045-4.021 15.423-9.431 17.407-11.779z" transform="matrix(1.05376 0 0 1.05376 -160.7527 -2.68817)"/></svg>