<?xml version="1.0" encoding="UTF-8" standalone="no"?>
<!DOCTYPE svg PUBLIC "-//W3C//DTD SVG 1.1//EN" "http://www.w3.org/Graphics/SVG/1.1/DTD/svg11.dtd">
<svg width="100%" height="100%" viewBox="0 0 100 100" version="1.1" xmlns="http://www.w3.org/2000/svg" xmlns:xlink="http://www.w3.org/1999/xlink" xml:space="preserve" xmlns:serif="http://www.serif.com/" style="fill-rule:evenodd;clip-rule:evenodd;stroke-linejoin:round;stroke-miterlimit:2;">
    <g transform="matrix(1,0,0,1,-600,0)">
        <rect id="icon-behance" x="600" y="0" width="100" height="100" style="fill:none;"/>
        <g id="icon-behance1" serif:id="icon-behance">
            <g transform="matrix(0.220396,0,0,0.220218,595.556,-4.3997)">
                <g transform="matrix(1,0,0,1,24.703,24.1572)">
                    <path d="M269.655,159.55L345.253,159.55L345.253,137.334L269.655,137.334L269.655,159.55ZM277.681,253.978L283.879,253.978C312.21,253.978 340.542,253.902 368.871,254.065C372.774,254.087 374.434,252.906 374.148,249.058C373.532,240.769 373.717,232.329 372.174,224.217C367.553,199.92 354.792,182.048 329.647,175.993C321.19,173.957 312.128,173.297 303.416,173.676C279.788,174.703 260.453,184.253 248.628,205.567C237.308,225.972 234.546,247.699 241.203,270.272C247.959,293.181 263.138,307.507 286.296,313.084C300.225,316.437 314.391,316.593 328.484,314.117C338.921,312.284 348.776,308.735 357.072,301.823C368.038,292.687 372.559,280.789 372.424,266.558L340.162,266.558C338.95,276.225 333.259,282.36 324.19,284.232C317.309,285.653 309.907,286.38 302.996,285.464C286.52,283.281 277.527,271.811 277.681,253.978M75.264,311.459C76.691,311.561 77.512,311.67 78.333,311.67C109.823,311.678 141.313,311.726 172.803,311.619C177.106,311.605 181.483,311.185 185.695,310.317C207.398,305.846 223.717,294.822 228.619,271.919C230.333,263.914 230.731,255.275 229.843,247.132C227.439,225.081 218.354,214.688 199.266,210.732C201.201,209.893 202.655,209.224 204.138,208.626C211.399,205.696 216.836,200.769 220.252,193.719C229.876,173.857 221.628,145.695 202.828,134.169C192.998,128.142 182.162,126.189 170.799,126.207C140.476,126.255 110.152,126.218 79.828,126.233C78.378,126.234 76.928,126.411 75.264,126.52L75.264,311.459ZM0,223.055C-0.304,100.472 99.006,0.788 221.858,0.364C344.549,-0.06 444.378,99.531 444.652,222.628C444.924,345.39 345.05,445.437 222.289,445.377C99.621,445.317 0.307,345.987 0,223.055" style="fill-rule:nonzero;"/>
                </g>
                <g transform="matrix(1,0,0,1,142.306,253.396)">
                    <path d="M0,49.472L0,0.286C1.6,0.196 3.177,0.032 4.753,0.031C20.56,0.012 36.367,-0.013 52.174,0.032C62.416,0.061 69.692,4.959 71.807,14.947C73.145,21.264 73.165,28.192 72.155,34.59C70.837,42.945 64.285,48.035 55.838,49.123C53.537,49.42 51.19,49.454 48.864,49.458C32.744,49.485 16.623,49.472 0,49.472" style="fill-rule:nonzero;"/>
                </g>
                <g transform="matrix(1,0,0,1,142.309,183.528)">
                    <path d="M0,40.997L0,0.097C1.86,0.01 3.615,-0.142 5.37,-0.144C20.52,-0.163 35.67,-0.165 50.82,-0.15C59.795,-0.142 65.26,3.82 66.296,12.641C67,18.636 66.494,24.947 65.443,30.926C64.403,36.844 60.141,40.819 53.918,40.908C36.127,41.162 18.329,40.997 0,40.997" style="fill-rule:nonzero;"/>
                </g>
                <g transform="matrix(1,0,0,1,302.286,223.126)">
                    <path d="M0,30.016C2.313,12.027 17.433,0 35.21,1.637C50.515,3.045 60.997,14.905 60.031,30.016L0,30.016Z" style="fill-rule:nonzero;"/>
                </g>
            </g>
        </g>
    </g>
</svg>
