<?xml version="1.0" encoding="UTF-8" standalone="no"?>
<!DOCTYPE svg PUBLIC "-//W3C//DTD SVG 1.1//EN" "http://www.w3.org/Graphics/SVG/1.1/DTD/svg11.dtd">
<svg width="100%" height="100%" viewBox="0 0 100 100" version="1.1" xmlns="http://www.w3.org/2000/svg" xmlns:xlink="http://www.w3.org/1999/xlink" xml:space="preserve" xmlns:serif="http://www.serif.com/" style="fill-rule:evenodd;clip-rule:evenodd;stroke-linejoin:round;stroke-miterlimit:2;">
    <g transform="matrix(0.9,0,0,0.9,5,5)">
        <path d="M50,-5.556C19.338,-5.556 -5.556,19.338 -5.556,50C-5.556,80.662 19.338,105.556 50,105.556C80.662,105.556 105.556,80.662 105.556,50C105.556,19.338 80.662,-5.556 50,-5.556ZM50,5.556C74.53,5.556 94.444,25.47 94.444,50C94.444,74.53 74.53,94.444 50,94.444C25.47,94.444 5.556,74.53 5.556,50C5.556,25.47 25.47,5.556 50,5.556Z" style="fill:white;"/>
    </g>
    <path d="M73.69,58C70.352,67.879 61.001,75 50,75C36.202,75 25,63.798 25,50C25,36.202 36.202,25 50,25C61.001,25 70.352,32.121 73.69,42L62.688,42C60.029,37.794 55.338,35 50,35C41.721,35 35,41.721 35,50C35,58.279 41.721,65 50,65C55.338,65 60.029,62.206 62.688,58L73.69,58Z" style="fill:white;"/>
</svg>
