<?xml version="1.0" encoding="UTF-8" standalone="no"?>
<!DOCTYPE svg PUBLIC "-//W3C//DTD SVG 1.1//EN" "http://www.w3.org/Graphics/SVG/1.1/DTD/svg11.dtd">
<svg width="100%" height="100%" viewBox="0 0 100 100" version="1.1" xmlns="http://www.w3.org/2000/svg" xmlns:xlink="http://www.w3.org/1999/xlink" xml:space="preserve" xmlns:serif="http://www.serif.com/" style="fill-rule:evenodd;clip-rule:evenodd;stroke-linecap:square;stroke-miterlimit:2;">
    <g transform="matrix(7.8994,0,0,7.8994,-1317.16,-405.184)">
        <g transform="matrix(0.647431,-0.173479,0.173479,0.647431,163.566,51.88)">
            <path d="M17,7C18.105,7 19,7.895 19,9C19,10.714 18.697,12.412 18.105,14.019L17.111,16.717C17.037,16.954 17,17.202 17,17.451L17,19L8,19L8,17.454C8,17.31 7.937,17.172 7.83,17.077L4.875,14.493C4.319,14.007 4,13.304 4,12.565L4,12.56C4,11.146 5.146,10 6.56,10L7,10L7,7.345C7,6.221 7.774,5.221 8.857,5.034C9.506,4.922 10.137,5.093 10.625,5.476C11.012,5.173 11.492,5 12,5C12.662,5 13.269,5.29 13.687,5.77C14.009,5.595 14.372,5.5 14.75,5.5C15.725,5.5 16.558,6.124 16.865,7.005C16.91,7.002 16.955,7 17,7Z" style="fill:white;stroke:black;stroke-width:1.32px;"/>
        </g>
        <g transform="matrix(0.870669,0,0,0.870669,2.92973,-0.952583)">
            <path d="M194.864,65.504L195.809,68.863" style="fill:none;stroke:black;stroke-width:1.02px;"/>
        </g>
        <g transform="matrix(0.869197,0.0505965,-0.0505965,0.869197,8.68732,-11.2104)">
            <path d="M195.088,65.869L195.809,68.863" style="fill:none;stroke:black;stroke-width:1.02px;"/>
        </g>
    </g>
</svg>
