<svg clip-rule="evenodd" fill-rule="evenodd" stroke-linecap="square" stroke-miterlimit="2" viewBox="0 0 100 100" xmlns="http://www.w3.org/2000/svg"><g stroke="#000"><path d="m17 7c1.105 0 2 .895 2 2 0 1.714-.303 3.412-.895 5.019l-.994 2.698c-.074.237-.111.485-.111.734v1.549h-9v-1.546c0-.144-.063-.282-.17-.377l-2.955-2.584c-.556-.486-.875-1.189-.875-1.928v-.005c0-1.414 1.146-2.56 2.56-2.56h.44v-2.655c0-1.124.774-2.124 1.857-2.311.649-.112 1.28.059 1.768.442.387-.303.867-.476 1.375-.476.662 0 1.269.29 1.687.77.322-.175.685-.27 1.063-.27.975 0 1.808.624 2.115 1.505.045-.003.09-.005.135-.005z" fill="#fff" stroke-width="1.32" transform="matrix(5.1143164414 -1.3703800126 1.3703800126 5.1143164414 -25.0867396 4.636872)"/><g fill="none" stroke-width="1.02"><path d="m194.864 65.504.945 3.359" transform="matrix(6.8777626986 0 0 6.8777626986 -1294.016890838 -412.7088341502)"/><path d="m195.088 65.869.721 2.994" transform="matrix(6.8661347818 .3996819921 -.3996819921 6.8661347818 -1248.535384392 -493.73943376)"/></g></g></svg>