<svg clip-rule="evenodd" fill-rule="evenodd" stroke-linejoin="round" stroke-miterlimit="2" viewBox="0 0 100 100" xmlns="http://www.w3.org/2000/svg"><path d="m0 0h100v100h-100z" fill="none"/><g fill="#01b7ff"><path d="m296.673 229.703c.817 0 1.481.663 1.481 1.481 0 .817-.664 1.481-1.481 1.481-.818 0-1.481-.664-1.481-1.481 0-.818.663-1.481 1.481-1.481zm.613 1.769c.03 0 .059.013.078.036s.027.053.021.083c-.075.255-.366.45-.712.45-.349 0-.64-.194-.709-.452-.005-.028.003-.057.021-.078.018-.022.045-.035.073-.035.269-.004.959-.004 1.228-.004zm.127-.788c0-.111-.09-.2-.2-.2-.111 0-.2.089-.2.2v.3c0 .11.089.2.2.2.11 0 .2-.09.2-.2 0-.094 0-.206 0-.3zm-1.08 0c0-.111-.09-.2-.2-.2-.111 0-.2.089-.2.2v.3c0 .11.089.2.2.2.11 0 .2-.09.2-.2 0-.094 0-.206 0-.3z" transform="matrix(7.86922 0 0 7.86922 -2302.93284 -1755.73286)"/><path d="m296.673 229.703c.817 0 1.481.663 1.481 1.481 0 .817-.664 1.481-1.481 1.481-.818 0-1.481-.664-1.481-1.481 0-.818.663-1.481 1.481-1.481zm.613 1.769c.03 0 .059.013.078.036s.027.053.021.083c-.075.255-.366.45-.712.45-.349 0-.64-.194-.709-.452-.005-.028.003-.057.021-.078.018-.022.045-.035.073-.035.269-.004.959-.004 1.228-.004zm.127-.788c0-.111-.09-.2-.2-.2-.111 0-.2.089-.2.2v.3c0 .11.089.2.2.2.11 0 .2-.09.2-.2 0-.094 0-.206 0-.3zm-1.08 0c0-.111-.09-.2-.2-.2-.111 0-.2.089-.2.2v.3c0 .11.089.2.2.2.11 0 .2-.09.2-.2 0-.094 0-.206 0-.3z" transform="matrix(7.86922 0 0 7.86922 -2266.24653636 -1755.73286)"/><path d="m296.673 229.703c.817 0 1.481.663 1.481 1.481 0 .817-.664 1.481-1.481 1.481-.818 0-1.481-.664-1.481-1.481 0-.818.663-1.481 1.481-1.481zm.613 1.769c.03 0 .059.013.078.036s.027.053.021.083c-.075.255-.366.45-.712.45-.349 0-.64-.194-.709-.452-.005-.028.003-.057.021-.078.018-.022.045-.035.073-.035.269-.004.959-.004 1.228-.004zm.127-.788c0-.111-.09-.2-.2-.2-.111 0-.2.089-.2.2v.3c0 .11.089.2.2.2.11 0 .2-.09.2-.2 0-.094 0-.206 0-.3zm-1.08 0c0-.111-.09-.2-.2-.2-.111 0-.2.089-.2.2v.3c0 .11.089.2.2.2.11 0 .2-.09.2-.2 0-.094 0-.206 0-.3z" transform="matrix(7.86922 0 0 7.86922 -2284.58968818 -1787.50877036)"/></g></svg>