<svg clip-rule="evenodd" fill-rule="evenodd" stroke-linejoin="round" stroke-miterlimit="2" viewBox="0 0 100 100" xmlns="http://www.w3.org/2000/svg"><path d="m0 0h100v100h-100z" fill="none"/><g fill="#01b7ff"><path d="m347.851 228.014c0-.661-.536-1.197-1.197-1.197-.839 0-1.957 0-2.797 0-.661 0-1.196.536-1.196 1.197v2.797c0 .661.535 1.197 1.196 1.197h2.797c.661 0 1.197-.536 1.197-1.197zm-2.726 2.771c-.089 0-.162-.028-.219-.084-.058-.056-.086-.123-.086-.202 0-.081.028-.15.086-.206.057-.056.13-.084.219-.084s.162.028.218.084.084.125.084.206c0 .079-.028.146-.084.202s-.129.084-.218.084zm.214-.859.012-.305c.175-.003.33-.032.464-.088.133-.056.239-.141.317-.256.077-.114.116-.26.116-.435 0-.171-.038-.315-.113-.434-.075-.118-.178-.209-.309-.273-.131-.063-.282-.095-.452-.095-.184 0-.341.034-.472.103s-.231.163-.3.283c-.069.119-.102.255-.099.408h.462c0-.12.036-.214.107-.284s.17-.105.298-.105c.122 0 .22.035.294.105s.11.166.11.288c0 .127-.031.224-.095.29s-.149.111-.256.134-.225.034-.355.034h-.176l.016.63z" transform="matrix(7.41388 0 0 7.41388 -2508.53536 -1649.47244)"/><path d="m201.898 232.793c.02-.066.081-.111.15-.111.068 0 .129.045.149.111.131.435.301.999.301.999s.606.21 1.072.371c.066.023.109.087.105.157-.005.07-.055.128-.123.143-.463.101-1.054.229-1.054.229s-.169.637-.3 1.131c-.018.068-.08.116-.15.116-.071 0-.133-.048-.151-.116-.131-.494-.299-1.131-.299-1.131s-.592-.128-1.055-.229c-.068-.015-.118-.073-.123-.143-.004-.07.039-.134.105-.157.466-.161 1.073-.371 1.073-.371s.169-.564.3-.999z" transform="matrix(6.413376894 0 0 6.413376894 -1282.45012724 -1457.80881424)"/><path d="m201.851 232.951c.026-.087.106-.146.197-.146.09 0 .17.059.196.146.121.402.254.841.254.841s.473.164.905.313c.087.031.143.115.138.207-.006.092-.072.169-.162.188-.425.093-.881.192-.881.192s-.131.494-.252.95c-.024.09-.105.153-.198.153-.094 0-.175-.063-.199-.153-.121-.456-.251-.95-.251-.95s-.457-.099-.882-.192c-.09-.019-.156-.096-.162-.188-.005-.092.051-.176.138-.207.432-.149.906-.313.906-.313s.132-.439.253-.841z" transform="matrix(4.86704170076 0 0 4.86704170076 -895.11196664 -1076.069615816)"/><circle cx="79.65203372038" cy="22.86228736478" r="4.21358861936" stroke-width="6.413376894"/></g></svg>