<svg clip-rule="evenodd" fill-rule="evenodd" stroke-linejoin="round" stroke-miterlimit="2" viewBox="0 0 100 16" xmlns="http://www.w3.org/2000/svg"><g fill="#01b7ff"><path d="m97.579 154h130.124c6.627 0 12 5.373 12 12 0 6.627-5.373 12-12 12h-130.124c3.323-2.933 5.421-7.224 5.421-12s-2.098-9.067-5.421-12z" transform="matrix(.113744 0 0 .113744 -8.03081 -4.66009)"/><path d="m75 155.422v-92.313c0-10.219 8.284-18.502 18.502-18.502h127.698c10.219 0 18.503 8.283 18.503 18.502v92.308c-2.932-3.322-7.222-5.417-12-5.417h-3v-90.393h-134.703v90.393h-3c-4.776 0-9.067 2.098-12 5.422z" transform="matrix(.113744 0 0 .113744 -8.03081 -4.66009)"/><circle cx="1.864921728" cy="14.221420784" r="1.364915216" stroke-width=".066416"/></g><path d="m185 67.5c24.836 0 35 8.183 35 27.5s-10.164 27.5-35 27.5-35-8.183-35-27.5 10.164-27.5 35-27.5z" fill="#fc593d" transform="matrix(.16544597731 0 0 .16544597731 -20.7405098969 -8.28096534992)"/><path d="m184.01 133.695c.894-1.549 2.547-2.503 4.335-2.503s3.44.954 4.334 2.503c4.362 7.554 11.05 19.138 15.411 26.693.894 1.548.894 3.456 0 5.005-.894 1.548-2.546 2.502-4.334 2.502h-30.823c-1.788 0-3.44-.954-4.334-2.502-.894-1.549-.894-3.457 0-5.005 4.361-7.555 11.05-19.139 15.411-26.693z" fill="#fff" transform="matrix(0 .11156501206 -.11156501206 0 27.0043876426 -13.5763150385)"/><path d="m280.55 127.652c1.41 0 2.597-.259 3.566-.761.996-.516 1.744-1.202 2.25-2.053.509-.853.763-1.779.763-2.777 0-1.134-.249-2.06-.725-2.782-.472-.718-1.098-1.295-1.879-1.731-.732-.409-1.542-.767-2.427-1.074-.809-.264-1.52-.509-2.141-.738-.554-.204-.994-.45-1.314-.749-.265-.246-.385-.585-.385-1.006 0-.498.159-.884.505-1.145.385-.29.863-.419 1.429-.406.663.001 1.177.173 1.543.552.36.373.551.8.564 1.285l.013.486h4.388l-.016-.516c-.036-1.124-.336-2.092-.889-2.908-.552-.814-1.31-1.45-2.278-1.902-.943-.441-2.03-.665-3.263-.665-1.216 0-2.291.22-3.225.651-.959.444-1.713 1.071-2.266 1.877-.558.814-.834 1.787-.816 2.922 0 1.341.405 2.417 1.191 3.23.746.773 1.825 1.413 3.247 1.904.826.281 1.6.545 2.325.792.651.222 1.176.506 1.568.861.337.305.49.738.49 1.285 0 .513-.182.925-.557 1.231-.415.339-.98.493-1.685.493-.82 0-1.467-.217-1.933-.682-.461-.461-.703-1.03-.731-1.705l-.019-.48h-4.323l.007.507c.018 1.279.34 2.362.953 3.254.611.89 1.445 1.575 2.505 2.051 1.031.463 2.219.699 3.565.699zm-71.41 0c1.409 0 2.597-.259 3.565-.761.996-.516 1.744-1.202 2.251-2.053.508-.853.762-1.779.762-2.777 0-1.134-.249-2.06-.725-2.782-.472-.718-1.098-1.295-1.879-1.731-.732-.409-1.541-.767-2.427-1.074-.809-.264-1.52-.509-2.141-.738-.553-.204-.994-.45-1.314-.749-.265-.246-.385-.585-.385-1.006 0-.498.16-.884.506-1.145.384-.29.862-.419 1.429-.406.663.001 1.177.173 1.542.552.36.373.551.8.564 1.285l.013.486h4.389l-.017-.516c-.036-1.124-.336-2.092-.889-2.908-.552-.814-1.31-1.45-2.278-1.902-.942-.441-2.03-.665-3.263-.665-1.216 0-2.29.22-3.224.651-.96.444-1.714 1.071-2.266 1.877-.558.814-.835 1.787-.817 2.922 0 1.341.406 2.417 1.191 3.23.746.773 1.826 1.413 3.248 1.904.826.281 1.6.545 2.324.792.652.222 1.176.506 1.568.861.337.305.491.738.491 1.285 0 .513-.183.925-.558 1.231-.415.339-.98.493-1.685.493-.819 0-1.467-.217-1.932-.682-.462-.461-.704-1.03-.731-1.705l-.02-.48h-4.323l.007.507c.018 1.279.341 2.362.953 3.254.611.89 1.445 1.575 2.505 2.051 1.032.463 2.22.699 3.566.699zm-54.266-8.243 5.129-10.351h4.566v18.297h-4.163v-10.351l-4.011 7.88h-3.109l-4.012-7.88v10.351h-4.163v-18.297h4.565zm83.528 1.126v6.82h-4.163v-18.297h6.85c1.478 0 2.695.26 3.654.762.991.518 1.728 1.221 2.219 2.102.486.872.73 1.838.73 2.9 0 1.151-.302 2.204-.905 3.158-.522.826-1.291 1.465-2.313 1.905l3.697 7.47h-4.755l-3.212-6.82zm24.388 3.275h8.129v3.545h-12.292v-18.297h12.292v3.546h-8.129v3.744h7.388v3.471h-7.388zm-75.574-3.72v-11.032h4.163v18.297h-3.93l-7.362-11.01v11.01h-4.163v-18.297h3.93zm63.652 7.265h4.163v-18.297h-4.163zm-55.893 0h4.163v-18.297h-4.163zm27.909-3.545h8.129v3.545h-12.292v-18.297h12.292v3.546h-8.129v3.744h7.388v3.471h-7.388zm-54.719 3.545h4.163v-18.297h-4.163zm70.237-10.142h2.489c.887 0 1.548-.185 1.964-.614.408-.422.6-.984.6-1.679 0-.675-.186-1.22-.585-1.626-.41-.417-1.085-.592-2.003-.592h-2.465z" fill-rule="nonzero" transform="matrix(.544833 0 0 .544833 -56.9373 -56.403)"/></svg>