<svg clip-rule="evenodd" fill-rule="evenodd" stroke-linecap="square" stroke-miterlimit="2" viewBox="0 0 100 100" xmlns="http://www.w3.org/2000/svg"><path d="m0 10.684h12.337l3.084-5.342-3.084-5.342h-6.168z" fill="#fff" stroke="#000" stroke-width="1.18" transform="matrix(0 4.79363636272 -4.79363636272 0 54.562905414 2.69069238)"/><path d="m.821-3.07c-.907 0-1.644.736-1.644 1.646 0 .907.736 1.644 1.644 1.644.91 0 1.646-.737 1.646-1.646 0-.908-.737-1.644-1.646-1.644" transform="matrix(-2.39695947786 -4.15133073302 -4.15133073302 2.39695947786 25.007633916 53.87393654)"/><g stroke="#000" stroke-width="1.18"><path d="m-.716 2.671h10.685" fill="none" stroke-linecap="butt" transform="matrix(2.39674470718 4.15145507394 4.15145507394 -2.39674470718 -6.025598972 12.06147626)"/><path d="m-3.851-6.67h10.01v3.115h-10.01z" fill="#fff" transform="matrix(-4.15130247372 2.3970103446 2.3970103446 4.15130247372 62.535984316 94.1490909)"/></g></svg>