<?xml version="1.0" encoding="UTF-8" standalone="no"?>
<!DOCTYPE svg PUBLIC "-//W3C//DTD SVG 1.1//EN" "http://www.w3.org/Graphics/SVG/1.1/DTD/svg11.dtd">
<svg width="100%" height="100%" viewBox="0 0 100 100" version="1.1" xmlns="http://www.w3.org/2000/svg" xmlns:xlink="http://www.w3.org/1999/xlink" xml:space="preserve" xmlns:serif="http://www.serif.com/" style="fill-rule:evenodd;clip-rule:evenodd;stroke-linecap:square;stroke-miterlimit:2;">
    <g transform="matrix(3.13741e-16,5.65186,-5.65186,3.13741e-16,319.014,-1613.08)">
        <g transform="matrix(0.848152,0,0,0.848152,285.883,46.7901)">
            <path d="M0,10.684L12.337,10.684L15.421,5.342L12.337,0L6.169,0L0,10.684Z" style="fill:white;stroke:black;stroke-width:1.18px;"/>
        </g>
        <g transform="matrix(-0.734507,0.424101,0.424101,0.734507,294.939,52.0194)">
            <path d="M0.821,-3.07C-0.086,-3.07 -0.823,-2.334 -0.823,-1.424C-0.823,-0.517 -0.087,0.22 0.821,0.22C1.731,0.22 2.467,-0.517 2.467,-1.426C2.467,-2.334 1.73,-3.07 0.821,-3.07"/>
        </g>
        <g transform="matrix(0.734529,-0.424063,-0.424063,-0.734529,287.541,57.5102)">
            <path d="M-0.716,2.671L9.969,2.671" style="fill:none;stroke:black;stroke-width:1.18px;stroke-linecap:butt;"/>
        </g>
        <g transform="matrix(0.42411,0.734502,0.734502,-0.42411,302.065,45.3794)">
            <rect x="-3.851" y="-6.67" width="10.01" height="3.115" style="fill:white;stroke:black;stroke-width:1.18px;"/>
        </g>
    </g>
</svg>
