<svg clip-rule="evenodd" fill-rule="evenodd" stroke-linecap="square" stroke-linejoin="round" stroke-miterlimit="2" viewBox="0 0 100 100" xmlns="http://www.w3.org/2000/svg"><path d="m0 0h100v100h-100z" fill="#fff"/><g fill="none"><path d="m55.465 21.708h15.35" stroke="#01b7ff" stroke-width="1.11" transform="matrix(.686729 .396483 -.5 .866025 32.2147 .259716)"/><path d="m55.465 21.708h15.35" stroke="#01b7ff" stroke-width="1.22" transform="matrix(.511367 .295238 -.5 .866025 43.4412 3.27725)"/><path d="m55.465 21.708h15.35" stroke="#01b7ff" stroke-width="1.37" transform="matrix(.222995 .128746 -.5 .866025 60.9359 9.91371)"/><path d="m55.465 21.708h15.35" stroke="#01b7ff" stroke-width="1.05" transform="matrix(.784452 .452904 -.5 .866025 25.2944 -.271601)"/><path d="m55.465 21.708h15.35" stroke="#01b7ff" transform="matrix(.858561 .495691 -.5 .866025 19.6839 -.046709)"/><path d="m55.465 21.708h15.35" stroke="#01b7ff" stroke-width=".98" transform="matrix(.902261 .52092 -.5 .866025 15.7601 1.15198)"/><path d="m55.465 21.708h15.35" stroke="#01b7ff" stroke-width=".97" transform="matrix(.919009 .53059 -.5 .866025 13.3312 3.21373)"/><path d="m55.465 21.708h15.35" stroke="#01b7ff" stroke-width=".97" transform="matrix(.910149 .525475 -.5 .866025 12.3226 6.09553)"/><path d="m55.465 21.708h15.35" stroke="#01b7ff" stroke-width=".99" transform="matrix(.875209 .505302 -.5 .866025 12.7605 9.81247)"/><path d="m55.465 21.708h15.35" stroke="#01b7ff" stroke-width="1.03" transform="matrix(.817142 .471777 -.5 .866025 14.4813 14.27)"/></g><path d="m336.534 510.312 16.704-25.6 7.664-9.672c-9.004 11.223-8.867 31.51-.658 32.489-3.779 2.295-8.214 3.616-12.958 3.616h-3.411z" transform="matrix(.800003 0 0 .800003 -227.829 -338.917)"/><path d="m352.993 173.199c22.929-13.762 31.968-15.118 37.007-12.973v-16.717s-17.421 13.977-37.007 29.69z" fill="#fff" transform="matrix(0 .571429 .571429 0 -44.2855 -152.858)"/><path d="m322.286 482.574 34.571-19.531c3.28 1.361 6.208 3.399 8.608 5.942l.169.18-33.341 41.98h-10.007z" fill="#fc593d" transform="matrix(.800003 0 0 .800003 -227.829 -338.917)"/><circle cx="40.099472584" cy="53.666726636" r="3.666357772" stroke-width=".740828"/><path d="m290.001 150.001 48.406-27.341c-4.129-1.714-8.658-2.66-13.407-2.66h-35z" fill="#ffcc45" transform="matrix(.571429 0 0 .571429 -135.714 -38.5715)"/><circle cx="38.98329544" cy="42.06928768" fill="#fff" r="2.000724" stroke-width="1.73976"/><path d="m39.924 41.082-8.982 5.075-8.982 5.074" style="fill:none;stroke:#fff;stroke-width:3;stroke-linecap:butt;stroke-linejoin:miter;stroke-miterlimit:3" transform="translate(-.941249 .986631)"/><path d="m27.50143734 44.64314698h4.99943616v4.99943616h-4.99943616z" fill="#fff" stroke-width="1.75542"/><path d="m-.249 10.9h12.337l3.084-5.342-3.084-5.342h-6.168z" fill="#fff" stroke="#000" stroke-linejoin="miter" stroke-miterlimit="3" stroke-width="1.18" transform="matrix(-.21951785249 -.81925206875 .81925206875 -.21951785249 20.4865219556 48.8900104501)"/><path d="m1.145-3.008c-.908 0-1.644.736-1.644 1.646-.001.908.735 1.644 1.644 1.644.91 0 1.645-.736 1.646-1.645-.001-.909-.737-1.644-1.646-1.645" transform="matrix(.59975454976 .59971401176 .59971401176 -.59975454976 23.1937739234 38.7891423974)"/><path d="m-1.039 2.609h10.684" fill="none" stroke="#000" stroke-linecap="butt" stroke-linejoin="miter" stroke-width="1.18" transform="matrix(-.59972353859 -.59974509726 -.59974509726 .59972353859 30.4122233662 44.5139395802)"/><path d="m-3.789-6.994h10.01v3.115h-10.01z" fill="#fff" stroke="#000" stroke-linejoin="miter" stroke-width="1.18" transform="matrix(.59970685276 -.599761949 -.599761949 -.59970685276 14.9356810894 33.6245118814)"/><path d="m39.924 41.082-8.982 5.075-8.982 5.074" fill="none" stroke="#fc593d" stroke-linecap="butt" stroke-linejoin="miter" transform="translate(-.941249 .986631)"/><circle cx="21.018978739" cy="52.217966058" fill="#fc593d" r="1.00036315" stroke-width=".869881"/><path d="m29.001064936 46.143118792h1.999774464v1.999774464h-1.999774464z" fill="#fff" stroke="#fc593d" stroke-linecap="butt" stroke-linejoin="miter" stroke-width=".99707856"/><circle cx="38.983128739" cy="42.069056058" fill="#fc593d" r="1.00036315" stroke-width=".869881"/><path d="m64.679 36.416 1.702-2.976c3.669 3.583 6.085 9.666 6.085 16.56 0 8.978-4.096 16.578-9.722 19.078 0 0-3.501-2.105-2.378-1.971 5.776-3.507 9.634-9.856 9.634-17.107 0-5.244-2.018-10.017-5.321-13.584z" fill="#fff"/><path d="m64.679 36.416c3.303 3.567 5.321 8.34 5.321 13.584 0 7.251-3.858 13.6-9.634 17.107-11.054-2.893-3.09-27.124 4.313-30.691z" fill="#fff" transform="matrix(.940117 .340853 -.340853 .940117 27.9455 -11.856)"/><path d="m64.679 36.416c3.303 3.567 5.321 8.34 5.321 13.584 0 7.251-3.858 13.6-9.634 17.107-11.054-2.893-3.09-27.124 4.313-30.691z" fill="#01b7ff" transform="matrix(.940117 .340853 -.340853 .940117 28.7116 -11.5783)"/><path d="m17 7c1.105 0 2 .895 2 2 0 1.714-.303 3.412-.895 5.019l-.994 2.698c-.074.237-.111.485-.111.734v1.549h-9v-1.546c0-.144-.063-.282-.17-.377l-2.955-2.584c-.556-.486-.875-1.189-.875-1.928v-.005c0-1.414 1.146-2.56 2.56-2.56h.44v-2.655c0-1.124.774-2.124 1.857-2.311.649-.112 1.28.059 1.768.442.387-.303.867-.476 1.375-.476.662 0 1.269.29 1.687.77.322-.175.685-.27 1.063-.27.975 0 1.808.624 2.115 1.505.045-.003.09-.005.135-.005z" fill="#fff" stroke="#000" stroke-linejoin="miter" stroke-width="1.32" transform="matrix(.7323739472 -.1962394448 .1962394448 .7323739472 61.1948592 59.398214)"/><path d="m194.864 65.504.945 3.359" fill="none" stroke="#000" stroke-linejoin="miter" stroke-width="1.02" transform="matrix(.9849007728 0 0 .9849007728 -120.516889424 -.3660038896)"/><path d="m195.088 65.869.721 2.994" fill="none" stroke="#000" stroke-linejoin="miter" stroke-width="1.02" transform="matrix(.9832356464 .0572347608 -.0572347608 .9832356464 -114.003903616 -11.96964648)"/></svg>