<svg clip-rule="evenodd" fill-rule="evenodd" stroke-linejoin="round" stroke-miterlimit="2" viewBox="0 0 100 100" xmlns="http://www.w3.org/2000/svg"><path d="m0 0h100v100h-100z" fill="none"/><path d="m46.833 27.066c.446-1.373 1.724-2.302 3.167-2.302s2.721.929 3.167 2.302c1.986 6.11 4.171 12.835 4.171 12.835h13.495c1.443 0 2.722.929 3.168 2.301.445 1.372-.043 2.875-1.21 3.723-5.198 3.776-10.918 7.933-10.918 7.933s2.185 6.724 4.17 12.835c.446 1.372-.043 2.875-1.21 3.723s-2.748.848-3.915 0c-5.198-3.776-10.918-7.932-10.918-7.932s-5.72 4.156-10.918 7.932c-1.167.848-2.748.848-3.915 0s-1.656-2.351-1.21-3.723c1.985-6.111 4.17-12.835 4.17-12.835s-5.72-4.157-10.918-7.933c-1.167-.848-1.655-2.351-1.21-3.723.446-1.372 1.725-2.301 3.168-2.301h13.495s2.185-6.725 4.171-12.835z" fill="#01b7ff" transform="matrix(.900819 0 0 .900819 4.95906 5.60011)"/></svg>