<svg clip-rule="evenodd" fill-rule="evenodd" stroke-linejoin="round" stroke-miterlimit="2" viewBox="0 0 100 100" xmlns="http://www.w3.org/2000/svg"><path d="m0 0h100v100h-100z" fill="none"/><g fill="#01b7ff"><path d="m467.481 31.69h-35.682v19.781c0 1.619 1.065 2.931 2.379 2.931h30.924c1.314 0 2.379-1.312 2.379-2.931z" transform="matrix(1.2010840816 0 0 .97491699552 -490.055445696 10.28000690432)"/><path d="m467.481 43.046c0-6.272-.913-11.356-2.039-11.356h-31.604c-1.126 0-2.039 5.084-2.039 11.356 0 6.271.913 11.356 2.039 11.356h31.604c1.126 0 2.039-5.085 2.039-11.356z" transform="matrix(1.40126595232 0 0 .25159159792 -580.065146048 24.6306170816)"/><path d="m467.481 37.368c0-3.136-.946-5.678-2.113-5.678h-29.344c-2.333 0-4.225 5.084-4.225 11.356 0 6.271 1.892 11.356 4.225 11.356h29.344c1.167 0 2.113-2.542 2.113-5.678z" transform="matrix(.51806005306 -.43470379638 .16171975206 .19273058522 -197.460349344 251.965680736)"/><path d="m467.481 37.368c0-3.136-.946-5.678-2.113-5.678h-29.344c-2.333 0-4.225 5.084-4.225 11.356 0 6.271 1.892 11.356 4.225 11.356h29.344c1.167 0 2.113-2.542 2.113-5.678z" transform="matrix(-.51806005306 -.43470379638 -.16171975206 .19273058522 297.458719456 251.965680736)"/><path d="m467.481 37.368c0-3.136-7.988-5.678-17.841-5.678s-17.841 2.542-17.841 5.678v14.195c0 1.568 3.994 2.839 8.921 2.839h17.84c4.927 0 8.921-1.271 8.921-2.839z" transform="matrix(.16014406803 0 0 .50318319584 -22.0082895168 10.94362273408)"/><path d="m467.481 34.529c0-1.568-3.994-2.839-8.921-2.839h-17.84c-4.927 0-8.921 1.271-8.921 2.839v14.195c0 3.136 7.988 5.678 17.841 5.678s17.841-2.542 17.841-5.678z" transform="matrix(.16014406803 0 0 .50318319584 -22.0082895168 45.4013611328)"/></g></svg>