<?xml version="1.0" encoding="UTF-8" standalone="no"?>
<!DOCTYPE svg PUBLIC "-//W3C//DTD SVG 1.1//EN" "http://www.w3.org/Graphics/SVG/1.1/DTD/svg11.dtd">
<svg width="100%" height="100%" viewBox="0 0 100 100" version="1.1" xmlns="http://www.w3.org/2000/svg" xmlns:xlink="http://www.w3.org/1999/xlink" xml:space="preserve" xmlns:serif="http://www.serif.com/" style="fill-rule:evenodd;clip-rule:evenodd;stroke-linejoin:round;stroke-miterlimit:2;">
    <g transform="matrix(0.625,0,0,0.625,-430,-430)">
        <g transform="matrix(2.28571,0,0,2.28571,25.1429,413.714)">
            <path d="M360,155C360,145.823 356.468,137.47 350.689,131.228C332.843,118.231 318.098,177.024 325.001,186.568C331.642,186.568 336.382,186.172 343.141,184.938C353.248,178.8 360,167.689 360,155Z" style="fill:rgb(65,194,255);"/>
        </g>
        <g transform="matrix(2.28571,0,0,2.28571,25.1429,413.714)">
            <path d="M320.345,150.001C320.345,150.001 341.903,125.829 338.407,122.66C334.278,120.946 329.749,120 325,120L290,120L290.001,150.001L320.345,150.001Z" style="fill:rgb(255,204,69);"/>
        </g>
        <g transform="matrix(3.20001,0,0,3.20001,-343.315,-787.669)">
            <path d="M322.286,482.574L356.857,463.043C360.137,464.404 363.065,466.442 365.465,468.985L365.634,469.165L332.293,511.145L322.286,511.145L322.286,482.574Z" style="fill:rgb(252,89,61);"/>
        </g>
        <g transform="matrix(3.20001,0,0,3.20001,-343.315,-787.669)">
            <path d="M336.534,510.312L353.238,484.712L360.902,475.04C351.898,486.263 352.035,506.55 360.244,507.529C356.465,509.824 352.03,511.145 347.286,511.145L343.875,511.145L336.534,510.312Z"/>
        </g>
        <g transform="matrix(-2.45002e-15,2.28571,2.28571,2.45002e-15,390.858,-43.4304)">
            <path d="M352.993,173.199C375.922,159.437 384.961,158.081 390,160.226L390,143.509C390,143.509 372.579,157.486 352.993,173.199Z" style="fill:white;"/>
        </g>
        <g transform="matrix(2.96331,0,0,2.96331,665.937,576.607)">
            <circle cx="21.078" cy="69.537" r="4.949"/>
        </g>
    </g>
</svg>
