<svg clip-rule="evenodd" fill-rule="evenodd" stroke-linejoin="round" stroke-miterlimit="2" viewBox="0 0 100 100" xmlns="http://www.w3.org/2000/svg"><path d="m88.583 44.291h11.417v11.417h-11.417z"/><path d="m100 63.091v36.909h-9.091v-21.26c-9.052 12.855-24.007 21.26-40.909 21.26h-45.455v-9.091h45.455c18.002 0 33.303-11.653 38.766-27.818zm0-26.182h-11.234c-5.463-16.165-20.764-27.818-38.766-27.818h-45.455v-9.091h45.455c16.902 0 31.857 8.405 40.909 21.26v-21.26h9.091z"/><path d="m29.928 20.691 50.764 29.309-50.764 29.309-25.383-14.655v-29.308zm0 20.187c5.034 0 9.122 4.087 9.122 9.122s-4.088 9.122-9.122 9.122c-5.035 0-9.122-4.087-9.122-9.122s4.087-9.122 9.122-9.122z"/></svg>