<?xml version="1.0" encoding="UTF-8" standalone="no"?>
<!DOCTYPE svg PUBLIC "-//W3C//DTD SVG 1.1//EN" "http://www.w3.org/Graphics/SVG/1.1/DTD/svg11.dtd">
<svg width="100%" height="100%" viewBox="0 0 100 100" version="1.1" xmlns="http://www.w3.org/2000/svg" xmlns:xlink="http://www.w3.org/1999/xlink" xml:space="preserve" xmlns:serif="http://www.serif.com/" style="fill-rule:evenodd;clip-rule:evenodd;stroke-linejoin:round;stroke-miterlimit:2;">
    <g>
        <rect x="88.583" y="44.291" width="11.417" height="11.417"/>
        <path d="M100,63.091l-0,36.909l-9.091,-0l0,-21.26c-9.052,12.855 -24.007,21.26 -40.909,21.26l-45.455,-0l0,-9.091l45.455,0c18.002,0 33.303,-11.653 38.766,-27.818l11.234,-0Zm-0,-26.182l-11.234,0c-5.463,-16.165 -20.764,-27.818 -38.766,-27.818l-45.455,-0l0,-9.091l45.455,0c16.902,0 31.857,8.405 40.909,21.26l0,-21.26l9.091,-0l-0,36.909Z"/>
        <path d="M29.928,20.691l50.764,29.309l-50.764,29.309l-25.383,-14.655l0,-29.308l25.383,-14.655Zm-0,20.187c5.034,0 9.122,4.087 9.122,9.122c-0,5.035 -4.088,9.122 -9.122,9.122c-5.035,-0 -9.122,-4.087 -9.122,-9.122c-0,-5.035 4.087,-9.122 9.122,-9.122Z"/>
    </g>
</svg>
