<?xml version="1.0" encoding="UTF-8" standalone="no"?>
<!DOCTYPE svg PUBLIC "-//W3C//DTD SVG 1.1//EN" "http://www.w3.org/Graphics/SVG/1.1/DTD/svg11.dtd">
<svg width="100%" height="100%" viewBox="0 0 100 16" version="1.1" xmlns="http://www.w3.org/2000/svg" xmlns:xlink="http://www.w3.org/1999/xlink" xml:space="preserve" xmlns:serif="http://www.serif.com/" style="fill-rule:evenodd;clip-rule:evenodd;stroke-linejoin:round;stroke-miterlimit:2;">
    <g transform="matrix(1.28859,0,0,1.28859,-15.5371,-1.66919)">
        <g transform="matrix(12,0,0,12,11.2414,10.928)">
            <path d="M0.068,-0L0.068,-0.7L0.307,-0.7C0.389,-0.7 0.456,-0.686 0.51,-0.657C0.563,-0.627 0.602,-0.587 0.628,-0.535C0.653,-0.482 0.666,-0.421 0.666,-0.35C0.666,-0.279 0.653,-0.218 0.628,-0.166C0.602,-0.113 0.563,-0.073 0.51,-0.044C0.456,-0.015 0.389,-0 0.307,-0L0.068,-0ZM0.196,-0.11L0.301,-0.11C0.36,-0.11 0.406,-0.12 0.44,-0.139C0.474,-0.158 0.498,-0.185 0.513,-0.221C0.528,-0.256 0.535,-0.299 0.535,-0.35C0.535,-0.4 0.528,-0.443 0.513,-0.479C0.498,-0.515 0.474,-0.543 0.44,-0.562C0.406,-0.581 0.36,-0.591 0.301,-0.591L0.196,-0.591L0.196,-0.11Z" style="fill-rule:nonzero;"/>
        </g>
        <g transform="matrix(12,0,0,12,19.7734,10.928)">
            <path d="M0.306,0.012C0.256,0.012 0.212,0.001 0.173,-0.02C0.134,-0.041 0.104,-0.071 0.082,-0.11C0.06,-0.149 0.049,-0.193 0.049,-0.244C0.049,-0.295 0.06,-0.341 0.082,-0.381C0.103,-0.421 0.133,-0.452 0.172,-0.475C0.21,-0.497 0.255,-0.508 0.307,-0.508C0.356,-0.508 0.399,-0.497 0.436,-0.476C0.473,-0.455 0.502,-0.426 0.524,-0.389C0.545,-0.352 0.555,-0.31 0.555,-0.265C0.555,-0.258 0.555,-0.25 0.555,-0.242C0.554,-0.234 0.554,-0.226 0.553,-0.217L0.176,-0.217C0.179,-0.178 0.192,-0.148 0.217,-0.126C0.241,-0.104 0.27,-0.093 0.305,-0.093C0.331,-0.093 0.353,-0.099 0.371,-0.111C0.388,-0.122 0.401,-0.137 0.41,-0.156L0.54,-0.156C0.531,-0.125 0.515,-0.096 0.494,-0.071C0.472,-0.045 0.445,-0.025 0.414,-0.01C0.382,0.005 0.346,0.012 0.306,0.012ZM0.307,-0.404C0.276,-0.404 0.248,-0.395 0.224,-0.378C0.2,-0.36 0.185,-0.333 0.178,-0.297L0.425,-0.297C0.423,-0.33 0.411,-0.356 0.389,-0.375C0.367,-0.394 0.34,-0.404 0.307,-0.404Z" style="fill-rule:nonzero;"/>
        </g>
        <g transform="matrix(12,0,0,12,26.9494,10.928)">
            <path d="M0.27,0.012C0.226,0.012 0.187,0.005 0.154,-0.01C0.121,-0.024 0.094,-0.044 0.074,-0.069C0.054,-0.094 0.042,-0.124 0.038,-0.157L0.167,-0.157C0.171,-0.138 0.182,-0.121 0.2,-0.108C0.217,-0.094 0.24,-0.087 0.268,-0.087C0.296,-0.087 0.317,-0.093 0.33,-0.104C0.343,-0.115 0.349,-0.128 0.349,-0.143C0.349,-0.164 0.34,-0.179 0.321,-0.187C0.302,-0.194 0.276,-0.202 0.243,-0.209C0.222,-0.214 0.2,-0.219 0.178,-0.226C0.156,-0.233 0.136,-0.241 0.118,-0.252C0.099,-0.262 0.084,-0.275 0.073,-0.292C0.062,-0.308 0.056,-0.328 0.056,-0.352C0.056,-0.396 0.074,-0.433 0.109,-0.463C0.143,-0.493 0.193,-0.508 0.256,-0.508C0.315,-0.508 0.362,-0.494 0.397,-0.467C0.432,-0.44 0.452,-0.402 0.459,-0.354L0.338,-0.354C0.331,-0.391 0.303,-0.409 0.255,-0.409C0.231,-0.409 0.213,-0.404 0.2,-0.395C0.187,-0.386 0.18,-0.374 0.18,-0.36C0.18,-0.345 0.19,-0.334 0.209,-0.325C0.228,-0.316 0.254,-0.308 0.286,-0.301C0.321,-0.293 0.353,-0.284 0.382,-0.275C0.411,-0.265 0.434,-0.251 0.451,-0.232C0.468,-0.213 0.477,-0.185 0.477,-0.15C0.478,-0.119 0.47,-0.092 0.453,-0.067C0.436,-0.042 0.412,-0.023 0.381,-0.009C0.35,0.005 0.313,0.012 0.27,0.012Z" style="fill-rule:nonzero;"/>
        </g>
        <g transform="matrix(12,0,0,12,33.2494,10.928)">
            <path d="M0.134,-0.573C0.111,-0.573 0.092,-0.58 0.077,-0.594C0.062,-0.608 0.054,-0.626 0.054,-0.647C0.054,-0.668 0.062,-0.686 0.077,-0.7C0.092,-0.713 0.111,-0.72 0.134,-0.72C0.157,-0.72 0.177,-0.713 0.192,-0.7C0.206,-0.686 0.214,-0.668 0.214,-0.647C0.214,-0.626 0.206,-0.608 0.192,-0.594C0.177,-0.58 0.157,-0.573 0.134,-0.573ZM0.07,-0L0.07,-0.496L0.198,-0.496L0.198,-0L0.07,-0Z" style="fill-rule:nonzero;"/>
        </g>
        <g transform="matrix(12,0,0,12,36.4534,10.928)">
            <path d="M0.332,0.232C0.29,0.232 0.25,0.225 0.211,0.211C0.172,0.197 0.14,0.175 0.113,0.146C0.086,0.117 0.07,0.079 0.065,0.032L0.192,0.032C0.198,0.06 0.214,0.082 0.239,0.098C0.264,0.113 0.294,0.121 0.329,0.121C0.367,0.121 0.4,0.109 0.428,0.086C0.455,0.062 0.469,0.025 0.469,-0.024L0.469,-0.086C0.454,-0.062 0.433,-0.041 0.405,-0.024C0.376,-0.006 0.341,0.003 0.298,0.003C0.251,0.003 0.208,-0.008 0.171,-0.031C0.134,-0.054 0.104,-0.084 0.082,-0.123C0.06,-0.161 0.049,-0.204 0.049,-0.253C0.049,-0.302 0.06,-0.345 0.082,-0.384C0.104,-0.422 0.134,-0.452 0.172,-0.475C0.209,-0.497 0.251,-0.508 0.298,-0.508C0.336,-0.508 0.37,-0.5 0.399,-0.485C0.428,-0.469 0.452,-0.449 0.469,-0.426L0.482,-0.496L0.597,-0.496L0.597,-0.031C0.597,0.026 0.585,0.075 0.561,0.114C0.537,0.153 0.505,0.182 0.465,0.202C0.424,0.222 0.38,0.232 0.332,0.232ZM0.324,-0.108C0.352,-0.108 0.377,-0.114 0.399,-0.127C0.42,-0.14 0.437,-0.157 0.45,-0.179C0.462,-0.201 0.468,-0.225 0.468,-0.252C0.468,-0.294 0.455,-0.329 0.428,-0.356C0.401,-0.383 0.367,-0.396 0.324,-0.396C0.281,-0.396 0.247,-0.383 0.22,-0.356C0.193,-0.329 0.18,-0.294 0.18,-0.253C0.18,-0.226 0.186,-0.201 0.198,-0.179C0.21,-0.157 0.227,-0.14 0.249,-0.127C0.27,-0.114 0.295,-0.108 0.324,-0.108Z" style="fill-rule:nonzero;"/>
        </g>
        <g transform="matrix(12,0,0,12,44.4094,10.928)">
            <path d="M0.065,-0L0.065,-0.496L0.178,-0.496L0.188,-0.412C0.203,-0.441 0.226,-0.465 0.255,-0.482C0.284,-0.499 0.318,-0.508 0.357,-0.508C0.418,-0.508 0.466,-0.489 0.5,-0.45C0.534,-0.411 0.551,-0.355 0.551,-0.28L0.551,-0L0.423,-0L0.423,-0.268C0.423,-0.311 0.414,-0.343 0.397,-0.366C0.38,-0.389 0.353,-0.4 0.316,-0.4C0.28,-0.4 0.251,-0.387 0.228,-0.362C0.205,-0.337 0.193,-0.301 0.193,-0.256L0.193,-0L0.065,-0Z" style="fill-rule:nonzero;"/>
        </g>
        <g transform="matrix(12,0,0,12,54.5614,10.928)">
            <path d="M0.293,0.012C0.246,0.012 0.205,0.001 0.168,-0.022C0.131,-0.045 0.102,-0.076 0.081,-0.115C0.06,-0.154 0.049,-0.199 0.049,-0.249C0.049,-0.299 0.06,-0.343 0.081,-0.383C0.102,-0.422 0.131,-0.452 0.168,-0.475C0.205,-0.497 0.246,-0.508 0.293,-0.508C0.33,-0.508 0.363,-0.501 0.391,-0.487C0.419,-0.473 0.442,-0.453 0.459,-0.428L0.466,-0.496L0.587,-0.496L0.587,-0L0.467,-0L0.459,-0.071C0.443,-0.049 0.422,-0.03 0.396,-0.013C0.369,0.004 0.335,0.012 0.293,0.012ZM0.32,-0.1C0.361,-0.1 0.395,-0.114 0.422,-0.142C0.448,-0.169 0.461,-0.205 0.461,-0.248C0.461,-0.291 0.448,-0.327 0.422,-0.355C0.395,-0.382 0.361,-0.396 0.32,-0.396C0.279,-0.396 0.246,-0.382 0.219,-0.355C0.192,-0.328 0.179,-0.292 0.179,-0.249C0.179,-0.206 0.192,-0.17 0.219,-0.142C0.246,-0.114 0.279,-0.1 0.32,-0.1Z" style="fill-rule:nonzero;"/>
        </g>
        <g transform="matrix(12,0,0,12,62.3854,10.928)">
            <path d="M0.286,-0C0.234,-0 0.192,-0.013 0.161,-0.038C0.13,-0.063 0.114,-0.108 0.114,-0.173L0.114,-0.389L0.029,-0.389L0.029,-0.496L0.114,-0.496L0.129,-0.629L0.242,-0.629L0.242,-0.496L0.376,-0.496L0.376,-0.389L0.242,-0.389L0.242,-0.172C0.242,-0.148 0.247,-0.132 0.258,-0.123C0.268,-0.114 0.286,-0.109 0.311,-0.109L0.373,-0.109L0.373,-0L0.286,-0Z" style="fill-rule:nonzero;"/>
        </g>
        <g transform="matrix(12,0,0,12,70.2934,10.928)">
            <path d="M0.338,0.012C0.287,0.012 0.24,0.002 0.199,-0.019C0.158,-0.039 0.125,-0.07 0.101,-0.111C0.076,-0.152 0.064,-0.205 0.064,-0.268L0.064,-0.7L0.192,-0.7L0.192,-0.267C0.192,-0.212 0.205,-0.172 0.232,-0.145C0.258,-0.118 0.294,-0.105 0.341,-0.105C0.387,-0.105 0.423,-0.118 0.45,-0.145C0.477,-0.172 0.49,-0.212 0.49,-0.267L0.49,-0.7L0.618,-0.7L0.618,-0.268C0.618,-0.205 0.605,-0.152 0.58,-0.111C0.555,-0.07 0.521,-0.039 0.479,-0.019C0.436,0.002 0.389,0.012 0.338,0.012Z" style="fill-rule:nonzero;"/>
        </g>
        <g transform="matrix(12,0,0,12,78.4654,10.928)">
            <path d="M0.385,0.012C0.314,0.012 0.254,-0.003 0.203,-0.034C0.152,-0.064 0.113,-0.106 0.086,-0.161C0.059,-0.215 0.045,-0.278 0.045,-0.349C0.045,-0.42 0.059,-0.483 0.086,-0.538C0.113,-0.593 0.152,-0.635 0.203,-0.666C0.254,-0.697 0.314,-0.712 0.385,-0.712C0.469,-0.712 0.538,-0.691 0.592,-0.65C0.645,-0.608 0.679,-0.549 0.692,-0.474L0.551,-0.474C0.542,-0.512 0.524,-0.542 0.496,-0.564C0.467,-0.585 0.43,-0.596 0.383,-0.596C0.318,-0.596 0.268,-0.574 0.231,-0.53C0.194,-0.486 0.176,-0.426 0.176,-0.349C0.176,-0.272 0.194,-0.212 0.231,-0.169C0.268,-0.125 0.318,-0.103 0.383,-0.103C0.43,-0.103 0.467,-0.113 0.496,-0.134C0.524,-0.154 0.542,-0.182 0.551,-0.218L0.692,-0.218C0.679,-0.146 0.645,-0.09 0.592,-0.049C0.538,-0.008 0.469,0.012 0.385,0.012Z" style="fill-rule:nonzero;"/>
        </g>
        <g transform="matrix(12,0,0,12,87.3094,10.928)">
            <rect x="0.068" y="-0.7" width="0.128" height="0.7" style="fill-rule:nonzero;"/>
        </g>
    </g>
</svg>
