<svg clip-rule="evenodd" fill-rule="evenodd" stroke-linejoin="round" stroke-miterlimit="2" viewBox="0 0 100 200" xmlns="http://www.w3.org/2000/svg"><path d="m360 155c0-9.177-3.532-17.53-9.311-23.772-17.846-12.997-32.591 45.796-25.688 55.34 6.641 0 11.381-.396 18.14-1.63 10.107-6.138 16.859-17.249 16.859-29.938z" fill="#41c2ff" transform="matrix(1.42856875 0 0 1.42856875 -414.2856875 -171.42875)"/><path d="m320.345 150.001s21.558-24.172 18.062-27.341c-4.129-1.714-8.658-2.66-13.407-2.66h-35l.001 30.001z" fill="#ffcc45" transform="matrix(1.42856875 0 0 1.42856875 -414.2856875 -171.42875)"/><path d="m322.286 482.574 34.571-19.531c3.28 1.361 6.208 3.399 8.608 5.942l.169.18-33.341 41.98h-10.007z" fill="#fc593d" transform="matrix(2.00000625 0 0 2.00000625 -644.571875 -922.293125)"/><path d="m336.534 510.312 16.704-25.6 7.664-9.672c-9.004 11.223-8.867 31.51-.658 32.489-3.779 2.295-8.214 3.616-12.958 3.616h-3.411z" transform="matrix(2.00000625 0 0 2.00000625 -644.571875 -922.293125)"/><path d="m352.993 173.199c22.929-13.762 31.968-15.118 37.007-12.973v-16.717s-17.421 13.977-37.007 29.69z" fill="#fff" transform="matrix(0 1.42856875 1.42856875 0 -185.71375 -457.144)"/><circle cx="25.2485301125" cy="59.16667966875" r="9.16588824375" stroke-width="1.85206875"/><path d="m97.016 495.52-.002-27.855h32.497c4.408 0 8.61.877 12.443 2.467.066.028.133.056.199.084 4.236 1.807 8.063 4.523 11.21 7.874 5.365 5.796 8.645 13.551 8.645 22.072 0 11.781-6.269 22.098-15.653 27.796h.001c-4.912 2.984-10.676 4.701-16.843 4.701h-4.434l-.007-.001h.007c-1.923-4.517-.816-12.497 10.764-32.203l1.117-1.712-26.936 33.916h-13.008zm48.413-17.27c-1.286-.926-3.245-2.028-3.245-2.028-13.25 7.487-26.501 14.973-39.752 22.459v28.562h4.977l38.578-48.575c-.151-.116-.303-.23-.456-.343l-.049-.036zm4.518 4.141-4.08 5.137c-8.207 11.802-9.531 29.603-4.589 37.032 9.063-4.379 15.315-13.658 15.315-24.398 0-6.8-2.507-13.015-6.646-17.771zm-14.406-8.636c-1.939-.441-3.957-.674-6.029-.674-13.541 0-27.081 0-27.081 0v19.379z" transform="matrix(1.53861 0 0 1.53861 -149.267 -619.554)"/><circle cx="24.22058542" cy="159.89896693" r="8.74928761" stroke-width="1.76789"/></svg>