<?xml version="1.0" encoding="UTF-8" standalone="no"?>
<!DOCTYPE svg PUBLIC "-//W3C//DTD SVG 1.1//EN" "http://www.w3.org/Graphics/SVG/1.1/DTD/svg11.dtd">
<svg width="100%" height="100%" viewBox="0 0 100 200" version="1.1" xmlns="http://www.w3.org/2000/svg" xmlns:xlink="http://www.w3.org/1999/xlink" xml:space="preserve" xmlns:serif="http://www.serif.com/" style="fill-rule:evenodd;clip-rule:evenodd;stroke-linejoin:round;stroke-miterlimit:2;">
    <g transform="matrix(0.3479,0,0,0.3479,-128.292,-77.2097)">
        <g transform="matrix(2.46095,0,0,2.46095,209.538,98.3921)">
            <path d="M150.9,150.6C173,149.9 181.5,135.4 181.5,135.4C181.5,103.2 167.1,77.1 167.1,77.1C152.7,66.3 139,66.6 139,66.6L137.6,68.2C154.6,73.4 162.5,80.9 162.5,80.9C152.1,75.2 141.9,72.4 132.4,71.3C125.2,70.5 118.3,70.7 112.2,71.5C111.6,71.5 111.1,71.6 110.5,71.7C107,72 98.5,73.3 87.8,78C84.1,79.7 81.9,80.9 81.9,80.9C81.9,80.9 90.2,73 108.2,67.8L107.2,66.6C107.2,66.6 93.5,66.3 79.1,77.1C79.1,77.1 64.7,103.2 64.7,135.4C64.7,135.4 73.1,149.9 95.2,150.6C95.2,150.6 98.9,146.1 101.9,142.3C89.2,138.5 84.4,130.5 84.4,130.5C84.4,130.5 85.4,131.2 87.2,132.2C87.3,132.3 87.4,132.4 87.6,132.5C87.9,132.7 88.2,132.8 88.5,133C91,134.4 93.5,135.5 95.8,136.4C99.9,138 104.8,139.6 110.5,140.7C118,142.1 126.8,142.6 136.4,140.8C141.1,140 145.9,138.6 150.9,136.5C154.4,135.2 158.3,133.3 162.4,130.6C162.4,130.6 157.4,138.8 144.3,142.5C147.3,146.3 150.9,150.6 150.9,150.6ZM104.4,103.9C98.7,103.9 94.2,108.9 94.2,115C94.2,121.1 98.8,126.1 104.4,126.1C110.1,126.1 114.6,121.1 114.6,115C114.7,108.9 110.1,103.9 104.4,103.9ZM140.9,103.9C135.2,103.9 130.7,108.9 130.7,115C130.7,121.1 135.3,126.1 140.9,126.1C146.6,126.1 151.1,121.1 151.1,115C151.1,108.9 146.6,103.9 140.9,103.9Z"/>
        </g>
        <g transform="matrix(2.46095,0,0,2.46095,209.538,385.831)">
            <path d="M150.9,150.6C173,149.9 181.5,135.4 181.5,135.4C181.5,103.2 167.1,77.1 167.1,77.1C152.7,66.3 139,66.6 139,66.6L137.6,68.2C154.6,73.4 162.5,80.9 162.5,80.9C152.1,75.2 141.9,72.4 132.4,71.3C125.2,70.5 118.3,70.7 112.2,71.5C111.6,71.5 111.1,71.6 110.5,71.7C107,72 98.5,73.3 87.8,78C84.1,79.7 81.9,80.9 81.9,80.9C81.9,80.9 90.2,73 108.2,67.8L107.2,66.6C107.2,66.6 93.5,66.3 79.1,77.1C79.1,77.1 64.7,103.2 64.7,135.4C64.7,135.4 73.1,149.9 95.2,150.6C95.2,150.6 98.9,146.1 101.9,142.3C89.2,138.5 84.4,130.5 84.4,130.5C84.4,130.5 85.4,131.2 87.2,132.2C87.3,132.3 87.4,132.4 87.6,132.5C87.9,132.7 88.2,132.8 88.5,133C91,134.4 93.5,135.5 95.8,136.4C99.9,138 104.8,139.6 110.5,140.7C118,142.1 126.8,142.6 136.4,140.8C141.1,140 145.9,138.6 150.9,136.5C154.4,135.2 158.3,133.3 162.4,130.6C162.4,130.6 157.4,138.8 144.3,142.5C147.3,146.3 150.9,150.6 150.9,150.6ZM104.4,103.9C98.7,103.9 94.2,108.9 94.2,115C94.2,121.1 98.8,126.1 104.4,126.1C110.1,126.1 114.6,121.1 114.6,115C114.7,108.9 110.1,103.9 104.4,103.9ZM140.9,103.9C135.2,103.9 130.7,108.9 130.7,115C130.7,121.1 135.3,126.1 140.9,126.1C146.6,126.1 151.1,121.1 151.1,115C151.1,108.9 146.6,103.9 140.9,103.9Z" style="fill:rgb(122,122,141);"/>
        </g>
    </g>
</svg>
