<svg enable-background="new 0 0 500 300" viewBox="0 0 500 300" xmlns="http://www.w3.org/2000/svg"><path clip-rule="evenodd" d="m0 0h500v300h-500z" fill="#fff" fill-rule="evenodd"/><path clip-rule="evenodd" d="m410.3 50.4c-24.3 0-38.4 19.7-31.5 44.1 6.9 24.3 32.3 44.1 56.6 44.1s49.7 19.7 56.6 44.1c6.9 24.3-7.2 44.1-31.5 44.1" fill="none" stroke="#ffcc45" stroke-miterlimit="10" stroke-width="2"/><path clip-rule="evenodd" d="m48 48.5h-15.2c-7.4 0-13.4 6-13.4 13.4 0 6.2 4.2 11.4 10 12.9v7.9l11.3-7.4h7.3c7.4 0 13.4-6 13.4-13.4-.1-7.4-6.1-13.4-13.4-13.4z" fill="none" stroke="#01b7ff" stroke-miterlimit="10" stroke-width="2"/><path clip-rule="evenodd" d="m104.8 57.3h190.1l96.2 176.5h-190z" fill="#ff593d" fill-rule="evenodd"/><path clip-rule="evenodd" d="m104.8 41h190.1l18 33.1h-190z" fill="#ffcc45" fill-rule="evenodd"/><path d="m312.9 75.1h-190c-.4 0-.7-.2-.9-.5l-18-33.1c-.2-.3-.2-.7 0-1s.5-.5.9-.5h190c.4 0 .7.2.9.5l18 33.1c.2.3.2.7 0 1s-.5.5-.9.5zm-189.4-2h187.8l-17-31.1h-187.8z" fill="#ffcc45"/><path clip-rule="evenodd" d="m125.9 79.6h54.3l18 33.1h-54.3z" fill="#ffcc45" fill-rule="evenodd"/><path d="m198.2 113.7h-54.3c-.4 0-.7-.2-.9-.5l-18-33.1c-.2-.3-.2-.7 0-1s.5-.5.9-.5h54.3c.4 0 .7.2.9.5l18 33.1c.2.3.2.7 0 1s-.5.5-.9.5zm-53.7-2h52l-17-31.1h-52z" fill="#ffcc45"/><path clip-rule="evenodd" d="m187 79.6h128.9l9.1 16.6h-129z" fill="#ffcc45" fill-rule="evenodd"/><path d="m325 97.2h-129c-.4 0-.7-.2-.9-.5l-9-16.5c-.2-.3-.2-.7 0-1s.5-.5.9-.5h129c.4 0 .7.2.9.5l9 16.5c.2.3.2.7 0 1-.3.3-.6.5-.9.5zm-128.4-2h126.7l-7.9-14.5h-126.7z" fill="#ffcc45"/><path clip-rule="evenodd" d="m199 101.7h88.2l24.1 44.1h-88.2z" fill="#ffcc45" fill-rule="evenodd"/><path d="m311.3 146.8h-88.2c-.4 0-.7-.2-.9-.5l-24.1-44.1c-.2-.3-.2-.7 0-1s.5-.5.9-.5h88.2c.4 0 .7.2.9.5l24.1 44.1c.2.3.2.7 0 1s-.5.5-.9.5zm-87.6-2h86l-23-42.1h-86z" fill="#ffcc45"/><path clip-rule="evenodd" d="m226.1 151.3h88.2l9 16.6h-88.2z" fill="#ffcc45" fill-rule="evenodd"/><path d="m323.3 168.9h-88.2c-.4 0-.7-.2-.9-.5l-9-16.5c-.2-.3-.2-.7 0-1s.5-.5.9-.5h88.2c.4 0 .7.2.9.5l9 16.5c.2.3.2.7 0 1s-.5.5-.9.5zm-87.6-2h86l-7.9-14.5h-86z" fill="#ffcc45"/><path clip-rule="evenodd" d="m238.1 173.4h88.2l15.1 27.5h-88.3z" fill="#ffcc45" fill-rule="evenodd"/><path d="m341.4 201.9h-88.2c-.4 0-.7-.2-.9-.5l-15-27.6c-.2-.3-.2-.7 0-1s.5-.5.9-.5h88.2c.4 0 .7.2.9.5l15 27.6c.2.3.2.7 0 1-.2.4-.6.5-.9.5zm-87.7-2h86l-13.9-25.6h-86z" fill="#ffcc45"/><path clip-rule="evenodd" d="m113.1 27.2h149.3l6.1 11.1h-149.4z" fill="#fff" fill-rule="evenodd"/><path d="m268.5 39.3h-149.4c-.4 0-.7-.2-.9-.5l-6-11c-.2-.3-.2-.7 0-1s.5-.5.9-.5h149.3c.4 0 .7.2.9.5l6 11c.2.3.2.7 0 1s-.5.5-.8.5zm-148.8-2h147l-4.9-9h-147z" fill="#ff593d"/><path clip-rule="evenodd" d="m275.5 27.2h14.6l6 11.1h-14.6z" fill="#fff" fill-rule="evenodd"/><path d="m296.1 39.3h-14.6c-.4 0-.7-.2-.9-.5l-6-11c-.2-.3-.2-.7 0-1s.5-.5.9-.5h14.6c.4 0 .7.2.9.5l6 11c.2.3.2.7 0 1s-.5.5-.9.5zm-14-2h12.3l-4.9-9h-12.3z" fill="#ff593d"/><path clip-rule="evenodd" d="m185.5 60.3h27.1l9 16.6h-27.1z" fill="#fff" fill-rule="evenodd"/><path d="m221.6 77.9h-27.1c-.4 0-.7-.2-.9-.5l-9-16.5c-.2-.3-.2-.7 0-1s.5-.5.9-.5h27.1c.4 0 .7.2.9.5l9 16.5c.2.3.2.7 0 1s-.5.5-.9.5zm-26.5-2h24.9l-8-14.6h-24.9z" fill="#ff593d"/><path clip-rule="evenodd" d="m256 49h27.2l9 16.6h-27.1z" fill="#ff593d" fill-rule="evenodd"/><path d="m289.2 66.6h-2c-.6 0-1-.4-1-1 0-.5.5-1 1-1h2c.6 0 1 .5 1 1s-.4 1-1 1zm-7 0h-2c-.5 0-1-.4-1-1 0-.5.4-1 1-1h2c.5 0 1 .5 1 1s-.4 1-1 1zm-7 0h-2c-.6 0-1-.4-1-1 0-.5.5-1 1-1h2c.6 0 1 .5 1 1s-.4 1-1 1zm-7 0h-2c-.5 0-1-.4-1-1 0-.5.5-1 1-1h2c.5 0 1 .5 1 1s-.4 1-1 1zm23.1-1.8c-.4 0-.7-.2-.9-.5l-1-1.7c-.1-.1-.1-.3-.1-.5 0-.4.2-.7.5-.9.5-.2 1.1-.1 1.4.4l1 1.8c.3.5.1 1.1-.4 1.4-.2 0-.4 0-.5 0zm-28.1-1.6c-.4 0-.7-.2-.9-.5l-1-1.8c-.1-.2-.2-.5-.1-.8.1-.2.2-.5.5-.6.5-.3 1.1-.1 1.4.4l1 1.8c.1.2.1.3.1.5 0 .4-.2.7-.5.9-.1.1-.3.1-.5.1zm24.7-4.5c-.4 0-.7-.2-.9-.5l-1-1.8c-.1-.1-.1-.3-.1-.5 0-.4.2-.7.5-.9.5-.3 1.1-.1 1.4.4l1 1.8c.3.5.1 1.1-.4 1.4-.2 0-.3.1-.5.1zm-28-1.7c-.4 0-.7-.2-.9-.5l-.9-1.8c-.3-.5-.1-1.1.4-1.4.5-.2 1.1-.1 1.4.4l1 1.8c.1.1.1.3.1.5 0 .4-.2.7-.5.9-.3.1-.5.1-.6.1zm24.7-4.5c-.4 0-.7-.2-.9-.5l-1-1.8c-.1-.1-.1-.3-.1-.5 0-.4.2-.7.5-.9.5-.3 1.1-.1 1.4.4l1 1.8c.3.5.1 1.1-.4 1.4-.2.1-.4.1-.5.1zm-28.1-1.6c-.4 0-.7-.2-.9-.5l-.5-.9c-.2-.3-.2-.7 0-1s.5-.5.9-.5h2c.5 0 1 .4 1 1 0 .5-.5 1-1 1h-.5c0 .3-.2.6-.5.8-.2.1-.3.1-.5.1zm22.5-.9h-2c-.5 0-1-.5-1-1 0-.6.5-1 1-1h2c.5 0 1 .4 1 1s-.4 1-1 1zm-7 0h-2c-.5 0-1-.5-1-1 0-.6.5-1 1-1h2c.5 0 1 .4 1 1s-.4 1-1 1zm-7 0h-2c-.5 0-1-.5-1-1 0-.6.5-1 1-1h2c.5 0 1 .4 1 1s-.4 1-1 1z" fill="#fff"/><path clip-rule="evenodd" d="m197.5 82.4h47.5l15 27.6h-47.5z" fill="#fff" fill-rule="evenodd"/><path d="m260 111h-47.5c-.4 0-.7-.2-.9-.5l-15-27.6c-.2-.3-.2-.7 0-1s.5-.5.9-.5h47.5c.4 0 .7.2.9.5l15 27.6c.2.3.2.7 0 1s-.5.5-.9.5zm-46.9-2h45.2l-13.9-25.6h-45.2z" fill="#ff593d"/><path clip-rule="evenodd" d="m215.5 115.5h88.3l6 11h-88.2z" fill="#fff" fill-rule="evenodd"/><path d="m309.8 127.5h-88.2c-.4 0-.7-.2-.9-.5l-6-11c-.2-.3-.2-.7 0-1s.5-.5.9-.5h88.2c.4 0 .7.2.9.5l6 11c.2.3.2.7 0 1s-.6.5-.9.5zm-87.6-2h86l-4.9-9h-86z" fill="#ff593d"/><path clip-rule="evenodd" d="m236.6 154.1h88.2l6 11h-88.2z" fill="#fff" fill-rule="evenodd"/><path d="m330.8 166.1h-88.2c-.4 0-.7-.2-.9-.5l-6-11c-.2-.3-.2-.7 0-1s.5-.5.9-.5h88.2c.4 0 .7.2.9.5l6 11c.2.3.2.7 0 1s-.5.5-.9.5zm-87.6-2h86l-4.9-9h-86z" fill="#ff593d"/><path clip-rule="evenodd" d="m293.1 170.6h40.8l3 5.5h-40.8z" fill="#fff" fill-rule="evenodd"/><path d="m336.9 177.1h-40.7c-.4 0-.7-.2-.9-.5l-3-5.5c-.2-.3-.2-.7 0-1s.5-.5.9-.5h40.7c.4 0 .7.2.9.5l3 5.5c.2.3.2.7 0 1-.3.3-.6.5-.9.5zm-40.2-2h38.4l-1.9-3.5h-38.4z" fill="#ff593d"/><path clip-rule="evenodd" d="m224.6 132h40.7l3 5.5h-40.7z" fill="#01b7ff" fill-rule="evenodd"/><path d="m268.3 138.5h-40.7c-.4 0-.7-.2-.9-.5l-3-5.5c-.2-.3-.2-.7 0-1s.5-.5.9-.5h40.7c.4 0 .7.2.9.5l3 5.5c.2.3.2.7 0 1s-.6.5-.9.5zm-40.1-2h38.4l-1.9-3.5h-38.4z" fill="#fff"/><path clip-rule="evenodd" d="m124.4 60.3h54.3l9 16.6h-54.3z" fill="#01b7ff" fill-rule="evenodd"/><path d="m187.7 77.9h-54.3c-.4 0-.7-.2-.9-.5l-9-16.5c-.2-.3-.2-.7 0-1s.5-.5.9-.5h54.3c.4 0 .7.2.9.5l9 16.5c.2.3.2.7 0 1s-.5.5-.9.5zm-53.7-2h52l-7.9-14.5h-52z" fill="#fff"/><path clip-rule="evenodd" d="m281.3 32.2h27v27h-27z" fill="#01b7ff" fill-rule="evenodd"/><path d="m308.4 59.9h-27c-.3 0-.6-.3-.6-.6v-27c0-.3.3-.6.6-.6h27c.3 0 .6.3.6.6v27c0 .3-.3.6-.6.6zm-26.5-1.2h25.8v-25.9h-25.8z" fill="#fff"/><path clip-rule="evenodd" d="m308.9 49.6c1-.3 2 .3 2.2 1.3.4 1.5.5 3.1.4 4.6l-.2 2.6c0 .2 0 .5.1.7l.4 1.4-7.9 2.1-.4-1.4c0-.1-.1-.2-.2-.3l-3.2-1.6c-.6-.3-1-.8-1.2-1.5-.3-1.2.4-2.5 1.6-2.9l.4-.1-.6-2.3c-.3-1 .2-2 1.1-2.5.5-.3 1.1-.2 1.7 0 .3-.4.6-.6 1.1-.7.6-.2 1.2 0 1.7.3.2-.2.5-.4.9-.5.9-.2 1.7.1 2.2.8-.1.1-.1.1-.1 0z" fill="#fff" fill-rule="evenodd"/><path d="m303.4 63-.5-1.9-3.1-1.5c-.8-.4-1.3-1.1-1.5-1.9-.4-1.5.4-3 1.9-3.5l-.5-1.8c-.3-1.3.2-2.6 1.4-3.2.6-.3 1.2-.3 1.7-.2.3-.3.7-.5 1.1-.6.6-.2 1.2-.1 1.8.1.2-.2.5-.3.8-.4.9-.3 1.9 0 2.6.7 1.2-.2 2.4.6 2.7 1.8.4 1.6.6 3.2.4 4.8l-.2 2.6c0 .1 0 .3.1.5l.5 1.9zm-1.2-12.8c-.2 0-.4 0-.6.1-.6.3-1 1-.8 1.8l.8 2.9-1 .3c-.9.2-1.5 1.2-1.2 2.1.1.5.5.9.9 1.1l3.2 1.6c.3.1.5.4.6.7l.2.8 6.7-1.8-.2-.8c-.1-.3-.1-.6-.1-.9l.2-2.6c.1-1.5 0-3-.4-4.4-.2-.6-.9-1-1.5-.9l-.5.2-.3-.4c-.3-.5-1-.7-1.6-.6-.2.1-.4.2-.6.3l-.3.3-.4-.3c-.3-.2-.8-.3-1.2-.2-.3.1-.6.3-.8.5l-.3.4-.4-.2c0 .1-.2 0-.4 0z"/><path d="m305.7 57.8c-.3 0-.5-.2-.6-.4l-1.1-4c-.1-.3.1-.7.4-.7.3-.1.7.1.7.4l1.1 4c.1.3-.1.7-.4.7 0 0 0 0-.1 0z"/><path d="m308.4 57.2c-.3 0-.5-.2-.6-.5l-.6-3.6c-.1-.3.2-.6.5-.7s.6.2.7.5l.6 3.6c.1.3-.2.6-.5.7 0-.1-.1 0-.1 0z"/><path clip-rule="evenodd" d="m192.5 218.1h190.1l27.9 51.2h-190z" fill="#ffcc45" fill-rule="evenodd"/><circle clip-rule="evenodd" cx="104.4" cy="104" fill="#fff" fill-rule="evenodd" r="6.1"/><path d="m104.4 110.7c-1.2 0-2.3-.3-3.4-.9-3.2-1.9-4.3-6-2.5-9.2 1.9-3.2 6-4.3 9.2-2.5 1.6.9 2.7 2.4 3.1 4.1.5 1.7.2 3.6-.7 5.1-.9 1.6-2.4 2.7-4.1 3.1-.4.2-1 .3-1.6.3zm.1-12.3c-.5 0-1 .1-1.4.2-1.4.4-2.6 1.3-3.4 2.6-1.5 2.6-.6 6 2 7.6 1.3.7 2.8.9 4.2.6 1.4-.4 2.6-1.3 3.4-2.6.7-1.3.9-2.8.6-4.2-.4-1.4-1.3-2.6-2.6-3.4-.9-.5-1.9-.8-2.8-.8z"/><path clip-rule="evenodd" d="m100.2 108.6 2.4 1.4-2.2 3.8c-.2.3-.5.5-.8.6s-.7 0-1-.1c-.3-.2-.5-.5-.6-.8s0-.7.1-1c.8-1.6 2.1-3.9 2.1-3.9z" fill-rule="evenodd"/><path d="m103.5 100.6h1.8v6.8h-1.8z"/><path d="m101 103.1h6.8v1.8h-6.8z"/><g clip-rule="evenodd"><path d="m57.9 200.8h35.3c17.2 0 31.2-14 31.2-31.2 0-17.2-14-31.2-31.2-31.2h-35.3c-17.2 0-31.2 14-31.2 31.2 0 17.2 14 31.2 31.2 31.2z" fill="#01b7ff" fill-rule="evenodd"/><circle cx="96.8" cy="170.6" fill="#fff" fill-rule="evenodd" r="4"/><circle cx="75.6" cy="170.6" fill="#fff" fill-rule="evenodd" r="4"/><circle cx="54.3" cy="170.6" fill="#fff" fill-rule="evenodd" r="4"/><path d="m50 196.7v21.4l32.6-21.4z" fill="#01b7ff" fill-rule="evenodd"/><circle cx="381.6" cy="104.8" fill="#01b7ff" fill-rule="evenodd" r="3"/><path d="m383.6 103.8h12.3l3.1-5.4-3.1-5.3h-6.1z" fill="#fff" fill-rule="evenodd" stroke="#000" stroke-miterlimit="10"/><circle cx="392.8" cy="98.4" fill-rule="evenodd" r="1.6"/><path d="m383.6 103.8 9.2-5.4" fill="#fff" fill-rule="evenodd" stroke="#000" stroke-miterlimit="10"/><path d="m393.8 93.4h10v3.1h-10z" fill="#fff" fill-rule="evenodd" stroke="#000" stroke-miterlimit="10" transform="matrix(-.5 -.866 .866 -.5 515.9761 487.8443)"/><path d="m365.8 77.2h4v4h-4z" fill="#01b7ff" fill-rule="evenodd"/><path d="m393.9 128.8h4v4h-4z" fill="#01b7ff" fill-rule="evenodd"/><path d="m367.8 78.8 28.1 52" fill="none" stroke="#01b7ff" stroke-linecap="round" stroke-miterlimit="10" stroke-width="2"/><circle cx="410.3" cy="50.4" fill="#ffcc45" fill-rule="evenodd" r="2.5"/><circle cx="460.7" cy="226.7" fill="#ffcc45" fill-rule="evenodd" r="2.5"/></g></svg>