<?xml version="1.0" encoding="utf-8"?>
<!-- Generator: Adobe Illustrator 24.0.1, SVG Export Plug-In . SVG Version: 6.00 Build 0)  -->
<svg version="1.1" id="Layer_1" xmlns:serif="http://www.serif.com/"
	 xmlns="http://www.w3.org/2000/svg" xmlns:xlink="http://www.w3.org/1999/xlink" x="0px" y="0px" viewBox="0 0 500 300"
	 style="enable-background:new 0 0 500 300;" xml:space="preserve">
<style type="text/css">
	.st0{fill-rule:evenodd;clip-rule:evenodd;fill:#FFFFFF;}
	.st1{fill-rule:evenodd;clip-rule:evenodd;fill:none;stroke:#FFCC45;stroke-width:2;stroke-miterlimit:10;}
	.st2{fill-rule:evenodd;clip-rule:evenodd;fill:none;stroke:#01B7FF;stroke-width:2;stroke-miterlimit:10;}
	.st3{fill-rule:evenodd;clip-rule:evenodd;fill:#FF593D;}
	.st4{fill-rule:evenodd;clip-rule:evenodd;fill:#FFCC45;}
	.st5{fill:#FFCC45;}
	.st6{fill:#FF593D;}
	.st7{fill:#FFFFFF;}
	.st8{fill-rule:evenodd;clip-rule:evenodd;fill:#01B7FF;}
	.st9{fill-rule:evenodd;clip-rule:evenodd;}
	.st10{fill-rule:evenodd;clip-rule:evenodd;fill:#FFFFFF;stroke:#000000;stroke-miterlimit:10;}
	.st11{fill-rule:evenodd;clip-rule:evenodd;fill:none;stroke:#01B7FF;stroke-width:2;stroke-linecap:round;stroke-miterlimit:10;}
</style>
<rect class="st0" width="500" height="300"/>
<path class="st1" d="M410.3,50.4c-24.3,0-38.4,19.7-31.5,44.1c6.9,24.3,32.3,44.1,56.6,44.1s49.7,19.7,56.6,44.1
	c6.9,24.3-7.2,44.1-31.5,44.1"/>
<path class="st2" d="M48,48.5H32.8c-7.4,0-13.4,6-13.4,13.4v0c0,6.2,4.2,11.4,10,12.9v7.9l11.3-7.4H48c7.4,0,13.4-6,13.4-13.4v0
	C61.3,54.5,55.3,48.5,48,48.5z"/>
<polygon class="st3" points="104.8,57.3 294.9,57.3 391.1,233.8 201.1,233.8 "/>
<polygon class="st4" points="104.8,41 294.9,41 312.9,74.1 122.9,74.1 "/>
<path class="st5" d="M312.9,75.1h-190c-0.4,0-0.7-0.2-0.9-0.5l-18-33.1c-0.2-0.3-0.2-0.7,0-1c0.2-0.3,0.5-0.5,0.9-0.5h190
	c0.4,0,0.7,0.2,0.9,0.5l18,33.1c0.2,0.3,0.2,0.7,0,1C313.6,74.9,313.3,75.1,312.9,75.1z M123.5,73.1h187.8l-17-31.1H106.5
	L123.5,73.1z"/>
<polygon class="st4" points="125.9,79.6 180.2,79.6 198.2,112.7 143.9,112.7 "/>
<path class="st5" d="M198.2,113.7h-54.3c-0.4,0-0.7-0.2-0.9-0.5l-18-33.1c-0.2-0.3-0.2-0.7,0-1c0.2-0.3,0.5-0.5,0.9-0.5h54.3
	c0.4,0,0.7,0.2,0.9,0.5l18,33.1c0.2,0.3,0.2,0.7,0,1C198.9,113.5,198.6,113.7,198.2,113.7z M144.5,111.7h52l-17-31.1h-52
	L144.5,111.7z"/>
<polygon class="st4" points="187,79.6 315.9,79.6 325,96.2 196,96.2 "/>
<path class="st5" d="M325,97.2H196c-0.4,0-0.7-0.2-0.9-0.5l-9-16.5c-0.2-0.3-0.2-0.7,0-1c0.2-0.3,0.5-0.5,0.9-0.5h129
	c0.4,0,0.7,0.2,0.9,0.5l9,16.5c0.2,0.3,0.2,0.7,0,1C325.6,97,325.3,97.2,325,97.2z M196.6,95.2h126.7l-7.9-14.5H188.7L196.6,95.2z"
	/>
<polygon class="st4" points="199,101.7 287.2,101.7 311.3,145.8 223.1,145.8 "/>
<path class="st5" d="M311.3,146.8h-88.2c-0.4,0-0.7-0.2-0.9-0.5l-24.1-44.1c-0.2-0.3-0.2-0.7,0-1c0.2-0.3,0.5-0.5,0.9-0.5h88.2
	c0.4,0,0.7,0.2,0.9,0.5l24.1,44.1c0.2,0.3,0.2,0.7,0,1C312,146.6,311.7,146.8,311.3,146.8z M223.7,144.8h86l-23-42.1h-86
	L223.7,144.8z"/>
<polygon class="st4" points="226.1,151.3 314.3,151.3 323.3,167.9 235.1,167.9 "/>
<path class="st5" d="M323.3,168.9h-88.2c-0.4,0-0.7-0.2-0.9-0.5l-9-16.5c-0.2-0.3-0.2-0.7,0-1c0.2-0.3,0.5-0.5,0.9-0.5h88.2
	c0.4,0,0.7,0.2,0.9,0.5l9,16.5c0.2,0.3,0.2,0.7,0,1C324,168.7,323.7,168.9,323.3,168.9z M235.7,166.9h86l-7.9-14.5h-86L235.7,166.9z
	"/>
<polygon class="st4" points="238.1,173.4 326.3,173.4 341.4,200.9 253.1,200.9 "/>
<path class="st5" d="M341.4,201.9h-88.2c-0.4,0-0.7-0.2-0.9-0.5l-15-27.6c-0.2-0.3-0.2-0.7,0-1c0.2-0.3,0.5-0.5,0.9-0.5h88.2
	c0.4,0,0.7,0.2,0.9,0.5l15,27.6c0.2,0.3,0.2,0.7,0,1C342.1,201.8,341.7,201.9,341.4,201.9z M253.7,199.9h86l-13.9-25.6h-86
	L253.7,199.9z"/>
<polygon class="st0" points="113.1,27.2 262.4,27.2 268.5,38.3 119.1,38.3 "/>
<path class="st6" d="M268.5,39.3H119.1c-0.4,0-0.7-0.2-0.9-0.5l-6-11c-0.2-0.3-0.2-0.7,0-1c0.2-0.3,0.5-0.5,0.9-0.5h149.3
	c0.4,0,0.7,0.2,0.9,0.5l6,11c0.2,0.3,0.2,0.7,0,1C269.1,39.1,268.8,39.3,268.5,39.3z M119.7,37.3h147l-4.9-9h-147L119.7,37.3z"/>
<polygon class="st0" points="275.5,27.2 290.1,27.2 296.1,38.3 281.5,38.3 "/>
<path class="st6" d="M296.1,39.3h-14.6c-0.4,0-0.7-0.2-0.9-0.5l-6-11c-0.2-0.3-0.2-0.7,0-1c0.2-0.3,0.5-0.5,0.9-0.5h14.6
	c0.4,0,0.7,0.2,0.9,0.5l6,11c0.2,0.3,0.2,0.7,0,1C296.8,39.1,296.5,39.3,296.1,39.3z M282.1,37.3h12.3l-4.9-9h-12.3L282.1,37.3z"/>
<polygon class="st0" points="185.5,60.3 212.6,60.3 221.6,76.9 194.5,76.9 "/>
<path class="st6" d="M221.6,77.9h-27.1c-0.4,0-0.7-0.2-0.9-0.5l-9-16.5c-0.2-0.3-0.2-0.7,0-1c0.2-0.3,0.5-0.5,0.9-0.5h27.1
	c0.4,0,0.7,0.2,0.9,0.5l9,16.5c0.2,0.3,0.2,0.7,0,1C222.3,77.7,222,77.9,221.6,77.9z M195.1,75.9H220L212,61.3h-24.9L195.1,75.9z"/>
<polygon class="st3" points="256,49 283.2,49 292.2,65.6 265.1,65.6 "/>
<path class="st7" d="M289.2,66.6h-2c-0.6,0-1-0.4-1-1c0-0.5,0.5-1,1-1h2c0.6,0,1,0.5,1,1C290.2,66.1,289.8,66.6,289.2,66.6z
	 M282.2,66.6h-2c-0.5,0-1-0.4-1-1c0-0.5,0.4-1,1-1h2c0.5,0,1,0.5,1,1C283.2,66.1,282.8,66.6,282.2,66.6z M275.2,66.6h-2
	c-0.6,0-1-0.4-1-1c0-0.5,0.5-1,1-1h2c0.6,0,1,0.5,1,1C276.2,66.1,275.8,66.6,275.2,66.6z M268.2,66.6h-2c-0.5,0-1-0.4-1-1
	c0-0.5,0.5-1,1-1h2c0.5,0,1,0.5,1,1C269.2,66.1,268.8,66.6,268.2,66.6z M291.3,64.8c-0.4,0-0.7-0.2-0.9-0.5l-1-1.7
	c-0.1-0.1-0.1-0.3-0.1-0.5c0-0.4,0.2-0.7,0.5-0.9c0.5-0.2,1.1-0.1,1.4,0.4l1,1.8c0.3,0.5,0.1,1.1-0.4,1.4
	C291.6,64.8,291.4,64.8,291.3,64.8z M263.2,63.2c-0.4,0-0.7-0.2-0.9-0.5l-1-1.8c-0.1-0.2-0.2-0.5-0.1-0.8c0.1-0.2,0.2-0.5,0.5-0.6
	c0.5-0.3,1.1-0.1,1.4,0.4l1,1.8c0.1,0.2,0.1,0.3,0.1,0.5c0,0.4-0.2,0.7-0.5,0.9C263.6,63.2,263.4,63.2,263.2,63.2z M287.9,58.7
	c-0.4,0-0.7-0.2-0.9-0.5l-1-1.8c-0.1-0.1-0.1-0.3-0.1-0.5c0-0.4,0.2-0.7,0.5-0.9c0.5-0.3,1.1-0.1,1.4,0.4l1,1.8
	c0.3,0.5,0.1,1.1-0.4,1.4C288.2,58.6,288.1,58.7,287.9,58.7z M259.9,57c-0.4,0-0.7-0.2-0.9-0.5l-0.9-1.8c-0.3-0.5-0.1-1.1,0.4-1.4
	c0.5-0.2,1.1-0.1,1.4,0.4l1,1.8c0.1,0.1,0.1,0.3,0.1,0.5c0,0.4-0.2,0.7-0.5,0.9C260.2,57,260,57,259.9,57z M284.6,52.5
	c-0.4,0-0.7-0.2-0.9-0.5l-1-1.8c-0.1-0.1-0.1-0.3-0.1-0.5c0-0.4,0.2-0.7,0.5-0.9c0.5-0.3,1.1-0.1,1.4,0.4l1,1.8
	c0.3,0.5,0.1,1.1-0.4,1.4C284.9,52.5,284.7,52.5,284.6,52.5z M256.5,50.9c-0.4,0-0.7-0.2-0.9-0.5l-0.5-0.9c-0.2-0.3-0.2-0.7,0-1
	c0.2-0.3,0.5-0.5,0.9-0.5h2c0.5,0,1,0.4,1,1c0,0.5-0.5,1-1,1h-0.5c0,0.3-0.2,0.6-0.5,0.8C256.8,50.9,256.7,50.9,256.5,50.9z M279,50
	h-2c-0.5,0-1-0.5-1-1c0-0.6,0.5-1,1-1h2c0.5,0,1,0.4,1,1C280,49.6,279.6,50,279,50z M272,50h-2c-0.5,0-1-0.5-1-1c0-0.6,0.5-1,1-1h2
	c0.5,0,1,0.4,1,1C273,49.6,272.6,50,272,50z M265,50h-2c-0.5,0-1-0.5-1-1c0-0.6,0.5-1,1-1h2c0.5,0,1,0.4,1,1
	C266,49.6,265.6,50,265,50z"/>
<polygon class="st0" points="197.5,82.4 245,82.4 260,110 212.5,110 "/>
<path class="st6" d="M260,111h-47.5c-0.4,0-0.7-0.2-0.9-0.5l-15-27.6c-0.2-0.3-0.2-0.7,0-1c0.2-0.3,0.5-0.5,0.9-0.5H245
	c0.4,0,0.7,0.2,0.9,0.5l15,27.6c0.2,0.3,0.2,0.7,0,1C260.7,110.8,260.4,111,260,111z M213.1,109h45.2l-13.9-25.6h-45.2L213.1,109z"
	/>
<polygon class="st0" points="215.5,115.5 303.8,115.5 309.8,126.5 221.6,126.5 "/>
<path class="st6" d="M309.8,127.5h-88.2c-0.4,0-0.7-0.2-0.9-0.5l-6-11c-0.2-0.3-0.2-0.7,0-1c0.2-0.3,0.5-0.5,0.9-0.5h88.2
	c0.4,0,0.7,0.2,0.9,0.5l6,11c0.2,0.3,0.2,0.7,0,1C310.5,127.3,310.1,127.5,309.8,127.5z M222.2,125.5h86l-4.9-9h-86L222.2,125.5z"/>
<polygon class="st0" points="236.6,154.1 324.8,154.1 330.8,165.1 242.6,165.1 "/>
<path class="st6" d="M330.8,166.1h-88.2c-0.4,0-0.7-0.2-0.9-0.5l-6-11c-0.2-0.3-0.2-0.7,0-1c0.2-0.3,0.5-0.5,0.9-0.5h88.2
	c0.4,0,0.7,0.2,0.9,0.5l6,11c0.2,0.3,0.2,0.7,0,1C331.5,165.9,331.2,166.1,330.8,166.1z M243.2,164.1h86l-4.9-9h-86L243.2,164.1z"/>
<polygon class="st0" points="293.1,170.6 333.9,170.6 336.9,176.1 296.1,176.1 "/>
<path class="st6" d="M336.9,177.1h-40.7c-0.4,0-0.7-0.2-0.9-0.5l-3-5.5c-0.2-0.3-0.2-0.7,0-1c0.2-0.3,0.5-0.5,0.9-0.5h40.7
	c0.4,0,0.7,0.2,0.9,0.5l3,5.5c0.2,0.3,0.2,0.7,0,1C337.5,176.9,337.2,177.1,336.9,177.1z M296.7,175.1h38.4l-1.9-3.5h-38.4
	L296.7,175.1z"/>
<polygon class="st8" points="224.6,132 265.3,132 268.3,137.5 227.6,137.5 "/>
<path class="st7" d="M268.3,138.5h-40.7c-0.4,0-0.7-0.2-0.9-0.5l-3-5.5c-0.2-0.3-0.2-0.7,0-1c0.2-0.3,0.5-0.5,0.9-0.5h40.7
	c0.4,0,0.7,0.2,0.9,0.5l3,5.5c0.2,0.3,0.2,0.7,0,1C269,138.3,268.6,138.5,268.3,138.5z M228.2,136.5h38.4l-1.9-3.5h-38.4
	L228.2,136.5z"/>
<polygon class="st8" points="124.4,60.3 178.7,60.3 187.7,76.9 133.4,76.9 "/>
<path class="st7" d="M187.7,77.9h-54.3c-0.4,0-0.7-0.2-0.9-0.5l-9-16.5c-0.2-0.3-0.2-0.7,0-1c0.2-0.3,0.5-0.5,0.9-0.5h54.3
	c0.4,0,0.7,0.2,0.9,0.5l9,16.5c0.2,0.3,0.2,0.7,0,1C188.4,77.7,188.1,77.9,187.7,77.9z M134,75.9h52l-7.9-14.5h-52L134,75.9z"/>
<rect x="281.3" y="32.2" class="st8" width="27" height="27"/>
<path class="st7" d="M308.4,59.9h-27c-0.3,0-0.6-0.3-0.6-0.6v-27c0-0.3,0.3-0.6,0.6-0.6h27c0.3,0,0.6,0.3,0.6,0.6v27
	C309,59.6,308.7,59.9,308.4,59.9z M281.9,58.7h25.8V32.8h-25.8V58.7z"/>
<path class="st0" d="M308.9,49.6c1-0.3,2,0.3,2.2,1.3c0.4,1.5,0.5,3.1,0.4,4.6l-0.2,2.6c0,0.2,0,0.5,0.1,0.7l0.4,1.4l-7.9,2.1
	l-0.4-1.4c0-0.1-0.1-0.2-0.2-0.3l-3.2-1.6c-0.6-0.3-1-0.8-1.2-1.5l0,0c-0.3-1.2,0.4-2.5,1.6-2.9l0.4-0.1l-0.6-2.3
	c-0.3-1,0.2-2,1.1-2.5c0.5-0.3,1.1-0.2,1.7,0c0.3-0.4,0.6-0.6,1.1-0.7c0.6-0.2,1.2,0,1.7,0.3c0.2-0.2,0.5-0.4,0.9-0.5
	c0.9-0.2,1.7,0.1,2.2,0.8C308.9,49.7,308.9,49.7,308.9,49.6z"/>
<path d="M303.4,63l-0.5-1.9l-3.1-1.5c-0.8-0.4-1.3-1.1-1.5-1.9c-0.4-1.5,0.4-3,1.9-3.5l-0.5-1.8c-0.3-1.3,0.2-2.6,1.4-3.2
	c0.6-0.3,1.2-0.3,1.7-0.2c0.3-0.3,0.7-0.5,1.1-0.6c0.6-0.2,1.2-0.1,1.8,0.1c0.2-0.2,0.5-0.3,0.8-0.4c0.9-0.3,1.9,0,2.6,0.7
	c1.2-0.2,2.4,0.6,2.7,1.8c0.4,1.6,0.6,3.2,0.4,4.8l-0.2,2.6c0,0.1,0,0.3,0.1,0.5l0.5,1.9L303.4,63z M302.2,50.2
	c-0.2,0-0.4,0-0.6,0.1c-0.6,0.3-1,1-0.8,1.8l0.8,2.9l-1,0.3c-0.9,0.2-1.5,1.2-1.2,2.1c0.1,0.5,0.5,0.9,0.9,1.1l3.2,1.6
	c0.3,0.1,0.5,0.4,0.6,0.7l0.2,0.8l6.7-1.8l-0.2-0.8c-0.1-0.3-0.1-0.6-0.1-0.9l0.2-2.6c0.1-1.5,0-3-0.4-4.4c-0.2-0.6-0.9-1-1.5-0.9
	l-0.5,0.2l-0.3-0.4c-0.3-0.5-1-0.7-1.6-0.6c-0.2,0.1-0.4,0.2-0.6,0.3l-0.3,0.3l-0.4-0.3c-0.3-0.2-0.8-0.3-1.2-0.2
	c-0.3,0.1-0.6,0.3-0.8,0.5l-0.3,0.4l-0.4-0.2C302.6,50.3,302.4,50.2,302.2,50.2z"/>
<path d="M305.7,57.8c-0.3,0-0.5-0.2-0.6-0.4l-1.1-4c-0.1-0.3,0.1-0.7,0.4-0.7c0.3-0.1,0.7,0.1,0.7,0.4l1.1,4
	c0.1,0.3-0.1,0.7-0.4,0.7C305.8,57.8,305.8,57.8,305.7,57.8z"/>
<path d="M308.4,57.2c-0.3,0-0.5-0.2-0.6-0.5l-0.6-3.6c-0.1-0.3,0.2-0.6,0.5-0.7c0.3-0.1,0.6,0.2,0.7,0.5l0.6,3.6
	c0.1,0.3-0.2,0.6-0.5,0.7C308.5,57.1,308.4,57.2,308.4,57.2z"/>
<polygon class="st4" points="192.5,218.1 382.6,218.1 410.5,269.3 220.5,269.3 "/>
<g>
	<circle class="st0" cx="104.4" cy="104" r="6.1"/>
	<path d="M104.4,110.7c-1.2,0-2.3-0.3-3.4-0.9c-3.2-1.9-4.3-6-2.5-9.2c1.9-3.2,6-4.3,9.2-2.5l0,0c1.6,0.9,2.7,2.4,3.1,4.1
		c0.5,1.7,0.2,3.6-0.7,5.1c-0.9,1.6-2.4,2.7-4.1,3.1C105.6,110.6,105,110.7,104.4,110.7z M104.5,98.4c-0.5,0-1,0.1-1.4,0.2
		c-1.4,0.4-2.6,1.3-3.4,2.6c-1.5,2.6-0.6,6,2,7.6c1.3,0.7,2.8,0.9,4.2,0.6c1.4-0.4,2.6-1.3,3.4-2.6c0.7-1.3,0.9-2.8,0.6-4.2
		c-0.4-1.4-1.3-2.6-2.6-3.4l0,0C106.4,98.7,105.4,98.4,104.5,98.4z"/>
	<path class="st9" d="M100.2,108.6l2.4,1.4l-2.2,3.8c-0.2,0.3-0.5,0.5-0.8,0.6c-0.3,0.1-0.7,0-1-0.1c0,0,0,0,0,0
		c-0.3-0.2-0.5-0.5-0.6-0.8c-0.1-0.3,0-0.7,0.1-1C98.9,110.9,100.2,108.6,100.2,108.6z"/>
	<rect x="103.5" y="100.6" width="1.8" height="6.8"/>
	<rect x="101" y="103.1" width="6.8" height="1.8"/>
</g>
<path class="st8" d="M57.9,200.8h35.3c17.2,0,31.2-14,31.2-31.2v0c0-17.2-14-31.2-31.2-31.2H57.9c-17.2,0-31.2,14-31.2,31.2v0
	C26.7,186.8,40.7,200.8,57.9,200.8z"/>
<circle class="st0" cx="96.8" cy="170.6" r="4"/>
<circle class="st0" cx="75.6" cy="170.6" r="4"/>
<circle class="st0" cx="54.3" cy="170.6" r="4"/>
<polygon class="st8" points="50,196.7 50,218.1 82.6,196.7 "/>
<circle class="st8" cx="381.6" cy="104.8" r="3"/>
<g>
	<polygon class="st10" points="383.6,103.8 395.9,103.8 399,98.4 395.9,93.1 389.8,93.1 	"/>
	<circle class="st9" cx="392.8" cy="98.4" r="1.6"/>
	<line class="st10" x1="383.6" y1="103.8" x2="392.8" y2="98.4"/>
	<rect x="393.8" y="93.4" transform="matrix(-0.5 -0.866 0.866 -0.5 515.9761 487.8443)" class="st10" width="10" height="3.1"/>
</g>
<rect x="365.8" y="77.2" class="st8" width="4" height="4"/>
<rect x="393.9" y="128.8" class="st8" width="4" height="4"/>
<path class="st8" d="M381.6,104.8"/>
<line class="st11" x1="367.8" y1="78.8" x2="395.9" y2="130.8"/>
<circle class="st4" cx="410.3" cy="50.4" r="2.5"/>
<circle class="st4" cx="460.7" cy="226.7" r="2.5"/>
</svg>
